G75*
%MOIN*%
%OFA0B0*%
%FSLAX25Y25*%
%IPPOS*%
%LPD*%
%AMOC8*
5,1,8,0,0,1.08239X$1,22.5*
%
%ADD10C,0.01000*%
%ADD11C,0.07300*%
%ADD12C,0.07400*%
%ADD13C,0.00000*%
%ADD14R,0.07400X0.07400*%
%ADD15C,0.07400*%
%ADD16OC8,0.05800*%
%ADD17R,0.05118X0.05906*%
%ADD18R,0.04724X0.04724*%
%ADD19C,0.06600*%
%ADD20OC8,0.06600*%
%ADD21OC8,0.06300*%
%ADD22C,0.10000*%
%ADD23C,0.08600*%
%ADD24C,0.02400*%
%ADD25C,0.03200*%
%ADD26C,0.04000*%
%ADD27C,0.01600*%
%ADD28C,0.04400*%
D10*
X0039800Y0028800D02*
X0039800Y0216261D01*
X0314001Y0216261D01*
X0314001Y0028800D01*
X0039800Y0028800D01*
X0061800Y0059300D02*
X0061666Y0059800D01*
X0061800Y0059925D01*
X0069934Y0059800D02*
X0070550Y0059300D01*
X0114925Y0059300D01*
X0118050Y0056175D01*
X0118060Y0055800D01*
X0125540Y0055800D02*
X0125550Y0056175D01*
X0125550Y0060550D01*
X0124300Y0061800D01*
X0109300Y0061800D01*
X0104300Y0066800D01*
X0116800Y0072425D02*
X0118050Y0071175D01*
X0118060Y0070800D01*
X0116800Y0072425D02*
X0070550Y0072425D01*
X0069934Y0072800D01*
X0061800Y0073050D02*
X0061666Y0072800D01*
X0061800Y0072425D01*
X0061800Y0085550D02*
X0061666Y0085800D01*
X0061800Y0086175D01*
X0069934Y0085800D02*
X0070550Y0085550D01*
X0095550Y0085550D01*
X0101800Y0079300D01*
X0121800Y0079300D01*
X0124300Y0081800D01*
X0124300Y0084560D01*
X0125540Y0085800D01*
X0125550Y0085550D01*
X0118675Y0086175D02*
X0118060Y0085800D01*
X0118675Y0086175D02*
X0118675Y0092425D01*
X0084625Y0092425D01*
X0084600Y0092400D01*
X0070550Y0099300D02*
X0069934Y0098800D01*
X0070550Y0099300D02*
X0113675Y0099300D01*
X0118050Y0103675D01*
X0118060Y0103800D01*
X0125540Y0103800D02*
X0125540Y0100560D01*
X0139300Y0086800D01*
X0139300Y0069300D01*
X0148050Y0070550D02*
X0148060Y0070800D01*
X0148050Y0071175D01*
X0155540Y0070800D02*
X0176981Y0070800D01*
X0204300Y0098119D01*
X0194300Y0124300D02*
X0194300Y0133119D01*
X0204300Y0143119D01*
X0191879Y0144379D02*
X0191175Y0144925D01*
X0191131Y0144379D01*
X0163050Y0126800D02*
X0163300Y0126300D01*
X0117800Y0171800D01*
X0064300Y0171800D01*
X0054300Y0171800D02*
X0047900Y0165400D01*
X0047900Y0138200D01*
X0066800Y0119300D01*
X0089300Y0119300D01*
X0104300Y0104300D01*
X0110040Y0114300D02*
X0100040Y0124300D01*
X0089300Y0124300D01*
X0071800Y0124300D01*
X0054300Y0141800D01*
X0064300Y0141800D02*
X0118675Y0141800D01*
X0133050Y0127425D01*
X0133300Y0127300D01*
X0143050Y0126800D02*
X0143300Y0126300D01*
X0143050Y0126800D02*
X0118050Y0151800D01*
X0064300Y0151800D01*
X0069200Y0156900D02*
X0064300Y0161800D01*
X0069200Y0156900D02*
X0123500Y0156900D01*
X0126100Y0154300D01*
X0126175Y0154300D01*
X0153050Y0127425D01*
X0153300Y0127300D01*
X0149300Y0114300D02*
X0139425Y0114300D01*
X0138500Y0115225D01*
X0149300Y0114300D02*
X0155550Y0108050D01*
X0155550Y0104300D01*
X0155540Y0103800D01*
X0148060Y0103800D02*
X0148050Y0103675D01*
X0125540Y0103800D02*
X0125540Y0108060D01*
X0119300Y0114300D01*
X0110040Y0114300D01*
X0096800Y0131800D02*
X0089300Y0124300D01*
X0061800Y0098675D02*
X0061666Y0098800D01*
X0061175Y0099300D01*
X0044300Y0116175D02*
X0044300Y0116200D01*
X0088925Y0079600D02*
X0089000Y0079600D01*
X0091800Y0076800D01*
X0131175Y0076800D01*
X0133050Y0078675D01*
X0131175Y0076800D02*
X0125550Y0071175D01*
X0125540Y0070800D01*
X0125550Y0070550D01*
X0131800Y0064300D01*
X0131800Y0047800D01*
X0143300Y0036300D01*
X0143050Y0036800D01*
X0133300Y0037300D02*
X0133050Y0037425D01*
X0125550Y0044925D01*
X0125550Y0055550D01*
X0125540Y0055800D01*
X0138275Y0048275D02*
X0201644Y0048275D01*
X0204300Y0045619D01*
X0166800Y0056175D02*
X0155550Y0056175D01*
X0155540Y0055800D01*
X0148060Y0055800D02*
X0148050Y0055550D01*
X0148060Y0055800D02*
X0148050Y0056175D01*
X0124300Y0039300D02*
X0124300Y0037300D01*
X0123300Y0036300D01*
X0124300Y0039300D02*
X0116800Y0046800D01*
X0103300Y0046800D01*
X0096800Y0053300D01*
X0113050Y0037425D02*
X0113300Y0037300D01*
X0148050Y0085550D02*
X0148060Y0085800D01*
X0148050Y0086175D01*
X0155540Y0085800D02*
X0155800Y0085800D01*
X0194300Y0124300D01*
X0149300Y0184300D02*
X0152981Y0188119D01*
X0204300Y0188119D01*
X0084831Y0205087D02*
X0084300Y0204925D01*
D11*
X0284150Y0171800D02*
X0291450Y0171800D01*
X0291450Y0151800D02*
X0284150Y0151800D01*
X0284050Y0131328D02*
X0291350Y0131328D01*
X0291350Y0111643D02*
X0284050Y0111643D01*
X0284050Y0091957D02*
X0291350Y0091957D01*
X0291350Y0072272D02*
X0284050Y0072272D01*
D12*
X0194831Y0144379D02*
X0187431Y0144379D01*
X0187431Y0164457D02*
X0194831Y0164457D01*
X0088531Y0165245D02*
X0081131Y0165245D01*
X0081131Y0205087D02*
X0088531Y0205087D01*
D13*
X0044894Y0205800D02*
X0044896Y0205953D01*
X0044902Y0206107D01*
X0044912Y0206260D01*
X0044926Y0206412D01*
X0044944Y0206565D01*
X0044966Y0206716D01*
X0044991Y0206867D01*
X0045021Y0207018D01*
X0045055Y0207168D01*
X0045092Y0207316D01*
X0045133Y0207464D01*
X0045178Y0207610D01*
X0045227Y0207756D01*
X0045280Y0207900D01*
X0045336Y0208042D01*
X0045396Y0208183D01*
X0045460Y0208323D01*
X0045527Y0208461D01*
X0045598Y0208597D01*
X0045673Y0208731D01*
X0045750Y0208863D01*
X0045832Y0208993D01*
X0045916Y0209121D01*
X0046004Y0209247D01*
X0046095Y0209370D01*
X0046189Y0209491D01*
X0046287Y0209609D01*
X0046387Y0209725D01*
X0046491Y0209838D01*
X0046597Y0209949D01*
X0046706Y0210057D01*
X0046818Y0210162D01*
X0046932Y0210263D01*
X0047050Y0210362D01*
X0047169Y0210458D01*
X0047291Y0210551D01*
X0047416Y0210640D01*
X0047543Y0210727D01*
X0047672Y0210809D01*
X0047803Y0210889D01*
X0047936Y0210965D01*
X0048071Y0211038D01*
X0048208Y0211107D01*
X0048347Y0211172D01*
X0048487Y0211234D01*
X0048629Y0211292D01*
X0048772Y0211347D01*
X0048917Y0211398D01*
X0049063Y0211445D01*
X0049210Y0211488D01*
X0049358Y0211527D01*
X0049507Y0211563D01*
X0049657Y0211594D01*
X0049808Y0211622D01*
X0049959Y0211646D01*
X0050112Y0211666D01*
X0050264Y0211682D01*
X0050417Y0211694D01*
X0050570Y0211702D01*
X0050723Y0211706D01*
X0050877Y0211706D01*
X0051030Y0211702D01*
X0051183Y0211694D01*
X0051336Y0211682D01*
X0051488Y0211666D01*
X0051641Y0211646D01*
X0051792Y0211622D01*
X0051943Y0211594D01*
X0052093Y0211563D01*
X0052242Y0211527D01*
X0052390Y0211488D01*
X0052537Y0211445D01*
X0052683Y0211398D01*
X0052828Y0211347D01*
X0052971Y0211292D01*
X0053113Y0211234D01*
X0053253Y0211172D01*
X0053392Y0211107D01*
X0053529Y0211038D01*
X0053664Y0210965D01*
X0053797Y0210889D01*
X0053928Y0210809D01*
X0054057Y0210727D01*
X0054184Y0210640D01*
X0054309Y0210551D01*
X0054431Y0210458D01*
X0054550Y0210362D01*
X0054668Y0210263D01*
X0054782Y0210162D01*
X0054894Y0210057D01*
X0055003Y0209949D01*
X0055109Y0209838D01*
X0055213Y0209725D01*
X0055313Y0209609D01*
X0055411Y0209491D01*
X0055505Y0209370D01*
X0055596Y0209247D01*
X0055684Y0209121D01*
X0055768Y0208993D01*
X0055850Y0208863D01*
X0055927Y0208731D01*
X0056002Y0208597D01*
X0056073Y0208461D01*
X0056140Y0208323D01*
X0056204Y0208183D01*
X0056264Y0208042D01*
X0056320Y0207900D01*
X0056373Y0207756D01*
X0056422Y0207610D01*
X0056467Y0207464D01*
X0056508Y0207316D01*
X0056545Y0207168D01*
X0056579Y0207018D01*
X0056609Y0206867D01*
X0056634Y0206716D01*
X0056656Y0206565D01*
X0056674Y0206412D01*
X0056688Y0206260D01*
X0056698Y0206107D01*
X0056704Y0205953D01*
X0056706Y0205800D01*
X0056704Y0205647D01*
X0056698Y0205493D01*
X0056688Y0205340D01*
X0056674Y0205188D01*
X0056656Y0205035D01*
X0056634Y0204884D01*
X0056609Y0204733D01*
X0056579Y0204582D01*
X0056545Y0204432D01*
X0056508Y0204284D01*
X0056467Y0204136D01*
X0056422Y0203990D01*
X0056373Y0203844D01*
X0056320Y0203700D01*
X0056264Y0203558D01*
X0056204Y0203417D01*
X0056140Y0203277D01*
X0056073Y0203139D01*
X0056002Y0203003D01*
X0055927Y0202869D01*
X0055850Y0202737D01*
X0055768Y0202607D01*
X0055684Y0202479D01*
X0055596Y0202353D01*
X0055505Y0202230D01*
X0055411Y0202109D01*
X0055313Y0201991D01*
X0055213Y0201875D01*
X0055109Y0201762D01*
X0055003Y0201651D01*
X0054894Y0201543D01*
X0054782Y0201438D01*
X0054668Y0201337D01*
X0054550Y0201238D01*
X0054431Y0201142D01*
X0054309Y0201049D01*
X0054184Y0200960D01*
X0054057Y0200873D01*
X0053928Y0200791D01*
X0053797Y0200711D01*
X0053664Y0200635D01*
X0053529Y0200562D01*
X0053392Y0200493D01*
X0053253Y0200428D01*
X0053113Y0200366D01*
X0052971Y0200308D01*
X0052828Y0200253D01*
X0052683Y0200202D01*
X0052537Y0200155D01*
X0052390Y0200112D01*
X0052242Y0200073D01*
X0052093Y0200037D01*
X0051943Y0200006D01*
X0051792Y0199978D01*
X0051641Y0199954D01*
X0051488Y0199934D01*
X0051336Y0199918D01*
X0051183Y0199906D01*
X0051030Y0199898D01*
X0050877Y0199894D01*
X0050723Y0199894D01*
X0050570Y0199898D01*
X0050417Y0199906D01*
X0050264Y0199918D01*
X0050112Y0199934D01*
X0049959Y0199954D01*
X0049808Y0199978D01*
X0049657Y0200006D01*
X0049507Y0200037D01*
X0049358Y0200073D01*
X0049210Y0200112D01*
X0049063Y0200155D01*
X0048917Y0200202D01*
X0048772Y0200253D01*
X0048629Y0200308D01*
X0048487Y0200366D01*
X0048347Y0200428D01*
X0048208Y0200493D01*
X0048071Y0200562D01*
X0047936Y0200635D01*
X0047803Y0200711D01*
X0047672Y0200791D01*
X0047543Y0200873D01*
X0047416Y0200960D01*
X0047291Y0201049D01*
X0047169Y0201142D01*
X0047050Y0201238D01*
X0046932Y0201337D01*
X0046818Y0201438D01*
X0046706Y0201543D01*
X0046597Y0201651D01*
X0046491Y0201762D01*
X0046387Y0201875D01*
X0046287Y0201991D01*
X0046189Y0202109D01*
X0046095Y0202230D01*
X0046004Y0202353D01*
X0045916Y0202479D01*
X0045832Y0202607D01*
X0045750Y0202737D01*
X0045673Y0202869D01*
X0045598Y0203003D01*
X0045527Y0203139D01*
X0045460Y0203277D01*
X0045396Y0203417D01*
X0045336Y0203558D01*
X0045280Y0203700D01*
X0045227Y0203844D01*
X0045178Y0203990D01*
X0045133Y0204136D01*
X0045092Y0204284D01*
X0045055Y0204432D01*
X0045021Y0204582D01*
X0044991Y0204733D01*
X0044966Y0204884D01*
X0044944Y0205035D01*
X0044926Y0205188D01*
X0044912Y0205340D01*
X0044902Y0205493D01*
X0044896Y0205647D01*
X0044894Y0205800D01*
X0297394Y0205800D02*
X0297396Y0205953D01*
X0297402Y0206107D01*
X0297412Y0206260D01*
X0297426Y0206412D01*
X0297444Y0206565D01*
X0297466Y0206716D01*
X0297491Y0206867D01*
X0297521Y0207018D01*
X0297555Y0207168D01*
X0297592Y0207316D01*
X0297633Y0207464D01*
X0297678Y0207610D01*
X0297727Y0207756D01*
X0297780Y0207900D01*
X0297836Y0208042D01*
X0297896Y0208183D01*
X0297960Y0208323D01*
X0298027Y0208461D01*
X0298098Y0208597D01*
X0298173Y0208731D01*
X0298250Y0208863D01*
X0298332Y0208993D01*
X0298416Y0209121D01*
X0298504Y0209247D01*
X0298595Y0209370D01*
X0298689Y0209491D01*
X0298787Y0209609D01*
X0298887Y0209725D01*
X0298991Y0209838D01*
X0299097Y0209949D01*
X0299206Y0210057D01*
X0299318Y0210162D01*
X0299432Y0210263D01*
X0299550Y0210362D01*
X0299669Y0210458D01*
X0299791Y0210551D01*
X0299916Y0210640D01*
X0300043Y0210727D01*
X0300172Y0210809D01*
X0300303Y0210889D01*
X0300436Y0210965D01*
X0300571Y0211038D01*
X0300708Y0211107D01*
X0300847Y0211172D01*
X0300987Y0211234D01*
X0301129Y0211292D01*
X0301272Y0211347D01*
X0301417Y0211398D01*
X0301563Y0211445D01*
X0301710Y0211488D01*
X0301858Y0211527D01*
X0302007Y0211563D01*
X0302157Y0211594D01*
X0302308Y0211622D01*
X0302459Y0211646D01*
X0302612Y0211666D01*
X0302764Y0211682D01*
X0302917Y0211694D01*
X0303070Y0211702D01*
X0303223Y0211706D01*
X0303377Y0211706D01*
X0303530Y0211702D01*
X0303683Y0211694D01*
X0303836Y0211682D01*
X0303988Y0211666D01*
X0304141Y0211646D01*
X0304292Y0211622D01*
X0304443Y0211594D01*
X0304593Y0211563D01*
X0304742Y0211527D01*
X0304890Y0211488D01*
X0305037Y0211445D01*
X0305183Y0211398D01*
X0305328Y0211347D01*
X0305471Y0211292D01*
X0305613Y0211234D01*
X0305753Y0211172D01*
X0305892Y0211107D01*
X0306029Y0211038D01*
X0306164Y0210965D01*
X0306297Y0210889D01*
X0306428Y0210809D01*
X0306557Y0210727D01*
X0306684Y0210640D01*
X0306809Y0210551D01*
X0306931Y0210458D01*
X0307050Y0210362D01*
X0307168Y0210263D01*
X0307282Y0210162D01*
X0307394Y0210057D01*
X0307503Y0209949D01*
X0307609Y0209838D01*
X0307713Y0209725D01*
X0307813Y0209609D01*
X0307911Y0209491D01*
X0308005Y0209370D01*
X0308096Y0209247D01*
X0308184Y0209121D01*
X0308268Y0208993D01*
X0308350Y0208863D01*
X0308427Y0208731D01*
X0308502Y0208597D01*
X0308573Y0208461D01*
X0308640Y0208323D01*
X0308704Y0208183D01*
X0308764Y0208042D01*
X0308820Y0207900D01*
X0308873Y0207756D01*
X0308922Y0207610D01*
X0308967Y0207464D01*
X0309008Y0207316D01*
X0309045Y0207168D01*
X0309079Y0207018D01*
X0309109Y0206867D01*
X0309134Y0206716D01*
X0309156Y0206565D01*
X0309174Y0206412D01*
X0309188Y0206260D01*
X0309198Y0206107D01*
X0309204Y0205953D01*
X0309206Y0205800D01*
X0309204Y0205647D01*
X0309198Y0205493D01*
X0309188Y0205340D01*
X0309174Y0205188D01*
X0309156Y0205035D01*
X0309134Y0204884D01*
X0309109Y0204733D01*
X0309079Y0204582D01*
X0309045Y0204432D01*
X0309008Y0204284D01*
X0308967Y0204136D01*
X0308922Y0203990D01*
X0308873Y0203844D01*
X0308820Y0203700D01*
X0308764Y0203558D01*
X0308704Y0203417D01*
X0308640Y0203277D01*
X0308573Y0203139D01*
X0308502Y0203003D01*
X0308427Y0202869D01*
X0308350Y0202737D01*
X0308268Y0202607D01*
X0308184Y0202479D01*
X0308096Y0202353D01*
X0308005Y0202230D01*
X0307911Y0202109D01*
X0307813Y0201991D01*
X0307713Y0201875D01*
X0307609Y0201762D01*
X0307503Y0201651D01*
X0307394Y0201543D01*
X0307282Y0201438D01*
X0307168Y0201337D01*
X0307050Y0201238D01*
X0306931Y0201142D01*
X0306809Y0201049D01*
X0306684Y0200960D01*
X0306557Y0200873D01*
X0306428Y0200791D01*
X0306297Y0200711D01*
X0306164Y0200635D01*
X0306029Y0200562D01*
X0305892Y0200493D01*
X0305753Y0200428D01*
X0305613Y0200366D01*
X0305471Y0200308D01*
X0305328Y0200253D01*
X0305183Y0200202D01*
X0305037Y0200155D01*
X0304890Y0200112D01*
X0304742Y0200073D01*
X0304593Y0200037D01*
X0304443Y0200006D01*
X0304292Y0199978D01*
X0304141Y0199954D01*
X0303988Y0199934D01*
X0303836Y0199918D01*
X0303683Y0199906D01*
X0303530Y0199898D01*
X0303377Y0199894D01*
X0303223Y0199894D01*
X0303070Y0199898D01*
X0302917Y0199906D01*
X0302764Y0199918D01*
X0302612Y0199934D01*
X0302459Y0199954D01*
X0302308Y0199978D01*
X0302157Y0200006D01*
X0302007Y0200037D01*
X0301858Y0200073D01*
X0301710Y0200112D01*
X0301563Y0200155D01*
X0301417Y0200202D01*
X0301272Y0200253D01*
X0301129Y0200308D01*
X0300987Y0200366D01*
X0300847Y0200428D01*
X0300708Y0200493D01*
X0300571Y0200562D01*
X0300436Y0200635D01*
X0300303Y0200711D01*
X0300172Y0200791D01*
X0300043Y0200873D01*
X0299916Y0200960D01*
X0299791Y0201049D01*
X0299669Y0201142D01*
X0299550Y0201238D01*
X0299432Y0201337D01*
X0299318Y0201438D01*
X0299206Y0201543D01*
X0299097Y0201651D01*
X0298991Y0201762D01*
X0298887Y0201875D01*
X0298787Y0201991D01*
X0298689Y0202109D01*
X0298595Y0202230D01*
X0298504Y0202353D01*
X0298416Y0202479D01*
X0298332Y0202607D01*
X0298250Y0202737D01*
X0298173Y0202869D01*
X0298098Y0203003D01*
X0298027Y0203139D01*
X0297960Y0203277D01*
X0297896Y0203417D01*
X0297836Y0203558D01*
X0297780Y0203700D01*
X0297727Y0203844D01*
X0297678Y0203990D01*
X0297633Y0204136D01*
X0297592Y0204284D01*
X0297555Y0204432D01*
X0297521Y0204582D01*
X0297491Y0204733D01*
X0297466Y0204884D01*
X0297444Y0205035D01*
X0297426Y0205188D01*
X0297412Y0205340D01*
X0297402Y0205493D01*
X0297396Y0205647D01*
X0297394Y0205800D01*
X0297394Y0038800D02*
X0297396Y0038953D01*
X0297402Y0039107D01*
X0297412Y0039260D01*
X0297426Y0039412D01*
X0297444Y0039565D01*
X0297466Y0039716D01*
X0297491Y0039867D01*
X0297521Y0040018D01*
X0297555Y0040168D01*
X0297592Y0040316D01*
X0297633Y0040464D01*
X0297678Y0040610D01*
X0297727Y0040756D01*
X0297780Y0040900D01*
X0297836Y0041042D01*
X0297896Y0041183D01*
X0297960Y0041323D01*
X0298027Y0041461D01*
X0298098Y0041597D01*
X0298173Y0041731D01*
X0298250Y0041863D01*
X0298332Y0041993D01*
X0298416Y0042121D01*
X0298504Y0042247D01*
X0298595Y0042370D01*
X0298689Y0042491D01*
X0298787Y0042609D01*
X0298887Y0042725D01*
X0298991Y0042838D01*
X0299097Y0042949D01*
X0299206Y0043057D01*
X0299318Y0043162D01*
X0299432Y0043263D01*
X0299550Y0043362D01*
X0299669Y0043458D01*
X0299791Y0043551D01*
X0299916Y0043640D01*
X0300043Y0043727D01*
X0300172Y0043809D01*
X0300303Y0043889D01*
X0300436Y0043965D01*
X0300571Y0044038D01*
X0300708Y0044107D01*
X0300847Y0044172D01*
X0300987Y0044234D01*
X0301129Y0044292D01*
X0301272Y0044347D01*
X0301417Y0044398D01*
X0301563Y0044445D01*
X0301710Y0044488D01*
X0301858Y0044527D01*
X0302007Y0044563D01*
X0302157Y0044594D01*
X0302308Y0044622D01*
X0302459Y0044646D01*
X0302612Y0044666D01*
X0302764Y0044682D01*
X0302917Y0044694D01*
X0303070Y0044702D01*
X0303223Y0044706D01*
X0303377Y0044706D01*
X0303530Y0044702D01*
X0303683Y0044694D01*
X0303836Y0044682D01*
X0303988Y0044666D01*
X0304141Y0044646D01*
X0304292Y0044622D01*
X0304443Y0044594D01*
X0304593Y0044563D01*
X0304742Y0044527D01*
X0304890Y0044488D01*
X0305037Y0044445D01*
X0305183Y0044398D01*
X0305328Y0044347D01*
X0305471Y0044292D01*
X0305613Y0044234D01*
X0305753Y0044172D01*
X0305892Y0044107D01*
X0306029Y0044038D01*
X0306164Y0043965D01*
X0306297Y0043889D01*
X0306428Y0043809D01*
X0306557Y0043727D01*
X0306684Y0043640D01*
X0306809Y0043551D01*
X0306931Y0043458D01*
X0307050Y0043362D01*
X0307168Y0043263D01*
X0307282Y0043162D01*
X0307394Y0043057D01*
X0307503Y0042949D01*
X0307609Y0042838D01*
X0307713Y0042725D01*
X0307813Y0042609D01*
X0307911Y0042491D01*
X0308005Y0042370D01*
X0308096Y0042247D01*
X0308184Y0042121D01*
X0308268Y0041993D01*
X0308350Y0041863D01*
X0308427Y0041731D01*
X0308502Y0041597D01*
X0308573Y0041461D01*
X0308640Y0041323D01*
X0308704Y0041183D01*
X0308764Y0041042D01*
X0308820Y0040900D01*
X0308873Y0040756D01*
X0308922Y0040610D01*
X0308967Y0040464D01*
X0309008Y0040316D01*
X0309045Y0040168D01*
X0309079Y0040018D01*
X0309109Y0039867D01*
X0309134Y0039716D01*
X0309156Y0039565D01*
X0309174Y0039412D01*
X0309188Y0039260D01*
X0309198Y0039107D01*
X0309204Y0038953D01*
X0309206Y0038800D01*
X0309204Y0038647D01*
X0309198Y0038493D01*
X0309188Y0038340D01*
X0309174Y0038188D01*
X0309156Y0038035D01*
X0309134Y0037884D01*
X0309109Y0037733D01*
X0309079Y0037582D01*
X0309045Y0037432D01*
X0309008Y0037284D01*
X0308967Y0037136D01*
X0308922Y0036990D01*
X0308873Y0036844D01*
X0308820Y0036700D01*
X0308764Y0036558D01*
X0308704Y0036417D01*
X0308640Y0036277D01*
X0308573Y0036139D01*
X0308502Y0036003D01*
X0308427Y0035869D01*
X0308350Y0035737D01*
X0308268Y0035607D01*
X0308184Y0035479D01*
X0308096Y0035353D01*
X0308005Y0035230D01*
X0307911Y0035109D01*
X0307813Y0034991D01*
X0307713Y0034875D01*
X0307609Y0034762D01*
X0307503Y0034651D01*
X0307394Y0034543D01*
X0307282Y0034438D01*
X0307168Y0034337D01*
X0307050Y0034238D01*
X0306931Y0034142D01*
X0306809Y0034049D01*
X0306684Y0033960D01*
X0306557Y0033873D01*
X0306428Y0033791D01*
X0306297Y0033711D01*
X0306164Y0033635D01*
X0306029Y0033562D01*
X0305892Y0033493D01*
X0305753Y0033428D01*
X0305613Y0033366D01*
X0305471Y0033308D01*
X0305328Y0033253D01*
X0305183Y0033202D01*
X0305037Y0033155D01*
X0304890Y0033112D01*
X0304742Y0033073D01*
X0304593Y0033037D01*
X0304443Y0033006D01*
X0304292Y0032978D01*
X0304141Y0032954D01*
X0303988Y0032934D01*
X0303836Y0032918D01*
X0303683Y0032906D01*
X0303530Y0032898D01*
X0303377Y0032894D01*
X0303223Y0032894D01*
X0303070Y0032898D01*
X0302917Y0032906D01*
X0302764Y0032918D01*
X0302612Y0032934D01*
X0302459Y0032954D01*
X0302308Y0032978D01*
X0302157Y0033006D01*
X0302007Y0033037D01*
X0301858Y0033073D01*
X0301710Y0033112D01*
X0301563Y0033155D01*
X0301417Y0033202D01*
X0301272Y0033253D01*
X0301129Y0033308D01*
X0300987Y0033366D01*
X0300847Y0033428D01*
X0300708Y0033493D01*
X0300571Y0033562D01*
X0300436Y0033635D01*
X0300303Y0033711D01*
X0300172Y0033791D01*
X0300043Y0033873D01*
X0299916Y0033960D01*
X0299791Y0034049D01*
X0299669Y0034142D01*
X0299550Y0034238D01*
X0299432Y0034337D01*
X0299318Y0034438D01*
X0299206Y0034543D01*
X0299097Y0034651D01*
X0298991Y0034762D01*
X0298887Y0034875D01*
X0298787Y0034991D01*
X0298689Y0035109D01*
X0298595Y0035230D01*
X0298504Y0035353D01*
X0298416Y0035479D01*
X0298332Y0035607D01*
X0298250Y0035737D01*
X0298173Y0035869D01*
X0298098Y0036003D01*
X0298027Y0036139D01*
X0297960Y0036277D01*
X0297896Y0036417D01*
X0297836Y0036558D01*
X0297780Y0036700D01*
X0297727Y0036844D01*
X0297678Y0036990D01*
X0297633Y0037136D01*
X0297592Y0037284D01*
X0297555Y0037432D01*
X0297521Y0037582D01*
X0297491Y0037733D01*
X0297466Y0037884D01*
X0297444Y0038035D01*
X0297426Y0038188D01*
X0297412Y0038340D01*
X0297402Y0038493D01*
X0297396Y0038647D01*
X0297394Y0038800D01*
X0044894Y0038800D02*
X0044896Y0038953D01*
X0044902Y0039107D01*
X0044912Y0039260D01*
X0044926Y0039412D01*
X0044944Y0039565D01*
X0044966Y0039716D01*
X0044991Y0039867D01*
X0045021Y0040018D01*
X0045055Y0040168D01*
X0045092Y0040316D01*
X0045133Y0040464D01*
X0045178Y0040610D01*
X0045227Y0040756D01*
X0045280Y0040900D01*
X0045336Y0041042D01*
X0045396Y0041183D01*
X0045460Y0041323D01*
X0045527Y0041461D01*
X0045598Y0041597D01*
X0045673Y0041731D01*
X0045750Y0041863D01*
X0045832Y0041993D01*
X0045916Y0042121D01*
X0046004Y0042247D01*
X0046095Y0042370D01*
X0046189Y0042491D01*
X0046287Y0042609D01*
X0046387Y0042725D01*
X0046491Y0042838D01*
X0046597Y0042949D01*
X0046706Y0043057D01*
X0046818Y0043162D01*
X0046932Y0043263D01*
X0047050Y0043362D01*
X0047169Y0043458D01*
X0047291Y0043551D01*
X0047416Y0043640D01*
X0047543Y0043727D01*
X0047672Y0043809D01*
X0047803Y0043889D01*
X0047936Y0043965D01*
X0048071Y0044038D01*
X0048208Y0044107D01*
X0048347Y0044172D01*
X0048487Y0044234D01*
X0048629Y0044292D01*
X0048772Y0044347D01*
X0048917Y0044398D01*
X0049063Y0044445D01*
X0049210Y0044488D01*
X0049358Y0044527D01*
X0049507Y0044563D01*
X0049657Y0044594D01*
X0049808Y0044622D01*
X0049959Y0044646D01*
X0050112Y0044666D01*
X0050264Y0044682D01*
X0050417Y0044694D01*
X0050570Y0044702D01*
X0050723Y0044706D01*
X0050877Y0044706D01*
X0051030Y0044702D01*
X0051183Y0044694D01*
X0051336Y0044682D01*
X0051488Y0044666D01*
X0051641Y0044646D01*
X0051792Y0044622D01*
X0051943Y0044594D01*
X0052093Y0044563D01*
X0052242Y0044527D01*
X0052390Y0044488D01*
X0052537Y0044445D01*
X0052683Y0044398D01*
X0052828Y0044347D01*
X0052971Y0044292D01*
X0053113Y0044234D01*
X0053253Y0044172D01*
X0053392Y0044107D01*
X0053529Y0044038D01*
X0053664Y0043965D01*
X0053797Y0043889D01*
X0053928Y0043809D01*
X0054057Y0043727D01*
X0054184Y0043640D01*
X0054309Y0043551D01*
X0054431Y0043458D01*
X0054550Y0043362D01*
X0054668Y0043263D01*
X0054782Y0043162D01*
X0054894Y0043057D01*
X0055003Y0042949D01*
X0055109Y0042838D01*
X0055213Y0042725D01*
X0055313Y0042609D01*
X0055411Y0042491D01*
X0055505Y0042370D01*
X0055596Y0042247D01*
X0055684Y0042121D01*
X0055768Y0041993D01*
X0055850Y0041863D01*
X0055927Y0041731D01*
X0056002Y0041597D01*
X0056073Y0041461D01*
X0056140Y0041323D01*
X0056204Y0041183D01*
X0056264Y0041042D01*
X0056320Y0040900D01*
X0056373Y0040756D01*
X0056422Y0040610D01*
X0056467Y0040464D01*
X0056508Y0040316D01*
X0056545Y0040168D01*
X0056579Y0040018D01*
X0056609Y0039867D01*
X0056634Y0039716D01*
X0056656Y0039565D01*
X0056674Y0039412D01*
X0056688Y0039260D01*
X0056698Y0039107D01*
X0056704Y0038953D01*
X0056706Y0038800D01*
X0056704Y0038647D01*
X0056698Y0038493D01*
X0056688Y0038340D01*
X0056674Y0038188D01*
X0056656Y0038035D01*
X0056634Y0037884D01*
X0056609Y0037733D01*
X0056579Y0037582D01*
X0056545Y0037432D01*
X0056508Y0037284D01*
X0056467Y0037136D01*
X0056422Y0036990D01*
X0056373Y0036844D01*
X0056320Y0036700D01*
X0056264Y0036558D01*
X0056204Y0036417D01*
X0056140Y0036277D01*
X0056073Y0036139D01*
X0056002Y0036003D01*
X0055927Y0035869D01*
X0055850Y0035737D01*
X0055768Y0035607D01*
X0055684Y0035479D01*
X0055596Y0035353D01*
X0055505Y0035230D01*
X0055411Y0035109D01*
X0055313Y0034991D01*
X0055213Y0034875D01*
X0055109Y0034762D01*
X0055003Y0034651D01*
X0054894Y0034543D01*
X0054782Y0034438D01*
X0054668Y0034337D01*
X0054550Y0034238D01*
X0054431Y0034142D01*
X0054309Y0034049D01*
X0054184Y0033960D01*
X0054057Y0033873D01*
X0053928Y0033791D01*
X0053797Y0033711D01*
X0053664Y0033635D01*
X0053529Y0033562D01*
X0053392Y0033493D01*
X0053253Y0033428D01*
X0053113Y0033366D01*
X0052971Y0033308D01*
X0052828Y0033253D01*
X0052683Y0033202D01*
X0052537Y0033155D01*
X0052390Y0033112D01*
X0052242Y0033073D01*
X0052093Y0033037D01*
X0051943Y0033006D01*
X0051792Y0032978D01*
X0051641Y0032954D01*
X0051488Y0032934D01*
X0051336Y0032918D01*
X0051183Y0032906D01*
X0051030Y0032898D01*
X0050877Y0032894D01*
X0050723Y0032894D01*
X0050570Y0032898D01*
X0050417Y0032906D01*
X0050264Y0032918D01*
X0050112Y0032934D01*
X0049959Y0032954D01*
X0049808Y0032978D01*
X0049657Y0033006D01*
X0049507Y0033037D01*
X0049358Y0033073D01*
X0049210Y0033112D01*
X0049063Y0033155D01*
X0048917Y0033202D01*
X0048772Y0033253D01*
X0048629Y0033308D01*
X0048487Y0033366D01*
X0048347Y0033428D01*
X0048208Y0033493D01*
X0048071Y0033562D01*
X0047936Y0033635D01*
X0047803Y0033711D01*
X0047672Y0033791D01*
X0047543Y0033873D01*
X0047416Y0033960D01*
X0047291Y0034049D01*
X0047169Y0034142D01*
X0047050Y0034238D01*
X0046932Y0034337D01*
X0046818Y0034438D01*
X0046706Y0034543D01*
X0046597Y0034651D01*
X0046491Y0034762D01*
X0046387Y0034875D01*
X0046287Y0034991D01*
X0046189Y0035109D01*
X0046095Y0035230D01*
X0046004Y0035353D01*
X0045916Y0035479D01*
X0045832Y0035607D01*
X0045750Y0035737D01*
X0045673Y0035869D01*
X0045598Y0036003D01*
X0045527Y0036139D01*
X0045460Y0036277D01*
X0045396Y0036417D01*
X0045336Y0036558D01*
X0045280Y0036700D01*
X0045227Y0036844D01*
X0045178Y0036990D01*
X0045133Y0037136D01*
X0045092Y0037284D01*
X0045055Y0037432D01*
X0045021Y0037582D01*
X0044991Y0037733D01*
X0044966Y0037884D01*
X0044944Y0038035D01*
X0044926Y0038188D01*
X0044912Y0038340D01*
X0044902Y0038493D01*
X0044896Y0038647D01*
X0044894Y0038800D01*
D14*
X0113300Y0037300D03*
X0113300Y0127300D03*
D15*
X0123300Y0126300D03*
X0133300Y0127300D03*
X0143300Y0126300D03*
X0153300Y0127300D03*
X0163300Y0126300D03*
X0173300Y0127300D03*
X0183300Y0126300D03*
X0173300Y0037300D03*
X0183300Y0036300D03*
X0163300Y0036300D03*
X0153300Y0037300D03*
X0143300Y0036300D03*
X0133300Y0037300D03*
X0123300Y0036300D03*
D16*
X0209600Y0066300D03*
X0239600Y0066300D03*
X0240300Y0108700D03*
X0210300Y0108700D03*
X0209300Y0153900D03*
X0239300Y0153900D03*
X0239900Y0209100D03*
X0209900Y0209100D03*
D17*
X0155540Y0103800D03*
X0148060Y0103800D03*
X0125540Y0103800D03*
X0118060Y0103800D03*
X0118060Y0085800D03*
X0125540Y0085800D03*
X0125540Y0070800D03*
X0118060Y0070800D03*
X0118060Y0055800D03*
X0125540Y0055800D03*
X0148060Y0055800D03*
X0155540Y0055800D03*
X0155540Y0070800D03*
X0148060Y0070800D03*
X0148060Y0085800D03*
X0155540Y0085800D03*
D18*
X0069934Y0085800D03*
X0061666Y0085800D03*
X0061666Y0072800D03*
X0069934Y0072800D03*
X0069934Y0059800D03*
X0061666Y0059800D03*
X0061666Y0098800D03*
X0069934Y0098800D03*
D19*
X0251000Y0096800D02*
X0257600Y0096800D01*
X0257600Y0086800D02*
X0251000Y0086800D01*
X0251000Y0106800D02*
X0257600Y0106800D01*
X0257600Y0134300D02*
X0251000Y0134300D01*
X0251000Y0144300D02*
X0257600Y0144300D01*
X0257600Y0154300D02*
X0251000Y0154300D01*
X0251000Y0181800D02*
X0257600Y0181800D01*
X0257600Y0191800D02*
X0251000Y0191800D01*
X0251000Y0201800D02*
X0257600Y0201800D01*
X0257600Y0061800D02*
X0251000Y0061800D01*
X0251000Y0051800D02*
X0257600Y0051800D01*
X0257600Y0041800D02*
X0251000Y0041800D01*
D20*
X0064300Y0141800D03*
X0054300Y0141800D03*
X0054300Y0151800D03*
X0064300Y0151800D03*
X0064300Y0161800D03*
X0054300Y0161800D03*
X0054300Y0171800D03*
X0064300Y0171800D03*
X0064300Y0181800D03*
X0054300Y0181800D03*
D21*
X0204300Y0178119D03*
X0204300Y0188119D03*
X0204300Y0198119D03*
X0234300Y0198119D03*
X0234300Y0188119D03*
X0234300Y0178119D03*
X0234300Y0143119D03*
X0234300Y0133119D03*
X0234300Y0123119D03*
X0204300Y0123119D03*
X0204300Y0133119D03*
X0204300Y0143119D03*
X0204300Y0098119D03*
X0204300Y0088119D03*
X0204300Y0078119D03*
X0234300Y0078119D03*
X0234300Y0088119D03*
X0234300Y0098119D03*
X0234300Y0055619D03*
X0234300Y0045619D03*
X0234300Y0035619D03*
X0204300Y0035619D03*
X0204300Y0045619D03*
X0204300Y0055619D03*
D22*
X0254300Y0051800D02*
X0266800Y0051800D01*
X0271800Y0056800D01*
X0271800Y0091800D01*
X0266800Y0096800D01*
X0254300Y0096800D01*
X0271800Y0099300D02*
X0271800Y0139300D01*
X0269300Y0144300D02*
X0271800Y0146800D01*
X0271800Y0151800D01*
X0287800Y0151800D01*
X0271800Y0151800D02*
X0271800Y0164300D01*
X0271800Y0184300D01*
X0264300Y0191800D01*
X0254300Y0191800D01*
X0254300Y0144300D02*
X0266800Y0144300D01*
D23*
X0269300Y0144300D01*
X0266800Y0144300D02*
X0271800Y0139300D01*
X0271800Y0099300D02*
X0269300Y0096800D01*
X0254300Y0096800D01*
D24*
X0249300Y0096800D01*
X0249300Y0051800D02*
X0254300Y0051800D01*
X0148050Y0055550D02*
X0136800Y0055550D01*
X0148050Y0056175D02*
X0148050Y0070550D01*
X0148050Y0071175D02*
X0148050Y0085550D01*
X0148050Y0086175D02*
X0148050Y0103675D01*
X0061800Y0098675D02*
X0061800Y0086175D01*
X0061800Y0085550D02*
X0061800Y0073050D01*
X0061800Y0072425D02*
X0061800Y0059925D01*
X0061800Y0059300D02*
X0083675Y0037425D01*
X0113050Y0037425D01*
X0061175Y0099300D02*
X0044300Y0116175D01*
X0044300Y0116200D02*
X0044300Y0171800D01*
X0054300Y0181800D01*
X0054500Y0181800D01*
X0077800Y0205100D01*
X0084819Y0205100D01*
X0084831Y0205087D01*
X0249300Y0191800D02*
X0254300Y0191800D01*
X0254300Y0181800D02*
X0253119Y0180619D01*
D25*
X0254300Y0181800D02*
X0250619Y0178119D01*
X0234300Y0178119D01*
X0249300Y0191800D02*
X0241800Y0199300D01*
X0241800Y0207200D01*
X0239900Y0209100D01*
X0234300Y0198119D02*
X0223319Y0209100D01*
X0209900Y0209100D01*
X0209300Y0153900D02*
X0223519Y0153900D01*
X0234300Y0143119D01*
X0239300Y0151800D02*
X0246800Y0144300D01*
X0254300Y0144300D01*
X0254300Y0134300D02*
X0243119Y0123119D01*
X0234300Y0123119D01*
X0240300Y0108700D02*
X0240300Y0105800D01*
X0249300Y0096800D01*
X0234300Y0098119D02*
X0223719Y0108700D01*
X0210300Y0108700D01*
X0245619Y0078119D02*
X0254300Y0086800D01*
X0245619Y0078119D02*
X0234300Y0078119D01*
X0239600Y0066300D02*
X0239600Y0061500D01*
X0249300Y0051800D01*
X0234300Y0055619D02*
X0223619Y0066300D01*
X0209600Y0066300D01*
X0248119Y0035619D02*
X0254300Y0041800D01*
X0248119Y0035619D02*
X0234300Y0035619D01*
X0239300Y0151800D02*
X0239300Y0153900D01*
D26*
X0208000Y0164400D02*
X0271700Y0164400D01*
X0271800Y0164300D01*
X0208000Y0164400D02*
X0191879Y0148279D01*
X0191879Y0144379D01*
D27*
X0187760Y0150879D02*
X0186138Y0150879D01*
X0183749Y0149889D01*
X0181920Y0148061D01*
X0180931Y0145672D01*
X0180931Y0143086D01*
X0181920Y0140697D01*
X0183749Y0138868D01*
X0186138Y0137879D01*
X0194393Y0137879D01*
X0191502Y0134988D01*
X0191000Y0133775D01*
X0191000Y0125667D01*
X0189418Y0124085D01*
X0189800Y0125007D01*
X0189800Y0127593D01*
X0188810Y0129982D01*
X0186982Y0131810D01*
X0184593Y0132800D01*
X0182007Y0132800D01*
X0179618Y0131810D01*
X0178800Y0130992D01*
X0176982Y0132810D01*
X0174593Y0133800D01*
X0172007Y0133800D01*
X0169618Y0132810D01*
X0167800Y0130992D01*
X0166982Y0131810D01*
X0164593Y0132800D01*
X0162007Y0132800D01*
X0161625Y0132642D01*
X0119669Y0174598D01*
X0118456Y0175100D01*
X0069627Y0175100D01*
X0067220Y0177507D01*
X0069400Y0179688D01*
X0069400Y0181600D01*
X0064500Y0181600D01*
X0064500Y0182000D01*
X0069400Y0182000D01*
X0069400Y0183912D01*
X0066412Y0186900D01*
X0065257Y0186900D01*
X0077792Y0199435D01*
X0079839Y0198587D01*
X0089824Y0198587D01*
X0092213Y0199577D01*
X0094042Y0201405D01*
X0095031Y0203794D01*
X0095031Y0206380D01*
X0094042Y0208769D01*
X0092213Y0210598D01*
X0089824Y0211587D01*
X0079839Y0211587D01*
X0077450Y0210598D01*
X0075621Y0208769D01*
X0075486Y0208443D01*
X0074409Y0207366D01*
X0054943Y0187900D01*
X0051773Y0187900D01*
X0048200Y0184327D01*
X0048200Y0181357D01*
X0043100Y0176257D01*
X0043100Y0195647D01*
X0045920Y0194019D01*
X0049136Y0193157D01*
X0052464Y0193157D01*
X0055680Y0194019D01*
X0058563Y0195683D01*
X0060917Y0198037D01*
X0062581Y0200920D01*
X0063443Y0204136D01*
X0063443Y0207464D01*
X0062581Y0210680D01*
X0061264Y0212961D01*
X0205700Y0212961D01*
X0204200Y0211461D01*
X0204200Y0206739D01*
X0207539Y0203400D01*
X0212261Y0203400D01*
X0213561Y0204700D01*
X0221496Y0204700D01*
X0228350Y0197846D01*
X0228350Y0195654D01*
X0230885Y0193119D01*
X0228350Y0190583D01*
X0228350Y0185654D01*
X0230885Y0183119D01*
X0228350Y0180583D01*
X0228350Y0175654D01*
X0231835Y0172169D01*
X0236765Y0172169D01*
X0238315Y0173719D01*
X0251494Y0173719D01*
X0253111Y0174389D01*
X0254423Y0175700D01*
X0258813Y0175700D01*
X0261055Y0176629D01*
X0262771Y0178345D01*
X0263700Y0180587D01*
X0263700Y0181369D01*
X0264000Y0181069D01*
X0264000Y0169200D01*
X0207045Y0169200D01*
X0205281Y0168469D01*
X0203931Y0167119D01*
X0201331Y0164519D01*
X0201331Y0165750D01*
X0200341Y0168139D01*
X0198513Y0169968D01*
X0196124Y0170957D01*
X0186138Y0170957D01*
X0183749Y0169968D01*
X0181920Y0168139D01*
X0180931Y0165750D01*
X0180931Y0163165D01*
X0181920Y0160776D01*
X0183749Y0158947D01*
X0186138Y0157957D01*
X0194769Y0157957D01*
X0187809Y0150998D01*
X0187760Y0150879D01*
X0186118Y0150870D02*
X0143396Y0150870D01*
X0144995Y0149272D02*
X0183132Y0149272D01*
X0181760Y0147673D02*
X0146593Y0147673D01*
X0148192Y0146075D02*
X0181098Y0146075D01*
X0180931Y0144476D02*
X0149790Y0144476D01*
X0151389Y0142878D02*
X0181017Y0142878D01*
X0181679Y0141279D02*
X0152987Y0141279D01*
X0154586Y0139681D02*
X0182936Y0139681D01*
X0185646Y0138082D02*
X0156184Y0138082D01*
X0157783Y0136484D02*
X0192998Y0136484D01*
X0191460Y0134885D02*
X0159382Y0134885D01*
X0160980Y0133287D02*
X0170768Y0133287D01*
X0168496Y0131688D02*
X0167104Y0131688D01*
X0175832Y0133287D02*
X0191000Y0133287D01*
X0191000Y0131688D02*
X0187104Y0131688D01*
X0188703Y0130090D02*
X0191000Y0130090D01*
X0191000Y0128491D02*
X0189428Y0128491D01*
X0189800Y0126893D02*
X0191000Y0126893D01*
X0190627Y0125294D02*
X0189800Y0125294D01*
X0179496Y0131688D02*
X0178104Y0131688D01*
X0189281Y0152469D02*
X0141798Y0152469D01*
X0140199Y0154068D02*
X0190879Y0154068D01*
X0192478Y0155666D02*
X0138601Y0155666D01*
X0137002Y0157265D02*
X0194076Y0157265D01*
X0183952Y0158863D02*
X0135404Y0158863D01*
X0133805Y0160462D02*
X0182234Y0160462D01*
X0181388Y0162060D02*
X0132207Y0162060D01*
X0130608Y0163659D02*
X0180931Y0163659D01*
X0180931Y0165257D02*
X0129010Y0165257D01*
X0127411Y0166856D02*
X0181388Y0166856D01*
X0182235Y0168454D02*
X0125813Y0168454D01*
X0124214Y0170053D02*
X0183953Y0170053D01*
X0198308Y0170053D02*
X0264000Y0170053D01*
X0264000Y0171651D02*
X0122616Y0171651D01*
X0121017Y0173250D02*
X0200755Y0173250D01*
X0201835Y0172169D02*
X0198350Y0175654D01*
X0198350Y0180583D01*
X0200885Y0183119D01*
X0199185Y0184819D01*
X0154384Y0184819D01*
X0154300Y0184732D01*
X0154300Y0183305D01*
X0153539Y0181468D01*
X0152132Y0180061D01*
X0150295Y0179300D01*
X0148305Y0179300D01*
X0146468Y0180061D01*
X0145061Y0181468D01*
X0144300Y0183305D01*
X0144300Y0185295D01*
X0145061Y0187132D01*
X0146468Y0188539D01*
X0148305Y0189300D01*
X0149536Y0189300D01*
X0150171Y0189959D01*
X0150184Y0189988D01*
X0150626Y0190431D01*
X0151061Y0190882D01*
X0151090Y0190894D01*
X0151112Y0190916D01*
X0151690Y0191156D01*
X0152264Y0191406D01*
X0152296Y0191407D01*
X0152325Y0191419D01*
X0152951Y0191419D01*
X0153577Y0191430D01*
X0153606Y0191419D01*
X0199185Y0191419D01*
X0200885Y0193119D01*
X0198350Y0195654D01*
X0198350Y0200583D01*
X0201835Y0204069D01*
X0206765Y0204069D01*
X0210250Y0200583D01*
X0210250Y0195654D01*
X0207715Y0193119D01*
X0210250Y0190583D01*
X0210250Y0185654D01*
X0207715Y0183119D01*
X0210250Y0180583D01*
X0210250Y0175654D01*
X0206765Y0172169D01*
X0201835Y0172169D01*
X0199156Y0174848D02*
X0119064Y0174848D01*
X0116433Y0168500D02*
X0125141Y0159792D01*
X0124156Y0160200D01*
X0090745Y0160200D01*
X0091414Y0160541D01*
X0092114Y0161050D01*
X0092727Y0161662D01*
X0093236Y0162362D01*
X0093629Y0163134D01*
X0093896Y0163957D01*
X0094031Y0164812D01*
X0094031Y0164945D01*
X0085132Y0164945D01*
X0085132Y0165545D01*
X0094031Y0165545D01*
X0094031Y0165678D01*
X0093896Y0166533D01*
X0093629Y0167356D01*
X0093236Y0168128D01*
X0092965Y0168500D01*
X0116433Y0168500D01*
X0116479Y0168454D02*
X0092998Y0168454D01*
X0093791Y0166856D02*
X0118077Y0166856D01*
X0119676Y0165257D02*
X0085132Y0165257D01*
X0084531Y0165257D02*
X0069470Y0165257D01*
X0070400Y0164327D02*
X0067927Y0166800D01*
X0069627Y0168500D01*
X0076698Y0168500D01*
X0076427Y0168128D01*
X0076034Y0167356D01*
X0075767Y0166533D01*
X0075631Y0165678D01*
X0075631Y0165545D01*
X0084531Y0165545D01*
X0084531Y0164945D01*
X0075631Y0164945D01*
X0075631Y0164812D01*
X0075767Y0163957D01*
X0076034Y0163134D01*
X0076427Y0162362D01*
X0076936Y0161662D01*
X0077548Y0161050D01*
X0078249Y0160541D01*
X0078918Y0160200D01*
X0070567Y0160200D01*
X0070400Y0160367D01*
X0070400Y0164327D01*
X0070400Y0163659D02*
X0075864Y0163659D01*
X0076647Y0162060D02*
X0070400Y0162060D01*
X0070400Y0160462D02*
X0078405Y0160462D01*
X0075872Y0166856D02*
X0067982Y0166856D01*
X0069581Y0168454D02*
X0076665Y0168454D01*
X0068280Y0176447D02*
X0198350Y0176447D01*
X0198350Y0178045D02*
X0067758Y0178045D01*
X0069356Y0179644D02*
X0147476Y0179644D01*
X0145287Y0181242D02*
X0069400Y0181242D01*
X0069400Y0182841D02*
X0144492Y0182841D01*
X0144300Y0184439D02*
X0068873Y0184439D01*
X0067275Y0186038D02*
X0144608Y0186038D01*
X0145565Y0187636D02*
X0065993Y0187636D01*
X0067592Y0189235D02*
X0148148Y0189235D01*
X0151014Y0190833D02*
X0069190Y0190833D01*
X0070789Y0192432D02*
X0200198Y0192432D01*
X0199974Y0194030D02*
X0072387Y0194030D01*
X0073986Y0195629D02*
X0198376Y0195629D01*
X0198350Y0197227D02*
X0075584Y0197227D01*
X0077183Y0198826D02*
X0079263Y0198826D01*
X0070665Y0203621D02*
X0063305Y0203621D01*
X0063443Y0205220D02*
X0072263Y0205220D01*
X0073862Y0206818D02*
X0063443Y0206818D01*
X0063187Y0208417D02*
X0075460Y0208417D01*
X0076867Y0210015D02*
X0062759Y0210015D01*
X0062042Y0211614D02*
X0204353Y0211614D01*
X0204200Y0210015D02*
X0092796Y0210015D01*
X0094188Y0208417D02*
X0204200Y0208417D01*
X0204200Y0206818D02*
X0094850Y0206818D01*
X0095031Y0205220D02*
X0205719Y0205220D01*
X0207212Y0203621D02*
X0207318Y0203621D01*
X0208811Y0202023D02*
X0224173Y0202023D01*
X0222575Y0203621D02*
X0212482Y0203621D01*
X0210250Y0200424D02*
X0225772Y0200424D01*
X0227371Y0198826D02*
X0210250Y0198826D01*
X0210250Y0197227D02*
X0228350Y0197227D01*
X0228376Y0195629D02*
X0210224Y0195629D01*
X0208626Y0194030D02*
X0229974Y0194030D01*
X0230198Y0192432D02*
X0208402Y0192432D01*
X0210000Y0190833D02*
X0228600Y0190833D01*
X0228350Y0189235D02*
X0210250Y0189235D01*
X0210250Y0187636D02*
X0228350Y0187636D01*
X0228350Y0186038D02*
X0210250Y0186038D01*
X0209035Y0184439D02*
X0229565Y0184439D01*
X0230607Y0182841D02*
X0207993Y0182841D01*
X0209591Y0181242D02*
X0229009Y0181242D01*
X0228350Y0179644D02*
X0210250Y0179644D01*
X0210250Y0178045D02*
X0228350Y0178045D01*
X0228350Y0176447D02*
X0210250Y0176447D01*
X0209444Y0174848D02*
X0229156Y0174848D01*
X0230755Y0173250D02*
X0207845Y0173250D01*
X0205266Y0168454D02*
X0200026Y0168454D01*
X0200873Y0166856D02*
X0203667Y0166856D01*
X0202069Y0165257D02*
X0201331Y0165257D01*
X0198350Y0179644D02*
X0151124Y0179644D01*
X0153313Y0181242D02*
X0199009Y0181242D01*
X0200607Y0182841D02*
X0154107Y0182841D01*
X0154300Y0184439D02*
X0199565Y0184439D01*
X0198350Y0198826D02*
X0090400Y0198826D01*
X0093061Y0200424D02*
X0198350Y0200424D01*
X0199789Y0202023D02*
X0094298Y0202023D01*
X0094960Y0203621D02*
X0201388Y0203621D01*
X0237845Y0173250D02*
X0264000Y0173250D01*
X0264000Y0174848D02*
X0253571Y0174848D01*
X0260616Y0176447D02*
X0264000Y0176447D01*
X0264000Y0178045D02*
X0262472Y0178045D01*
X0263309Y0179644D02*
X0264000Y0179644D01*
X0263827Y0181242D02*
X0263700Y0181242D01*
X0124472Y0160462D02*
X0091258Y0160462D01*
X0093016Y0162060D02*
X0122873Y0162060D01*
X0121275Y0163659D02*
X0093799Y0163659D01*
X0056278Y0189235D02*
X0043100Y0189235D01*
X0043100Y0190833D02*
X0057876Y0190833D01*
X0059475Y0192432D02*
X0043100Y0192432D01*
X0043100Y0194030D02*
X0045901Y0194030D01*
X0043132Y0195629D02*
X0043100Y0195629D01*
X0055699Y0194030D02*
X0061073Y0194030D01*
X0062672Y0195629D02*
X0058468Y0195629D01*
X0060107Y0197227D02*
X0064270Y0197227D01*
X0065869Y0198826D02*
X0061372Y0198826D01*
X0062295Y0200424D02*
X0067467Y0200424D01*
X0069066Y0202023D02*
X0062876Y0202023D01*
X0051510Y0187636D02*
X0043100Y0187636D01*
X0043100Y0186038D02*
X0049911Y0186038D01*
X0048313Y0184439D02*
X0043100Y0184439D01*
X0043100Y0182841D02*
X0048200Y0182841D01*
X0048085Y0181242D02*
X0043100Y0181242D01*
X0043100Y0179644D02*
X0046487Y0179644D01*
X0044888Y0178045D02*
X0043100Y0178045D01*
X0043100Y0176447D02*
X0043290Y0176447D01*
X0074731Y0056000D02*
X0112701Y0056000D01*
X0112701Y0052290D01*
X0113127Y0051261D01*
X0113915Y0050474D01*
X0114944Y0050047D01*
X0121176Y0050047D01*
X0121800Y0050306D01*
X0122250Y0050119D01*
X0122250Y0044269D01*
X0122752Y0043056D01*
X0124060Y0041748D01*
X0123733Y0041800D01*
X0123500Y0041800D01*
X0123500Y0036500D01*
X0123100Y0036500D01*
X0123100Y0041800D01*
X0122867Y0041800D01*
X0122012Y0041665D01*
X0121189Y0041397D01*
X0120417Y0041004D01*
X0119800Y0040555D01*
X0119800Y0041557D01*
X0119374Y0042586D01*
X0118586Y0043374D01*
X0117557Y0043800D01*
X0109043Y0043800D01*
X0108014Y0043374D01*
X0107226Y0042586D01*
X0106800Y0041557D01*
X0106800Y0041425D01*
X0085332Y0041425D01*
X0072119Y0054638D01*
X0072853Y0054638D01*
X0073882Y0055064D01*
X0074670Y0055852D01*
X0074731Y0056000D01*
X0073630Y0054960D02*
X0112701Y0054960D01*
X0112701Y0053361D02*
X0073396Y0053361D01*
X0074994Y0051763D02*
X0112919Y0051763D01*
X0114661Y0050164D02*
X0076593Y0050164D01*
X0078191Y0048566D02*
X0122250Y0048566D01*
X0122250Y0046967D02*
X0079790Y0046967D01*
X0081388Y0045369D02*
X0122250Y0045369D01*
X0122456Y0043770D02*
X0117629Y0043770D01*
X0119545Y0042172D02*
X0123636Y0042172D01*
X0123500Y0040573D02*
X0123100Y0040573D01*
X0123100Y0038975D02*
X0123500Y0038975D01*
X0123500Y0037376D02*
X0123100Y0037376D01*
X0119824Y0040573D02*
X0119800Y0040573D01*
X0108971Y0043770D02*
X0082987Y0043770D01*
X0084585Y0042172D02*
X0107055Y0042172D01*
X0121458Y0050164D02*
X0122142Y0050164D01*
D28*
X0136800Y0055550D03*
X0138275Y0048275D03*
X0166800Y0056175D03*
X0139300Y0069300D03*
X0133050Y0078675D03*
X0118675Y0092425D03*
X0104300Y0104300D03*
X0084600Y0092400D03*
X0088925Y0079600D03*
X0104300Y0066800D03*
X0096800Y0053300D03*
X0138500Y0115225D03*
X0096800Y0131800D03*
X0149300Y0184300D03*
M02*
