G75*
%MOIN*%
%OFA0B0*%
%FSLAX25Y25*%
%IPPOS*%
%LPD*%
%AMOC8*
5,1,8,0,0,1.08239X$1,22.5*
%
%ADD10C,0.01000*%
%ADD11C,0.00600*%
%ADD12C,0.00800*%
%ADD13C,0.01400*%
%ADD14C,0.01100*%
%ADD15C,0.01200*%
%ADD16C,0.00500*%
%ADD17C,0.00000*%
%ADD18C,0.00200*%
%ADD19C,0.02500*%
%ADD20R,0.80000X0.10000*%
%ADD21C,0.00400*%
%ADD22R,0.02000X0.02000*%
%ADD23C,0.02000*%
%ADD24R,0.01500X0.02000*%
%ADD25C,0.00700*%
%ADD26R,0.02559X0.05512*%
%ADD27C,0.00300*%
%ADD28R,0.01181X0.00591*%
%ADD29R,0.01181X0.01181*%
%ADD30R,0.02362X0.05315*%
%ADD31C,0.02000*%
%ADD32R,0.03000X0.42000*%
%ADD33R,0.02000X0.07500*%
%ADD34R,0.02000X0.03000*%
%ADD35R,0.02000X0.07000*%
D10*
X0039800Y0028800D02*
X0039800Y0216261D01*
X0314001Y0216261D01*
X0314001Y0028800D01*
X0039800Y0028800D01*
X0283798Y0076272D02*
X0291700Y0068371D01*
X0291602Y0087973D02*
X0283700Y0095772D01*
X0291700Y0107772D02*
X0283798Y0115674D01*
X0291602Y0127371D02*
X0283700Y0135174D01*
X0291800Y0147900D02*
X0283900Y0155800D01*
X0291900Y0168200D02*
X0283900Y0175700D01*
D11*
X0281900Y0171800D02*
X0281902Y0171953D01*
X0281908Y0172106D01*
X0281918Y0172259D01*
X0281932Y0172412D01*
X0281950Y0172564D01*
X0281971Y0172715D01*
X0281997Y0172866D01*
X0282027Y0173017D01*
X0282060Y0173166D01*
X0282098Y0173315D01*
X0282139Y0173462D01*
X0282184Y0173609D01*
X0282233Y0173754D01*
X0282285Y0173898D01*
X0282342Y0174040D01*
X0282402Y0174181D01*
X0282465Y0174320D01*
X0282533Y0174458D01*
X0282603Y0174594D01*
X0282678Y0174728D01*
X0282755Y0174860D01*
X0282837Y0174990D01*
X0282921Y0175118D01*
X0283009Y0175243D01*
X0283100Y0175366D01*
X0283194Y0175487D01*
X0283291Y0175605D01*
X0283392Y0175721D01*
X0283495Y0175834D01*
X0283601Y0175945D01*
X0283710Y0176052D01*
X0283822Y0176157D01*
X0283936Y0176259D01*
X0284053Y0176358D01*
X0284173Y0176453D01*
X0284295Y0176546D01*
X0284419Y0176635D01*
X0284546Y0176722D01*
X0284675Y0176804D01*
X0284806Y0176884D01*
X0284939Y0176960D01*
X0285074Y0177032D01*
X0285211Y0177101D01*
X0285349Y0177167D01*
X0285489Y0177229D01*
X0285631Y0177287D01*
X0285774Y0177341D01*
X0285919Y0177392D01*
X0286064Y0177439D01*
X0286211Y0177482D01*
X0286359Y0177521D01*
X0286508Y0177557D01*
X0286658Y0177588D01*
X0286809Y0177616D01*
X0286960Y0177640D01*
X0287112Y0177660D01*
X0287265Y0177676D01*
X0287417Y0177688D01*
X0287570Y0177696D01*
X0287723Y0177700D01*
X0287877Y0177700D01*
X0288030Y0177696D01*
X0288183Y0177688D01*
X0288335Y0177676D01*
X0288488Y0177660D01*
X0288640Y0177640D01*
X0288791Y0177616D01*
X0288942Y0177588D01*
X0289092Y0177557D01*
X0289241Y0177521D01*
X0289389Y0177482D01*
X0289536Y0177439D01*
X0289681Y0177392D01*
X0289826Y0177341D01*
X0289969Y0177287D01*
X0290111Y0177229D01*
X0290251Y0177167D01*
X0290389Y0177101D01*
X0290526Y0177032D01*
X0290661Y0176960D01*
X0290794Y0176884D01*
X0290925Y0176804D01*
X0291054Y0176722D01*
X0291181Y0176635D01*
X0291305Y0176546D01*
X0291427Y0176453D01*
X0291547Y0176358D01*
X0291664Y0176259D01*
X0291778Y0176157D01*
X0291890Y0176052D01*
X0291999Y0175945D01*
X0292105Y0175834D01*
X0292208Y0175721D01*
X0292309Y0175605D01*
X0292406Y0175487D01*
X0292500Y0175366D01*
X0292591Y0175243D01*
X0292679Y0175118D01*
X0292763Y0174990D01*
X0292845Y0174860D01*
X0292922Y0174728D01*
X0292997Y0174594D01*
X0293067Y0174458D01*
X0293135Y0174320D01*
X0293198Y0174181D01*
X0293258Y0174040D01*
X0293315Y0173898D01*
X0293367Y0173754D01*
X0293416Y0173609D01*
X0293461Y0173462D01*
X0293502Y0173315D01*
X0293540Y0173166D01*
X0293573Y0173017D01*
X0293603Y0172866D01*
X0293629Y0172715D01*
X0293650Y0172564D01*
X0293668Y0172412D01*
X0293682Y0172259D01*
X0293692Y0172106D01*
X0293698Y0171953D01*
X0293700Y0171800D01*
X0293698Y0171647D01*
X0293692Y0171494D01*
X0293682Y0171341D01*
X0293668Y0171188D01*
X0293650Y0171036D01*
X0293629Y0170885D01*
X0293603Y0170734D01*
X0293573Y0170583D01*
X0293540Y0170434D01*
X0293502Y0170285D01*
X0293461Y0170138D01*
X0293416Y0169991D01*
X0293367Y0169846D01*
X0293315Y0169702D01*
X0293258Y0169560D01*
X0293198Y0169419D01*
X0293135Y0169280D01*
X0293067Y0169142D01*
X0292997Y0169006D01*
X0292922Y0168872D01*
X0292845Y0168740D01*
X0292763Y0168610D01*
X0292679Y0168482D01*
X0292591Y0168357D01*
X0292500Y0168234D01*
X0292406Y0168113D01*
X0292309Y0167995D01*
X0292208Y0167879D01*
X0292105Y0167766D01*
X0291999Y0167655D01*
X0291890Y0167548D01*
X0291778Y0167443D01*
X0291664Y0167341D01*
X0291547Y0167242D01*
X0291427Y0167147D01*
X0291305Y0167054D01*
X0291181Y0166965D01*
X0291054Y0166878D01*
X0290925Y0166796D01*
X0290794Y0166716D01*
X0290661Y0166640D01*
X0290526Y0166568D01*
X0290389Y0166499D01*
X0290251Y0166433D01*
X0290111Y0166371D01*
X0289969Y0166313D01*
X0289826Y0166259D01*
X0289681Y0166208D01*
X0289536Y0166161D01*
X0289389Y0166118D01*
X0289241Y0166079D01*
X0289092Y0166043D01*
X0288942Y0166012D01*
X0288791Y0165984D01*
X0288640Y0165960D01*
X0288488Y0165940D01*
X0288335Y0165924D01*
X0288183Y0165912D01*
X0288030Y0165904D01*
X0287877Y0165900D01*
X0287723Y0165900D01*
X0287570Y0165904D01*
X0287417Y0165912D01*
X0287265Y0165924D01*
X0287112Y0165940D01*
X0286960Y0165960D01*
X0286809Y0165984D01*
X0286658Y0166012D01*
X0286508Y0166043D01*
X0286359Y0166079D01*
X0286211Y0166118D01*
X0286064Y0166161D01*
X0285919Y0166208D01*
X0285774Y0166259D01*
X0285631Y0166313D01*
X0285489Y0166371D01*
X0285349Y0166433D01*
X0285211Y0166499D01*
X0285074Y0166568D01*
X0284939Y0166640D01*
X0284806Y0166716D01*
X0284675Y0166796D01*
X0284546Y0166878D01*
X0284419Y0166965D01*
X0284295Y0167054D01*
X0284173Y0167147D01*
X0284053Y0167242D01*
X0283936Y0167341D01*
X0283822Y0167443D01*
X0283710Y0167548D01*
X0283601Y0167655D01*
X0283495Y0167766D01*
X0283392Y0167879D01*
X0283291Y0167995D01*
X0283194Y0168113D01*
X0283100Y0168234D01*
X0283009Y0168357D01*
X0282921Y0168482D01*
X0282837Y0168610D01*
X0282755Y0168740D01*
X0282678Y0168872D01*
X0282603Y0169006D01*
X0282533Y0169142D01*
X0282465Y0169280D01*
X0282402Y0169419D01*
X0282342Y0169560D01*
X0282285Y0169702D01*
X0282233Y0169846D01*
X0282184Y0169991D01*
X0282139Y0170138D01*
X0282098Y0170285D01*
X0282060Y0170434D01*
X0282027Y0170583D01*
X0281997Y0170734D01*
X0281971Y0170885D01*
X0281950Y0171036D01*
X0281932Y0171188D01*
X0281918Y0171341D01*
X0281908Y0171494D01*
X0281902Y0171647D01*
X0281900Y0171800D01*
X0272100Y0171800D02*
X0272102Y0171889D01*
X0272108Y0171978D01*
X0272118Y0172067D01*
X0272132Y0172155D01*
X0272149Y0172242D01*
X0272171Y0172328D01*
X0272197Y0172414D01*
X0272226Y0172498D01*
X0272259Y0172581D01*
X0272295Y0172662D01*
X0272336Y0172742D01*
X0272379Y0172819D01*
X0272426Y0172895D01*
X0272477Y0172968D01*
X0272530Y0173039D01*
X0272587Y0173108D01*
X0272647Y0173174D01*
X0272710Y0173238D01*
X0272775Y0173298D01*
X0272843Y0173356D01*
X0272914Y0173410D01*
X0272987Y0173461D01*
X0273062Y0173509D01*
X0273139Y0173554D01*
X0273218Y0173595D01*
X0273299Y0173632D01*
X0273381Y0173666D01*
X0273465Y0173697D01*
X0273550Y0173723D01*
X0273636Y0173746D01*
X0273723Y0173764D01*
X0273811Y0173779D01*
X0273900Y0173790D01*
X0273989Y0173797D01*
X0274078Y0173800D01*
X0274167Y0173799D01*
X0274256Y0173794D01*
X0274344Y0173785D01*
X0274433Y0173772D01*
X0274520Y0173755D01*
X0274607Y0173735D01*
X0274693Y0173710D01*
X0274777Y0173682D01*
X0274860Y0173650D01*
X0274942Y0173614D01*
X0275022Y0173575D01*
X0275100Y0173532D01*
X0275176Y0173486D01*
X0275250Y0173436D01*
X0275322Y0173383D01*
X0275391Y0173327D01*
X0275458Y0173268D01*
X0275522Y0173206D01*
X0275583Y0173142D01*
X0275642Y0173074D01*
X0275697Y0173004D01*
X0275749Y0172932D01*
X0275798Y0172857D01*
X0275843Y0172781D01*
X0275885Y0172702D01*
X0275923Y0172622D01*
X0275958Y0172540D01*
X0275989Y0172456D01*
X0276017Y0172371D01*
X0276040Y0172285D01*
X0276060Y0172198D01*
X0276076Y0172111D01*
X0276088Y0172022D01*
X0276096Y0171934D01*
X0276100Y0171845D01*
X0276100Y0171755D01*
X0276096Y0171666D01*
X0276088Y0171578D01*
X0276076Y0171489D01*
X0276060Y0171402D01*
X0276040Y0171315D01*
X0276017Y0171229D01*
X0275989Y0171144D01*
X0275958Y0171060D01*
X0275923Y0170978D01*
X0275885Y0170898D01*
X0275843Y0170819D01*
X0275798Y0170743D01*
X0275749Y0170668D01*
X0275697Y0170596D01*
X0275642Y0170526D01*
X0275583Y0170458D01*
X0275522Y0170394D01*
X0275458Y0170332D01*
X0275391Y0170273D01*
X0275322Y0170217D01*
X0275250Y0170164D01*
X0275176Y0170114D01*
X0275100Y0170068D01*
X0275022Y0170025D01*
X0274942Y0169986D01*
X0274860Y0169950D01*
X0274777Y0169918D01*
X0274693Y0169890D01*
X0274607Y0169865D01*
X0274520Y0169845D01*
X0274433Y0169828D01*
X0274344Y0169815D01*
X0274256Y0169806D01*
X0274167Y0169801D01*
X0274078Y0169800D01*
X0273989Y0169803D01*
X0273900Y0169810D01*
X0273811Y0169821D01*
X0273723Y0169836D01*
X0273636Y0169854D01*
X0273550Y0169877D01*
X0273465Y0169903D01*
X0273381Y0169934D01*
X0273299Y0169968D01*
X0273218Y0170005D01*
X0273139Y0170046D01*
X0273062Y0170091D01*
X0272987Y0170139D01*
X0272914Y0170190D01*
X0272843Y0170244D01*
X0272775Y0170302D01*
X0272710Y0170362D01*
X0272647Y0170426D01*
X0272587Y0170492D01*
X0272530Y0170561D01*
X0272477Y0170632D01*
X0272426Y0170705D01*
X0272379Y0170781D01*
X0272336Y0170858D01*
X0272295Y0170938D01*
X0272259Y0171019D01*
X0272226Y0171102D01*
X0272197Y0171186D01*
X0272171Y0171272D01*
X0272149Y0171358D01*
X0272132Y0171445D01*
X0272118Y0171533D01*
X0272108Y0171622D01*
X0272102Y0171711D01*
X0272100Y0171800D01*
X0259800Y0171800D02*
X0248300Y0172300D01*
X0247300Y0173300D01*
X0247300Y0210300D01*
X0248300Y0211300D01*
X0259800Y0211800D01*
X0239300Y0204300D02*
X0229300Y0204300D01*
X0229300Y0171938D01*
X0239300Y0171938D02*
X0239300Y0204300D01*
X0234900Y0206100D02*
X0234900Y0212100D01*
X0234898Y0212160D01*
X0234893Y0212221D01*
X0234884Y0212280D01*
X0234871Y0212339D01*
X0234855Y0212398D01*
X0234835Y0212455D01*
X0234812Y0212510D01*
X0234785Y0212565D01*
X0234756Y0212617D01*
X0234723Y0212668D01*
X0234687Y0212717D01*
X0234649Y0212763D01*
X0234607Y0212807D01*
X0234563Y0212849D01*
X0234517Y0212887D01*
X0234468Y0212923D01*
X0234417Y0212956D01*
X0234365Y0212985D01*
X0234310Y0213012D01*
X0234255Y0213035D01*
X0234198Y0213055D01*
X0234139Y0213071D01*
X0234080Y0213084D01*
X0234021Y0213093D01*
X0233960Y0213098D01*
X0233900Y0213100D01*
X0232400Y0213100D01*
X0231900Y0212600D01*
X0217900Y0212600D01*
X0217400Y0213100D01*
X0215900Y0213100D01*
X0215840Y0213098D01*
X0215779Y0213093D01*
X0215720Y0213084D01*
X0215661Y0213071D01*
X0215602Y0213055D01*
X0215545Y0213035D01*
X0215490Y0213012D01*
X0215435Y0212985D01*
X0215383Y0212956D01*
X0215332Y0212923D01*
X0215283Y0212887D01*
X0215237Y0212849D01*
X0215193Y0212807D01*
X0215151Y0212763D01*
X0215113Y0212717D01*
X0215077Y0212668D01*
X0215044Y0212617D01*
X0215015Y0212565D01*
X0214988Y0212510D01*
X0214965Y0212455D01*
X0214945Y0212398D01*
X0214929Y0212339D01*
X0214916Y0212280D01*
X0214907Y0212221D01*
X0214902Y0212160D01*
X0214900Y0212100D01*
X0214900Y0206100D01*
X0214902Y0206040D01*
X0214907Y0205979D01*
X0214916Y0205920D01*
X0214929Y0205861D01*
X0214945Y0205802D01*
X0214965Y0205745D01*
X0214988Y0205690D01*
X0215015Y0205635D01*
X0215044Y0205583D01*
X0215077Y0205532D01*
X0215113Y0205483D01*
X0215151Y0205437D01*
X0215193Y0205393D01*
X0215237Y0205351D01*
X0215283Y0205313D01*
X0215332Y0205277D01*
X0215383Y0205244D01*
X0215435Y0205215D01*
X0215490Y0205188D01*
X0215545Y0205165D01*
X0215602Y0205145D01*
X0215661Y0205129D01*
X0215720Y0205116D01*
X0215779Y0205107D01*
X0215840Y0205102D01*
X0215900Y0205100D01*
X0217400Y0205100D01*
X0217900Y0205600D01*
X0231900Y0205600D01*
X0232400Y0205100D01*
X0233900Y0205100D01*
X0233960Y0205102D01*
X0234021Y0205107D01*
X0234080Y0205116D01*
X0234139Y0205129D01*
X0234198Y0205145D01*
X0234255Y0205165D01*
X0234310Y0205188D01*
X0234365Y0205215D01*
X0234417Y0205244D01*
X0234468Y0205277D01*
X0234517Y0205313D01*
X0234563Y0205351D01*
X0234607Y0205393D01*
X0234649Y0205437D01*
X0234687Y0205483D01*
X0234723Y0205532D01*
X0234756Y0205583D01*
X0234785Y0205635D01*
X0234812Y0205690D01*
X0234835Y0205745D01*
X0234855Y0205802D01*
X0234871Y0205861D01*
X0234884Y0205920D01*
X0234893Y0205979D01*
X0234898Y0206040D01*
X0234900Y0206100D01*
X0223300Y0204300D02*
X0223298Y0204174D01*
X0223292Y0204049D01*
X0223282Y0203924D01*
X0223268Y0203799D01*
X0223251Y0203674D01*
X0223229Y0203550D01*
X0223204Y0203427D01*
X0223174Y0203305D01*
X0223141Y0203184D01*
X0223104Y0203064D01*
X0223064Y0202945D01*
X0223019Y0202828D01*
X0222971Y0202711D01*
X0222919Y0202597D01*
X0222864Y0202484D01*
X0222805Y0202373D01*
X0222743Y0202264D01*
X0222677Y0202157D01*
X0222608Y0202052D01*
X0222536Y0201949D01*
X0222461Y0201848D01*
X0222382Y0201750D01*
X0222300Y0201655D01*
X0222216Y0201562D01*
X0222128Y0201472D01*
X0222038Y0201384D01*
X0221945Y0201300D01*
X0221850Y0201218D01*
X0221752Y0201139D01*
X0221651Y0201064D01*
X0221548Y0200992D01*
X0221443Y0200923D01*
X0221336Y0200857D01*
X0221227Y0200795D01*
X0221116Y0200736D01*
X0221003Y0200681D01*
X0220889Y0200629D01*
X0220772Y0200581D01*
X0220655Y0200536D01*
X0220536Y0200496D01*
X0220416Y0200459D01*
X0220295Y0200426D01*
X0220173Y0200396D01*
X0220050Y0200371D01*
X0219926Y0200349D01*
X0219801Y0200332D01*
X0219676Y0200318D01*
X0219551Y0200308D01*
X0219426Y0200302D01*
X0219300Y0200300D01*
X0219174Y0200302D01*
X0219049Y0200308D01*
X0218924Y0200318D01*
X0218799Y0200332D01*
X0218674Y0200349D01*
X0218550Y0200371D01*
X0218427Y0200396D01*
X0218305Y0200426D01*
X0218184Y0200459D01*
X0218064Y0200496D01*
X0217945Y0200536D01*
X0217828Y0200581D01*
X0217711Y0200629D01*
X0217597Y0200681D01*
X0217484Y0200736D01*
X0217373Y0200795D01*
X0217264Y0200857D01*
X0217157Y0200923D01*
X0217052Y0200992D01*
X0216949Y0201064D01*
X0216848Y0201139D01*
X0216750Y0201218D01*
X0216655Y0201300D01*
X0216562Y0201384D01*
X0216472Y0201472D01*
X0216384Y0201562D01*
X0216300Y0201655D01*
X0216218Y0201750D01*
X0216139Y0201848D01*
X0216064Y0201949D01*
X0215992Y0202052D01*
X0215923Y0202157D01*
X0215857Y0202264D01*
X0215795Y0202373D01*
X0215736Y0202484D01*
X0215681Y0202597D01*
X0215629Y0202711D01*
X0215581Y0202828D01*
X0215536Y0202945D01*
X0215496Y0203064D01*
X0215459Y0203184D01*
X0215426Y0203305D01*
X0215396Y0203427D01*
X0215371Y0203550D01*
X0215349Y0203674D01*
X0215332Y0203799D01*
X0215318Y0203924D01*
X0215308Y0204049D01*
X0215302Y0204174D01*
X0215300Y0204300D01*
X0209300Y0204300D01*
X0209300Y0172331D01*
X0199300Y0171938D02*
X0199300Y0204300D01*
X0209300Y0204300D01*
X0267800Y0181800D02*
X0268800Y0181800D01*
X0294800Y0181800D01*
X0294800Y0175300D01*
X0294800Y0168300D01*
X0294800Y0155300D01*
X0294800Y0148300D01*
X0294800Y0141800D01*
X0304300Y0141800D01*
X0304300Y0181800D01*
X0294800Y0181800D01*
X0268800Y0181800D02*
X0268800Y0141800D01*
X0267800Y0141800D01*
X0267800Y0181800D01*
X0259800Y0164300D02*
X0248300Y0163800D01*
X0247300Y0162800D01*
X0247300Y0125800D01*
X0248300Y0124800D01*
X0259800Y0124300D01*
X0259800Y0116800D02*
X0248300Y0116300D01*
X0247300Y0115300D01*
X0247300Y0078300D01*
X0248300Y0077300D01*
X0259800Y0076800D01*
X0259800Y0071800D02*
X0248300Y0071300D01*
X0247300Y0070300D01*
X0247300Y0033300D01*
X0248300Y0032300D01*
X0259800Y0031800D01*
X0239300Y0029438D02*
X0239300Y0061800D01*
X0229300Y0061800D01*
X0229300Y0029438D01*
X0209300Y0029831D02*
X0209300Y0061800D01*
X0215300Y0061800D01*
X0215600Y0062300D02*
X0217100Y0062300D01*
X0217600Y0062800D01*
X0231600Y0062800D01*
X0232100Y0062300D01*
X0233600Y0062300D01*
X0233660Y0062302D01*
X0233721Y0062307D01*
X0233780Y0062316D01*
X0233839Y0062329D01*
X0233898Y0062345D01*
X0233955Y0062365D01*
X0234010Y0062388D01*
X0234065Y0062415D01*
X0234117Y0062444D01*
X0234168Y0062477D01*
X0234217Y0062513D01*
X0234263Y0062551D01*
X0234307Y0062593D01*
X0234349Y0062637D01*
X0234387Y0062683D01*
X0234423Y0062732D01*
X0234456Y0062783D01*
X0234485Y0062835D01*
X0234512Y0062890D01*
X0234535Y0062945D01*
X0234555Y0063002D01*
X0234571Y0063061D01*
X0234584Y0063120D01*
X0234593Y0063179D01*
X0234598Y0063240D01*
X0234600Y0063300D01*
X0234600Y0069300D01*
X0234598Y0069360D01*
X0234593Y0069421D01*
X0234584Y0069480D01*
X0234571Y0069539D01*
X0234555Y0069598D01*
X0234535Y0069655D01*
X0234512Y0069710D01*
X0234485Y0069765D01*
X0234456Y0069817D01*
X0234423Y0069868D01*
X0234387Y0069917D01*
X0234349Y0069963D01*
X0234307Y0070007D01*
X0234263Y0070049D01*
X0234217Y0070087D01*
X0234168Y0070123D01*
X0234117Y0070156D01*
X0234065Y0070185D01*
X0234010Y0070212D01*
X0233955Y0070235D01*
X0233898Y0070255D01*
X0233839Y0070271D01*
X0233780Y0070284D01*
X0233721Y0070293D01*
X0233660Y0070298D01*
X0233600Y0070300D01*
X0232100Y0070300D01*
X0231600Y0069800D01*
X0217600Y0069800D01*
X0217100Y0070300D01*
X0215600Y0070300D01*
X0215540Y0070298D01*
X0215479Y0070293D01*
X0215420Y0070284D01*
X0215361Y0070271D01*
X0215302Y0070255D01*
X0215245Y0070235D01*
X0215190Y0070212D01*
X0215135Y0070185D01*
X0215083Y0070156D01*
X0215032Y0070123D01*
X0214983Y0070087D01*
X0214937Y0070049D01*
X0214893Y0070007D01*
X0214851Y0069963D01*
X0214813Y0069917D01*
X0214777Y0069868D01*
X0214744Y0069817D01*
X0214715Y0069765D01*
X0214688Y0069710D01*
X0214665Y0069655D01*
X0214645Y0069598D01*
X0214629Y0069539D01*
X0214616Y0069480D01*
X0214607Y0069421D01*
X0214602Y0069360D01*
X0214600Y0069300D01*
X0214600Y0063300D01*
X0214602Y0063240D01*
X0214607Y0063179D01*
X0214616Y0063120D01*
X0214629Y0063061D01*
X0214645Y0063002D01*
X0214665Y0062945D01*
X0214688Y0062890D01*
X0214715Y0062835D01*
X0214744Y0062783D01*
X0214777Y0062732D01*
X0214813Y0062683D01*
X0214851Y0062637D01*
X0214893Y0062593D01*
X0214937Y0062551D01*
X0214983Y0062513D01*
X0215032Y0062477D01*
X0215083Y0062444D01*
X0215135Y0062415D01*
X0215190Y0062388D01*
X0215245Y0062365D01*
X0215302Y0062345D01*
X0215361Y0062329D01*
X0215420Y0062316D01*
X0215479Y0062307D01*
X0215540Y0062302D01*
X0215600Y0062300D01*
X0215300Y0061800D02*
X0215302Y0061674D01*
X0215308Y0061549D01*
X0215318Y0061424D01*
X0215332Y0061299D01*
X0215349Y0061174D01*
X0215371Y0061050D01*
X0215396Y0060927D01*
X0215426Y0060805D01*
X0215459Y0060684D01*
X0215496Y0060564D01*
X0215536Y0060445D01*
X0215581Y0060328D01*
X0215629Y0060211D01*
X0215681Y0060097D01*
X0215736Y0059984D01*
X0215795Y0059873D01*
X0215857Y0059764D01*
X0215923Y0059657D01*
X0215992Y0059552D01*
X0216064Y0059449D01*
X0216139Y0059348D01*
X0216218Y0059250D01*
X0216300Y0059155D01*
X0216384Y0059062D01*
X0216472Y0058972D01*
X0216562Y0058884D01*
X0216655Y0058800D01*
X0216750Y0058718D01*
X0216848Y0058639D01*
X0216949Y0058564D01*
X0217052Y0058492D01*
X0217157Y0058423D01*
X0217264Y0058357D01*
X0217373Y0058295D01*
X0217484Y0058236D01*
X0217597Y0058181D01*
X0217711Y0058129D01*
X0217828Y0058081D01*
X0217945Y0058036D01*
X0218064Y0057996D01*
X0218184Y0057959D01*
X0218305Y0057926D01*
X0218427Y0057896D01*
X0218550Y0057871D01*
X0218674Y0057849D01*
X0218799Y0057832D01*
X0218924Y0057818D01*
X0219049Y0057808D01*
X0219174Y0057802D01*
X0219300Y0057800D01*
X0219426Y0057802D01*
X0219551Y0057808D01*
X0219676Y0057818D01*
X0219801Y0057832D01*
X0219926Y0057849D01*
X0220050Y0057871D01*
X0220173Y0057896D01*
X0220295Y0057926D01*
X0220416Y0057959D01*
X0220536Y0057996D01*
X0220655Y0058036D01*
X0220772Y0058081D01*
X0220889Y0058129D01*
X0221003Y0058181D01*
X0221116Y0058236D01*
X0221227Y0058295D01*
X0221336Y0058357D01*
X0221443Y0058423D01*
X0221548Y0058492D01*
X0221651Y0058564D01*
X0221752Y0058639D01*
X0221850Y0058718D01*
X0221945Y0058800D01*
X0222038Y0058884D01*
X0222128Y0058972D01*
X0222216Y0059062D01*
X0222300Y0059155D01*
X0222382Y0059250D01*
X0222461Y0059348D01*
X0222536Y0059449D01*
X0222608Y0059552D01*
X0222677Y0059657D01*
X0222743Y0059764D01*
X0222805Y0059873D01*
X0222864Y0059984D01*
X0222919Y0060097D01*
X0222971Y0060211D01*
X0223019Y0060328D01*
X0223064Y0060445D01*
X0223104Y0060564D01*
X0223141Y0060684D01*
X0223174Y0060805D01*
X0223204Y0060927D01*
X0223229Y0061050D01*
X0223251Y0061174D01*
X0223268Y0061299D01*
X0223282Y0061424D01*
X0223292Y0061549D01*
X0223298Y0061674D01*
X0223300Y0061800D01*
X0209300Y0061800D02*
X0199300Y0061800D01*
X0199300Y0029438D01*
X0153414Y0053300D02*
X0150186Y0053300D01*
X0150186Y0058300D02*
X0153414Y0058300D01*
X0153414Y0068300D02*
X0150186Y0068300D01*
X0150186Y0073300D02*
X0153414Y0073300D01*
X0153414Y0083300D02*
X0150186Y0083300D01*
X0150186Y0088300D02*
X0153414Y0088300D01*
X0153414Y0101300D02*
X0150186Y0101300D01*
X0150186Y0106300D02*
X0153414Y0106300D01*
X0123414Y0106300D02*
X0120186Y0106300D01*
X0120186Y0101300D02*
X0123414Y0101300D01*
X0123414Y0088300D02*
X0120186Y0088300D01*
X0120186Y0083300D02*
X0123414Y0083300D01*
X0123414Y0073300D02*
X0120186Y0073300D01*
X0120186Y0068300D02*
X0123414Y0068300D01*
X0123414Y0058300D02*
X0120186Y0058300D01*
X0120186Y0053300D02*
X0123414Y0053300D01*
X0041784Y0038800D02*
X0041787Y0039021D01*
X0041795Y0039242D01*
X0041808Y0039463D01*
X0041827Y0039684D01*
X0041852Y0039904D01*
X0041882Y0040123D01*
X0041917Y0040341D01*
X0041957Y0040559D01*
X0042003Y0040775D01*
X0042054Y0040991D01*
X0042111Y0041205D01*
X0042172Y0041417D01*
X0042239Y0041628D01*
X0042311Y0041837D01*
X0042388Y0042045D01*
X0042470Y0042250D01*
X0042557Y0042454D01*
X0042650Y0042655D01*
X0042747Y0042854D01*
X0042849Y0043050D01*
X0042955Y0043244D01*
X0043067Y0043435D01*
X0043183Y0043624D01*
X0043303Y0043809D01*
X0043429Y0043991D01*
X0043558Y0044171D01*
X0043692Y0044347D01*
X0043831Y0044520D01*
X0043973Y0044689D01*
X0044120Y0044855D01*
X0044270Y0045017D01*
X0044425Y0045175D01*
X0044583Y0045330D01*
X0044745Y0045480D01*
X0044911Y0045627D01*
X0045080Y0045769D01*
X0045253Y0045908D01*
X0045429Y0046042D01*
X0045609Y0046171D01*
X0045791Y0046297D01*
X0045976Y0046417D01*
X0046165Y0046533D01*
X0046356Y0046645D01*
X0046550Y0046751D01*
X0046746Y0046853D01*
X0046945Y0046950D01*
X0047146Y0047043D01*
X0047350Y0047130D01*
X0047555Y0047212D01*
X0047763Y0047289D01*
X0047972Y0047361D01*
X0048183Y0047428D01*
X0048395Y0047489D01*
X0048609Y0047546D01*
X0048825Y0047597D01*
X0049041Y0047643D01*
X0049259Y0047683D01*
X0049477Y0047718D01*
X0049696Y0047748D01*
X0049916Y0047773D01*
X0050137Y0047792D01*
X0050358Y0047805D01*
X0050579Y0047813D01*
X0050800Y0047816D01*
X0051021Y0047813D01*
X0051242Y0047805D01*
X0051463Y0047792D01*
X0051684Y0047773D01*
X0051904Y0047748D01*
X0052123Y0047718D01*
X0052341Y0047683D01*
X0052559Y0047643D01*
X0052775Y0047597D01*
X0052991Y0047546D01*
X0053205Y0047489D01*
X0053417Y0047428D01*
X0053628Y0047361D01*
X0053837Y0047289D01*
X0054045Y0047212D01*
X0054250Y0047130D01*
X0054454Y0047043D01*
X0054655Y0046950D01*
X0054854Y0046853D01*
X0055050Y0046751D01*
X0055244Y0046645D01*
X0055435Y0046533D01*
X0055624Y0046417D01*
X0055809Y0046297D01*
X0055991Y0046171D01*
X0056171Y0046042D01*
X0056347Y0045908D01*
X0056520Y0045769D01*
X0056689Y0045627D01*
X0056855Y0045480D01*
X0057017Y0045330D01*
X0057175Y0045175D01*
X0057330Y0045017D01*
X0057480Y0044855D01*
X0057627Y0044689D01*
X0057769Y0044520D01*
X0057908Y0044347D01*
X0058042Y0044171D01*
X0058171Y0043991D01*
X0058297Y0043809D01*
X0058417Y0043624D01*
X0058533Y0043435D01*
X0058645Y0043244D01*
X0058751Y0043050D01*
X0058853Y0042854D01*
X0058950Y0042655D01*
X0059043Y0042454D01*
X0059130Y0042250D01*
X0059212Y0042045D01*
X0059289Y0041837D01*
X0059361Y0041628D01*
X0059428Y0041417D01*
X0059489Y0041205D01*
X0059546Y0040991D01*
X0059597Y0040775D01*
X0059643Y0040559D01*
X0059683Y0040341D01*
X0059718Y0040123D01*
X0059748Y0039904D01*
X0059773Y0039684D01*
X0059792Y0039463D01*
X0059805Y0039242D01*
X0059813Y0039021D01*
X0059816Y0038800D01*
X0059813Y0038579D01*
X0059805Y0038358D01*
X0059792Y0038137D01*
X0059773Y0037916D01*
X0059748Y0037696D01*
X0059718Y0037477D01*
X0059683Y0037259D01*
X0059643Y0037041D01*
X0059597Y0036825D01*
X0059546Y0036609D01*
X0059489Y0036395D01*
X0059428Y0036183D01*
X0059361Y0035972D01*
X0059289Y0035763D01*
X0059212Y0035555D01*
X0059130Y0035350D01*
X0059043Y0035146D01*
X0058950Y0034945D01*
X0058853Y0034746D01*
X0058751Y0034550D01*
X0058645Y0034356D01*
X0058533Y0034165D01*
X0058417Y0033976D01*
X0058297Y0033791D01*
X0058171Y0033609D01*
X0058042Y0033429D01*
X0057908Y0033253D01*
X0057769Y0033080D01*
X0057627Y0032911D01*
X0057480Y0032745D01*
X0057330Y0032583D01*
X0057175Y0032425D01*
X0057017Y0032270D01*
X0056855Y0032120D01*
X0056689Y0031973D01*
X0056520Y0031831D01*
X0056347Y0031692D01*
X0056171Y0031558D01*
X0055991Y0031429D01*
X0055809Y0031303D01*
X0055624Y0031183D01*
X0055435Y0031067D01*
X0055244Y0030955D01*
X0055050Y0030849D01*
X0054854Y0030747D01*
X0054655Y0030650D01*
X0054454Y0030557D01*
X0054250Y0030470D01*
X0054045Y0030388D01*
X0053837Y0030311D01*
X0053628Y0030239D01*
X0053417Y0030172D01*
X0053205Y0030111D01*
X0052991Y0030054D01*
X0052775Y0030003D01*
X0052559Y0029957D01*
X0052341Y0029917D01*
X0052123Y0029882D01*
X0051904Y0029852D01*
X0051684Y0029827D01*
X0051463Y0029808D01*
X0051242Y0029795D01*
X0051021Y0029787D01*
X0050800Y0029784D01*
X0050579Y0029787D01*
X0050358Y0029795D01*
X0050137Y0029808D01*
X0049916Y0029827D01*
X0049696Y0029852D01*
X0049477Y0029882D01*
X0049259Y0029917D01*
X0049041Y0029957D01*
X0048825Y0030003D01*
X0048609Y0030054D01*
X0048395Y0030111D01*
X0048183Y0030172D01*
X0047972Y0030239D01*
X0047763Y0030311D01*
X0047555Y0030388D01*
X0047350Y0030470D01*
X0047146Y0030557D01*
X0046945Y0030650D01*
X0046746Y0030747D01*
X0046550Y0030849D01*
X0046356Y0030955D01*
X0046165Y0031067D01*
X0045976Y0031183D01*
X0045791Y0031303D01*
X0045609Y0031429D01*
X0045429Y0031558D01*
X0045253Y0031692D01*
X0045080Y0031831D01*
X0044911Y0031973D01*
X0044745Y0032120D01*
X0044583Y0032270D01*
X0044425Y0032425D01*
X0044270Y0032583D01*
X0044120Y0032745D01*
X0043973Y0032911D01*
X0043831Y0033080D01*
X0043692Y0033253D01*
X0043558Y0033429D01*
X0043429Y0033609D01*
X0043303Y0033791D01*
X0043183Y0033976D01*
X0043067Y0034165D01*
X0042955Y0034356D01*
X0042849Y0034550D01*
X0042747Y0034746D01*
X0042650Y0034945D01*
X0042557Y0035146D01*
X0042470Y0035350D01*
X0042388Y0035555D01*
X0042311Y0035763D01*
X0042239Y0035972D01*
X0042172Y0036183D01*
X0042111Y0036395D01*
X0042054Y0036609D01*
X0042003Y0036825D01*
X0041957Y0037041D01*
X0041917Y0037259D01*
X0041882Y0037477D01*
X0041852Y0037696D01*
X0041827Y0037916D01*
X0041808Y0038137D01*
X0041795Y0038358D01*
X0041787Y0038579D01*
X0041784Y0038800D01*
X0199300Y0071938D02*
X0199300Y0104300D01*
X0209300Y0104300D01*
X0215300Y0104300D01*
X0216300Y0104700D02*
X0217800Y0104700D01*
X0218300Y0105200D01*
X0232300Y0105200D01*
X0232800Y0104700D01*
X0234300Y0104700D01*
X0234360Y0104702D01*
X0234421Y0104707D01*
X0234480Y0104716D01*
X0234539Y0104729D01*
X0234598Y0104745D01*
X0234655Y0104765D01*
X0234710Y0104788D01*
X0234765Y0104815D01*
X0234817Y0104844D01*
X0234868Y0104877D01*
X0234917Y0104913D01*
X0234963Y0104951D01*
X0235007Y0104993D01*
X0235049Y0105037D01*
X0235087Y0105083D01*
X0235123Y0105132D01*
X0235156Y0105183D01*
X0235185Y0105235D01*
X0235212Y0105290D01*
X0235235Y0105345D01*
X0235255Y0105402D01*
X0235271Y0105461D01*
X0235284Y0105520D01*
X0235293Y0105579D01*
X0235298Y0105640D01*
X0235300Y0105700D01*
X0235300Y0111700D01*
X0235298Y0111760D01*
X0235293Y0111821D01*
X0235284Y0111880D01*
X0235271Y0111939D01*
X0235255Y0111998D01*
X0235235Y0112055D01*
X0235212Y0112110D01*
X0235185Y0112165D01*
X0235156Y0112217D01*
X0235123Y0112268D01*
X0235087Y0112317D01*
X0235049Y0112363D01*
X0235007Y0112407D01*
X0234963Y0112449D01*
X0234917Y0112487D01*
X0234868Y0112523D01*
X0234817Y0112556D01*
X0234765Y0112585D01*
X0234710Y0112612D01*
X0234655Y0112635D01*
X0234598Y0112655D01*
X0234539Y0112671D01*
X0234480Y0112684D01*
X0234421Y0112693D01*
X0234360Y0112698D01*
X0234300Y0112700D01*
X0232800Y0112700D01*
X0232300Y0112200D01*
X0218300Y0112200D01*
X0217800Y0112700D01*
X0216300Y0112700D01*
X0216240Y0112698D01*
X0216179Y0112693D01*
X0216120Y0112684D01*
X0216061Y0112671D01*
X0216002Y0112655D01*
X0215945Y0112635D01*
X0215890Y0112612D01*
X0215835Y0112585D01*
X0215783Y0112556D01*
X0215732Y0112523D01*
X0215683Y0112487D01*
X0215637Y0112449D01*
X0215593Y0112407D01*
X0215551Y0112363D01*
X0215513Y0112317D01*
X0215477Y0112268D01*
X0215444Y0112217D01*
X0215415Y0112165D01*
X0215388Y0112110D01*
X0215365Y0112055D01*
X0215345Y0111998D01*
X0215329Y0111939D01*
X0215316Y0111880D01*
X0215307Y0111821D01*
X0215302Y0111760D01*
X0215300Y0111700D01*
X0215300Y0105700D01*
X0215302Y0105640D01*
X0215307Y0105579D01*
X0215316Y0105520D01*
X0215329Y0105461D01*
X0215345Y0105402D01*
X0215365Y0105345D01*
X0215388Y0105290D01*
X0215415Y0105235D01*
X0215444Y0105183D01*
X0215477Y0105132D01*
X0215513Y0105083D01*
X0215551Y0105037D01*
X0215593Y0104993D01*
X0215637Y0104951D01*
X0215683Y0104913D01*
X0215732Y0104877D01*
X0215783Y0104844D01*
X0215835Y0104815D01*
X0215890Y0104788D01*
X0215945Y0104765D01*
X0216002Y0104745D01*
X0216061Y0104729D01*
X0216120Y0104716D01*
X0216179Y0104707D01*
X0216240Y0104702D01*
X0216300Y0104700D01*
X0215300Y0104300D02*
X0215302Y0104174D01*
X0215308Y0104049D01*
X0215318Y0103924D01*
X0215332Y0103799D01*
X0215349Y0103674D01*
X0215371Y0103550D01*
X0215396Y0103427D01*
X0215426Y0103305D01*
X0215459Y0103184D01*
X0215496Y0103064D01*
X0215536Y0102945D01*
X0215581Y0102828D01*
X0215629Y0102711D01*
X0215681Y0102597D01*
X0215736Y0102484D01*
X0215795Y0102373D01*
X0215857Y0102264D01*
X0215923Y0102157D01*
X0215992Y0102052D01*
X0216064Y0101949D01*
X0216139Y0101848D01*
X0216218Y0101750D01*
X0216300Y0101655D01*
X0216384Y0101562D01*
X0216472Y0101472D01*
X0216562Y0101384D01*
X0216655Y0101300D01*
X0216750Y0101218D01*
X0216848Y0101139D01*
X0216949Y0101064D01*
X0217052Y0100992D01*
X0217157Y0100923D01*
X0217264Y0100857D01*
X0217373Y0100795D01*
X0217484Y0100736D01*
X0217597Y0100681D01*
X0217711Y0100629D01*
X0217828Y0100581D01*
X0217945Y0100536D01*
X0218064Y0100496D01*
X0218184Y0100459D01*
X0218305Y0100426D01*
X0218427Y0100396D01*
X0218550Y0100371D01*
X0218674Y0100349D01*
X0218799Y0100332D01*
X0218924Y0100318D01*
X0219049Y0100308D01*
X0219174Y0100302D01*
X0219300Y0100300D01*
X0219426Y0100302D01*
X0219551Y0100308D01*
X0219676Y0100318D01*
X0219801Y0100332D01*
X0219926Y0100349D01*
X0220050Y0100371D01*
X0220173Y0100396D01*
X0220295Y0100426D01*
X0220416Y0100459D01*
X0220536Y0100496D01*
X0220655Y0100536D01*
X0220772Y0100581D01*
X0220889Y0100629D01*
X0221003Y0100681D01*
X0221116Y0100736D01*
X0221227Y0100795D01*
X0221336Y0100857D01*
X0221443Y0100923D01*
X0221548Y0100992D01*
X0221651Y0101064D01*
X0221752Y0101139D01*
X0221850Y0101218D01*
X0221945Y0101300D01*
X0222038Y0101384D01*
X0222128Y0101472D01*
X0222216Y0101562D01*
X0222300Y0101655D01*
X0222382Y0101750D01*
X0222461Y0101848D01*
X0222536Y0101949D01*
X0222608Y0102052D01*
X0222677Y0102157D01*
X0222743Y0102264D01*
X0222805Y0102373D01*
X0222864Y0102484D01*
X0222919Y0102597D01*
X0222971Y0102711D01*
X0223019Y0102828D01*
X0223064Y0102945D01*
X0223104Y0103064D01*
X0223141Y0103184D01*
X0223174Y0103305D01*
X0223204Y0103427D01*
X0223229Y0103550D01*
X0223251Y0103674D01*
X0223268Y0103799D01*
X0223282Y0103924D01*
X0223292Y0104049D01*
X0223298Y0104174D01*
X0223300Y0104300D01*
X0229300Y0104300D02*
X0229300Y0071938D01*
X0239300Y0071938D02*
X0239300Y0104300D01*
X0229300Y0104300D01*
X0209300Y0104300D02*
X0209300Y0072331D01*
X0267999Y0062473D02*
X0268798Y0062473D01*
X0268798Y0141174D01*
X0294798Y0141174D01*
X0304200Y0141174D01*
X0304200Y0062473D01*
X0294798Y0062473D01*
X0268798Y0062473D01*
X0267999Y0062473D02*
X0267999Y0141174D01*
X0268798Y0141174D01*
X0268800Y0141800D02*
X0294800Y0141800D01*
X0294798Y0141174D02*
X0294798Y0134871D01*
X0294798Y0127871D01*
X0294798Y0115174D01*
X0294798Y0108174D01*
X0294798Y0095473D01*
X0294798Y0088473D01*
X0294798Y0075772D01*
X0294798Y0068772D01*
X0294798Y0062473D01*
X0281800Y0072272D02*
X0281802Y0072425D01*
X0281808Y0072578D01*
X0281818Y0072731D01*
X0281832Y0072884D01*
X0281850Y0073036D01*
X0281871Y0073187D01*
X0281897Y0073338D01*
X0281927Y0073489D01*
X0281960Y0073638D01*
X0281998Y0073787D01*
X0282039Y0073934D01*
X0282084Y0074081D01*
X0282133Y0074226D01*
X0282185Y0074370D01*
X0282242Y0074512D01*
X0282302Y0074653D01*
X0282365Y0074792D01*
X0282433Y0074930D01*
X0282503Y0075066D01*
X0282578Y0075200D01*
X0282655Y0075332D01*
X0282737Y0075462D01*
X0282821Y0075590D01*
X0282909Y0075715D01*
X0283000Y0075838D01*
X0283094Y0075959D01*
X0283191Y0076077D01*
X0283292Y0076193D01*
X0283395Y0076306D01*
X0283501Y0076417D01*
X0283610Y0076524D01*
X0283722Y0076629D01*
X0283836Y0076731D01*
X0283953Y0076830D01*
X0284073Y0076925D01*
X0284195Y0077018D01*
X0284319Y0077107D01*
X0284446Y0077194D01*
X0284575Y0077276D01*
X0284706Y0077356D01*
X0284839Y0077432D01*
X0284974Y0077504D01*
X0285111Y0077573D01*
X0285249Y0077639D01*
X0285389Y0077701D01*
X0285531Y0077759D01*
X0285674Y0077813D01*
X0285819Y0077864D01*
X0285964Y0077911D01*
X0286111Y0077954D01*
X0286259Y0077993D01*
X0286408Y0078029D01*
X0286558Y0078060D01*
X0286709Y0078088D01*
X0286860Y0078112D01*
X0287012Y0078132D01*
X0287165Y0078148D01*
X0287317Y0078160D01*
X0287470Y0078168D01*
X0287623Y0078172D01*
X0287777Y0078172D01*
X0287930Y0078168D01*
X0288083Y0078160D01*
X0288235Y0078148D01*
X0288388Y0078132D01*
X0288540Y0078112D01*
X0288691Y0078088D01*
X0288842Y0078060D01*
X0288992Y0078029D01*
X0289141Y0077993D01*
X0289289Y0077954D01*
X0289436Y0077911D01*
X0289581Y0077864D01*
X0289726Y0077813D01*
X0289869Y0077759D01*
X0290011Y0077701D01*
X0290151Y0077639D01*
X0290289Y0077573D01*
X0290426Y0077504D01*
X0290561Y0077432D01*
X0290694Y0077356D01*
X0290825Y0077276D01*
X0290954Y0077194D01*
X0291081Y0077107D01*
X0291205Y0077018D01*
X0291327Y0076925D01*
X0291447Y0076830D01*
X0291564Y0076731D01*
X0291678Y0076629D01*
X0291790Y0076524D01*
X0291899Y0076417D01*
X0292005Y0076306D01*
X0292108Y0076193D01*
X0292209Y0076077D01*
X0292306Y0075959D01*
X0292400Y0075838D01*
X0292491Y0075715D01*
X0292579Y0075590D01*
X0292663Y0075462D01*
X0292745Y0075332D01*
X0292822Y0075200D01*
X0292897Y0075066D01*
X0292967Y0074930D01*
X0293035Y0074792D01*
X0293098Y0074653D01*
X0293158Y0074512D01*
X0293215Y0074370D01*
X0293267Y0074226D01*
X0293316Y0074081D01*
X0293361Y0073934D01*
X0293402Y0073787D01*
X0293440Y0073638D01*
X0293473Y0073489D01*
X0293503Y0073338D01*
X0293529Y0073187D01*
X0293550Y0073036D01*
X0293568Y0072884D01*
X0293582Y0072731D01*
X0293592Y0072578D01*
X0293598Y0072425D01*
X0293600Y0072272D01*
X0293598Y0072119D01*
X0293592Y0071966D01*
X0293582Y0071813D01*
X0293568Y0071660D01*
X0293550Y0071508D01*
X0293529Y0071357D01*
X0293503Y0071206D01*
X0293473Y0071055D01*
X0293440Y0070906D01*
X0293402Y0070757D01*
X0293361Y0070610D01*
X0293316Y0070463D01*
X0293267Y0070318D01*
X0293215Y0070174D01*
X0293158Y0070032D01*
X0293098Y0069891D01*
X0293035Y0069752D01*
X0292967Y0069614D01*
X0292897Y0069478D01*
X0292822Y0069344D01*
X0292745Y0069212D01*
X0292663Y0069082D01*
X0292579Y0068954D01*
X0292491Y0068829D01*
X0292400Y0068706D01*
X0292306Y0068585D01*
X0292209Y0068467D01*
X0292108Y0068351D01*
X0292005Y0068238D01*
X0291899Y0068127D01*
X0291790Y0068020D01*
X0291678Y0067915D01*
X0291564Y0067813D01*
X0291447Y0067714D01*
X0291327Y0067619D01*
X0291205Y0067526D01*
X0291081Y0067437D01*
X0290954Y0067350D01*
X0290825Y0067268D01*
X0290694Y0067188D01*
X0290561Y0067112D01*
X0290426Y0067040D01*
X0290289Y0066971D01*
X0290151Y0066905D01*
X0290011Y0066843D01*
X0289869Y0066785D01*
X0289726Y0066731D01*
X0289581Y0066680D01*
X0289436Y0066633D01*
X0289289Y0066590D01*
X0289141Y0066551D01*
X0288992Y0066515D01*
X0288842Y0066484D01*
X0288691Y0066456D01*
X0288540Y0066432D01*
X0288388Y0066412D01*
X0288235Y0066396D01*
X0288083Y0066384D01*
X0287930Y0066376D01*
X0287777Y0066372D01*
X0287623Y0066372D01*
X0287470Y0066376D01*
X0287317Y0066384D01*
X0287165Y0066396D01*
X0287012Y0066412D01*
X0286860Y0066432D01*
X0286709Y0066456D01*
X0286558Y0066484D01*
X0286408Y0066515D01*
X0286259Y0066551D01*
X0286111Y0066590D01*
X0285964Y0066633D01*
X0285819Y0066680D01*
X0285674Y0066731D01*
X0285531Y0066785D01*
X0285389Y0066843D01*
X0285249Y0066905D01*
X0285111Y0066971D01*
X0284974Y0067040D01*
X0284839Y0067112D01*
X0284706Y0067188D01*
X0284575Y0067268D01*
X0284446Y0067350D01*
X0284319Y0067437D01*
X0284195Y0067526D01*
X0284073Y0067619D01*
X0283953Y0067714D01*
X0283836Y0067813D01*
X0283722Y0067915D01*
X0283610Y0068020D01*
X0283501Y0068127D01*
X0283395Y0068238D01*
X0283292Y0068351D01*
X0283191Y0068467D01*
X0283094Y0068585D01*
X0283000Y0068706D01*
X0282909Y0068829D01*
X0282821Y0068954D01*
X0282737Y0069082D01*
X0282655Y0069212D01*
X0282578Y0069344D01*
X0282503Y0069478D01*
X0282433Y0069614D01*
X0282365Y0069752D01*
X0282302Y0069891D01*
X0282242Y0070032D01*
X0282185Y0070174D01*
X0282133Y0070318D01*
X0282084Y0070463D01*
X0282039Y0070610D01*
X0281998Y0070757D01*
X0281960Y0070906D01*
X0281927Y0071055D01*
X0281897Y0071206D01*
X0281871Y0071357D01*
X0281850Y0071508D01*
X0281832Y0071660D01*
X0281818Y0071813D01*
X0281808Y0071966D01*
X0281802Y0072119D01*
X0281800Y0072272D01*
X0272000Y0072272D02*
X0272002Y0072361D01*
X0272008Y0072450D01*
X0272018Y0072539D01*
X0272032Y0072627D01*
X0272049Y0072714D01*
X0272071Y0072800D01*
X0272097Y0072886D01*
X0272126Y0072970D01*
X0272159Y0073053D01*
X0272195Y0073134D01*
X0272236Y0073214D01*
X0272279Y0073291D01*
X0272326Y0073367D01*
X0272377Y0073440D01*
X0272430Y0073511D01*
X0272487Y0073580D01*
X0272547Y0073646D01*
X0272610Y0073710D01*
X0272675Y0073770D01*
X0272743Y0073828D01*
X0272814Y0073882D01*
X0272887Y0073933D01*
X0272962Y0073981D01*
X0273039Y0074026D01*
X0273118Y0074067D01*
X0273199Y0074104D01*
X0273281Y0074138D01*
X0273365Y0074169D01*
X0273450Y0074195D01*
X0273536Y0074218D01*
X0273623Y0074236D01*
X0273711Y0074251D01*
X0273800Y0074262D01*
X0273889Y0074269D01*
X0273978Y0074272D01*
X0274067Y0074271D01*
X0274156Y0074266D01*
X0274244Y0074257D01*
X0274333Y0074244D01*
X0274420Y0074227D01*
X0274507Y0074207D01*
X0274593Y0074182D01*
X0274677Y0074154D01*
X0274760Y0074122D01*
X0274842Y0074086D01*
X0274922Y0074047D01*
X0275000Y0074004D01*
X0275076Y0073958D01*
X0275150Y0073908D01*
X0275222Y0073855D01*
X0275291Y0073799D01*
X0275358Y0073740D01*
X0275422Y0073678D01*
X0275483Y0073614D01*
X0275542Y0073546D01*
X0275597Y0073476D01*
X0275649Y0073404D01*
X0275698Y0073329D01*
X0275743Y0073253D01*
X0275785Y0073174D01*
X0275823Y0073094D01*
X0275858Y0073012D01*
X0275889Y0072928D01*
X0275917Y0072843D01*
X0275940Y0072757D01*
X0275960Y0072670D01*
X0275976Y0072583D01*
X0275988Y0072494D01*
X0275996Y0072406D01*
X0276000Y0072317D01*
X0276000Y0072227D01*
X0275996Y0072138D01*
X0275988Y0072050D01*
X0275976Y0071961D01*
X0275960Y0071874D01*
X0275940Y0071787D01*
X0275917Y0071701D01*
X0275889Y0071616D01*
X0275858Y0071532D01*
X0275823Y0071450D01*
X0275785Y0071370D01*
X0275743Y0071291D01*
X0275698Y0071215D01*
X0275649Y0071140D01*
X0275597Y0071068D01*
X0275542Y0070998D01*
X0275483Y0070930D01*
X0275422Y0070866D01*
X0275358Y0070804D01*
X0275291Y0070745D01*
X0275222Y0070689D01*
X0275150Y0070636D01*
X0275076Y0070586D01*
X0275000Y0070540D01*
X0274922Y0070497D01*
X0274842Y0070458D01*
X0274760Y0070422D01*
X0274677Y0070390D01*
X0274593Y0070362D01*
X0274507Y0070337D01*
X0274420Y0070317D01*
X0274333Y0070300D01*
X0274244Y0070287D01*
X0274156Y0070278D01*
X0274067Y0070273D01*
X0273978Y0070272D01*
X0273889Y0070275D01*
X0273800Y0070282D01*
X0273711Y0070293D01*
X0273623Y0070308D01*
X0273536Y0070326D01*
X0273450Y0070349D01*
X0273365Y0070375D01*
X0273281Y0070406D01*
X0273199Y0070440D01*
X0273118Y0070477D01*
X0273039Y0070518D01*
X0272962Y0070563D01*
X0272887Y0070611D01*
X0272814Y0070662D01*
X0272743Y0070716D01*
X0272675Y0070774D01*
X0272610Y0070834D01*
X0272547Y0070898D01*
X0272487Y0070964D01*
X0272430Y0071033D01*
X0272377Y0071104D01*
X0272326Y0071177D01*
X0272279Y0071253D01*
X0272236Y0071330D01*
X0272195Y0071410D01*
X0272159Y0071491D01*
X0272126Y0071574D01*
X0272097Y0071658D01*
X0272071Y0071744D01*
X0272049Y0071830D01*
X0272032Y0071917D01*
X0272018Y0072005D01*
X0272008Y0072094D01*
X0272002Y0072183D01*
X0272000Y0072272D01*
X0272000Y0091972D02*
X0272002Y0092061D01*
X0272008Y0092150D01*
X0272018Y0092239D01*
X0272032Y0092327D01*
X0272049Y0092414D01*
X0272071Y0092500D01*
X0272097Y0092586D01*
X0272126Y0092670D01*
X0272159Y0092753D01*
X0272195Y0092834D01*
X0272236Y0092914D01*
X0272279Y0092991D01*
X0272326Y0093067D01*
X0272377Y0093140D01*
X0272430Y0093211D01*
X0272487Y0093280D01*
X0272547Y0093346D01*
X0272610Y0093410D01*
X0272675Y0093470D01*
X0272743Y0093528D01*
X0272814Y0093582D01*
X0272887Y0093633D01*
X0272962Y0093681D01*
X0273039Y0093726D01*
X0273118Y0093767D01*
X0273199Y0093804D01*
X0273281Y0093838D01*
X0273365Y0093869D01*
X0273450Y0093895D01*
X0273536Y0093918D01*
X0273623Y0093936D01*
X0273711Y0093951D01*
X0273800Y0093962D01*
X0273889Y0093969D01*
X0273978Y0093972D01*
X0274067Y0093971D01*
X0274156Y0093966D01*
X0274244Y0093957D01*
X0274333Y0093944D01*
X0274420Y0093927D01*
X0274507Y0093907D01*
X0274593Y0093882D01*
X0274677Y0093854D01*
X0274760Y0093822D01*
X0274842Y0093786D01*
X0274922Y0093747D01*
X0275000Y0093704D01*
X0275076Y0093658D01*
X0275150Y0093608D01*
X0275222Y0093555D01*
X0275291Y0093499D01*
X0275358Y0093440D01*
X0275422Y0093378D01*
X0275483Y0093314D01*
X0275542Y0093246D01*
X0275597Y0093176D01*
X0275649Y0093104D01*
X0275698Y0093029D01*
X0275743Y0092953D01*
X0275785Y0092874D01*
X0275823Y0092794D01*
X0275858Y0092712D01*
X0275889Y0092628D01*
X0275917Y0092543D01*
X0275940Y0092457D01*
X0275960Y0092370D01*
X0275976Y0092283D01*
X0275988Y0092194D01*
X0275996Y0092106D01*
X0276000Y0092017D01*
X0276000Y0091927D01*
X0275996Y0091838D01*
X0275988Y0091750D01*
X0275976Y0091661D01*
X0275960Y0091574D01*
X0275940Y0091487D01*
X0275917Y0091401D01*
X0275889Y0091316D01*
X0275858Y0091232D01*
X0275823Y0091150D01*
X0275785Y0091070D01*
X0275743Y0090991D01*
X0275698Y0090915D01*
X0275649Y0090840D01*
X0275597Y0090768D01*
X0275542Y0090698D01*
X0275483Y0090630D01*
X0275422Y0090566D01*
X0275358Y0090504D01*
X0275291Y0090445D01*
X0275222Y0090389D01*
X0275150Y0090336D01*
X0275076Y0090286D01*
X0275000Y0090240D01*
X0274922Y0090197D01*
X0274842Y0090158D01*
X0274760Y0090122D01*
X0274677Y0090090D01*
X0274593Y0090062D01*
X0274507Y0090037D01*
X0274420Y0090017D01*
X0274333Y0090000D01*
X0274244Y0089987D01*
X0274156Y0089978D01*
X0274067Y0089973D01*
X0273978Y0089972D01*
X0273889Y0089975D01*
X0273800Y0089982D01*
X0273711Y0089993D01*
X0273623Y0090008D01*
X0273536Y0090026D01*
X0273450Y0090049D01*
X0273365Y0090075D01*
X0273281Y0090106D01*
X0273199Y0090140D01*
X0273118Y0090177D01*
X0273039Y0090218D01*
X0272962Y0090263D01*
X0272887Y0090311D01*
X0272814Y0090362D01*
X0272743Y0090416D01*
X0272675Y0090474D01*
X0272610Y0090534D01*
X0272547Y0090598D01*
X0272487Y0090664D01*
X0272430Y0090733D01*
X0272377Y0090804D01*
X0272326Y0090877D01*
X0272279Y0090953D01*
X0272236Y0091030D01*
X0272195Y0091110D01*
X0272159Y0091191D01*
X0272126Y0091274D01*
X0272097Y0091358D01*
X0272071Y0091444D01*
X0272049Y0091530D01*
X0272032Y0091617D01*
X0272018Y0091705D01*
X0272008Y0091794D01*
X0272002Y0091883D01*
X0272000Y0091972D01*
X0281800Y0091972D02*
X0281802Y0092125D01*
X0281808Y0092278D01*
X0281818Y0092431D01*
X0281832Y0092584D01*
X0281850Y0092736D01*
X0281871Y0092887D01*
X0281897Y0093038D01*
X0281927Y0093189D01*
X0281960Y0093338D01*
X0281998Y0093487D01*
X0282039Y0093634D01*
X0282084Y0093781D01*
X0282133Y0093926D01*
X0282185Y0094070D01*
X0282242Y0094212D01*
X0282302Y0094353D01*
X0282365Y0094492D01*
X0282433Y0094630D01*
X0282503Y0094766D01*
X0282578Y0094900D01*
X0282655Y0095032D01*
X0282737Y0095162D01*
X0282821Y0095290D01*
X0282909Y0095415D01*
X0283000Y0095538D01*
X0283094Y0095659D01*
X0283191Y0095777D01*
X0283292Y0095893D01*
X0283395Y0096006D01*
X0283501Y0096117D01*
X0283610Y0096224D01*
X0283722Y0096329D01*
X0283836Y0096431D01*
X0283953Y0096530D01*
X0284073Y0096625D01*
X0284195Y0096718D01*
X0284319Y0096807D01*
X0284446Y0096894D01*
X0284575Y0096976D01*
X0284706Y0097056D01*
X0284839Y0097132D01*
X0284974Y0097204D01*
X0285111Y0097273D01*
X0285249Y0097339D01*
X0285389Y0097401D01*
X0285531Y0097459D01*
X0285674Y0097513D01*
X0285819Y0097564D01*
X0285964Y0097611D01*
X0286111Y0097654D01*
X0286259Y0097693D01*
X0286408Y0097729D01*
X0286558Y0097760D01*
X0286709Y0097788D01*
X0286860Y0097812D01*
X0287012Y0097832D01*
X0287165Y0097848D01*
X0287317Y0097860D01*
X0287470Y0097868D01*
X0287623Y0097872D01*
X0287777Y0097872D01*
X0287930Y0097868D01*
X0288083Y0097860D01*
X0288235Y0097848D01*
X0288388Y0097832D01*
X0288540Y0097812D01*
X0288691Y0097788D01*
X0288842Y0097760D01*
X0288992Y0097729D01*
X0289141Y0097693D01*
X0289289Y0097654D01*
X0289436Y0097611D01*
X0289581Y0097564D01*
X0289726Y0097513D01*
X0289869Y0097459D01*
X0290011Y0097401D01*
X0290151Y0097339D01*
X0290289Y0097273D01*
X0290426Y0097204D01*
X0290561Y0097132D01*
X0290694Y0097056D01*
X0290825Y0096976D01*
X0290954Y0096894D01*
X0291081Y0096807D01*
X0291205Y0096718D01*
X0291327Y0096625D01*
X0291447Y0096530D01*
X0291564Y0096431D01*
X0291678Y0096329D01*
X0291790Y0096224D01*
X0291899Y0096117D01*
X0292005Y0096006D01*
X0292108Y0095893D01*
X0292209Y0095777D01*
X0292306Y0095659D01*
X0292400Y0095538D01*
X0292491Y0095415D01*
X0292579Y0095290D01*
X0292663Y0095162D01*
X0292745Y0095032D01*
X0292822Y0094900D01*
X0292897Y0094766D01*
X0292967Y0094630D01*
X0293035Y0094492D01*
X0293098Y0094353D01*
X0293158Y0094212D01*
X0293215Y0094070D01*
X0293267Y0093926D01*
X0293316Y0093781D01*
X0293361Y0093634D01*
X0293402Y0093487D01*
X0293440Y0093338D01*
X0293473Y0093189D01*
X0293503Y0093038D01*
X0293529Y0092887D01*
X0293550Y0092736D01*
X0293568Y0092584D01*
X0293582Y0092431D01*
X0293592Y0092278D01*
X0293598Y0092125D01*
X0293600Y0091972D01*
X0293598Y0091819D01*
X0293592Y0091666D01*
X0293582Y0091513D01*
X0293568Y0091360D01*
X0293550Y0091208D01*
X0293529Y0091057D01*
X0293503Y0090906D01*
X0293473Y0090755D01*
X0293440Y0090606D01*
X0293402Y0090457D01*
X0293361Y0090310D01*
X0293316Y0090163D01*
X0293267Y0090018D01*
X0293215Y0089874D01*
X0293158Y0089732D01*
X0293098Y0089591D01*
X0293035Y0089452D01*
X0292967Y0089314D01*
X0292897Y0089178D01*
X0292822Y0089044D01*
X0292745Y0088912D01*
X0292663Y0088782D01*
X0292579Y0088654D01*
X0292491Y0088529D01*
X0292400Y0088406D01*
X0292306Y0088285D01*
X0292209Y0088167D01*
X0292108Y0088051D01*
X0292005Y0087938D01*
X0291899Y0087827D01*
X0291790Y0087720D01*
X0291678Y0087615D01*
X0291564Y0087513D01*
X0291447Y0087414D01*
X0291327Y0087319D01*
X0291205Y0087226D01*
X0291081Y0087137D01*
X0290954Y0087050D01*
X0290825Y0086968D01*
X0290694Y0086888D01*
X0290561Y0086812D01*
X0290426Y0086740D01*
X0290289Y0086671D01*
X0290151Y0086605D01*
X0290011Y0086543D01*
X0289869Y0086485D01*
X0289726Y0086431D01*
X0289581Y0086380D01*
X0289436Y0086333D01*
X0289289Y0086290D01*
X0289141Y0086251D01*
X0288992Y0086215D01*
X0288842Y0086184D01*
X0288691Y0086156D01*
X0288540Y0086132D01*
X0288388Y0086112D01*
X0288235Y0086096D01*
X0288083Y0086084D01*
X0287930Y0086076D01*
X0287777Y0086072D01*
X0287623Y0086072D01*
X0287470Y0086076D01*
X0287317Y0086084D01*
X0287165Y0086096D01*
X0287012Y0086112D01*
X0286860Y0086132D01*
X0286709Y0086156D01*
X0286558Y0086184D01*
X0286408Y0086215D01*
X0286259Y0086251D01*
X0286111Y0086290D01*
X0285964Y0086333D01*
X0285819Y0086380D01*
X0285674Y0086431D01*
X0285531Y0086485D01*
X0285389Y0086543D01*
X0285249Y0086605D01*
X0285111Y0086671D01*
X0284974Y0086740D01*
X0284839Y0086812D01*
X0284706Y0086888D01*
X0284575Y0086968D01*
X0284446Y0087050D01*
X0284319Y0087137D01*
X0284195Y0087226D01*
X0284073Y0087319D01*
X0283953Y0087414D01*
X0283836Y0087513D01*
X0283722Y0087615D01*
X0283610Y0087720D01*
X0283501Y0087827D01*
X0283395Y0087938D01*
X0283292Y0088051D01*
X0283191Y0088167D01*
X0283094Y0088285D01*
X0283000Y0088406D01*
X0282909Y0088529D01*
X0282821Y0088654D01*
X0282737Y0088782D01*
X0282655Y0088912D01*
X0282578Y0089044D01*
X0282503Y0089178D01*
X0282433Y0089314D01*
X0282365Y0089452D01*
X0282302Y0089591D01*
X0282242Y0089732D01*
X0282185Y0089874D01*
X0282133Y0090018D01*
X0282084Y0090163D01*
X0282039Y0090310D01*
X0281998Y0090457D01*
X0281960Y0090606D01*
X0281927Y0090755D01*
X0281897Y0090906D01*
X0281871Y0091057D01*
X0281850Y0091208D01*
X0281832Y0091360D01*
X0281818Y0091513D01*
X0281808Y0091666D01*
X0281802Y0091819D01*
X0281800Y0091972D01*
X0281800Y0111672D02*
X0281802Y0111825D01*
X0281808Y0111978D01*
X0281818Y0112131D01*
X0281832Y0112284D01*
X0281850Y0112436D01*
X0281871Y0112587D01*
X0281897Y0112738D01*
X0281927Y0112889D01*
X0281960Y0113038D01*
X0281998Y0113187D01*
X0282039Y0113334D01*
X0282084Y0113481D01*
X0282133Y0113626D01*
X0282185Y0113770D01*
X0282242Y0113912D01*
X0282302Y0114053D01*
X0282365Y0114192D01*
X0282433Y0114330D01*
X0282503Y0114466D01*
X0282578Y0114600D01*
X0282655Y0114732D01*
X0282737Y0114862D01*
X0282821Y0114990D01*
X0282909Y0115115D01*
X0283000Y0115238D01*
X0283094Y0115359D01*
X0283191Y0115477D01*
X0283292Y0115593D01*
X0283395Y0115706D01*
X0283501Y0115817D01*
X0283610Y0115924D01*
X0283722Y0116029D01*
X0283836Y0116131D01*
X0283953Y0116230D01*
X0284073Y0116325D01*
X0284195Y0116418D01*
X0284319Y0116507D01*
X0284446Y0116594D01*
X0284575Y0116676D01*
X0284706Y0116756D01*
X0284839Y0116832D01*
X0284974Y0116904D01*
X0285111Y0116973D01*
X0285249Y0117039D01*
X0285389Y0117101D01*
X0285531Y0117159D01*
X0285674Y0117213D01*
X0285819Y0117264D01*
X0285964Y0117311D01*
X0286111Y0117354D01*
X0286259Y0117393D01*
X0286408Y0117429D01*
X0286558Y0117460D01*
X0286709Y0117488D01*
X0286860Y0117512D01*
X0287012Y0117532D01*
X0287165Y0117548D01*
X0287317Y0117560D01*
X0287470Y0117568D01*
X0287623Y0117572D01*
X0287777Y0117572D01*
X0287930Y0117568D01*
X0288083Y0117560D01*
X0288235Y0117548D01*
X0288388Y0117532D01*
X0288540Y0117512D01*
X0288691Y0117488D01*
X0288842Y0117460D01*
X0288992Y0117429D01*
X0289141Y0117393D01*
X0289289Y0117354D01*
X0289436Y0117311D01*
X0289581Y0117264D01*
X0289726Y0117213D01*
X0289869Y0117159D01*
X0290011Y0117101D01*
X0290151Y0117039D01*
X0290289Y0116973D01*
X0290426Y0116904D01*
X0290561Y0116832D01*
X0290694Y0116756D01*
X0290825Y0116676D01*
X0290954Y0116594D01*
X0291081Y0116507D01*
X0291205Y0116418D01*
X0291327Y0116325D01*
X0291447Y0116230D01*
X0291564Y0116131D01*
X0291678Y0116029D01*
X0291790Y0115924D01*
X0291899Y0115817D01*
X0292005Y0115706D01*
X0292108Y0115593D01*
X0292209Y0115477D01*
X0292306Y0115359D01*
X0292400Y0115238D01*
X0292491Y0115115D01*
X0292579Y0114990D01*
X0292663Y0114862D01*
X0292745Y0114732D01*
X0292822Y0114600D01*
X0292897Y0114466D01*
X0292967Y0114330D01*
X0293035Y0114192D01*
X0293098Y0114053D01*
X0293158Y0113912D01*
X0293215Y0113770D01*
X0293267Y0113626D01*
X0293316Y0113481D01*
X0293361Y0113334D01*
X0293402Y0113187D01*
X0293440Y0113038D01*
X0293473Y0112889D01*
X0293503Y0112738D01*
X0293529Y0112587D01*
X0293550Y0112436D01*
X0293568Y0112284D01*
X0293582Y0112131D01*
X0293592Y0111978D01*
X0293598Y0111825D01*
X0293600Y0111672D01*
X0293598Y0111519D01*
X0293592Y0111366D01*
X0293582Y0111213D01*
X0293568Y0111060D01*
X0293550Y0110908D01*
X0293529Y0110757D01*
X0293503Y0110606D01*
X0293473Y0110455D01*
X0293440Y0110306D01*
X0293402Y0110157D01*
X0293361Y0110010D01*
X0293316Y0109863D01*
X0293267Y0109718D01*
X0293215Y0109574D01*
X0293158Y0109432D01*
X0293098Y0109291D01*
X0293035Y0109152D01*
X0292967Y0109014D01*
X0292897Y0108878D01*
X0292822Y0108744D01*
X0292745Y0108612D01*
X0292663Y0108482D01*
X0292579Y0108354D01*
X0292491Y0108229D01*
X0292400Y0108106D01*
X0292306Y0107985D01*
X0292209Y0107867D01*
X0292108Y0107751D01*
X0292005Y0107638D01*
X0291899Y0107527D01*
X0291790Y0107420D01*
X0291678Y0107315D01*
X0291564Y0107213D01*
X0291447Y0107114D01*
X0291327Y0107019D01*
X0291205Y0106926D01*
X0291081Y0106837D01*
X0290954Y0106750D01*
X0290825Y0106668D01*
X0290694Y0106588D01*
X0290561Y0106512D01*
X0290426Y0106440D01*
X0290289Y0106371D01*
X0290151Y0106305D01*
X0290011Y0106243D01*
X0289869Y0106185D01*
X0289726Y0106131D01*
X0289581Y0106080D01*
X0289436Y0106033D01*
X0289289Y0105990D01*
X0289141Y0105951D01*
X0288992Y0105915D01*
X0288842Y0105884D01*
X0288691Y0105856D01*
X0288540Y0105832D01*
X0288388Y0105812D01*
X0288235Y0105796D01*
X0288083Y0105784D01*
X0287930Y0105776D01*
X0287777Y0105772D01*
X0287623Y0105772D01*
X0287470Y0105776D01*
X0287317Y0105784D01*
X0287165Y0105796D01*
X0287012Y0105812D01*
X0286860Y0105832D01*
X0286709Y0105856D01*
X0286558Y0105884D01*
X0286408Y0105915D01*
X0286259Y0105951D01*
X0286111Y0105990D01*
X0285964Y0106033D01*
X0285819Y0106080D01*
X0285674Y0106131D01*
X0285531Y0106185D01*
X0285389Y0106243D01*
X0285249Y0106305D01*
X0285111Y0106371D01*
X0284974Y0106440D01*
X0284839Y0106512D01*
X0284706Y0106588D01*
X0284575Y0106668D01*
X0284446Y0106750D01*
X0284319Y0106837D01*
X0284195Y0106926D01*
X0284073Y0107019D01*
X0283953Y0107114D01*
X0283836Y0107213D01*
X0283722Y0107315D01*
X0283610Y0107420D01*
X0283501Y0107527D01*
X0283395Y0107638D01*
X0283292Y0107751D01*
X0283191Y0107867D01*
X0283094Y0107985D01*
X0283000Y0108106D01*
X0282909Y0108229D01*
X0282821Y0108354D01*
X0282737Y0108482D01*
X0282655Y0108612D01*
X0282578Y0108744D01*
X0282503Y0108878D01*
X0282433Y0109014D01*
X0282365Y0109152D01*
X0282302Y0109291D01*
X0282242Y0109432D01*
X0282185Y0109574D01*
X0282133Y0109718D01*
X0282084Y0109863D01*
X0282039Y0110010D01*
X0281998Y0110157D01*
X0281960Y0110306D01*
X0281927Y0110455D01*
X0281897Y0110606D01*
X0281871Y0110757D01*
X0281850Y0110908D01*
X0281832Y0111060D01*
X0281818Y0111213D01*
X0281808Y0111366D01*
X0281802Y0111519D01*
X0281800Y0111672D01*
X0272000Y0111672D02*
X0272002Y0111761D01*
X0272008Y0111850D01*
X0272018Y0111939D01*
X0272032Y0112027D01*
X0272049Y0112114D01*
X0272071Y0112200D01*
X0272097Y0112286D01*
X0272126Y0112370D01*
X0272159Y0112453D01*
X0272195Y0112534D01*
X0272236Y0112614D01*
X0272279Y0112691D01*
X0272326Y0112767D01*
X0272377Y0112840D01*
X0272430Y0112911D01*
X0272487Y0112980D01*
X0272547Y0113046D01*
X0272610Y0113110D01*
X0272675Y0113170D01*
X0272743Y0113228D01*
X0272814Y0113282D01*
X0272887Y0113333D01*
X0272962Y0113381D01*
X0273039Y0113426D01*
X0273118Y0113467D01*
X0273199Y0113504D01*
X0273281Y0113538D01*
X0273365Y0113569D01*
X0273450Y0113595D01*
X0273536Y0113618D01*
X0273623Y0113636D01*
X0273711Y0113651D01*
X0273800Y0113662D01*
X0273889Y0113669D01*
X0273978Y0113672D01*
X0274067Y0113671D01*
X0274156Y0113666D01*
X0274244Y0113657D01*
X0274333Y0113644D01*
X0274420Y0113627D01*
X0274507Y0113607D01*
X0274593Y0113582D01*
X0274677Y0113554D01*
X0274760Y0113522D01*
X0274842Y0113486D01*
X0274922Y0113447D01*
X0275000Y0113404D01*
X0275076Y0113358D01*
X0275150Y0113308D01*
X0275222Y0113255D01*
X0275291Y0113199D01*
X0275358Y0113140D01*
X0275422Y0113078D01*
X0275483Y0113014D01*
X0275542Y0112946D01*
X0275597Y0112876D01*
X0275649Y0112804D01*
X0275698Y0112729D01*
X0275743Y0112653D01*
X0275785Y0112574D01*
X0275823Y0112494D01*
X0275858Y0112412D01*
X0275889Y0112328D01*
X0275917Y0112243D01*
X0275940Y0112157D01*
X0275960Y0112070D01*
X0275976Y0111983D01*
X0275988Y0111894D01*
X0275996Y0111806D01*
X0276000Y0111717D01*
X0276000Y0111627D01*
X0275996Y0111538D01*
X0275988Y0111450D01*
X0275976Y0111361D01*
X0275960Y0111274D01*
X0275940Y0111187D01*
X0275917Y0111101D01*
X0275889Y0111016D01*
X0275858Y0110932D01*
X0275823Y0110850D01*
X0275785Y0110770D01*
X0275743Y0110691D01*
X0275698Y0110615D01*
X0275649Y0110540D01*
X0275597Y0110468D01*
X0275542Y0110398D01*
X0275483Y0110330D01*
X0275422Y0110266D01*
X0275358Y0110204D01*
X0275291Y0110145D01*
X0275222Y0110089D01*
X0275150Y0110036D01*
X0275076Y0109986D01*
X0275000Y0109940D01*
X0274922Y0109897D01*
X0274842Y0109858D01*
X0274760Y0109822D01*
X0274677Y0109790D01*
X0274593Y0109762D01*
X0274507Y0109737D01*
X0274420Y0109717D01*
X0274333Y0109700D01*
X0274244Y0109687D01*
X0274156Y0109678D01*
X0274067Y0109673D01*
X0273978Y0109672D01*
X0273889Y0109675D01*
X0273800Y0109682D01*
X0273711Y0109693D01*
X0273623Y0109708D01*
X0273536Y0109726D01*
X0273450Y0109749D01*
X0273365Y0109775D01*
X0273281Y0109806D01*
X0273199Y0109840D01*
X0273118Y0109877D01*
X0273039Y0109918D01*
X0272962Y0109963D01*
X0272887Y0110011D01*
X0272814Y0110062D01*
X0272743Y0110116D01*
X0272675Y0110174D01*
X0272610Y0110234D01*
X0272547Y0110298D01*
X0272487Y0110364D01*
X0272430Y0110433D01*
X0272377Y0110504D01*
X0272326Y0110577D01*
X0272279Y0110653D01*
X0272236Y0110730D01*
X0272195Y0110810D01*
X0272159Y0110891D01*
X0272126Y0110974D01*
X0272097Y0111058D01*
X0272071Y0111144D01*
X0272049Y0111230D01*
X0272032Y0111317D01*
X0272018Y0111405D01*
X0272008Y0111494D01*
X0272002Y0111583D01*
X0272000Y0111672D01*
X0272000Y0131372D02*
X0272002Y0131461D01*
X0272008Y0131550D01*
X0272018Y0131639D01*
X0272032Y0131727D01*
X0272049Y0131814D01*
X0272071Y0131900D01*
X0272097Y0131986D01*
X0272126Y0132070D01*
X0272159Y0132153D01*
X0272195Y0132234D01*
X0272236Y0132314D01*
X0272279Y0132391D01*
X0272326Y0132467D01*
X0272377Y0132540D01*
X0272430Y0132611D01*
X0272487Y0132680D01*
X0272547Y0132746D01*
X0272610Y0132810D01*
X0272675Y0132870D01*
X0272743Y0132928D01*
X0272814Y0132982D01*
X0272887Y0133033D01*
X0272962Y0133081D01*
X0273039Y0133126D01*
X0273118Y0133167D01*
X0273199Y0133204D01*
X0273281Y0133238D01*
X0273365Y0133269D01*
X0273450Y0133295D01*
X0273536Y0133318D01*
X0273623Y0133336D01*
X0273711Y0133351D01*
X0273800Y0133362D01*
X0273889Y0133369D01*
X0273978Y0133372D01*
X0274067Y0133371D01*
X0274156Y0133366D01*
X0274244Y0133357D01*
X0274333Y0133344D01*
X0274420Y0133327D01*
X0274507Y0133307D01*
X0274593Y0133282D01*
X0274677Y0133254D01*
X0274760Y0133222D01*
X0274842Y0133186D01*
X0274922Y0133147D01*
X0275000Y0133104D01*
X0275076Y0133058D01*
X0275150Y0133008D01*
X0275222Y0132955D01*
X0275291Y0132899D01*
X0275358Y0132840D01*
X0275422Y0132778D01*
X0275483Y0132714D01*
X0275542Y0132646D01*
X0275597Y0132576D01*
X0275649Y0132504D01*
X0275698Y0132429D01*
X0275743Y0132353D01*
X0275785Y0132274D01*
X0275823Y0132194D01*
X0275858Y0132112D01*
X0275889Y0132028D01*
X0275917Y0131943D01*
X0275940Y0131857D01*
X0275960Y0131770D01*
X0275976Y0131683D01*
X0275988Y0131594D01*
X0275996Y0131506D01*
X0276000Y0131417D01*
X0276000Y0131327D01*
X0275996Y0131238D01*
X0275988Y0131150D01*
X0275976Y0131061D01*
X0275960Y0130974D01*
X0275940Y0130887D01*
X0275917Y0130801D01*
X0275889Y0130716D01*
X0275858Y0130632D01*
X0275823Y0130550D01*
X0275785Y0130470D01*
X0275743Y0130391D01*
X0275698Y0130315D01*
X0275649Y0130240D01*
X0275597Y0130168D01*
X0275542Y0130098D01*
X0275483Y0130030D01*
X0275422Y0129966D01*
X0275358Y0129904D01*
X0275291Y0129845D01*
X0275222Y0129789D01*
X0275150Y0129736D01*
X0275076Y0129686D01*
X0275000Y0129640D01*
X0274922Y0129597D01*
X0274842Y0129558D01*
X0274760Y0129522D01*
X0274677Y0129490D01*
X0274593Y0129462D01*
X0274507Y0129437D01*
X0274420Y0129417D01*
X0274333Y0129400D01*
X0274244Y0129387D01*
X0274156Y0129378D01*
X0274067Y0129373D01*
X0273978Y0129372D01*
X0273889Y0129375D01*
X0273800Y0129382D01*
X0273711Y0129393D01*
X0273623Y0129408D01*
X0273536Y0129426D01*
X0273450Y0129449D01*
X0273365Y0129475D01*
X0273281Y0129506D01*
X0273199Y0129540D01*
X0273118Y0129577D01*
X0273039Y0129618D01*
X0272962Y0129663D01*
X0272887Y0129711D01*
X0272814Y0129762D01*
X0272743Y0129816D01*
X0272675Y0129874D01*
X0272610Y0129934D01*
X0272547Y0129998D01*
X0272487Y0130064D01*
X0272430Y0130133D01*
X0272377Y0130204D01*
X0272326Y0130277D01*
X0272279Y0130353D01*
X0272236Y0130430D01*
X0272195Y0130510D01*
X0272159Y0130591D01*
X0272126Y0130674D01*
X0272097Y0130758D01*
X0272071Y0130844D01*
X0272049Y0130930D01*
X0272032Y0131017D01*
X0272018Y0131105D01*
X0272008Y0131194D01*
X0272002Y0131283D01*
X0272000Y0131372D01*
X0281800Y0131372D02*
X0281802Y0131525D01*
X0281808Y0131678D01*
X0281818Y0131831D01*
X0281832Y0131984D01*
X0281850Y0132136D01*
X0281871Y0132287D01*
X0281897Y0132438D01*
X0281927Y0132589D01*
X0281960Y0132738D01*
X0281998Y0132887D01*
X0282039Y0133034D01*
X0282084Y0133181D01*
X0282133Y0133326D01*
X0282185Y0133470D01*
X0282242Y0133612D01*
X0282302Y0133753D01*
X0282365Y0133892D01*
X0282433Y0134030D01*
X0282503Y0134166D01*
X0282578Y0134300D01*
X0282655Y0134432D01*
X0282737Y0134562D01*
X0282821Y0134690D01*
X0282909Y0134815D01*
X0283000Y0134938D01*
X0283094Y0135059D01*
X0283191Y0135177D01*
X0283292Y0135293D01*
X0283395Y0135406D01*
X0283501Y0135517D01*
X0283610Y0135624D01*
X0283722Y0135729D01*
X0283836Y0135831D01*
X0283953Y0135930D01*
X0284073Y0136025D01*
X0284195Y0136118D01*
X0284319Y0136207D01*
X0284446Y0136294D01*
X0284575Y0136376D01*
X0284706Y0136456D01*
X0284839Y0136532D01*
X0284974Y0136604D01*
X0285111Y0136673D01*
X0285249Y0136739D01*
X0285389Y0136801D01*
X0285531Y0136859D01*
X0285674Y0136913D01*
X0285819Y0136964D01*
X0285964Y0137011D01*
X0286111Y0137054D01*
X0286259Y0137093D01*
X0286408Y0137129D01*
X0286558Y0137160D01*
X0286709Y0137188D01*
X0286860Y0137212D01*
X0287012Y0137232D01*
X0287165Y0137248D01*
X0287317Y0137260D01*
X0287470Y0137268D01*
X0287623Y0137272D01*
X0287777Y0137272D01*
X0287930Y0137268D01*
X0288083Y0137260D01*
X0288235Y0137248D01*
X0288388Y0137232D01*
X0288540Y0137212D01*
X0288691Y0137188D01*
X0288842Y0137160D01*
X0288992Y0137129D01*
X0289141Y0137093D01*
X0289289Y0137054D01*
X0289436Y0137011D01*
X0289581Y0136964D01*
X0289726Y0136913D01*
X0289869Y0136859D01*
X0290011Y0136801D01*
X0290151Y0136739D01*
X0290289Y0136673D01*
X0290426Y0136604D01*
X0290561Y0136532D01*
X0290694Y0136456D01*
X0290825Y0136376D01*
X0290954Y0136294D01*
X0291081Y0136207D01*
X0291205Y0136118D01*
X0291327Y0136025D01*
X0291447Y0135930D01*
X0291564Y0135831D01*
X0291678Y0135729D01*
X0291790Y0135624D01*
X0291899Y0135517D01*
X0292005Y0135406D01*
X0292108Y0135293D01*
X0292209Y0135177D01*
X0292306Y0135059D01*
X0292400Y0134938D01*
X0292491Y0134815D01*
X0292579Y0134690D01*
X0292663Y0134562D01*
X0292745Y0134432D01*
X0292822Y0134300D01*
X0292897Y0134166D01*
X0292967Y0134030D01*
X0293035Y0133892D01*
X0293098Y0133753D01*
X0293158Y0133612D01*
X0293215Y0133470D01*
X0293267Y0133326D01*
X0293316Y0133181D01*
X0293361Y0133034D01*
X0293402Y0132887D01*
X0293440Y0132738D01*
X0293473Y0132589D01*
X0293503Y0132438D01*
X0293529Y0132287D01*
X0293550Y0132136D01*
X0293568Y0131984D01*
X0293582Y0131831D01*
X0293592Y0131678D01*
X0293598Y0131525D01*
X0293600Y0131372D01*
X0293598Y0131219D01*
X0293592Y0131066D01*
X0293582Y0130913D01*
X0293568Y0130760D01*
X0293550Y0130608D01*
X0293529Y0130457D01*
X0293503Y0130306D01*
X0293473Y0130155D01*
X0293440Y0130006D01*
X0293402Y0129857D01*
X0293361Y0129710D01*
X0293316Y0129563D01*
X0293267Y0129418D01*
X0293215Y0129274D01*
X0293158Y0129132D01*
X0293098Y0128991D01*
X0293035Y0128852D01*
X0292967Y0128714D01*
X0292897Y0128578D01*
X0292822Y0128444D01*
X0292745Y0128312D01*
X0292663Y0128182D01*
X0292579Y0128054D01*
X0292491Y0127929D01*
X0292400Y0127806D01*
X0292306Y0127685D01*
X0292209Y0127567D01*
X0292108Y0127451D01*
X0292005Y0127338D01*
X0291899Y0127227D01*
X0291790Y0127120D01*
X0291678Y0127015D01*
X0291564Y0126913D01*
X0291447Y0126814D01*
X0291327Y0126719D01*
X0291205Y0126626D01*
X0291081Y0126537D01*
X0290954Y0126450D01*
X0290825Y0126368D01*
X0290694Y0126288D01*
X0290561Y0126212D01*
X0290426Y0126140D01*
X0290289Y0126071D01*
X0290151Y0126005D01*
X0290011Y0125943D01*
X0289869Y0125885D01*
X0289726Y0125831D01*
X0289581Y0125780D01*
X0289436Y0125733D01*
X0289289Y0125690D01*
X0289141Y0125651D01*
X0288992Y0125615D01*
X0288842Y0125584D01*
X0288691Y0125556D01*
X0288540Y0125532D01*
X0288388Y0125512D01*
X0288235Y0125496D01*
X0288083Y0125484D01*
X0287930Y0125476D01*
X0287777Y0125472D01*
X0287623Y0125472D01*
X0287470Y0125476D01*
X0287317Y0125484D01*
X0287165Y0125496D01*
X0287012Y0125512D01*
X0286860Y0125532D01*
X0286709Y0125556D01*
X0286558Y0125584D01*
X0286408Y0125615D01*
X0286259Y0125651D01*
X0286111Y0125690D01*
X0285964Y0125733D01*
X0285819Y0125780D01*
X0285674Y0125831D01*
X0285531Y0125885D01*
X0285389Y0125943D01*
X0285249Y0126005D01*
X0285111Y0126071D01*
X0284974Y0126140D01*
X0284839Y0126212D01*
X0284706Y0126288D01*
X0284575Y0126368D01*
X0284446Y0126450D01*
X0284319Y0126537D01*
X0284195Y0126626D01*
X0284073Y0126719D01*
X0283953Y0126814D01*
X0283836Y0126913D01*
X0283722Y0127015D01*
X0283610Y0127120D01*
X0283501Y0127227D01*
X0283395Y0127338D01*
X0283292Y0127451D01*
X0283191Y0127567D01*
X0283094Y0127685D01*
X0283000Y0127806D01*
X0282909Y0127929D01*
X0282821Y0128054D01*
X0282737Y0128182D01*
X0282655Y0128312D01*
X0282578Y0128444D01*
X0282503Y0128578D01*
X0282433Y0128714D01*
X0282365Y0128852D01*
X0282302Y0128991D01*
X0282242Y0129132D01*
X0282185Y0129274D01*
X0282133Y0129418D01*
X0282084Y0129563D01*
X0282039Y0129710D01*
X0281998Y0129857D01*
X0281960Y0130006D01*
X0281927Y0130155D01*
X0281897Y0130306D01*
X0281871Y0130457D01*
X0281850Y0130608D01*
X0281832Y0130760D01*
X0281818Y0130913D01*
X0281808Y0131066D01*
X0281802Y0131219D01*
X0281800Y0131372D01*
X0281900Y0151800D02*
X0281902Y0151953D01*
X0281908Y0152106D01*
X0281918Y0152259D01*
X0281932Y0152412D01*
X0281950Y0152564D01*
X0281971Y0152715D01*
X0281997Y0152866D01*
X0282027Y0153017D01*
X0282060Y0153166D01*
X0282098Y0153315D01*
X0282139Y0153462D01*
X0282184Y0153609D01*
X0282233Y0153754D01*
X0282285Y0153898D01*
X0282342Y0154040D01*
X0282402Y0154181D01*
X0282465Y0154320D01*
X0282533Y0154458D01*
X0282603Y0154594D01*
X0282678Y0154728D01*
X0282755Y0154860D01*
X0282837Y0154990D01*
X0282921Y0155118D01*
X0283009Y0155243D01*
X0283100Y0155366D01*
X0283194Y0155487D01*
X0283291Y0155605D01*
X0283392Y0155721D01*
X0283495Y0155834D01*
X0283601Y0155945D01*
X0283710Y0156052D01*
X0283822Y0156157D01*
X0283936Y0156259D01*
X0284053Y0156358D01*
X0284173Y0156453D01*
X0284295Y0156546D01*
X0284419Y0156635D01*
X0284546Y0156722D01*
X0284675Y0156804D01*
X0284806Y0156884D01*
X0284939Y0156960D01*
X0285074Y0157032D01*
X0285211Y0157101D01*
X0285349Y0157167D01*
X0285489Y0157229D01*
X0285631Y0157287D01*
X0285774Y0157341D01*
X0285919Y0157392D01*
X0286064Y0157439D01*
X0286211Y0157482D01*
X0286359Y0157521D01*
X0286508Y0157557D01*
X0286658Y0157588D01*
X0286809Y0157616D01*
X0286960Y0157640D01*
X0287112Y0157660D01*
X0287265Y0157676D01*
X0287417Y0157688D01*
X0287570Y0157696D01*
X0287723Y0157700D01*
X0287877Y0157700D01*
X0288030Y0157696D01*
X0288183Y0157688D01*
X0288335Y0157676D01*
X0288488Y0157660D01*
X0288640Y0157640D01*
X0288791Y0157616D01*
X0288942Y0157588D01*
X0289092Y0157557D01*
X0289241Y0157521D01*
X0289389Y0157482D01*
X0289536Y0157439D01*
X0289681Y0157392D01*
X0289826Y0157341D01*
X0289969Y0157287D01*
X0290111Y0157229D01*
X0290251Y0157167D01*
X0290389Y0157101D01*
X0290526Y0157032D01*
X0290661Y0156960D01*
X0290794Y0156884D01*
X0290925Y0156804D01*
X0291054Y0156722D01*
X0291181Y0156635D01*
X0291305Y0156546D01*
X0291427Y0156453D01*
X0291547Y0156358D01*
X0291664Y0156259D01*
X0291778Y0156157D01*
X0291890Y0156052D01*
X0291999Y0155945D01*
X0292105Y0155834D01*
X0292208Y0155721D01*
X0292309Y0155605D01*
X0292406Y0155487D01*
X0292500Y0155366D01*
X0292591Y0155243D01*
X0292679Y0155118D01*
X0292763Y0154990D01*
X0292845Y0154860D01*
X0292922Y0154728D01*
X0292997Y0154594D01*
X0293067Y0154458D01*
X0293135Y0154320D01*
X0293198Y0154181D01*
X0293258Y0154040D01*
X0293315Y0153898D01*
X0293367Y0153754D01*
X0293416Y0153609D01*
X0293461Y0153462D01*
X0293502Y0153315D01*
X0293540Y0153166D01*
X0293573Y0153017D01*
X0293603Y0152866D01*
X0293629Y0152715D01*
X0293650Y0152564D01*
X0293668Y0152412D01*
X0293682Y0152259D01*
X0293692Y0152106D01*
X0293698Y0151953D01*
X0293700Y0151800D01*
X0293698Y0151647D01*
X0293692Y0151494D01*
X0293682Y0151341D01*
X0293668Y0151188D01*
X0293650Y0151036D01*
X0293629Y0150885D01*
X0293603Y0150734D01*
X0293573Y0150583D01*
X0293540Y0150434D01*
X0293502Y0150285D01*
X0293461Y0150138D01*
X0293416Y0149991D01*
X0293367Y0149846D01*
X0293315Y0149702D01*
X0293258Y0149560D01*
X0293198Y0149419D01*
X0293135Y0149280D01*
X0293067Y0149142D01*
X0292997Y0149006D01*
X0292922Y0148872D01*
X0292845Y0148740D01*
X0292763Y0148610D01*
X0292679Y0148482D01*
X0292591Y0148357D01*
X0292500Y0148234D01*
X0292406Y0148113D01*
X0292309Y0147995D01*
X0292208Y0147879D01*
X0292105Y0147766D01*
X0291999Y0147655D01*
X0291890Y0147548D01*
X0291778Y0147443D01*
X0291664Y0147341D01*
X0291547Y0147242D01*
X0291427Y0147147D01*
X0291305Y0147054D01*
X0291181Y0146965D01*
X0291054Y0146878D01*
X0290925Y0146796D01*
X0290794Y0146716D01*
X0290661Y0146640D01*
X0290526Y0146568D01*
X0290389Y0146499D01*
X0290251Y0146433D01*
X0290111Y0146371D01*
X0289969Y0146313D01*
X0289826Y0146259D01*
X0289681Y0146208D01*
X0289536Y0146161D01*
X0289389Y0146118D01*
X0289241Y0146079D01*
X0289092Y0146043D01*
X0288942Y0146012D01*
X0288791Y0145984D01*
X0288640Y0145960D01*
X0288488Y0145940D01*
X0288335Y0145924D01*
X0288183Y0145912D01*
X0288030Y0145904D01*
X0287877Y0145900D01*
X0287723Y0145900D01*
X0287570Y0145904D01*
X0287417Y0145912D01*
X0287265Y0145924D01*
X0287112Y0145940D01*
X0286960Y0145960D01*
X0286809Y0145984D01*
X0286658Y0146012D01*
X0286508Y0146043D01*
X0286359Y0146079D01*
X0286211Y0146118D01*
X0286064Y0146161D01*
X0285919Y0146208D01*
X0285774Y0146259D01*
X0285631Y0146313D01*
X0285489Y0146371D01*
X0285349Y0146433D01*
X0285211Y0146499D01*
X0285074Y0146568D01*
X0284939Y0146640D01*
X0284806Y0146716D01*
X0284675Y0146796D01*
X0284546Y0146878D01*
X0284419Y0146965D01*
X0284295Y0147054D01*
X0284173Y0147147D01*
X0284053Y0147242D01*
X0283936Y0147341D01*
X0283822Y0147443D01*
X0283710Y0147548D01*
X0283601Y0147655D01*
X0283495Y0147766D01*
X0283392Y0147879D01*
X0283291Y0147995D01*
X0283194Y0148113D01*
X0283100Y0148234D01*
X0283009Y0148357D01*
X0282921Y0148482D01*
X0282837Y0148610D01*
X0282755Y0148740D01*
X0282678Y0148872D01*
X0282603Y0149006D01*
X0282533Y0149142D01*
X0282465Y0149280D01*
X0282402Y0149419D01*
X0282342Y0149560D01*
X0282285Y0149702D01*
X0282233Y0149846D01*
X0282184Y0149991D01*
X0282139Y0150138D01*
X0282098Y0150285D01*
X0282060Y0150434D01*
X0282027Y0150583D01*
X0281997Y0150734D01*
X0281971Y0150885D01*
X0281950Y0151036D01*
X0281932Y0151188D01*
X0281918Y0151341D01*
X0281908Y0151494D01*
X0281902Y0151647D01*
X0281900Y0151800D01*
X0272100Y0151800D02*
X0272102Y0151889D01*
X0272108Y0151978D01*
X0272118Y0152067D01*
X0272132Y0152155D01*
X0272149Y0152242D01*
X0272171Y0152328D01*
X0272197Y0152414D01*
X0272226Y0152498D01*
X0272259Y0152581D01*
X0272295Y0152662D01*
X0272336Y0152742D01*
X0272379Y0152819D01*
X0272426Y0152895D01*
X0272477Y0152968D01*
X0272530Y0153039D01*
X0272587Y0153108D01*
X0272647Y0153174D01*
X0272710Y0153238D01*
X0272775Y0153298D01*
X0272843Y0153356D01*
X0272914Y0153410D01*
X0272987Y0153461D01*
X0273062Y0153509D01*
X0273139Y0153554D01*
X0273218Y0153595D01*
X0273299Y0153632D01*
X0273381Y0153666D01*
X0273465Y0153697D01*
X0273550Y0153723D01*
X0273636Y0153746D01*
X0273723Y0153764D01*
X0273811Y0153779D01*
X0273900Y0153790D01*
X0273989Y0153797D01*
X0274078Y0153800D01*
X0274167Y0153799D01*
X0274256Y0153794D01*
X0274344Y0153785D01*
X0274433Y0153772D01*
X0274520Y0153755D01*
X0274607Y0153735D01*
X0274693Y0153710D01*
X0274777Y0153682D01*
X0274860Y0153650D01*
X0274942Y0153614D01*
X0275022Y0153575D01*
X0275100Y0153532D01*
X0275176Y0153486D01*
X0275250Y0153436D01*
X0275322Y0153383D01*
X0275391Y0153327D01*
X0275458Y0153268D01*
X0275522Y0153206D01*
X0275583Y0153142D01*
X0275642Y0153074D01*
X0275697Y0153004D01*
X0275749Y0152932D01*
X0275798Y0152857D01*
X0275843Y0152781D01*
X0275885Y0152702D01*
X0275923Y0152622D01*
X0275958Y0152540D01*
X0275989Y0152456D01*
X0276017Y0152371D01*
X0276040Y0152285D01*
X0276060Y0152198D01*
X0276076Y0152111D01*
X0276088Y0152022D01*
X0276096Y0151934D01*
X0276100Y0151845D01*
X0276100Y0151755D01*
X0276096Y0151666D01*
X0276088Y0151578D01*
X0276076Y0151489D01*
X0276060Y0151402D01*
X0276040Y0151315D01*
X0276017Y0151229D01*
X0275989Y0151144D01*
X0275958Y0151060D01*
X0275923Y0150978D01*
X0275885Y0150898D01*
X0275843Y0150819D01*
X0275798Y0150743D01*
X0275749Y0150668D01*
X0275697Y0150596D01*
X0275642Y0150526D01*
X0275583Y0150458D01*
X0275522Y0150394D01*
X0275458Y0150332D01*
X0275391Y0150273D01*
X0275322Y0150217D01*
X0275250Y0150164D01*
X0275176Y0150114D01*
X0275100Y0150068D01*
X0275022Y0150025D01*
X0274942Y0149986D01*
X0274860Y0149950D01*
X0274777Y0149918D01*
X0274693Y0149890D01*
X0274607Y0149865D01*
X0274520Y0149845D01*
X0274433Y0149828D01*
X0274344Y0149815D01*
X0274256Y0149806D01*
X0274167Y0149801D01*
X0274078Y0149800D01*
X0273989Y0149803D01*
X0273900Y0149810D01*
X0273811Y0149821D01*
X0273723Y0149836D01*
X0273636Y0149854D01*
X0273550Y0149877D01*
X0273465Y0149903D01*
X0273381Y0149934D01*
X0273299Y0149968D01*
X0273218Y0150005D01*
X0273139Y0150046D01*
X0273062Y0150091D01*
X0272987Y0150139D01*
X0272914Y0150190D01*
X0272843Y0150244D01*
X0272775Y0150302D01*
X0272710Y0150362D01*
X0272647Y0150426D01*
X0272587Y0150492D01*
X0272530Y0150561D01*
X0272477Y0150632D01*
X0272426Y0150705D01*
X0272379Y0150781D01*
X0272336Y0150858D01*
X0272295Y0150938D01*
X0272259Y0151019D01*
X0272226Y0151102D01*
X0272197Y0151186D01*
X0272171Y0151272D01*
X0272149Y0151358D01*
X0272132Y0151445D01*
X0272118Y0151533D01*
X0272108Y0151622D01*
X0272102Y0151711D01*
X0272100Y0151800D01*
X0239300Y0149300D02*
X0229300Y0149300D01*
X0229300Y0116938D01*
X0239300Y0116938D02*
X0239300Y0149300D01*
X0234300Y0150900D02*
X0234300Y0156900D01*
X0234298Y0156960D01*
X0234293Y0157021D01*
X0234284Y0157080D01*
X0234271Y0157139D01*
X0234255Y0157198D01*
X0234235Y0157255D01*
X0234212Y0157310D01*
X0234185Y0157365D01*
X0234156Y0157417D01*
X0234123Y0157468D01*
X0234087Y0157517D01*
X0234049Y0157563D01*
X0234007Y0157607D01*
X0233963Y0157649D01*
X0233917Y0157687D01*
X0233868Y0157723D01*
X0233817Y0157756D01*
X0233765Y0157785D01*
X0233710Y0157812D01*
X0233655Y0157835D01*
X0233598Y0157855D01*
X0233539Y0157871D01*
X0233480Y0157884D01*
X0233421Y0157893D01*
X0233360Y0157898D01*
X0233300Y0157900D01*
X0231800Y0157900D01*
X0231300Y0157400D01*
X0217300Y0157400D01*
X0216800Y0157900D01*
X0215300Y0157900D01*
X0215240Y0157898D01*
X0215179Y0157893D01*
X0215120Y0157884D01*
X0215061Y0157871D01*
X0215002Y0157855D01*
X0214945Y0157835D01*
X0214890Y0157812D01*
X0214835Y0157785D01*
X0214783Y0157756D01*
X0214732Y0157723D01*
X0214683Y0157687D01*
X0214637Y0157649D01*
X0214593Y0157607D01*
X0214551Y0157563D01*
X0214513Y0157517D01*
X0214477Y0157468D01*
X0214444Y0157417D01*
X0214415Y0157365D01*
X0214388Y0157310D01*
X0214365Y0157255D01*
X0214345Y0157198D01*
X0214329Y0157139D01*
X0214316Y0157080D01*
X0214307Y0157021D01*
X0214302Y0156960D01*
X0214300Y0156900D01*
X0214300Y0150900D01*
X0214302Y0150840D01*
X0214307Y0150779D01*
X0214316Y0150720D01*
X0214329Y0150661D01*
X0214345Y0150602D01*
X0214365Y0150545D01*
X0214388Y0150490D01*
X0214415Y0150435D01*
X0214444Y0150383D01*
X0214477Y0150332D01*
X0214513Y0150283D01*
X0214551Y0150237D01*
X0214593Y0150193D01*
X0214637Y0150151D01*
X0214683Y0150113D01*
X0214732Y0150077D01*
X0214783Y0150044D01*
X0214835Y0150015D01*
X0214890Y0149988D01*
X0214945Y0149965D01*
X0215002Y0149945D01*
X0215061Y0149929D01*
X0215120Y0149916D01*
X0215179Y0149907D01*
X0215240Y0149902D01*
X0215300Y0149900D01*
X0216800Y0149900D01*
X0217300Y0150400D01*
X0231300Y0150400D01*
X0231800Y0149900D01*
X0233300Y0149900D01*
X0233360Y0149902D01*
X0233421Y0149907D01*
X0233480Y0149916D01*
X0233539Y0149929D01*
X0233598Y0149945D01*
X0233655Y0149965D01*
X0233710Y0149988D01*
X0233765Y0150015D01*
X0233817Y0150044D01*
X0233868Y0150077D01*
X0233917Y0150113D01*
X0233963Y0150151D01*
X0234007Y0150193D01*
X0234049Y0150237D01*
X0234087Y0150283D01*
X0234123Y0150332D01*
X0234156Y0150383D01*
X0234185Y0150435D01*
X0234212Y0150490D01*
X0234235Y0150545D01*
X0234255Y0150602D01*
X0234271Y0150661D01*
X0234284Y0150720D01*
X0234293Y0150779D01*
X0234298Y0150840D01*
X0234300Y0150900D01*
X0223300Y0149300D02*
X0223298Y0149174D01*
X0223292Y0149049D01*
X0223282Y0148924D01*
X0223268Y0148799D01*
X0223251Y0148674D01*
X0223229Y0148550D01*
X0223204Y0148427D01*
X0223174Y0148305D01*
X0223141Y0148184D01*
X0223104Y0148064D01*
X0223064Y0147945D01*
X0223019Y0147828D01*
X0222971Y0147711D01*
X0222919Y0147597D01*
X0222864Y0147484D01*
X0222805Y0147373D01*
X0222743Y0147264D01*
X0222677Y0147157D01*
X0222608Y0147052D01*
X0222536Y0146949D01*
X0222461Y0146848D01*
X0222382Y0146750D01*
X0222300Y0146655D01*
X0222216Y0146562D01*
X0222128Y0146472D01*
X0222038Y0146384D01*
X0221945Y0146300D01*
X0221850Y0146218D01*
X0221752Y0146139D01*
X0221651Y0146064D01*
X0221548Y0145992D01*
X0221443Y0145923D01*
X0221336Y0145857D01*
X0221227Y0145795D01*
X0221116Y0145736D01*
X0221003Y0145681D01*
X0220889Y0145629D01*
X0220772Y0145581D01*
X0220655Y0145536D01*
X0220536Y0145496D01*
X0220416Y0145459D01*
X0220295Y0145426D01*
X0220173Y0145396D01*
X0220050Y0145371D01*
X0219926Y0145349D01*
X0219801Y0145332D01*
X0219676Y0145318D01*
X0219551Y0145308D01*
X0219426Y0145302D01*
X0219300Y0145300D01*
X0219174Y0145302D01*
X0219049Y0145308D01*
X0218924Y0145318D01*
X0218799Y0145332D01*
X0218674Y0145349D01*
X0218550Y0145371D01*
X0218427Y0145396D01*
X0218305Y0145426D01*
X0218184Y0145459D01*
X0218064Y0145496D01*
X0217945Y0145536D01*
X0217828Y0145581D01*
X0217711Y0145629D01*
X0217597Y0145681D01*
X0217484Y0145736D01*
X0217373Y0145795D01*
X0217264Y0145857D01*
X0217157Y0145923D01*
X0217052Y0145992D01*
X0216949Y0146064D01*
X0216848Y0146139D01*
X0216750Y0146218D01*
X0216655Y0146300D01*
X0216562Y0146384D01*
X0216472Y0146472D01*
X0216384Y0146562D01*
X0216300Y0146655D01*
X0216218Y0146750D01*
X0216139Y0146848D01*
X0216064Y0146949D01*
X0215992Y0147052D01*
X0215923Y0147157D01*
X0215857Y0147264D01*
X0215795Y0147373D01*
X0215736Y0147484D01*
X0215681Y0147597D01*
X0215629Y0147711D01*
X0215581Y0147828D01*
X0215536Y0147945D01*
X0215496Y0148064D01*
X0215459Y0148184D01*
X0215426Y0148305D01*
X0215396Y0148427D01*
X0215371Y0148550D01*
X0215349Y0148674D01*
X0215332Y0148799D01*
X0215318Y0148924D01*
X0215308Y0149049D01*
X0215302Y0149174D01*
X0215300Y0149300D01*
X0209300Y0149300D01*
X0209300Y0117331D01*
X0199300Y0116938D02*
X0199300Y0149300D01*
X0209300Y0149300D01*
X0294284Y0205800D02*
X0294287Y0206021D01*
X0294295Y0206242D01*
X0294308Y0206463D01*
X0294327Y0206684D01*
X0294352Y0206904D01*
X0294382Y0207123D01*
X0294417Y0207341D01*
X0294457Y0207559D01*
X0294503Y0207775D01*
X0294554Y0207991D01*
X0294611Y0208205D01*
X0294672Y0208417D01*
X0294739Y0208628D01*
X0294811Y0208837D01*
X0294888Y0209045D01*
X0294970Y0209250D01*
X0295057Y0209454D01*
X0295150Y0209655D01*
X0295247Y0209854D01*
X0295349Y0210050D01*
X0295455Y0210244D01*
X0295567Y0210435D01*
X0295683Y0210624D01*
X0295803Y0210809D01*
X0295929Y0210991D01*
X0296058Y0211171D01*
X0296192Y0211347D01*
X0296331Y0211520D01*
X0296473Y0211689D01*
X0296620Y0211855D01*
X0296770Y0212017D01*
X0296925Y0212175D01*
X0297083Y0212330D01*
X0297245Y0212480D01*
X0297411Y0212627D01*
X0297580Y0212769D01*
X0297753Y0212908D01*
X0297929Y0213042D01*
X0298109Y0213171D01*
X0298291Y0213297D01*
X0298476Y0213417D01*
X0298665Y0213533D01*
X0298856Y0213645D01*
X0299050Y0213751D01*
X0299246Y0213853D01*
X0299445Y0213950D01*
X0299646Y0214043D01*
X0299850Y0214130D01*
X0300055Y0214212D01*
X0300263Y0214289D01*
X0300472Y0214361D01*
X0300683Y0214428D01*
X0300895Y0214489D01*
X0301109Y0214546D01*
X0301325Y0214597D01*
X0301541Y0214643D01*
X0301759Y0214683D01*
X0301977Y0214718D01*
X0302196Y0214748D01*
X0302416Y0214773D01*
X0302637Y0214792D01*
X0302858Y0214805D01*
X0303079Y0214813D01*
X0303300Y0214816D01*
X0303521Y0214813D01*
X0303742Y0214805D01*
X0303963Y0214792D01*
X0304184Y0214773D01*
X0304404Y0214748D01*
X0304623Y0214718D01*
X0304841Y0214683D01*
X0305059Y0214643D01*
X0305275Y0214597D01*
X0305491Y0214546D01*
X0305705Y0214489D01*
X0305917Y0214428D01*
X0306128Y0214361D01*
X0306337Y0214289D01*
X0306545Y0214212D01*
X0306750Y0214130D01*
X0306954Y0214043D01*
X0307155Y0213950D01*
X0307354Y0213853D01*
X0307550Y0213751D01*
X0307744Y0213645D01*
X0307935Y0213533D01*
X0308124Y0213417D01*
X0308309Y0213297D01*
X0308491Y0213171D01*
X0308671Y0213042D01*
X0308847Y0212908D01*
X0309020Y0212769D01*
X0309189Y0212627D01*
X0309355Y0212480D01*
X0309517Y0212330D01*
X0309675Y0212175D01*
X0309830Y0212017D01*
X0309980Y0211855D01*
X0310127Y0211689D01*
X0310269Y0211520D01*
X0310408Y0211347D01*
X0310542Y0211171D01*
X0310671Y0210991D01*
X0310797Y0210809D01*
X0310917Y0210624D01*
X0311033Y0210435D01*
X0311145Y0210244D01*
X0311251Y0210050D01*
X0311353Y0209854D01*
X0311450Y0209655D01*
X0311543Y0209454D01*
X0311630Y0209250D01*
X0311712Y0209045D01*
X0311789Y0208837D01*
X0311861Y0208628D01*
X0311928Y0208417D01*
X0311989Y0208205D01*
X0312046Y0207991D01*
X0312097Y0207775D01*
X0312143Y0207559D01*
X0312183Y0207341D01*
X0312218Y0207123D01*
X0312248Y0206904D01*
X0312273Y0206684D01*
X0312292Y0206463D01*
X0312305Y0206242D01*
X0312313Y0206021D01*
X0312316Y0205800D01*
X0312313Y0205579D01*
X0312305Y0205358D01*
X0312292Y0205137D01*
X0312273Y0204916D01*
X0312248Y0204696D01*
X0312218Y0204477D01*
X0312183Y0204259D01*
X0312143Y0204041D01*
X0312097Y0203825D01*
X0312046Y0203609D01*
X0311989Y0203395D01*
X0311928Y0203183D01*
X0311861Y0202972D01*
X0311789Y0202763D01*
X0311712Y0202555D01*
X0311630Y0202350D01*
X0311543Y0202146D01*
X0311450Y0201945D01*
X0311353Y0201746D01*
X0311251Y0201550D01*
X0311145Y0201356D01*
X0311033Y0201165D01*
X0310917Y0200976D01*
X0310797Y0200791D01*
X0310671Y0200609D01*
X0310542Y0200429D01*
X0310408Y0200253D01*
X0310269Y0200080D01*
X0310127Y0199911D01*
X0309980Y0199745D01*
X0309830Y0199583D01*
X0309675Y0199425D01*
X0309517Y0199270D01*
X0309355Y0199120D01*
X0309189Y0198973D01*
X0309020Y0198831D01*
X0308847Y0198692D01*
X0308671Y0198558D01*
X0308491Y0198429D01*
X0308309Y0198303D01*
X0308124Y0198183D01*
X0307935Y0198067D01*
X0307744Y0197955D01*
X0307550Y0197849D01*
X0307354Y0197747D01*
X0307155Y0197650D01*
X0306954Y0197557D01*
X0306750Y0197470D01*
X0306545Y0197388D01*
X0306337Y0197311D01*
X0306128Y0197239D01*
X0305917Y0197172D01*
X0305705Y0197111D01*
X0305491Y0197054D01*
X0305275Y0197003D01*
X0305059Y0196957D01*
X0304841Y0196917D01*
X0304623Y0196882D01*
X0304404Y0196852D01*
X0304184Y0196827D01*
X0303963Y0196808D01*
X0303742Y0196795D01*
X0303521Y0196787D01*
X0303300Y0196784D01*
X0303079Y0196787D01*
X0302858Y0196795D01*
X0302637Y0196808D01*
X0302416Y0196827D01*
X0302196Y0196852D01*
X0301977Y0196882D01*
X0301759Y0196917D01*
X0301541Y0196957D01*
X0301325Y0197003D01*
X0301109Y0197054D01*
X0300895Y0197111D01*
X0300683Y0197172D01*
X0300472Y0197239D01*
X0300263Y0197311D01*
X0300055Y0197388D01*
X0299850Y0197470D01*
X0299646Y0197557D01*
X0299445Y0197650D01*
X0299246Y0197747D01*
X0299050Y0197849D01*
X0298856Y0197955D01*
X0298665Y0198067D01*
X0298476Y0198183D01*
X0298291Y0198303D01*
X0298109Y0198429D01*
X0297929Y0198558D01*
X0297753Y0198692D01*
X0297580Y0198831D01*
X0297411Y0198973D01*
X0297245Y0199120D01*
X0297083Y0199270D01*
X0296925Y0199425D01*
X0296770Y0199583D01*
X0296620Y0199745D01*
X0296473Y0199911D01*
X0296331Y0200080D01*
X0296192Y0200253D01*
X0296058Y0200429D01*
X0295929Y0200609D01*
X0295803Y0200791D01*
X0295683Y0200976D01*
X0295567Y0201165D01*
X0295455Y0201356D01*
X0295349Y0201550D01*
X0295247Y0201746D01*
X0295150Y0201945D01*
X0295057Y0202146D01*
X0294970Y0202350D01*
X0294888Y0202555D01*
X0294811Y0202763D01*
X0294739Y0202972D01*
X0294672Y0203183D01*
X0294611Y0203395D01*
X0294554Y0203609D01*
X0294503Y0203825D01*
X0294457Y0204041D01*
X0294417Y0204259D01*
X0294382Y0204477D01*
X0294352Y0204696D01*
X0294327Y0204916D01*
X0294308Y0205137D01*
X0294295Y0205358D01*
X0294287Y0205579D01*
X0294284Y0205800D01*
X0074203Y0185533D02*
X0074203Y0184399D01*
X0073636Y0183831D01*
X0072501Y0183831D02*
X0072501Y0184966D01*
X0072501Y0183831D02*
X0071367Y0183831D01*
X0070800Y0184399D01*
X0070800Y0185533D01*
X0071367Y0186100D01*
X0073636Y0186100D01*
X0074203Y0185533D01*
X0074203Y0182417D02*
X0070800Y0182417D01*
X0070800Y0180148D02*
X0074203Y0180148D01*
X0074203Y0178734D02*
X0074203Y0177032D01*
X0073636Y0176465D01*
X0071367Y0176465D01*
X0070800Y0177032D01*
X0070800Y0178734D01*
X0074203Y0178734D01*
X0074203Y0182417D02*
X0070800Y0180148D01*
X0069300Y0179300D02*
X0066800Y0176800D01*
X0051800Y0176800D01*
X0049300Y0179300D01*
X0049300Y0184300D01*
X0051800Y0186800D01*
X0066800Y0186800D01*
X0069300Y0184300D01*
X0069300Y0179300D01*
X0066800Y0176800D02*
X0069300Y0174300D01*
X0069300Y0169300D01*
X0066800Y0166800D01*
X0051800Y0166800D01*
X0049300Y0169300D01*
X0049300Y0174300D01*
X0051800Y0176800D01*
X0047903Y0179048D02*
X0045634Y0179048D01*
X0044500Y0180183D01*
X0045634Y0181317D01*
X0047903Y0181317D01*
X0047903Y0182731D02*
X0047903Y0185000D01*
X0046201Y0185000D01*
X0046769Y0183866D01*
X0046769Y0183299D01*
X0046201Y0182731D01*
X0045067Y0182731D01*
X0044500Y0183299D01*
X0044500Y0184433D01*
X0045067Y0185000D01*
X0044500Y0174500D02*
X0044500Y0172799D01*
X0045067Y0172231D01*
X0047336Y0172231D01*
X0047903Y0172799D01*
X0047903Y0174500D01*
X0044500Y0174500D01*
X0046201Y0170817D02*
X0046201Y0168548D01*
X0044500Y0169115D02*
X0047903Y0169115D01*
X0046201Y0170817D01*
X0051800Y0166800D02*
X0049300Y0164300D01*
X0049300Y0159300D01*
X0051800Y0156800D01*
X0066800Y0156800D01*
X0069300Y0159300D01*
X0069300Y0164300D01*
X0066800Y0166800D01*
X0070800Y0168715D02*
X0070800Y0169850D01*
X0071367Y0170417D01*
X0073636Y0168148D01*
X0071367Y0168148D01*
X0070800Y0168715D01*
X0071367Y0170417D02*
X0073636Y0170417D01*
X0074203Y0169850D01*
X0074203Y0168715D01*
X0073636Y0168148D01*
X0074203Y0164100D02*
X0070800Y0164100D01*
X0070800Y0162399D01*
X0071367Y0161831D01*
X0073636Y0161831D01*
X0074203Y0162399D01*
X0074203Y0164100D01*
X0074203Y0160417D02*
X0072501Y0160417D01*
X0073069Y0159283D01*
X0073069Y0158715D01*
X0072501Y0158148D01*
X0071367Y0158148D01*
X0070800Y0158715D01*
X0070800Y0159850D01*
X0071367Y0160417D01*
X0074203Y0160417D02*
X0074203Y0158148D01*
X0074203Y0154100D02*
X0070800Y0154100D01*
X0070800Y0152399D01*
X0071367Y0151831D01*
X0073636Y0151831D01*
X0074203Y0152399D01*
X0074203Y0154100D01*
X0072501Y0150417D02*
X0072501Y0148715D01*
X0071934Y0148148D01*
X0071367Y0148148D01*
X0070800Y0148715D01*
X0070800Y0149850D01*
X0071367Y0150417D01*
X0072501Y0150417D01*
X0073636Y0149283D01*
X0074203Y0148148D01*
X0074203Y0143600D02*
X0070800Y0143600D01*
X0070800Y0141899D01*
X0071367Y0141331D01*
X0073636Y0141331D01*
X0074203Y0141899D01*
X0074203Y0143600D01*
X0074203Y0139917D02*
X0074203Y0137648D01*
X0073636Y0137648D01*
X0071367Y0139917D01*
X0070800Y0139917D01*
X0069300Y0139300D02*
X0069300Y0144300D01*
X0066800Y0146800D01*
X0051800Y0146800D01*
X0049300Y0149300D01*
X0049300Y0154300D01*
X0051800Y0156800D01*
X0047903Y0154500D02*
X0047903Y0152799D01*
X0047336Y0152231D01*
X0045067Y0152231D01*
X0044500Y0152799D01*
X0044500Y0154500D01*
X0047903Y0154500D01*
X0047336Y0158548D02*
X0046769Y0158548D01*
X0046201Y0159115D01*
X0045634Y0158548D01*
X0045067Y0158548D01*
X0044500Y0159115D01*
X0044500Y0160250D01*
X0045067Y0160817D01*
X0045067Y0162231D02*
X0044500Y0162799D01*
X0044500Y0164500D01*
X0047903Y0164500D01*
X0047903Y0162799D01*
X0047336Y0162231D01*
X0045067Y0162231D01*
X0047336Y0160817D02*
X0047903Y0160250D01*
X0047903Y0159115D01*
X0047336Y0158548D01*
X0046201Y0159115D02*
X0046201Y0159683D01*
X0047336Y0150817D02*
X0047903Y0150250D01*
X0047903Y0149115D01*
X0047336Y0148548D01*
X0046769Y0148548D01*
X0044500Y0150817D01*
X0044500Y0148548D01*
X0044500Y0144000D02*
X0044500Y0142299D01*
X0045067Y0141731D01*
X0047336Y0141731D01*
X0047903Y0142299D01*
X0047903Y0144000D01*
X0044500Y0144000D01*
X0044500Y0140317D02*
X0044500Y0138048D01*
X0044500Y0139183D02*
X0047903Y0139183D01*
X0046769Y0140317D01*
X0049300Y0139300D02*
X0049300Y0144300D01*
X0051800Y0146800D01*
X0049300Y0139300D02*
X0051800Y0136800D01*
X0066800Y0136800D01*
X0069300Y0139300D01*
X0066800Y0146800D02*
X0069300Y0149300D01*
X0069300Y0154300D01*
X0066800Y0156800D01*
X0071367Y0171831D02*
X0073636Y0171831D01*
X0074203Y0172399D01*
X0074203Y0174100D01*
X0070800Y0174100D01*
X0070800Y0172399D01*
X0071367Y0171831D01*
X0041784Y0205800D02*
X0041787Y0206021D01*
X0041795Y0206242D01*
X0041808Y0206463D01*
X0041827Y0206684D01*
X0041852Y0206904D01*
X0041882Y0207123D01*
X0041917Y0207341D01*
X0041957Y0207559D01*
X0042003Y0207775D01*
X0042054Y0207991D01*
X0042111Y0208205D01*
X0042172Y0208417D01*
X0042239Y0208628D01*
X0042311Y0208837D01*
X0042388Y0209045D01*
X0042470Y0209250D01*
X0042557Y0209454D01*
X0042650Y0209655D01*
X0042747Y0209854D01*
X0042849Y0210050D01*
X0042955Y0210244D01*
X0043067Y0210435D01*
X0043183Y0210624D01*
X0043303Y0210809D01*
X0043429Y0210991D01*
X0043558Y0211171D01*
X0043692Y0211347D01*
X0043831Y0211520D01*
X0043973Y0211689D01*
X0044120Y0211855D01*
X0044270Y0212017D01*
X0044425Y0212175D01*
X0044583Y0212330D01*
X0044745Y0212480D01*
X0044911Y0212627D01*
X0045080Y0212769D01*
X0045253Y0212908D01*
X0045429Y0213042D01*
X0045609Y0213171D01*
X0045791Y0213297D01*
X0045976Y0213417D01*
X0046165Y0213533D01*
X0046356Y0213645D01*
X0046550Y0213751D01*
X0046746Y0213853D01*
X0046945Y0213950D01*
X0047146Y0214043D01*
X0047350Y0214130D01*
X0047555Y0214212D01*
X0047763Y0214289D01*
X0047972Y0214361D01*
X0048183Y0214428D01*
X0048395Y0214489D01*
X0048609Y0214546D01*
X0048825Y0214597D01*
X0049041Y0214643D01*
X0049259Y0214683D01*
X0049477Y0214718D01*
X0049696Y0214748D01*
X0049916Y0214773D01*
X0050137Y0214792D01*
X0050358Y0214805D01*
X0050579Y0214813D01*
X0050800Y0214816D01*
X0051021Y0214813D01*
X0051242Y0214805D01*
X0051463Y0214792D01*
X0051684Y0214773D01*
X0051904Y0214748D01*
X0052123Y0214718D01*
X0052341Y0214683D01*
X0052559Y0214643D01*
X0052775Y0214597D01*
X0052991Y0214546D01*
X0053205Y0214489D01*
X0053417Y0214428D01*
X0053628Y0214361D01*
X0053837Y0214289D01*
X0054045Y0214212D01*
X0054250Y0214130D01*
X0054454Y0214043D01*
X0054655Y0213950D01*
X0054854Y0213853D01*
X0055050Y0213751D01*
X0055244Y0213645D01*
X0055435Y0213533D01*
X0055624Y0213417D01*
X0055809Y0213297D01*
X0055991Y0213171D01*
X0056171Y0213042D01*
X0056347Y0212908D01*
X0056520Y0212769D01*
X0056689Y0212627D01*
X0056855Y0212480D01*
X0057017Y0212330D01*
X0057175Y0212175D01*
X0057330Y0212017D01*
X0057480Y0211855D01*
X0057627Y0211689D01*
X0057769Y0211520D01*
X0057908Y0211347D01*
X0058042Y0211171D01*
X0058171Y0210991D01*
X0058297Y0210809D01*
X0058417Y0210624D01*
X0058533Y0210435D01*
X0058645Y0210244D01*
X0058751Y0210050D01*
X0058853Y0209854D01*
X0058950Y0209655D01*
X0059043Y0209454D01*
X0059130Y0209250D01*
X0059212Y0209045D01*
X0059289Y0208837D01*
X0059361Y0208628D01*
X0059428Y0208417D01*
X0059489Y0208205D01*
X0059546Y0207991D01*
X0059597Y0207775D01*
X0059643Y0207559D01*
X0059683Y0207341D01*
X0059718Y0207123D01*
X0059748Y0206904D01*
X0059773Y0206684D01*
X0059792Y0206463D01*
X0059805Y0206242D01*
X0059813Y0206021D01*
X0059816Y0205800D01*
X0059813Y0205579D01*
X0059805Y0205358D01*
X0059792Y0205137D01*
X0059773Y0204916D01*
X0059748Y0204696D01*
X0059718Y0204477D01*
X0059683Y0204259D01*
X0059643Y0204041D01*
X0059597Y0203825D01*
X0059546Y0203609D01*
X0059489Y0203395D01*
X0059428Y0203183D01*
X0059361Y0202972D01*
X0059289Y0202763D01*
X0059212Y0202555D01*
X0059130Y0202350D01*
X0059043Y0202146D01*
X0058950Y0201945D01*
X0058853Y0201746D01*
X0058751Y0201550D01*
X0058645Y0201356D01*
X0058533Y0201165D01*
X0058417Y0200976D01*
X0058297Y0200791D01*
X0058171Y0200609D01*
X0058042Y0200429D01*
X0057908Y0200253D01*
X0057769Y0200080D01*
X0057627Y0199911D01*
X0057480Y0199745D01*
X0057330Y0199583D01*
X0057175Y0199425D01*
X0057017Y0199270D01*
X0056855Y0199120D01*
X0056689Y0198973D01*
X0056520Y0198831D01*
X0056347Y0198692D01*
X0056171Y0198558D01*
X0055991Y0198429D01*
X0055809Y0198303D01*
X0055624Y0198183D01*
X0055435Y0198067D01*
X0055244Y0197955D01*
X0055050Y0197849D01*
X0054854Y0197747D01*
X0054655Y0197650D01*
X0054454Y0197557D01*
X0054250Y0197470D01*
X0054045Y0197388D01*
X0053837Y0197311D01*
X0053628Y0197239D01*
X0053417Y0197172D01*
X0053205Y0197111D01*
X0052991Y0197054D01*
X0052775Y0197003D01*
X0052559Y0196957D01*
X0052341Y0196917D01*
X0052123Y0196882D01*
X0051904Y0196852D01*
X0051684Y0196827D01*
X0051463Y0196808D01*
X0051242Y0196795D01*
X0051021Y0196787D01*
X0050800Y0196784D01*
X0050579Y0196787D01*
X0050358Y0196795D01*
X0050137Y0196808D01*
X0049916Y0196827D01*
X0049696Y0196852D01*
X0049477Y0196882D01*
X0049259Y0196917D01*
X0049041Y0196957D01*
X0048825Y0197003D01*
X0048609Y0197054D01*
X0048395Y0197111D01*
X0048183Y0197172D01*
X0047972Y0197239D01*
X0047763Y0197311D01*
X0047555Y0197388D01*
X0047350Y0197470D01*
X0047146Y0197557D01*
X0046945Y0197650D01*
X0046746Y0197747D01*
X0046550Y0197849D01*
X0046356Y0197955D01*
X0046165Y0198067D01*
X0045976Y0198183D01*
X0045791Y0198303D01*
X0045609Y0198429D01*
X0045429Y0198558D01*
X0045253Y0198692D01*
X0045080Y0198831D01*
X0044911Y0198973D01*
X0044745Y0199120D01*
X0044583Y0199270D01*
X0044425Y0199425D01*
X0044270Y0199583D01*
X0044120Y0199745D01*
X0043973Y0199911D01*
X0043831Y0200080D01*
X0043692Y0200253D01*
X0043558Y0200429D01*
X0043429Y0200609D01*
X0043303Y0200791D01*
X0043183Y0200976D01*
X0043067Y0201165D01*
X0042955Y0201356D01*
X0042849Y0201550D01*
X0042747Y0201746D01*
X0042650Y0201945D01*
X0042557Y0202146D01*
X0042470Y0202350D01*
X0042388Y0202555D01*
X0042311Y0202763D01*
X0042239Y0202972D01*
X0042172Y0203183D01*
X0042111Y0203395D01*
X0042054Y0203609D01*
X0042003Y0203825D01*
X0041957Y0204041D01*
X0041917Y0204259D01*
X0041882Y0204477D01*
X0041852Y0204696D01*
X0041827Y0204916D01*
X0041808Y0205137D01*
X0041795Y0205358D01*
X0041787Y0205579D01*
X0041784Y0205800D01*
X0294284Y0038800D02*
X0294287Y0039021D01*
X0294295Y0039242D01*
X0294308Y0039463D01*
X0294327Y0039684D01*
X0294352Y0039904D01*
X0294382Y0040123D01*
X0294417Y0040341D01*
X0294457Y0040559D01*
X0294503Y0040775D01*
X0294554Y0040991D01*
X0294611Y0041205D01*
X0294672Y0041417D01*
X0294739Y0041628D01*
X0294811Y0041837D01*
X0294888Y0042045D01*
X0294970Y0042250D01*
X0295057Y0042454D01*
X0295150Y0042655D01*
X0295247Y0042854D01*
X0295349Y0043050D01*
X0295455Y0043244D01*
X0295567Y0043435D01*
X0295683Y0043624D01*
X0295803Y0043809D01*
X0295929Y0043991D01*
X0296058Y0044171D01*
X0296192Y0044347D01*
X0296331Y0044520D01*
X0296473Y0044689D01*
X0296620Y0044855D01*
X0296770Y0045017D01*
X0296925Y0045175D01*
X0297083Y0045330D01*
X0297245Y0045480D01*
X0297411Y0045627D01*
X0297580Y0045769D01*
X0297753Y0045908D01*
X0297929Y0046042D01*
X0298109Y0046171D01*
X0298291Y0046297D01*
X0298476Y0046417D01*
X0298665Y0046533D01*
X0298856Y0046645D01*
X0299050Y0046751D01*
X0299246Y0046853D01*
X0299445Y0046950D01*
X0299646Y0047043D01*
X0299850Y0047130D01*
X0300055Y0047212D01*
X0300263Y0047289D01*
X0300472Y0047361D01*
X0300683Y0047428D01*
X0300895Y0047489D01*
X0301109Y0047546D01*
X0301325Y0047597D01*
X0301541Y0047643D01*
X0301759Y0047683D01*
X0301977Y0047718D01*
X0302196Y0047748D01*
X0302416Y0047773D01*
X0302637Y0047792D01*
X0302858Y0047805D01*
X0303079Y0047813D01*
X0303300Y0047816D01*
X0303521Y0047813D01*
X0303742Y0047805D01*
X0303963Y0047792D01*
X0304184Y0047773D01*
X0304404Y0047748D01*
X0304623Y0047718D01*
X0304841Y0047683D01*
X0305059Y0047643D01*
X0305275Y0047597D01*
X0305491Y0047546D01*
X0305705Y0047489D01*
X0305917Y0047428D01*
X0306128Y0047361D01*
X0306337Y0047289D01*
X0306545Y0047212D01*
X0306750Y0047130D01*
X0306954Y0047043D01*
X0307155Y0046950D01*
X0307354Y0046853D01*
X0307550Y0046751D01*
X0307744Y0046645D01*
X0307935Y0046533D01*
X0308124Y0046417D01*
X0308309Y0046297D01*
X0308491Y0046171D01*
X0308671Y0046042D01*
X0308847Y0045908D01*
X0309020Y0045769D01*
X0309189Y0045627D01*
X0309355Y0045480D01*
X0309517Y0045330D01*
X0309675Y0045175D01*
X0309830Y0045017D01*
X0309980Y0044855D01*
X0310127Y0044689D01*
X0310269Y0044520D01*
X0310408Y0044347D01*
X0310542Y0044171D01*
X0310671Y0043991D01*
X0310797Y0043809D01*
X0310917Y0043624D01*
X0311033Y0043435D01*
X0311145Y0043244D01*
X0311251Y0043050D01*
X0311353Y0042854D01*
X0311450Y0042655D01*
X0311543Y0042454D01*
X0311630Y0042250D01*
X0311712Y0042045D01*
X0311789Y0041837D01*
X0311861Y0041628D01*
X0311928Y0041417D01*
X0311989Y0041205D01*
X0312046Y0040991D01*
X0312097Y0040775D01*
X0312143Y0040559D01*
X0312183Y0040341D01*
X0312218Y0040123D01*
X0312248Y0039904D01*
X0312273Y0039684D01*
X0312292Y0039463D01*
X0312305Y0039242D01*
X0312313Y0039021D01*
X0312316Y0038800D01*
X0312313Y0038579D01*
X0312305Y0038358D01*
X0312292Y0038137D01*
X0312273Y0037916D01*
X0312248Y0037696D01*
X0312218Y0037477D01*
X0312183Y0037259D01*
X0312143Y0037041D01*
X0312097Y0036825D01*
X0312046Y0036609D01*
X0311989Y0036395D01*
X0311928Y0036183D01*
X0311861Y0035972D01*
X0311789Y0035763D01*
X0311712Y0035555D01*
X0311630Y0035350D01*
X0311543Y0035146D01*
X0311450Y0034945D01*
X0311353Y0034746D01*
X0311251Y0034550D01*
X0311145Y0034356D01*
X0311033Y0034165D01*
X0310917Y0033976D01*
X0310797Y0033791D01*
X0310671Y0033609D01*
X0310542Y0033429D01*
X0310408Y0033253D01*
X0310269Y0033080D01*
X0310127Y0032911D01*
X0309980Y0032745D01*
X0309830Y0032583D01*
X0309675Y0032425D01*
X0309517Y0032270D01*
X0309355Y0032120D01*
X0309189Y0031973D01*
X0309020Y0031831D01*
X0308847Y0031692D01*
X0308671Y0031558D01*
X0308491Y0031429D01*
X0308309Y0031303D01*
X0308124Y0031183D01*
X0307935Y0031067D01*
X0307744Y0030955D01*
X0307550Y0030849D01*
X0307354Y0030747D01*
X0307155Y0030650D01*
X0306954Y0030557D01*
X0306750Y0030470D01*
X0306545Y0030388D01*
X0306337Y0030311D01*
X0306128Y0030239D01*
X0305917Y0030172D01*
X0305705Y0030111D01*
X0305491Y0030054D01*
X0305275Y0030003D01*
X0305059Y0029957D01*
X0304841Y0029917D01*
X0304623Y0029882D01*
X0304404Y0029852D01*
X0304184Y0029827D01*
X0303963Y0029808D01*
X0303742Y0029795D01*
X0303521Y0029787D01*
X0303300Y0029784D01*
X0303079Y0029787D01*
X0302858Y0029795D01*
X0302637Y0029808D01*
X0302416Y0029827D01*
X0302196Y0029852D01*
X0301977Y0029882D01*
X0301759Y0029917D01*
X0301541Y0029957D01*
X0301325Y0030003D01*
X0301109Y0030054D01*
X0300895Y0030111D01*
X0300683Y0030172D01*
X0300472Y0030239D01*
X0300263Y0030311D01*
X0300055Y0030388D01*
X0299850Y0030470D01*
X0299646Y0030557D01*
X0299445Y0030650D01*
X0299246Y0030747D01*
X0299050Y0030849D01*
X0298856Y0030955D01*
X0298665Y0031067D01*
X0298476Y0031183D01*
X0298291Y0031303D01*
X0298109Y0031429D01*
X0297929Y0031558D01*
X0297753Y0031692D01*
X0297580Y0031831D01*
X0297411Y0031973D01*
X0297245Y0032120D01*
X0297083Y0032270D01*
X0296925Y0032425D01*
X0296770Y0032583D01*
X0296620Y0032745D01*
X0296473Y0032911D01*
X0296331Y0033080D01*
X0296192Y0033253D01*
X0296058Y0033429D01*
X0295929Y0033609D01*
X0295803Y0033791D01*
X0295683Y0033976D01*
X0295567Y0034165D01*
X0295455Y0034356D01*
X0295349Y0034550D01*
X0295247Y0034746D01*
X0295150Y0034945D01*
X0295057Y0035146D01*
X0294970Y0035350D01*
X0294888Y0035555D01*
X0294811Y0035763D01*
X0294739Y0035972D01*
X0294672Y0036183D01*
X0294611Y0036395D01*
X0294554Y0036609D01*
X0294503Y0036825D01*
X0294457Y0037041D01*
X0294417Y0037259D01*
X0294382Y0037477D01*
X0294352Y0037696D01*
X0294327Y0037916D01*
X0294308Y0038137D01*
X0294295Y0038358D01*
X0294287Y0038579D01*
X0294284Y0038800D01*
D12*
X0308900Y0077450D02*
X0308900Y0079950D01*
X0311400Y0078700D01*
X0308900Y0077450D01*
X0308700Y0097850D02*
X0308700Y0100350D01*
X0311200Y0099100D01*
X0308700Y0097850D01*
X0308900Y0115750D02*
X0308900Y0118250D01*
X0311400Y0117000D01*
X0308900Y0115750D01*
X0308900Y0135550D02*
X0308900Y0138050D01*
X0311400Y0136800D01*
X0308900Y0135550D01*
X0311300Y0158250D02*
X0308800Y0159500D01*
X0311300Y0160750D01*
X0311300Y0158250D01*
X0311500Y0174850D02*
X0309000Y0176100D01*
X0311500Y0177350D01*
X0311500Y0174850D01*
X0229300Y0149300D02*
X0223300Y0149300D01*
X0188300Y0129300D02*
X0188300Y0124300D01*
X0185800Y0121800D01*
X0180800Y0121800D01*
X0178300Y0124300D01*
X0175800Y0121800D01*
X0170800Y0121800D01*
X0168300Y0124300D01*
X0165800Y0121800D01*
X0160800Y0121800D01*
X0158300Y0124300D01*
X0155800Y0121800D01*
X0150800Y0121800D01*
X0148300Y0124300D01*
X0145800Y0121800D01*
X0140800Y0121800D01*
X0138300Y0124300D01*
X0135800Y0121800D01*
X0130800Y0121800D01*
X0128300Y0124300D01*
X0125800Y0121800D01*
X0120800Y0121800D01*
X0118300Y0124300D01*
X0115800Y0121800D01*
X0110800Y0121800D01*
X0108300Y0124300D01*
X0108300Y0129300D01*
X0110800Y0131800D01*
X0115800Y0131800D01*
X0118300Y0129300D01*
X0120800Y0131800D01*
X0125800Y0131800D01*
X0128300Y0129300D01*
X0130800Y0131800D01*
X0135800Y0131800D01*
X0138300Y0129300D01*
X0140800Y0131800D01*
X0145800Y0131800D01*
X0148300Y0129300D01*
X0150800Y0131800D01*
X0155800Y0131800D01*
X0158300Y0129300D01*
X0160800Y0131800D01*
X0165800Y0131800D01*
X0168300Y0129300D01*
X0170800Y0131800D01*
X0175800Y0131800D01*
X0178300Y0129300D01*
X0180800Y0131800D01*
X0185800Y0131800D01*
X0188300Y0129300D01*
X0223300Y0104300D02*
X0229300Y0104300D01*
X0229300Y0061800D02*
X0223300Y0061800D01*
X0188300Y0039300D02*
X0188300Y0034300D01*
X0185800Y0031800D01*
X0180800Y0031800D01*
X0178300Y0034300D01*
X0175800Y0031800D01*
X0170800Y0031800D01*
X0168300Y0034300D01*
X0165800Y0031800D01*
X0160800Y0031800D01*
X0158300Y0034300D01*
X0155800Y0031800D01*
X0150800Y0031800D01*
X0148300Y0034300D01*
X0145800Y0031800D01*
X0140800Y0031800D01*
X0138300Y0034300D01*
X0135800Y0031800D01*
X0130800Y0031800D01*
X0128300Y0034300D01*
X0125800Y0031800D01*
X0120800Y0031800D01*
X0118300Y0034300D01*
X0115800Y0031800D01*
X0110800Y0031800D01*
X0108300Y0034300D01*
X0108300Y0039300D01*
X0110800Y0041800D01*
X0115800Y0041800D01*
X0118300Y0039300D01*
X0120800Y0041800D01*
X0125800Y0041800D01*
X0128300Y0039300D01*
X0130800Y0041800D01*
X0135800Y0041800D01*
X0138300Y0039300D01*
X0140800Y0041800D01*
X0145800Y0041800D01*
X0148300Y0039300D01*
X0150800Y0041800D01*
X0155800Y0041800D01*
X0158300Y0039300D01*
X0160800Y0041800D01*
X0165800Y0041800D01*
X0168300Y0039300D01*
X0170800Y0041800D01*
X0175800Y0041800D01*
X0178300Y0039300D01*
X0180800Y0041800D01*
X0185800Y0041800D01*
X0188300Y0039300D01*
X0160348Y0191200D02*
X0161749Y0192601D01*
X0161749Y0195404D01*
X0158947Y0195404D02*
X0158947Y0192601D01*
X0160348Y0191200D01*
X0157146Y0191901D02*
X0157146Y0193302D01*
X0156445Y0194002D01*
X0155744Y0194002D01*
X0154343Y0193302D01*
X0154343Y0195404D01*
X0157146Y0195404D01*
X0152542Y0193302D02*
X0149739Y0193302D01*
X0147938Y0194703D02*
X0147237Y0195404D01*
X0145836Y0195404D01*
X0145135Y0194703D01*
X0145135Y0191901D01*
X0145836Y0191200D01*
X0147237Y0191200D01*
X0147938Y0191901D01*
X0154343Y0191901D02*
X0155044Y0191200D01*
X0156445Y0191200D01*
X0157146Y0191901D01*
X0143334Y0191200D02*
X0143334Y0194002D01*
X0141933Y0195404D01*
X0140531Y0194002D01*
X0140531Y0191200D01*
X0140531Y0193302D02*
X0143334Y0193302D01*
X0138730Y0192601D02*
X0137329Y0191200D01*
X0135927Y0192601D01*
X0135927Y0195404D01*
X0134126Y0194703D02*
X0131324Y0191901D01*
X0132024Y0191200D01*
X0133425Y0191200D01*
X0134126Y0191901D01*
X0134126Y0194703D01*
X0133425Y0195404D01*
X0132024Y0195404D01*
X0131324Y0194703D01*
X0131324Y0191901D01*
X0129522Y0191200D02*
X0126720Y0191200D01*
X0129522Y0194002D01*
X0129522Y0194703D01*
X0128821Y0195404D01*
X0127420Y0195404D01*
X0126720Y0194703D01*
X0124918Y0194703D02*
X0124217Y0195404D01*
X0122816Y0195404D01*
X0122116Y0194703D01*
X0124918Y0194703D02*
X0124918Y0194002D01*
X0122116Y0191200D01*
X0124918Y0191200D01*
X0115710Y0191901D02*
X0115710Y0195404D01*
X0112908Y0195404D02*
X0112908Y0191901D01*
X0113608Y0191200D01*
X0115010Y0191200D01*
X0115710Y0191901D01*
X0111106Y0191901D02*
X0111106Y0192601D01*
X0110406Y0193302D01*
X0109005Y0193302D01*
X0108304Y0194002D01*
X0108304Y0194703D01*
X0109005Y0195404D01*
X0110406Y0195404D01*
X0111106Y0194703D01*
X0111106Y0191901D02*
X0110406Y0191200D01*
X0109005Y0191200D01*
X0108304Y0191901D01*
X0106502Y0193302D02*
X0105802Y0192601D01*
X0103700Y0192601D01*
X0103700Y0191200D02*
X0103700Y0195404D01*
X0105802Y0195404D01*
X0106502Y0194703D01*
X0106502Y0193302D01*
X0138730Y0192601D02*
X0138730Y0195404D01*
X0223300Y0204300D02*
X0229300Y0204300D01*
D13*
X0185211Y0182107D02*
X0179806Y0182107D01*
X0179806Y0174000D01*
X0185211Y0174000D01*
X0182509Y0178053D02*
X0179806Y0178053D01*
X0176463Y0178053D02*
X0173761Y0178053D01*
X0176463Y0178053D02*
X0176463Y0175351D01*
X0175112Y0174000D01*
X0172410Y0174000D01*
X0171059Y0175351D01*
X0171059Y0180756D01*
X0172410Y0182107D01*
X0175112Y0182107D01*
X0176463Y0180756D01*
X0167716Y0179405D02*
X0167716Y0174000D01*
X0162311Y0174000D02*
X0162311Y0179405D01*
X0165014Y0182107D01*
X0167716Y0179405D01*
X0167716Y0178053D02*
X0162311Y0178053D01*
X0158969Y0182107D02*
X0153564Y0182107D01*
X0156266Y0182107D02*
X0156266Y0174000D01*
X0150221Y0174000D02*
X0144816Y0174000D01*
X0144816Y0182107D01*
X0141474Y0180756D02*
X0140122Y0182107D01*
X0137420Y0182107D01*
X0136069Y0180756D01*
X0136069Y0175351D01*
X0137420Y0174000D01*
X0140122Y0174000D01*
X0141474Y0175351D01*
X0141474Y0180756D01*
X0132726Y0182107D02*
X0132726Y0176702D01*
X0130024Y0174000D01*
X0127322Y0176702D01*
X0127322Y0182107D01*
X0115231Y0182107D02*
X0115231Y0174000D01*
X0115231Y0178053D02*
X0109827Y0178053D01*
X0106484Y0178053D02*
X0103781Y0178053D01*
X0106484Y0178053D02*
X0106484Y0175351D01*
X0105133Y0174000D01*
X0102430Y0174000D01*
X0101079Y0175351D01*
X0101079Y0180756D01*
X0102430Y0182107D01*
X0105133Y0182107D01*
X0106484Y0180756D01*
X0109827Y0182107D02*
X0109827Y0174000D01*
X0097950Y0174000D02*
X0095247Y0174000D01*
X0096599Y0174000D02*
X0096599Y0182107D01*
X0097950Y0182107D02*
X0095247Y0182107D01*
X0091905Y0182107D02*
X0091905Y0174000D01*
X0086500Y0174000D02*
X0086500Y0182107D01*
X0086500Y0178053D02*
X0091905Y0178053D01*
D14*
X0051254Y0131250D02*
X0046850Y0131250D01*
X0048318Y0131250D02*
X0048318Y0129048D01*
X0049052Y0128314D01*
X0050520Y0128314D01*
X0051254Y0129048D01*
X0051254Y0131250D01*
X0048318Y0129782D02*
X0046850Y0128314D01*
X0047584Y0126186D02*
X0046850Y0125452D01*
X0046850Y0123984D01*
X0047584Y0123250D01*
X0049052Y0123250D01*
X0049786Y0123984D01*
X0049786Y0125452D01*
X0049052Y0126186D01*
X0047584Y0126186D01*
X0047584Y0121121D02*
X0046850Y0120387D01*
X0046850Y0118186D01*
X0046850Y0116057D02*
X0051254Y0116057D01*
X0049786Y0118186D02*
X0049786Y0120387D01*
X0049052Y0121121D01*
X0047584Y0121121D01*
X0048318Y0116057D02*
X0049786Y0113855D01*
X0049786Y0111837D02*
X0047584Y0111837D01*
X0046850Y0111103D01*
X0046850Y0108901D01*
X0046116Y0108901D02*
X0045382Y0109635D01*
X0045382Y0110369D01*
X0046116Y0108901D02*
X0049786Y0108901D01*
X0046850Y0113855D02*
X0048318Y0116057D01*
X0047584Y0101708D02*
X0046850Y0100974D01*
X0046850Y0099506D01*
X0047584Y0098772D01*
X0048318Y0098772D01*
X0049052Y0099506D01*
X0049052Y0100974D01*
X0049786Y0101708D01*
X0050520Y0101708D01*
X0051254Y0100974D01*
X0051254Y0099506D01*
X0050520Y0098772D01*
X0049786Y0096644D02*
X0047584Y0096644D01*
X0046850Y0095910D01*
X0047584Y0095176D01*
X0046850Y0094442D01*
X0047584Y0093708D01*
X0049786Y0093708D01*
X0049786Y0091579D02*
X0049786Y0090846D01*
X0046850Y0090846D01*
X0046850Y0091579D02*
X0046850Y0090112D01*
X0047584Y0087469D02*
X0046850Y0086735D01*
X0047584Y0087469D02*
X0050520Y0087469D01*
X0049786Y0088203D02*
X0049786Y0086735D01*
X0049052Y0084827D02*
X0047584Y0084827D01*
X0046850Y0084093D01*
X0046850Y0081891D01*
X0046850Y0079763D02*
X0051254Y0079763D01*
X0049786Y0079029D02*
X0049786Y0077561D01*
X0049052Y0076827D01*
X0046850Y0076827D01*
X0049052Y0079763D02*
X0049786Y0079029D01*
X0049786Y0081891D02*
X0049786Y0084093D01*
X0049052Y0084827D01*
X0051254Y0090846D02*
X0051988Y0090846D01*
X0049786Y0069634D02*
X0046850Y0068166D01*
X0049786Y0066698D01*
X0049786Y0064570D02*
X0051254Y0063102D01*
X0046850Y0063102D01*
X0046850Y0064570D02*
X0046850Y0061634D01*
X0046850Y0059505D02*
X0046850Y0058771D01*
X0047584Y0058771D01*
X0047584Y0059505D01*
X0046850Y0059505D01*
X0047584Y0056973D02*
X0050520Y0054037D01*
X0047584Y0054037D01*
X0046850Y0054771D01*
X0046850Y0056239D01*
X0047584Y0056973D01*
X0050520Y0056973D01*
X0051254Y0056239D01*
X0051254Y0054771D01*
X0050520Y0054037D01*
D15*
X0126800Y0144300D02*
X0139300Y0164300D01*
X0151800Y0144300D01*
X0126800Y0144300D01*
X0306396Y0142900D02*
X0311200Y0142900D01*
X0308798Y0142900D02*
X0308798Y0146103D01*
X0306396Y0146103D02*
X0311200Y0146103D01*
X0310399Y0148425D02*
X0307197Y0148425D01*
X0306396Y0149225D01*
X0306396Y0150827D01*
X0307197Y0151627D01*
X0310399Y0151627D01*
X0311200Y0150827D01*
X0311200Y0149225D01*
X0310399Y0148425D01*
X0306396Y0153949D02*
X0306396Y0157152D01*
X0306396Y0155551D02*
X0311200Y0155551D01*
X0311200Y0169400D02*
X0306396Y0169400D01*
X0311200Y0172603D01*
X0306396Y0172603D01*
X0311200Y0133627D02*
X0311200Y0130425D01*
X0311200Y0132026D02*
X0306396Y0132026D01*
X0307997Y0130425D01*
X0307197Y0128103D02*
X0306396Y0127302D01*
X0306396Y0125701D01*
X0307197Y0124900D01*
X0307997Y0124900D01*
X0308798Y0125701D01*
X0308798Y0127302D01*
X0309599Y0128103D01*
X0310399Y0128103D01*
X0311200Y0127302D01*
X0311200Y0125701D01*
X0310399Y0124900D01*
X0311200Y0113627D02*
X0311200Y0110425D01*
X0307997Y0113627D01*
X0307197Y0113627D01*
X0306396Y0112827D01*
X0306396Y0111225D01*
X0307197Y0110425D01*
X0307197Y0108103D02*
X0306396Y0107302D01*
X0306396Y0105701D01*
X0307197Y0104900D01*
X0307997Y0104900D01*
X0308798Y0105701D01*
X0308798Y0107302D01*
X0309599Y0108103D01*
X0310399Y0108103D01*
X0311200Y0107302D01*
X0311200Y0105701D01*
X0310399Y0104900D01*
X0310399Y0096127D02*
X0311200Y0095327D01*
X0311200Y0093725D01*
X0310399Y0092925D01*
X0308798Y0094526D02*
X0308798Y0095327D01*
X0309599Y0096127D01*
X0310399Y0096127D01*
X0308798Y0095327D02*
X0307997Y0096127D01*
X0307197Y0096127D01*
X0306396Y0095327D01*
X0306396Y0093725D01*
X0307197Y0092925D01*
X0307197Y0090603D02*
X0306396Y0089802D01*
X0306396Y0088201D01*
X0307197Y0087400D01*
X0307997Y0087400D01*
X0308798Y0088201D01*
X0308798Y0089802D01*
X0309599Y0090603D01*
X0310399Y0090603D01*
X0311200Y0089802D01*
X0311200Y0088201D01*
X0310399Y0087400D01*
X0308798Y0076127D02*
X0308798Y0072925D01*
X0306396Y0075327D01*
X0311200Y0075327D01*
X0310399Y0070603D02*
X0311200Y0069802D01*
X0311200Y0068201D01*
X0310399Y0067400D01*
X0308798Y0068201D02*
X0308798Y0069802D01*
X0309599Y0070603D01*
X0310399Y0070603D01*
X0308798Y0068201D02*
X0307997Y0067400D01*
X0307197Y0067400D01*
X0306396Y0068201D01*
X0306396Y0069802D01*
X0307197Y0070603D01*
D16*
X0279950Y0067525D02*
X0279950Y0064522D01*
X0279950Y0066024D02*
X0275446Y0066024D01*
X0276947Y0064522D01*
X0276197Y0084022D02*
X0275446Y0084773D01*
X0275446Y0086274D01*
X0276197Y0087025D01*
X0276947Y0087025D01*
X0279950Y0084022D01*
X0279950Y0087025D01*
X0279199Y0103922D02*
X0279950Y0104673D01*
X0279950Y0106174D01*
X0279199Y0106925D01*
X0278449Y0106925D01*
X0277698Y0106174D01*
X0277698Y0105424D01*
X0277698Y0106174D02*
X0276947Y0106925D01*
X0276197Y0106925D01*
X0275446Y0106174D01*
X0275446Y0104673D01*
X0276197Y0103922D01*
X0277698Y0123422D02*
X0277698Y0126425D01*
X0275446Y0125674D02*
X0277698Y0123422D01*
X0279950Y0125674D02*
X0275446Y0125674D01*
X0277047Y0144550D02*
X0275546Y0146051D01*
X0280050Y0146051D01*
X0280050Y0144550D02*
X0280050Y0147553D01*
X0280250Y0164750D02*
X0277247Y0167753D01*
X0276497Y0167753D01*
X0275746Y0167002D01*
X0275746Y0165501D01*
X0276497Y0164750D01*
X0280250Y0164750D02*
X0280250Y0167753D01*
X0239300Y0171938D02*
X0199300Y0171938D01*
X0218150Y0171053D02*
X0218150Y0168550D01*
X0218650Y0168050D01*
X0219651Y0168050D01*
X0220152Y0168550D01*
X0220152Y0171053D01*
X0221373Y0170052D02*
X0222374Y0171053D01*
X0222374Y0168050D01*
X0223374Y0168050D02*
X0221373Y0168050D01*
X0198355Y0134930D02*
X0198355Y0213670D01*
X0078394Y0213670D01*
X0078394Y0134930D01*
X0198355Y0134930D01*
X0197250Y0132774D02*
X0197250Y0130773D01*
X0195248Y0132774D01*
X0194748Y0132774D01*
X0194247Y0132274D01*
X0194247Y0131273D01*
X0194748Y0130773D01*
X0194247Y0129552D02*
X0196750Y0129552D01*
X0197250Y0129051D01*
X0197250Y0128050D01*
X0196750Y0127550D01*
X0194247Y0127550D01*
X0207788Y0134674D02*
X0208073Y0134671D01*
X0208359Y0134660D01*
X0208644Y0134643D01*
X0208928Y0134619D01*
X0209212Y0134588D01*
X0209495Y0134550D01*
X0209776Y0134505D01*
X0210057Y0134454D01*
X0210337Y0134396D01*
X0210615Y0134331D01*
X0210891Y0134259D01*
X0211165Y0134181D01*
X0211438Y0134096D01*
X0211708Y0134004D01*
X0211976Y0133906D01*
X0212242Y0133802D01*
X0212505Y0133691D01*
X0212765Y0133574D01*
X0213023Y0133451D01*
X0213277Y0133321D01*
X0213528Y0133185D01*
X0213776Y0133044D01*
X0214020Y0132896D01*
X0214261Y0132743D01*
X0214497Y0132583D01*
X0214730Y0132418D01*
X0214959Y0132248D01*
X0215184Y0132072D01*
X0215404Y0131890D01*
X0215620Y0131704D01*
X0215831Y0131512D01*
X0216038Y0131315D01*
X0216240Y0131113D01*
X0216437Y0130906D01*
X0216629Y0130695D01*
X0216815Y0130479D01*
X0216997Y0130259D01*
X0217173Y0130034D01*
X0217343Y0129805D01*
X0217508Y0129572D01*
X0217668Y0129336D01*
X0217821Y0129095D01*
X0217969Y0128851D01*
X0218110Y0128603D01*
X0218246Y0128352D01*
X0218376Y0128098D01*
X0218499Y0127840D01*
X0218616Y0127580D01*
X0218727Y0127317D01*
X0218831Y0127051D01*
X0218929Y0126783D01*
X0219021Y0126513D01*
X0219106Y0126240D01*
X0219184Y0125966D01*
X0219256Y0125690D01*
X0219321Y0125412D01*
X0219379Y0125132D01*
X0219430Y0124851D01*
X0219475Y0124570D01*
X0219513Y0124287D01*
X0219544Y0124003D01*
X0219568Y0123719D01*
X0219585Y0123434D01*
X0219596Y0123148D01*
X0219599Y0122863D01*
X0219599Y0040186D01*
X0219596Y0039901D01*
X0219585Y0039615D01*
X0219568Y0039330D01*
X0219544Y0039046D01*
X0219513Y0038762D01*
X0219475Y0038479D01*
X0219430Y0038198D01*
X0219379Y0037917D01*
X0219321Y0037637D01*
X0219256Y0037359D01*
X0219184Y0037083D01*
X0219106Y0036809D01*
X0219021Y0036536D01*
X0218929Y0036266D01*
X0218831Y0035998D01*
X0218727Y0035732D01*
X0218616Y0035469D01*
X0218499Y0035209D01*
X0218376Y0034951D01*
X0218246Y0034697D01*
X0218110Y0034446D01*
X0217969Y0034198D01*
X0217821Y0033954D01*
X0217668Y0033713D01*
X0217508Y0033477D01*
X0217343Y0033244D01*
X0217173Y0033015D01*
X0216997Y0032790D01*
X0216815Y0032570D01*
X0216629Y0032354D01*
X0216437Y0032143D01*
X0216240Y0031936D01*
X0216038Y0031734D01*
X0215831Y0031537D01*
X0215620Y0031345D01*
X0215404Y0031159D01*
X0215184Y0030977D01*
X0214959Y0030801D01*
X0214730Y0030631D01*
X0214497Y0030466D01*
X0214261Y0030306D01*
X0214020Y0030153D01*
X0213776Y0030005D01*
X0213528Y0029864D01*
X0213277Y0029728D01*
X0213023Y0029598D01*
X0212765Y0029475D01*
X0212505Y0029358D01*
X0212242Y0029247D01*
X0211976Y0029143D01*
X0211708Y0029045D01*
X0211438Y0028953D01*
X0211165Y0028868D01*
X0210891Y0028790D01*
X0210615Y0028718D01*
X0210337Y0028653D01*
X0210057Y0028595D01*
X0209776Y0028544D01*
X0209495Y0028499D01*
X0209212Y0028461D01*
X0208928Y0028430D01*
X0208644Y0028406D01*
X0208359Y0028389D01*
X0208073Y0028378D01*
X0207788Y0028375D01*
X0077867Y0028375D01*
X0077867Y0118926D01*
X0097552Y0118926D01*
X0105426Y0134674D01*
X0207788Y0134674D01*
X0199300Y0116938D02*
X0239300Y0116938D01*
X0197250Y0089074D02*
X0197250Y0088073D01*
X0196750Y0087573D01*
X0196750Y0086352D02*
X0194247Y0086352D01*
X0194748Y0087573D02*
X0194247Y0088073D01*
X0194247Y0089074D01*
X0194748Y0089574D01*
X0195248Y0089574D01*
X0195749Y0089074D01*
X0196249Y0089574D01*
X0196750Y0089574D01*
X0197250Y0089074D01*
X0195749Y0089074D02*
X0195749Y0088574D01*
X0196750Y0086352D02*
X0197250Y0085851D01*
X0197250Y0084850D01*
X0196750Y0084350D01*
X0194247Y0084350D01*
X0199300Y0071938D02*
X0239300Y0071938D01*
X0197550Y0047074D02*
X0194547Y0047074D01*
X0196049Y0045573D01*
X0196049Y0047574D01*
X0197050Y0044352D02*
X0194547Y0044352D01*
X0194547Y0042350D02*
X0197050Y0042350D01*
X0197550Y0042850D01*
X0197550Y0043851D01*
X0197050Y0044352D01*
X0199300Y0029438D02*
X0239300Y0029438D01*
X0074109Y0065801D02*
X0072441Y0065801D01*
X0073692Y0067052D01*
X0073692Y0064550D01*
X0071347Y0064550D02*
X0070096Y0064550D01*
X0069679Y0064967D01*
X0069679Y0066218D01*
X0068584Y0065801D02*
X0068584Y0064550D01*
X0067333Y0064550D01*
X0066916Y0064967D01*
X0067333Y0065384D01*
X0068584Y0065384D01*
X0068584Y0065801D02*
X0068167Y0066218D01*
X0067333Y0066218D01*
X0065492Y0067052D02*
X0065492Y0064550D01*
X0065075Y0064550D02*
X0065909Y0064550D01*
X0063980Y0065384D02*
X0062312Y0065384D01*
X0062312Y0064967D02*
X0062312Y0065801D01*
X0062729Y0066218D01*
X0063563Y0066218D01*
X0063980Y0065801D01*
X0063980Y0065384D01*
X0063563Y0064550D02*
X0062729Y0064550D01*
X0062312Y0064967D01*
X0061218Y0064550D02*
X0060384Y0065384D01*
X0060801Y0065384D02*
X0059550Y0065384D01*
X0059550Y0064550D02*
X0059550Y0067052D01*
X0060801Y0067052D01*
X0061218Y0066635D01*
X0061218Y0065801D01*
X0060801Y0065384D01*
X0065075Y0067052D02*
X0065492Y0067052D01*
X0071347Y0066218D02*
X0071347Y0064133D01*
X0070930Y0063716D01*
X0070513Y0063716D01*
X0070513Y0076416D02*
X0070930Y0076416D01*
X0071347Y0076833D01*
X0071347Y0078918D01*
X0072441Y0079335D02*
X0072858Y0079752D01*
X0073692Y0079752D01*
X0074109Y0079335D01*
X0074109Y0078918D01*
X0073692Y0078501D01*
X0074109Y0078084D01*
X0074109Y0077667D01*
X0073692Y0077250D01*
X0072858Y0077250D01*
X0072441Y0077667D01*
X0071347Y0077250D02*
X0070096Y0077250D01*
X0069679Y0077667D01*
X0069679Y0078918D01*
X0068584Y0078501D02*
X0068584Y0077250D01*
X0067333Y0077250D01*
X0066916Y0077667D01*
X0067333Y0078084D01*
X0068584Y0078084D01*
X0068584Y0078501D02*
X0068167Y0078918D01*
X0067333Y0078918D01*
X0065492Y0079752D02*
X0065492Y0077250D01*
X0065075Y0077250D02*
X0065909Y0077250D01*
X0063980Y0078084D02*
X0062312Y0078084D01*
X0062312Y0077667D02*
X0062312Y0078501D01*
X0062729Y0078918D01*
X0063563Y0078918D01*
X0063980Y0078501D01*
X0063980Y0078084D01*
X0063563Y0077250D02*
X0062729Y0077250D01*
X0062312Y0077667D01*
X0061218Y0077250D02*
X0060384Y0078084D01*
X0060801Y0078084D02*
X0059550Y0078084D01*
X0059550Y0077250D02*
X0059550Y0079752D01*
X0060801Y0079752D01*
X0061218Y0079335D01*
X0061218Y0078501D01*
X0060801Y0078084D01*
X0065075Y0079752D02*
X0065492Y0079752D01*
X0073275Y0078501D02*
X0073692Y0078501D01*
X0070930Y0089616D02*
X0070513Y0089616D01*
X0070930Y0089616D02*
X0071347Y0090033D01*
X0071347Y0092118D01*
X0072441Y0092535D02*
X0072858Y0092952D01*
X0073692Y0092952D01*
X0074109Y0092535D01*
X0074109Y0092118D01*
X0072441Y0090450D01*
X0074109Y0090450D01*
X0071347Y0090450D02*
X0070096Y0090450D01*
X0069679Y0090867D01*
X0069679Y0092118D01*
X0068584Y0091701D02*
X0068584Y0090450D01*
X0067333Y0090450D01*
X0066916Y0090867D01*
X0067333Y0091284D01*
X0068584Y0091284D01*
X0068584Y0091701D02*
X0068167Y0092118D01*
X0067333Y0092118D01*
X0065492Y0092952D02*
X0065492Y0090450D01*
X0065075Y0090450D02*
X0065909Y0090450D01*
X0063980Y0091284D02*
X0063980Y0091701D01*
X0063563Y0092118D01*
X0062729Y0092118D01*
X0062312Y0091701D01*
X0062312Y0090867D01*
X0062729Y0090450D01*
X0063563Y0090450D01*
X0063980Y0091284D02*
X0062312Y0091284D01*
X0061218Y0091701D02*
X0060801Y0091284D01*
X0059550Y0091284D01*
X0059550Y0090450D02*
X0059550Y0092952D01*
X0060801Y0092952D01*
X0061218Y0092535D01*
X0061218Y0091701D01*
X0060384Y0091284D02*
X0061218Y0090450D01*
X0065075Y0092952D02*
X0065492Y0092952D01*
X0065995Y0103050D02*
X0066996Y0103050D01*
X0066496Y0103050D02*
X0066496Y0106053D01*
X0065995Y0106053D01*
X0064774Y0104551D02*
X0064774Y0104051D01*
X0062773Y0104051D01*
X0062773Y0104551D02*
X0063273Y0105052D01*
X0064274Y0105052D01*
X0064774Y0104551D01*
X0064274Y0103050D02*
X0063273Y0103050D01*
X0062773Y0103550D01*
X0062773Y0104551D01*
X0061552Y0104551D02*
X0061051Y0104051D01*
X0059550Y0104051D01*
X0060551Y0104051D02*
X0061552Y0103050D01*
X0061552Y0104551D02*
X0061552Y0105552D01*
X0061051Y0106053D01*
X0059550Y0106053D01*
X0059550Y0103050D01*
X0068144Y0103550D02*
X0068644Y0103050D01*
X0070146Y0103050D01*
X0070146Y0104551D01*
X0069645Y0105052D01*
X0068644Y0105052D01*
X0068644Y0104051D02*
X0070146Y0104051D01*
X0071367Y0103550D02*
X0071867Y0103050D01*
X0073368Y0103050D01*
X0073368Y0102550D02*
X0072868Y0102049D01*
X0072368Y0102049D01*
X0073368Y0102550D02*
X0073368Y0105052D01*
X0074589Y0105052D02*
X0075590Y0106053D01*
X0075590Y0103050D01*
X0074589Y0103050D02*
X0076591Y0103050D01*
X0071367Y0103550D02*
X0071367Y0105052D01*
X0068644Y0104051D02*
X0068144Y0103550D01*
X0138675Y0149300D02*
X0138050Y0158050D01*
X0140550Y0158050D01*
X0139925Y0149300D01*
X0138675Y0149300D01*
X0138669Y0149389D02*
X0139932Y0149389D01*
X0139967Y0149888D02*
X0138633Y0149888D01*
X0138598Y0150386D02*
X0140003Y0150386D01*
X0140038Y0150885D02*
X0138562Y0150885D01*
X0138526Y0151383D02*
X0140074Y0151383D01*
X0140110Y0151882D02*
X0138491Y0151882D01*
X0138455Y0152380D02*
X0140145Y0152380D01*
X0140181Y0152879D02*
X0138420Y0152879D01*
X0138384Y0153377D02*
X0140216Y0153377D01*
X0140252Y0153876D02*
X0138348Y0153876D01*
X0138313Y0154374D02*
X0140288Y0154374D01*
X0140323Y0154873D02*
X0138277Y0154873D01*
X0138242Y0155371D02*
X0140359Y0155371D01*
X0140394Y0155870D02*
X0138206Y0155870D01*
X0138170Y0156368D02*
X0140430Y0156368D01*
X0140466Y0156867D02*
X0138135Y0156867D01*
X0138099Y0157365D02*
X0140501Y0157365D01*
X0140537Y0157864D02*
X0138064Y0157864D01*
D17*
X0044894Y0205800D02*
X0044896Y0205953D01*
X0044902Y0206107D01*
X0044912Y0206260D01*
X0044926Y0206412D01*
X0044944Y0206565D01*
X0044966Y0206716D01*
X0044991Y0206867D01*
X0045021Y0207018D01*
X0045055Y0207168D01*
X0045092Y0207316D01*
X0045133Y0207464D01*
X0045178Y0207610D01*
X0045227Y0207756D01*
X0045280Y0207900D01*
X0045336Y0208042D01*
X0045396Y0208183D01*
X0045460Y0208323D01*
X0045527Y0208461D01*
X0045598Y0208597D01*
X0045673Y0208731D01*
X0045750Y0208863D01*
X0045832Y0208993D01*
X0045916Y0209121D01*
X0046004Y0209247D01*
X0046095Y0209370D01*
X0046189Y0209491D01*
X0046287Y0209609D01*
X0046387Y0209725D01*
X0046491Y0209838D01*
X0046597Y0209949D01*
X0046706Y0210057D01*
X0046818Y0210162D01*
X0046932Y0210263D01*
X0047050Y0210362D01*
X0047169Y0210458D01*
X0047291Y0210551D01*
X0047416Y0210640D01*
X0047543Y0210727D01*
X0047672Y0210809D01*
X0047803Y0210889D01*
X0047936Y0210965D01*
X0048071Y0211038D01*
X0048208Y0211107D01*
X0048347Y0211172D01*
X0048487Y0211234D01*
X0048629Y0211292D01*
X0048772Y0211347D01*
X0048917Y0211398D01*
X0049063Y0211445D01*
X0049210Y0211488D01*
X0049358Y0211527D01*
X0049507Y0211563D01*
X0049657Y0211594D01*
X0049808Y0211622D01*
X0049959Y0211646D01*
X0050112Y0211666D01*
X0050264Y0211682D01*
X0050417Y0211694D01*
X0050570Y0211702D01*
X0050723Y0211706D01*
X0050877Y0211706D01*
X0051030Y0211702D01*
X0051183Y0211694D01*
X0051336Y0211682D01*
X0051488Y0211666D01*
X0051641Y0211646D01*
X0051792Y0211622D01*
X0051943Y0211594D01*
X0052093Y0211563D01*
X0052242Y0211527D01*
X0052390Y0211488D01*
X0052537Y0211445D01*
X0052683Y0211398D01*
X0052828Y0211347D01*
X0052971Y0211292D01*
X0053113Y0211234D01*
X0053253Y0211172D01*
X0053392Y0211107D01*
X0053529Y0211038D01*
X0053664Y0210965D01*
X0053797Y0210889D01*
X0053928Y0210809D01*
X0054057Y0210727D01*
X0054184Y0210640D01*
X0054309Y0210551D01*
X0054431Y0210458D01*
X0054550Y0210362D01*
X0054668Y0210263D01*
X0054782Y0210162D01*
X0054894Y0210057D01*
X0055003Y0209949D01*
X0055109Y0209838D01*
X0055213Y0209725D01*
X0055313Y0209609D01*
X0055411Y0209491D01*
X0055505Y0209370D01*
X0055596Y0209247D01*
X0055684Y0209121D01*
X0055768Y0208993D01*
X0055850Y0208863D01*
X0055927Y0208731D01*
X0056002Y0208597D01*
X0056073Y0208461D01*
X0056140Y0208323D01*
X0056204Y0208183D01*
X0056264Y0208042D01*
X0056320Y0207900D01*
X0056373Y0207756D01*
X0056422Y0207610D01*
X0056467Y0207464D01*
X0056508Y0207316D01*
X0056545Y0207168D01*
X0056579Y0207018D01*
X0056609Y0206867D01*
X0056634Y0206716D01*
X0056656Y0206565D01*
X0056674Y0206412D01*
X0056688Y0206260D01*
X0056698Y0206107D01*
X0056704Y0205953D01*
X0056706Y0205800D01*
X0056704Y0205647D01*
X0056698Y0205493D01*
X0056688Y0205340D01*
X0056674Y0205188D01*
X0056656Y0205035D01*
X0056634Y0204884D01*
X0056609Y0204733D01*
X0056579Y0204582D01*
X0056545Y0204432D01*
X0056508Y0204284D01*
X0056467Y0204136D01*
X0056422Y0203990D01*
X0056373Y0203844D01*
X0056320Y0203700D01*
X0056264Y0203558D01*
X0056204Y0203417D01*
X0056140Y0203277D01*
X0056073Y0203139D01*
X0056002Y0203003D01*
X0055927Y0202869D01*
X0055850Y0202737D01*
X0055768Y0202607D01*
X0055684Y0202479D01*
X0055596Y0202353D01*
X0055505Y0202230D01*
X0055411Y0202109D01*
X0055313Y0201991D01*
X0055213Y0201875D01*
X0055109Y0201762D01*
X0055003Y0201651D01*
X0054894Y0201543D01*
X0054782Y0201438D01*
X0054668Y0201337D01*
X0054550Y0201238D01*
X0054431Y0201142D01*
X0054309Y0201049D01*
X0054184Y0200960D01*
X0054057Y0200873D01*
X0053928Y0200791D01*
X0053797Y0200711D01*
X0053664Y0200635D01*
X0053529Y0200562D01*
X0053392Y0200493D01*
X0053253Y0200428D01*
X0053113Y0200366D01*
X0052971Y0200308D01*
X0052828Y0200253D01*
X0052683Y0200202D01*
X0052537Y0200155D01*
X0052390Y0200112D01*
X0052242Y0200073D01*
X0052093Y0200037D01*
X0051943Y0200006D01*
X0051792Y0199978D01*
X0051641Y0199954D01*
X0051488Y0199934D01*
X0051336Y0199918D01*
X0051183Y0199906D01*
X0051030Y0199898D01*
X0050877Y0199894D01*
X0050723Y0199894D01*
X0050570Y0199898D01*
X0050417Y0199906D01*
X0050264Y0199918D01*
X0050112Y0199934D01*
X0049959Y0199954D01*
X0049808Y0199978D01*
X0049657Y0200006D01*
X0049507Y0200037D01*
X0049358Y0200073D01*
X0049210Y0200112D01*
X0049063Y0200155D01*
X0048917Y0200202D01*
X0048772Y0200253D01*
X0048629Y0200308D01*
X0048487Y0200366D01*
X0048347Y0200428D01*
X0048208Y0200493D01*
X0048071Y0200562D01*
X0047936Y0200635D01*
X0047803Y0200711D01*
X0047672Y0200791D01*
X0047543Y0200873D01*
X0047416Y0200960D01*
X0047291Y0201049D01*
X0047169Y0201142D01*
X0047050Y0201238D01*
X0046932Y0201337D01*
X0046818Y0201438D01*
X0046706Y0201543D01*
X0046597Y0201651D01*
X0046491Y0201762D01*
X0046387Y0201875D01*
X0046287Y0201991D01*
X0046189Y0202109D01*
X0046095Y0202230D01*
X0046004Y0202353D01*
X0045916Y0202479D01*
X0045832Y0202607D01*
X0045750Y0202737D01*
X0045673Y0202869D01*
X0045598Y0203003D01*
X0045527Y0203139D01*
X0045460Y0203277D01*
X0045396Y0203417D01*
X0045336Y0203558D01*
X0045280Y0203700D01*
X0045227Y0203844D01*
X0045178Y0203990D01*
X0045133Y0204136D01*
X0045092Y0204284D01*
X0045055Y0204432D01*
X0045021Y0204582D01*
X0044991Y0204733D01*
X0044966Y0204884D01*
X0044944Y0205035D01*
X0044926Y0205188D01*
X0044912Y0205340D01*
X0044902Y0205493D01*
X0044896Y0205647D01*
X0044894Y0205800D01*
X0297394Y0205800D02*
X0297396Y0205953D01*
X0297402Y0206107D01*
X0297412Y0206260D01*
X0297426Y0206412D01*
X0297444Y0206565D01*
X0297466Y0206716D01*
X0297491Y0206867D01*
X0297521Y0207018D01*
X0297555Y0207168D01*
X0297592Y0207316D01*
X0297633Y0207464D01*
X0297678Y0207610D01*
X0297727Y0207756D01*
X0297780Y0207900D01*
X0297836Y0208042D01*
X0297896Y0208183D01*
X0297960Y0208323D01*
X0298027Y0208461D01*
X0298098Y0208597D01*
X0298173Y0208731D01*
X0298250Y0208863D01*
X0298332Y0208993D01*
X0298416Y0209121D01*
X0298504Y0209247D01*
X0298595Y0209370D01*
X0298689Y0209491D01*
X0298787Y0209609D01*
X0298887Y0209725D01*
X0298991Y0209838D01*
X0299097Y0209949D01*
X0299206Y0210057D01*
X0299318Y0210162D01*
X0299432Y0210263D01*
X0299550Y0210362D01*
X0299669Y0210458D01*
X0299791Y0210551D01*
X0299916Y0210640D01*
X0300043Y0210727D01*
X0300172Y0210809D01*
X0300303Y0210889D01*
X0300436Y0210965D01*
X0300571Y0211038D01*
X0300708Y0211107D01*
X0300847Y0211172D01*
X0300987Y0211234D01*
X0301129Y0211292D01*
X0301272Y0211347D01*
X0301417Y0211398D01*
X0301563Y0211445D01*
X0301710Y0211488D01*
X0301858Y0211527D01*
X0302007Y0211563D01*
X0302157Y0211594D01*
X0302308Y0211622D01*
X0302459Y0211646D01*
X0302612Y0211666D01*
X0302764Y0211682D01*
X0302917Y0211694D01*
X0303070Y0211702D01*
X0303223Y0211706D01*
X0303377Y0211706D01*
X0303530Y0211702D01*
X0303683Y0211694D01*
X0303836Y0211682D01*
X0303988Y0211666D01*
X0304141Y0211646D01*
X0304292Y0211622D01*
X0304443Y0211594D01*
X0304593Y0211563D01*
X0304742Y0211527D01*
X0304890Y0211488D01*
X0305037Y0211445D01*
X0305183Y0211398D01*
X0305328Y0211347D01*
X0305471Y0211292D01*
X0305613Y0211234D01*
X0305753Y0211172D01*
X0305892Y0211107D01*
X0306029Y0211038D01*
X0306164Y0210965D01*
X0306297Y0210889D01*
X0306428Y0210809D01*
X0306557Y0210727D01*
X0306684Y0210640D01*
X0306809Y0210551D01*
X0306931Y0210458D01*
X0307050Y0210362D01*
X0307168Y0210263D01*
X0307282Y0210162D01*
X0307394Y0210057D01*
X0307503Y0209949D01*
X0307609Y0209838D01*
X0307713Y0209725D01*
X0307813Y0209609D01*
X0307911Y0209491D01*
X0308005Y0209370D01*
X0308096Y0209247D01*
X0308184Y0209121D01*
X0308268Y0208993D01*
X0308350Y0208863D01*
X0308427Y0208731D01*
X0308502Y0208597D01*
X0308573Y0208461D01*
X0308640Y0208323D01*
X0308704Y0208183D01*
X0308764Y0208042D01*
X0308820Y0207900D01*
X0308873Y0207756D01*
X0308922Y0207610D01*
X0308967Y0207464D01*
X0309008Y0207316D01*
X0309045Y0207168D01*
X0309079Y0207018D01*
X0309109Y0206867D01*
X0309134Y0206716D01*
X0309156Y0206565D01*
X0309174Y0206412D01*
X0309188Y0206260D01*
X0309198Y0206107D01*
X0309204Y0205953D01*
X0309206Y0205800D01*
X0309204Y0205647D01*
X0309198Y0205493D01*
X0309188Y0205340D01*
X0309174Y0205188D01*
X0309156Y0205035D01*
X0309134Y0204884D01*
X0309109Y0204733D01*
X0309079Y0204582D01*
X0309045Y0204432D01*
X0309008Y0204284D01*
X0308967Y0204136D01*
X0308922Y0203990D01*
X0308873Y0203844D01*
X0308820Y0203700D01*
X0308764Y0203558D01*
X0308704Y0203417D01*
X0308640Y0203277D01*
X0308573Y0203139D01*
X0308502Y0203003D01*
X0308427Y0202869D01*
X0308350Y0202737D01*
X0308268Y0202607D01*
X0308184Y0202479D01*
X0308096Y0202353D01*
X0308005Y0202230D01*
X0307911Y0202109D01*
X0307813Y0201991D01*
X0307713Y0201875D01*
X0307609Y0201762D01*
X0307503Y0201651D01*
X0307394Y0201543D01*
X0307282Y0201438D01*
X0307168Y0201337D01*
X0307050Y0201238D01*
X0306931Y0201142D01*
X0306809Y0201049D01*
X0306684Y0200960D01*
X0306557Y0200873D01*
X0306428Y0200791D01*
X0306297Y0200711D01*
X0306164Y0200635D01*
X0306029Y0200562D01*
X0305892Y0200493D01*
X0305753Y0200428D01*
X0305613Y0200366D01*
X0305471Y0200308D01*
X0305328Y0200253D01*
X0305183Y0200202D01*
X0305037Y0200155D01*
X0304890Y0200112D01*
X0304742Y0200073D01*
X0304593Y0200037D01*
X0304443Y0200006D01*
X0304292Y0199978D01*
X0304141Y0199954D01*
X0303988Y0199934D01*
X0303836Y0199918D01*
X0303683Y0199906D01*
X0303530Y0199898D01*
X0303377Y0199894D01*
X0303223Y0199894D01*
X0303070Y0199898D01*
X0302917Y0199906D01*
X0302764Y0199918D01*
X0302612Y0199934D01*
X0302459Y0199954D01*
X0302308Y0199978D01*
X0302157Y0200006D01*
X0302007Y0200037D01*
X0301858Y0200073D01*
X0301710Y0200112D01*
X0301563Y0200155D01*
X0301417Y0200202D01*
X0301272Y0200253D01*
X0301129Y0200308D01*
X0300987Y0200366D01*
X0300847Y0200428D01*
X0300708Y0200493D01*
X0300571Y0200562D01*
X0300436Y0200635D01*
X0300303Y0200711D01*
X0300172Y0200791D01*
X0300043Y0200873D01*
X0299916Y0200960D01*
X0299791Y0201049D01*
X0299669Y0201142D01*
X0299550Y0201238D01*
X0299432Y0201337D01*
X0299318Y0201438D01*
X0299206Y0201543D01*
X0299097Y0201651D01*
X0298991Y0201762D01*
X0298887Y0201875D01*
X0298787Y0201991D01*
X0298689Y0202109D01*
X0298595Y0202230D01*
X0298504Y0202353D01*
X0298416Y0202479D01*
X0298332Y0202607D01*
X0298250Y0202737D01*
X0298173Y0202869D01*
X0298098Y0203003D01*
X0298027Y0203139D01*
X0297960Y0203277D01*
X0297896Y0203417D01*
X0297836Y0203558D01*
X0297780Y0203700D01*
X0297727Y0203844D01*
X0297678Y0203990D01*
X0297633Y0204136D01*
X0297592Y0204284D01*
X0297555Y0204432D01*
X0297521Y0204582D01*
X0297491Y0204733D01*
X0297466Y0204884D01*
X0297444Y0205035D01*
X0297426Y0205188D01*
X0297412Y0205340D01*
X0297402Y0205493D01*
X0297396Y0205647D01*
X0297394Y0205800D01*
X0297394Y0038800D02*
X0297396Y0038953D01*
X0297402Y0039107D01*
X0297412Y0039260D01*
X0297426Y0039412D01*
X0297444Y0039565D01*
X0297466Y0039716D01*
X0297491Y0039867D01*
X0297521Y0040018D01*
X0297555Y0040168D01*
X0297592Y0040316D01*
X0297633Y0040464D01*
X0297678Y0040610D01*
X0297727Y0040756D01*
X0297780Y0040900D01*
X0297836Y0041042D01*
X0297896Y0041183D01*
X0297960Y0041323D01*
X0298027Y0041461D01*
X0298098Y0041597D01*
X0298173Y0041731D01*
X0298250Y0041863D01*
X0298332Y0041993D01*
X0298416Y0042121D01*
X0298504Y0042247D01*
X0298595Y0042370D01*
X0298689Y0042491D01*
X0298787Y0042609D01*
X0298887Y0042725D01*
X0298991Y0042838D01*
X0299097Y0042949D01*
X0299206Y0043057D01*
X0299318Y0043162D01*
X0299432Y0043263D01*
X0299550Y0043362D01*
X0299669Y0043458D01*
X0299791Y0043551D01*
X0299916Y0043640D01*
X0300043Y0043727D01*
X0300172Y0043809D01*
X0300303Y0043889D01*
X0300436Y0043965D01*
X0300571Y0044038D01*
X0300708Y0044107D01*
X0300847Y0044172D01*
X0300987Y0044234D01*
X0301129Y0044292D01*
X0301272Y0044347D01*
X0301417Y0044398D01*
X0301563Y0044445D01*
X0301710Y0044488D01*
X0301858Y0044527D01*
X0302007Y0044563D01*
X0302157Y0044594D01*
X0302308Y0044622D01*
X0302459Y0044646D01*
X0302612Y0044666D01*
X0302764Y0044682D01*
X0302917Y0044694D01*
X0303070Y0044702D01*
X0303223Y0044706D01*
X0303377Y0044706D01*
X0303530Y0044702D01*
X0303683Y0044694D01*
X0303836Y0044682D01*
X0303988Y0044666D01*
X0304141Y0044646D01*
X0304292Y0044622D01*
X0304443Y0044594D01*
X0304593Y0044563D01*
X0304742Y0044527D01*
X0304890Y0044488D01*
X0305037Y0044445D01*
X0305183Y0044398D01*
X0305328Y0044347D01*
X0305471Y0044292D01*
X0305613Y0044234D01*
X0305753Y0044172D01*
X0305892Y0044107D01*
X0306029Y0044038D01*
X0306164Y0043965D01*
X0306297Y0043889D01*
X0306428Y0043809D01*
X0306557Y0043727D01*
X0306684Y0043640D01*
X0306809Y0043551D01*
X0306931Y0043458D01*
X0307050Y0043362D01*
X0307168Y0043263D01*
X0307282Y0043162D01*
X0307394Y0043057D01*
X0307503Y0042949D01*
X0307609Y0042838D01*
X0307713Y0042725D01*
X0307813Y0042609D01*
X0307911Y0042491D01*
X0308005Y0042370D01*
X0308096Y0042247D01*
X0308184Y0042121D01*
X0308268Y0041993D01*
X0308350Y0041863D01*
X0308427Y0041731D01*
X0308502Y0041597D01*
X0308573Y0041461D01*
X0308640Y0041323D01*
X0308704Y0041183D01*
X0308764Y0041042D01*
X0308820Y0040900D01*
X0308873Y0040756D01*
X0308922Y0040610D01*
X0308967Y0040464D01*
X0309008Y0040316D01*
X0309045Y0040168D01*
X0309079Y0040018D01*
X0309109Y0039867D01*
X0309134Y0039716D01*
X0309156Y0039565D01*
X0309174Y0039412D01*
X0309188Y0039260D01*
X0309198Y0039107D01*
X0309204Y0038953D01*
X0309206Y0038800D01*
X0309204Y0038647D01*
X0309198Y0038493D01*
X0309188Y0038340D01*
X0309174Y0038188D01*
X0309156Y0038035D01*
X0309134Y0037884D01*
X0309109Y0037733D01*
X0309079Y0037582D01*
X0309045Y0037432D01*
X0309008Y0037284D01*
X0308967Y0037136D01*
X0308922Y0036990D01*
X0308873Y0036844D01*
X0308820Y0036700D01*
X0308764Y0036558D01*
X0308704Y0036417D01*
X0308640Y0036277D01*
X0308573Y0036139D01*
X0308502Y0036003D01*
X0308427Y0035869D01*
X0308350Y0035737D01*
X0308268Y0035607D01*
X0308184Y0035479D01*
X0308096Y0035353D01*
X0308005Y0035230D01*
X0307911Y0035109D01*
X0307813Y0034991D01*
X0307713Y0034875D01*
X0307609Y0034762D01*
X0307503Y0034651D01*
X0307394Y0034543D01*
X0307282Y0034438D01*
X0307168Y0034337D01*
X0307050Y0034238D01*
X0306931Y0034142D01*
X0306809Y0034049D01*
X0306684Y0033960D01*
X0306557Y0033873D01*
X0306428Y0033791D01*
X0306297Y0033711D01*
X0306164Y0033635D01*
X0306029Y0033562D01*
X0305892Y0033493D01*
X0305753Y0033428D01*
X0305613Y0033366D01*
X0305471Y0033308D01*
X0305328Y0033253D01*
X0305183Y0033202D01*
X0305037Y0033155D01*
X0304890Y0033112D01*
X0304742Y0033073D01*
X0304593Y0033037D01*
X0304443Y0033006D01*
X0304292Y0032978D01*
X0304141Y0032954D01*
X0303988Y0032934D01*
X0303836Y0032918D01*
X0303683Y0032906D01*
X0303530Y0032898D01*
X0303377Y0032894D01*
X0303223Y0032894D01*
X0303070Y0032898D01*
X0302917Y0032906D01*
X0302764Y0032918D01*
X0302612Y0032934D01*
X0302459Y0032954D01*
X0302308Y0032978D01*
X0302157Y0033006D01*
X0302007Y0033037D01*
X0301858Y0033073D01*
X0301710Y0033112D01*
X0301563Y0033155D01*
X0301417Y0033202D01*
X0301272Y0033253D01*
X0301129Y0033308D01*
X0300987Y0033366D01*
X0300847Y0033428D01*
X0300708Y0033493D01*
X0300571Y0033562D01*
X0300436Y0033635D01*
X0300303Y0033711D01*
X0300172Y0033791D01*
X0300043Y0033873D01*
X0299916Y0033960D01*
X0299791Y0034049D01*
X0299669Y0034142D01*
X0299550Y0034238D01*
X0299432Y0034337D01*
X0299318Y0034438D01*
X0299206Y0034543D01*
X0299097Y0034651D01*
X0298991Y0034762D01*
X0298887Y0034875D01*
X0298787Y0034991D01*
X0298689Y0035109D01*
X0298595Y0035230D01*
X0298504Y0035353D01*
X0298416Y0035479D01*
X0298332Y0035607D01*
X0298250Y0035737D01*
X0298173Y0035869D01*
X0298098Y0036003D01*
X0298027Y0036139D01*
X0297960Y0036277D01*
X0297896Y0036417D01*
X0297836Y0036558D01*
X0297780Y0036700D01*
X0297727Y0036844D01*
X0297678Y0036990D01*
X0297633Y0037136D01*
X0297592Y0037284D01*
X0297555Y0037432D01*
X0297521Y0037582D01*
X0297491Y0037733D01*
X0297466Y0037884D01*
X0297444Y0038035D01*
X0297426Y0038188D01*
X0297412Y0038340D01*
X0297402Y0038493D01*
X0297396Y0038647D01*
X0297394Y0038800D01*
X0044894Y0038800D02*
X0044896Y0038953D01*
X0044902Y0039107D01*
X0044912Y0039260D01*
X0044926Y0039412D01*
X0044944Y0039565D01*
X0044966Y0039716D01*
X0044991Y0039867D01*
X0045021Y0040018D01*
X0045055Y0040168D01*
X0045092Y0040316D01*
X0045133Y0040464D01*
X0045178Y0040610D01*
X0045227Y0040756D01*
X0045280Y0040900D01*
X0045336Y0041042D01*
X0045396Y0041183D01*
X0045460Y0041323D01*
X0045527Y0041461D01*
X0045598Y0041597D01*
X0045673Y0041731D01*
X0045750Y0041863D01*
X0045832Y0041993D01*
X0045916Y0042121D01*
X0046004Y0042247D01*
X0046095Y0042370D01*
X0046189Y0042491D01*
X0046287Y0042609D01*
X0046387Y0042725D01*
X0046491Y0042838D01*
X0046597Y0042949D01*
X0046706Y0043057D01*
X0046818Y0043162D01*
X0046932Y0043263D01*
X0047050Y0043362D01*
X0047169Y0043458D01*
X0047291Y0043551D01*
X0047416Y0043640D01*
X0047543Y0043727D01*
X0047672Y0043809D01*
X0047803Y0043889D01*
X0047936Y0043965D01*
X0048071Y0044038D01*
X0048208Y0044107D01*
X0048347Y0044172D01*
X0048487Y0044234D01*
X0048629Y0044292D01*
X0048772Y0044347D01*
X0048917Y0044398D01*
X0049063Y0044445D01*
X0049210Y0044488D01*
X0049358Y0044527D01*
X0049507Y0044563D01*
X0049657Y0044594D01*
X0049808Y0044622D01*
X0049959Y0044646D01*
X0050112Y0044666D01*
X0050264Y0044682D01*
X0050417Y0044694D01*
X0050570Y0044702D01*
X0050723Y0044706D01*
X0050877Y0044706D01*
X0051030Y0044702D01*
X0051183Y0044694D01*
X0051336Y0044682D01*
X0051488Y0044666D01*
X0051641Y0044646D01*
X0051792Y0044622D01*
X0051943Y0044594D01*
X0052093Y0044563D01*
X0052242Y0044527D01*
X0052390Y0044488D01*
X0052537Y0044445D01*
X0052683Y0044398D01*
X0052828Y0044347D01*
X0052971Y0044292D01*
X0053113Y0044234D01*
X0053253Y0044172D01*
X0053392Y0044107D01*
X0053529Y0044038D01*
X0053664Y0043965D01*
X0053797Y0043889D01*
X0053928Y0043809D01*
X0054057Y0043727D01*
X0054184Y0043640D01*
X0054309Y0043551D01*
X0054431Y0043458D01*
X0054550Y0043362D01*
X0054668Y0043263D01*
X0054782Y0043162D01*
X0054894Y0043057D01*
X0055003Y0042949D01*
X0055109Y0042838D01*
X0055213Y0042725D01*
X0055313Y0042609D01*
X0055411Y0042491D01*
X0055505Y0042370D01*
X0055596Y0042247D01*
X0055684Y0042121D01*
X0055768Y0041993D01*
X0055850Y0041863D01*
X0055927Y0041731D01*
X0056002Y0041597D01*
X0056073Y0041461D01*
X0056140Y0041323D01*
X0056204Y0041183D01*
X0056264Y0041042D01*
X0056320Y0040900D01*
X0056373Y0040756D01*
X0056422Y0040610D01*
X0056467Y0040464D01*
X0056508Y0040316D01*
X0056545Y0040168D01*
X0056579Y0040018D01*
X0056609Y0039867D01*
X0056634Y0039716D01*
X0056656Y0039565D01*
X0056674Y0039412D01*
X0056688Y0039260D01*
X0056698Y0039107D01*
X0056704Y0038953D01*
X0056706Y0038800D01*
X0056704Y0038647D01*
X0056698Y0038493D01*
X0056688Y0038340D01*
X0056674Y0038188D01*
X0056656Y0038035D01*
X0056634Y0037884D01*
X0056609Y0037733D01*
X0056579Y0037582D01*
X0056545Y0037432D01*
X0056508Y0037284D01*
X0056467Y0037136D01*
X0056422Y0036990D01*
X0056373Y0036844D01*
X0056320Y0036700D01*
X0056264Y0036558D01*
X0056204Y0036417D01*
X0056140Y0036277D01*
X0056073Y0036139D01*
X0056002Y0036003D01*
X0055927Y0035869D01*
X0055850Y0035737D01*
X0055768Y0035607D01*
X0055684Y0035479D01*
X0055596Y0035353D01*
X0055505Y0035230D01*
X0055411Y0035109D01*
X0055313Y0034991D01*
X0055213Y0034875D01*
X0055109Y0034762D01*
X0055003Y0034651D01*
X0054894Y0034543D01*
X0054782Y0034438D01*
X0054668Y0034337D01*
X0054550Y0034238D01*
X0054431Y0034142D01*
X0054309Y0034049D01*
X0054184Y0033960D01*
X0054057Y0033873D01*
X0053928Y0033791D01*
X0053797Y0033711D01*
X0053664Y0033635D01*
X0053529Y0033562D01*
X0053392Y0033493D01*
X0053253Y0033428D01*
X0053113Y0033366D01*
X0052971Y0033308D01*
X0052828Y0033253D01*
X0052683Y0033202D01*
X0052537Y0033155D01*
X0052390Y0033112D01*
X0052242Y0033073D01*
X0052093Y0033037D01*
X0051943Y0033006D01*
X0051792Y0032978D01*
X0051641Y0032954D01*
X0051488Y0032934D01*
X0051336Y0032918D01*
X0051183Y0032906D01*
X0051030Y0032898D01*
X0050877Y0032894D01*
X0050723Y0032894D01*
X0050570Y0032898D01*
X0050417Y0032906D01*
X0050264Y0032918D01*
X0050112Y0032934D01*
X0049959Y0032954D01*
X0049808Y0032978D01*
X0049657Y0033006D01*
X0049507Y0033037D01*
X0049358Y0033073D01*
X0049210Y0033112D01*
X0049063Y0033155D01*
X0048917Y0033202D01*
X0048772Y0033253D01*
X0048629Y0033308D01*
X0048487Y0033366D01*
X0048347Y0033428D01*
X0048208Y0033493D01*
X0048071Y0033562D01*
X0047936Y0033635D01*
X0047803Y0033711D01*
X0047672Y0033791D01*
X0047543Y0033873D01*
X0047416Y0033960D01*
X0047291Y0034049D01*
X0047169Y0034142D01*
X0047050Y0034238D01*
X0046932Y0034337D01*
X0046818Y0034438D01*
X0046706Y0034543D01*
X0046597Y0034651D01*
X0046491Y0034762D01*
X0046387Y0034875D01*
X0046287Y0034991D01*
X0046189Y0035109D01*
X0046095Y0035230D01*
X0046004Y0035353D01*
X0045916Y0035479D01*
X0045832Y0035607D01*
X0045750Y0035737D01*
X0045673Y0035869D01*
X0045598Y0036003D01*
X0045527Y0036139D01*
X0045460Y0036277D01*
X0045396Y0036417D01*
X0045336Y0036558D01*
X0045280Y0036700D01*
X0045227Y0036844D01*
X0045178Y0036990D01*
X0045133Y0037136D01*
X0045092Y0037284D01*
X0045055Y0037432D01*
X0045021Y0037582D01*
X0044991Y0037733D01*
X0044966Y0037884D01*
X0044944Y0038035D01*
X0044926Y0038188D01*
X0044912Y0038340D01*
X0044902Y0038493D01*
X0044896Y0038647D01*
X0044894Y0038800D01*
D18*
X0308900Y0077450D02*
X0308900Y0079950D01*
X0311400Y0078700D01*
X0308900Y0077450D01*
X0308900Y0077507D02*
X0309014Y0077507D01*
X0308900Y0077706D02*
X0309412Y0077706D01*
X0309809Y0077904D02*
X0308900Y0077904D01*
X0308900Y0078103D02*
X0310206Y0078103D01*
X0310603Y0078301D02*
X0308900Y0078301D01*
X0308900Y0078500D02*
X0311000Y0078500D01*
X0311006Y0078897D02*
X0308900Y0078897D01*
X0308900Y0079095D02*
X0310609Y0079095D01*
X0310212Y0079294D02*
X0308900Y0079294D01*
X0308900Y0079492D02*
X0309815Y0079492D01*
X0309418Y0079691D02*
X0308900Y0079691D01*
X0308900Y0079889D02*
X0309021Y0079889D01*
X0308900Y0078698D02*
X0311397Y0078698D01*
X0308700Y0097850D02*
X0308700Y0100350D01*
X0311200Y0099100D01*
X0308700Y0097850D01*
X0308700Y0097954D02*
X0308908Y0097954D01*
X0308700Y0098152D02*
X0309305Y0098152D01*
X0309702Y0098351D02*
X0308700Y0098351D01*
X0308700Y0098549D02*
X0310099Y0098549D01*
X0310496Y0098748D02*
X0308700Y0098748D01*
X0308700Y0098946D02*
X0310893Y0098946D01*
X0311110Y0099145D02*
X0308700Y0099145D01*
X0308700Y0099343D02*
X0310713Y0099343D01*
X0310316Y0099542D02*
X0308700Y0099542D01*
X0308700Y0099741D02*
X0309919Y0099741D01*
X0309522Y0099939D02*
X0308700Y0099939D01*
X0308700Y0100138D02*
X0309125Y0100138D01*
X0308728Y0100336D02*
X0308700Y0100336D01*
X0308900Y0115750D02*
X0308900Y0118250D01*
X0311400Y0117000D01*
X0308900Y0115750D01*
X0308900Y0115820D02*
X0309040Y0115820D01*
X0308900Y0116018D02*
X0309437Y0116018D01*
X0309834Y0116217D02*
X0308900Y0116217D01*
X0308900Y0116415D02*
X0310231Y0116415D01*
X0310628Y0116614D02*
X0308900Y0116614D01*
X0308900Y0116812D02*
X0311025Y0116812D01*
X0310981Y0117210D02*
X0308900Y0117210D01*
X0308900Y0117408D02*
X0310584Y0117408D01*
X0310187Y0117607D02*
X0308900Y0117607D01*
X0308900Y0117805D02*
X0309790Y0117805D01*
X0309393Y0118004D02*
X0308900Y0118004D01*
X0308900Y0118202D02*
X0308996Y0118202D01*
X0308900Y0117011D02*
X0311378Y0117011D01*
X0308900Y0135550D02*
X0308900Y0138050D01*
X0311400Y0136800D01*
X0308900Y0135550D01*
X0308900Y0135671D02*
X0309142Y0135671D01*
X0308900Y0135870D02*
X0309539Y0135870D01*
X0309936Y0136068D02*
X0308900Y0136068D01*
X0308900Y0136267D02*
X0310333Y0136267D01*
X0310730Y0136465D02*
X0308900Y0136465D01*
X0308900Y0136664D02*
X0311127Y0136664D01*
X0311276Y0136862D02*
X0308900Y0136862D01*
X0308900Y0137061D02*
X0310879Y0137061D01*
X0310482Y0137259D02*
X0308900Y0137259D01*
X0308900Y0137458D02*
X0310085Y0137458D01*
X0309688Y0137656D02*
X0308900Y0137656D01*
X0308900Y0137855D02*
X0309291Y0137855D01*
X0311300Y0158250D02*
X0308800Y0159500D01*
X0311300Y0160750D01*
X0311300Y0158250D01*
X0311300Y0158301D02*
X0311197Y0158301D01*
X0311300Y0158500D02*
X0310800Y0158500D01*
X0310403Y0158698D02*
X0311300Y0158698D01*
X0311300Y0158897D02*
X0310006Y0158897D01*
X0309609Y0159095D02*
X0311300Y0159095D01*
X0311300Y0159294D02*
X0309212Y0159294D01*
X0309182Y0159691D02*
X0311300Y0159691D01*
X0311300Y0159889D02*
X0309579Y0159889D01*
X0309976Y0160088D02*
X0311300Y0160088D01*
X0311300Y0160286D02*
X0310373Y0160286D01*
X0310770Y0160485D02*
X0311300Y0160485D01*
X0311300Y0160683D02*
X0311167Y0160683D01*
X0311300Y0159492D02*
X0308815Y0159492D01*
X0311500Y0174850D02*
X0309000Y0176100D01*
X0311500Y0177350D01*
X0311500Y0174850D01*
X0311500Y0174976D02*
X0311247Y0174976D01*
X0311500Y0175175D02*
X0310850Y0175175D01*
X0310453Y0175373D02*
X0311500Y0175373D01*
X0311500Y0175572D02*
X0310056Y0175572D01*
X0309659Y0175770D02*
X0311500Y0175770D01*
X0311500Y0175969D02*
X0309262Y0175969D01*
X0309135Y0176167D02*
X0311500Y0176167D01*
X0311500Y0176366D02*
X0309532Y0176366D01*
X0309929Y0176564D02*
X0311500Y0176564D01*
X0311500Y0176763D02*
X0310326Y0176763D01*
X0310723Y0176961D02*
X0311500Y0176961D01*
X0311500Y0177160D02*
X0311120Y0177160D01*
D19*
X0139300Y0146800D03*
D20*
X0148300Y0126800D03*
X0148300Y0036800D03*
D21*
X0150996Y0042792D02*
X0150996Y0045094D01*
X0151763Y0045861D01*
X0154833Y0045861D01*
X0155600Y0045094D01*
X0155600Y0042792D01*
X0150996Y0042792D01*
X0145600Y0042792D02*
X0145600Y0045094D01*
X0144833Y0045861D01*
X0141763Y0045861D01*
X0140996Y0045094D01*
X0140996Y0042792D01*
X0145600Y0042792D01*
X0144833Y0047396D02*
X0145600Y0048163D01*
X0145600Y0049698D01*
X0144833Y0050465D01*
X0144065Y0050465D01*
X0143298Y0049698D01*
X0143298Y0048931D01*
X0143298Y0049698D02*
X0142531Y0050465D01*
X0141763Y0050465D01*
X0140996Y0049698D01*
X0140996Y0048163D01*
X0141763Y0047396D01*
X0135600Y0045094D02*
X0134833Y0045861D01*
X0131763Y0045861D01*
X0130996Y0045094D01*
X0130996Y0042792D01*
X0135600Y0042792D01*
X0135600Y0045094D01*
X0133298Y0047396D02*
X0133298Y0050465D01*
X0130996Y0049698D02*
X0133298Y0047396D01*
X0135600Y0049698D02*
X0130996Y0049698D01*
X0125600Y0050861D02*
X0120996Y0050861D01*
X0120996Y0052396D02*
X0120996Y0054698D01*
X0121763Y0055465D01*
X0124833Y0055465D01*
X0125600Y0054698D01*
X0125600Y0052396D01*
X0120996Y0052396D01*
X0120996Y0047792D02*
X0125600Y0050861D01*
X0125600Y0047792D02*
X0120996Y0047792D01*
X0121763Y0046257D02*
X0120996Y0045490D01*
X0120996Y0043956D01*
X0121763Y0043188D01*
X0124833Y0043188D01*
X0125600Y0043956D01*
X0125600Y0045490D01*
X0124833Y0046257D01*
X0123298Y0046257D01*
X0123298Y0044723D01*
X0115600Y0045094D02*
X0115600Y0043559D01*
X0114833Y0042792D01*
X0113298Y0042792D02*
X0112531Y0044327D01*
X0112531Y0045094D01*
X0113298Y0045861D01*
X0114833Y0045861D01*
X0115600Y0045094D01*
X0114065Y0047396D02*
X0115600Y0048931D01*
X0114065Y0050465D01*
X0110996Y0050465D01*
X0110996Y0047396D02*
X0114065Y0047396D01*
X0110996Y0045861D02*
X0110996Y0042792D01*
X0113298Y0042792D01*
X0150996Y0048163D02*
X0151763Y0047396D01*
X0150996Y0048163D02*
X0150996Y0049698D01*
X0151763Y0050465D01*
X0152531Y0050465D01*
X0155600Y0047396D01*
X0155600Y0050465D01*
X0160996Y0048931D02*
X0162531Y0047396D01*
X0161763Y0045861D02*
X0160996Y0045094D01*
X0160996Y0042792D01*
X0165600Y0042792D01*
X0165600Y0045094D01*
X0164833Y0045861D01*
X0161763Y0045861D01*
X0160996Y0048931D02*
X0165600Y0048931D01*
X0165600Y0050465D02*
X0165600Y0047396D01*
X0170996Y0047396D02*
X0175600Y0050465D01*
X0175600Y0047396D02*
X0170996Y0050465D01*
X0171763Y0045861D02*
X0173298Y0045861D01*
X0174065Y0045094D01*
X0174065Y0042792D01*
X0174065Y0044327D02*
X0175600Y0045861D01*
X0171763Y0045861D02*
X0170996Y0045094D01*
X0170996Y0042792D01*
X0175600Y0042792D01*
X0180996Y0042792D02*
X0180996Y0045861D01*
X0180996Y0044327D02*
X0185600Y0044327D01*
X0185600Y0047396D02*
X0180996Y0050465D01*
X0180996Y0047396D02*
X0185600Y0050465D01*
X0185600Y0105688D02*
X0180996Y0105688D01*
X0180996Y0107990D01*
X0181763Y0108757D01*
X0183298Y0108757D01*
X0184065Y0107990D01*
X0184065Y0105688D01*
X0184065Y0107223D02*
X0185600Y0108757D01*
X0184833Y0110292D02*
X0185600Y0111059D01*
X0185600Y0112594D01*
X0184833Y0113361D01*
X0184065Y0113361D01*
X0183298Y0112594D01*
X0183298Y0111059D01*
X0182531Y0110292D01*
X0181763Y0110292D01*
X0180996Y0111059D01*
X0180996Y0112594D01*
X0181763Y0113361D01*
X0180996Y0114896D02*
X0180996Y0117965D01*
X0180996Y0116431D02*
X0185600Y0116431D01*
X0175600Y0117198D02*
X0175600Y0115663D01*
X0174833Y0114896D01*
X0171763Y0117965D01*
X0174833Y0117965D01*
X0175600Y0117198D01*
X0174833Y0114896D02*
X0171763Y0114896D01*
X0170996Y0115663D01*
X0170996Y0117198D01*
X0171763Y0117965D01*
X0165600Y0117198D02*
X0165600Y0115663D01*
X0164833Y0114896D01*
X0161763Y0117965D01*
X0164833Y0117965D01*
X0165600Y0117198D01*
X0164833Y0114896D02*
X0161763Y0114896D01*
X0160996Y0115663D01*
X0160996Y0117198D01*
X0161763Y0117965D01*
X0161763Y0113361D02*
X0160996Y0112594D01*
X0160996Y0110292D01*
X0165600Y0110292D01*
X0165600Y0112594D01*
X0164833Y0113361D01*
X0161763Y0113361D01*
X0155600Y0112594D02*
X0155600Y0110292D01*
X0150996Y0110292D01*
X0150996Y0112594D01*
X0151763Y0113361D01*
X0154833Y0113361D01*
X0155600Y0112594D01*
X0154833Y0114896D02*
X0155600Y0115663D01*
X0155600Y0117198D01*
X0154833Y0117965D01*
X0153298Y0117965D01*
X0152531Y0117198D01*
X0152531Y0116431D01*
X0153298Y0114896D01*
X0150996Y0114896D01*
X0150996Y0117965D01*
X0145600Y0117198D02*
X0144833Y0117965D01*
X0144065Y0117965D01*
X0143298Y0117198D01*
X0143298Y0114896D01*
X0144833Y0114896D01*
X0145600Y0115663D01*
X0145600Y0117198D01*
X0143298Y0114896D02*
X0141763Y0116431D01*
X0140996Y0117965D01*
X0141763Y0113361D02*
X0140996Y0112594D01*
X0140996Y0110292D01*
X0145600Y0110292D01*
X0145600Y0112594D01*
X0144833Y0113361D01*
X0141763Y0113361D01*
X0135600Y0112594D02*
X0134833Y0113361D01*
X0131763Y0113361D01*
X0130996Y0112594D01*
X0130996Y0110292D01*
X0135600Y0110292D01*
X0135600Y0112594D01*
X0135600Y0114896D02*
X0134833Y0114896D01*
X0131763Y0117965D01*
X0130996Y0117965D01*
X0130996Y0114896D01*
X0125600Y0115663D02*
X0124833Y0114896D01*
X0124065Y0114896D01*
X0123298Y0115663D01*
X0123298Y0117198D01*
X0124065Y0117965D01*
X0124833Y0117965D01*
X0125600Y0117198D01*
X0125600Y0115663D01*
X0123298Y0115663D02*
X0122531Y0114896D01*
X0121763Y0114896D01*
X0120996Y0115663D01*
X0120996Y0117198D01*
X0121763Y0117965D01*
X0122531Y0117965D01*
X0123298Y0117198D01*
X0121763Y0113361D02*
X0120996Y0112594D01*
X0120996Y0110292D01*
X0125600Y0110292D01*
X0125600Y0112594D01*
X0124833Y0113361D01*
X0121763Y0113361D01*
X0115600Y0111827D02*
X0114065Y0113361D01*
X0110996Y0113361D01*
X0111763Y0114896D02*
X0110996Y0115663D01*
X0110996Y0117198D01*
X0111763Y0117965D01*
X0112531Y0117965D01*
X0113298Y0117198D01*
X0114065Y0117965D01*
X0114833Y0117965D01*
X0115600Y0117198D01*
X0115600Y0115663D01*
X0114833Y0114896D01*
X0113298Y0116431D02*
X0113298Y0117198D01*
X0115600Y0111827D02*
X0114065Y0110292D01*
X0110996Y0110292D01*
X0111763Y0108757D02*
X0112531Y0108757D01*
X0113298Y0107990D01*
X0114065Y0108757D01*
X0114833Y0108757D01*
X0115600Y0107990D01*
X0115600Y0106456D01*
X0114833Y0105688D01*
X0113298Y0107223D02*
X0113298Y0107990D01*
X0111763Y0108757D02*
X0110996Y0107990D01*
X0110996Y0106456D01*
X0111763Y0105688D01*
X0067572Y0101261D02*
X0064028Y0101261D01*
X0063930Y0096339D02*
X0067572Y0096339D01*
X0067572Y0088261D02*
X0064028Y0088261D01*
X0063930Y0083339D02*
X0067572Y0083339D01*
X0067572Y0075261D02*
X0064028Y0075261D01*
X0063930Y0070339D02*
X0067572Y0070339D01*
X0067572Y0062261D02*
X0064028Y0062261D01*
X0063930Y0057339D02*
X0067572Y0057339D01*
X0170996Y0111827D02*
X0172531Y0113361D01*
X0175600Y0113361D01*
X0173298Y0113361D02*
X0173298Y0110292D01*
X0172531Y0110292D02*
X0170996Y0111827D01*
X0172531Y0110292D02*
X0175600Y0110292D01*
D22*
X0173300Y0126800D03*
X0183300Y0126800D03*
X0163300Y0126800D03*
X0153300Y0126800D03*
X0143300Y0126800D03*
X0133300Y0126800D03*
X0123300Y0126800D03*
X0113300Y0126800D03*
X0064300Y0141800D03*
X0054300Y0141800D03*
X0054300Y0151800D03*
X0064300Y0151800D03*
X0064300Y0161800D03*
X0054300Y0161800D03*
X0054300Y0171800D03*
X0064300Y0171800D03*
X0064300Y0181800D03*
X0054300Y0181800D03*
X0113300Y0036800D03*
X0123300Y0036800D03*
X0133300Y0036800D03*
X0143300Y0036800D03*
X0153300Y0036800D03*
X0163300Y0036800D03*
X0173300Y0036800D03*
X0183300Y0036800D03*
D23*
X0209600Y0066300D02*
X0213100Y0066300D01*
X0236100Y0066300D02*
X0239600Y0066300D01*
X0240300Y0108700D02*
X0236800Y0108700D01*
X0213800Y0108700D02*
X0210300Y0108700D01*
X0209300Y0153900D02*
X0212800Y0153900D01*
X0235800Y0153900D02*
X0239300Y0153900D01*
X0239900Y0209100D02*
X0236400Y0209100D01*
X0213400Y0209100D02*
X0209900Y0209100D01*
D24*
X0214150Y0209100D03*
X0235650Y0209100D03*
X0235050Y0153900D03*
X0213550Y0153900D03*
X0214550Y0108700D03*
X0236050Y0108700D03*
X0235350Y0066300D03*
X0213850Y0066300D03*
D25*
X0221482Y0066718D02*
X0222416Y0067652D01*
X0222416Y0064850D01*
X0221482Y0064850D02*
X0223350Y0064850D01*
X0224704Y0065317D02*
X0225172Y0064850D01*
X0226106Y0064850D01*
X0226573Y0065317D01*
X0226573Y0065784D01*
X0226106Y0066251D01*
X0225172Y0066251D01*
X0224704Y0066718D01*
X0224704Y0067185D01*
X0225172Y0067652D01*
X0226106Y0067652D01*
X0226573Y0067185D01*
X0226573Y0066718D01*
X0226106Y0066251D01*
X0225172Y0066251D02*
X0224704Y0065784D01*
X0224704Y0065317D01*
X0227927Y0065317D02*
X0228394Y0064850D01*
X0229328Y0064850D01*
X0229795Y0065317D01*
X0229795Y0067185D01*
X0227927Y0065317D01*
X0227927Y0067185D01*
X0228394Y0067652D01*
X0229328Y0067652D01*
X0229795Y0067185D01*
X0243248Y0058795D02*
X0243715Y0057861D01*
X0244649Y0056927D01*
X0244649Y0058328D01*
X0245116Y0058795D01*
X0245583Y0058795D01*
X0246050Y0058328D01*
X0246050Y0057394D01*
X0245583Y0056927D01*
X0244649Y0056927D01*
X0246050Y0055573D02*
X0246050Y0053704D01*
X0246050Y0054639D02*
X0243248Y0054639D01*
X0244182Y0053704D01*
X0244182Y0052350D02*
X0246050Y0052350D01*
X0244649Y0052350D02*
X0244649Y0050482D01*
X0244182Y0050482D02*
X0243248Y0051416D01*
X0244182Y0052350D01*
X0244182Y0050482D02*
X0246050Y0050482D01*
X0246050Y0048193D02*
X0243248Y0048193D01*
X0243248Y0047259D02*
X0243248Y0049127D01*
X0243715Y0045904D02*
X0244182Y0045904D01*
X0244649Y0045437D01*
X0244649Y0044036D01*
X0246050Y0044036D02*
X0243248Y0044036D01*
X0243248Y0045437D01*
X0243715Y0045904D01*
X0244649Y0045437D02*
X0245116Y0045904D01*
X0245583Y0045904D01*
X0246050Y0045437D01*
X0246050Y0044036D01*
X0204450Y0062750D02*
X0201648Y0062750D01*
X0201648Y0064151D01*
X0202115Y0064618D01*
X0203049Y0064618D01*
X0203516Y0064151D01*
X0203516Y0062750D01*
X0203516Y0063684D02*
X0204450Y0064618D01*
X0204450Y0065973D02*
X0204450Y0067841D01*
X0204450Y0066907D02*
X0201648Y0066907D01*
X0202582Y0065973D01*
X0202115Y0069195D02*
X0201648Y0069663D01*
X0201648Y0070597D01*
X0202115Y0071064D01*
X0202582Y0071064D01*
X0204450Y0069195D01*
X0204450Y0071064D01*
X0163850Y0070518D02*
X0162916Y0069584D01*
X0162916Y0070051D02*
X0162916Y0068650D01*
X0163850Y0068650D02*
X0161048Y0068650D01*
X0161048Y0070051D01*
X0161515Y0070518D01*
X0162449Y0070518D01*
X0162916Y0070051D01*
X0163383Y0071873D02*
X0163850Y0071873D01*
X0163383Y0071873D02*
X0161515Y0073741D01*
X0161048Y0073741D01*
X0161048Y0071873D01*
X0156297Y0066052D02*
X0155363Y0066052D01*
X0154895Y0065585D01*
X0154895Y0063717D01*
X0156764Y0065585D01*
X0156764Y0063717D01*
X0156297Y0063250D01*
X0155363Y0063250D01*
X0154895Y0063717D01*
X0153541Y0063717D02*
X0153074Y0063250D01*
X0152140Y0063250D01*
X0151673Y0063717D01*
X0152607Y0064651D02*
X0153074Y0064651D01*
X0153541Y0064184D01*
X0153541Y0063717D01*
X0153074Y0064651D02*
X0153541Y0065118D01*
X0153541Y0065585D01*
X0153074Y0066052D01*
X0152140Y0066052D01*
X0151673Y0065585D01*
X0150318Y0065585D02*
X0150318Y0065118D01*
X0149851Y0064651D01*
X0150318Y0064184D01*
X0150318Y0063717D01*
X0149851Y0063250D01*
X0148917Y0063250D01*
X0148450Y0063717D01*
X0149384Y0064651D02*
X0149851Y0064651D01*
X0150318Y0065585D02*
X0149851Y0066052D01*
X0148917Y0066052D01*
X0148450Y0065585D01*
X0143350Y0061197D02*
X0143350Y0060263D01*
X0142883Y0059795D01*
X0141015Y0061664D01*
X0142883Y0061664D01*
X0143350Y0061197D01*
X0142883Y0059795D02*
X0141015Y0059795D01*
X0140548Y0060263D01*
X0140548Y0061197D01*
X0141015Y0061664D01*
X0141015Y0058441D02*
X0141482Y0058441D01*
X0141949Y0057974D01*
X0142416Y0058441D01*
X0142883Y0058441D01*
X0143350Y0057974D01*
X0143350Y0057040D01*
X0142883Y0056573D01*
X0141949Y0057507D02*
X0141949Y0057974D01*
X0141015Y0058441D02*
X0140548Y0057974D01*
X0140548Y0057040D01*
X0141015Y0056573D01*
X0141015Y0055218D02*
X0141482Y0055218D01*
X0141949Y0054751D01*
X0142416Y0055218D01*
X0142883Y0055218D01*
X0143350Y0054751D01*
X0143350Y0053817D01*
X0142883Y0053350D01*
X0141949Y0054284D02*
X0141949Y0054751D01*
X0141015Y0055218D02*
X0140548Y0054751D01*
X0140548Y0053817D01*
X0141015Y0053350D01*
X0133050Y0054018D02*
X0132116Y0053084D01*
X0132116Y0053551D02*
X0132116Y0052150D01*
X0133050Y0052150D02*
X0130248Y0052150D01*
X0130248Y0053551D01*
X0130715Y0054018D01*
X0131649Y0054018D01*
X0132116Y0053551D01*
X0133050Y0055373D02*
X0133050Y0057241D01*
X0133050Y0056307D02*
X0130248Y0056307D01*
X0131182Y0055373D01*
X0131182Y0058595D02*
X0130248Y0059530D01*
X0133050Y0059530D01*
X0133050Y0060464D02*
X0133050Y0058595D01*
X0126064Y0063717D02*
X0125597Y0063250D01*
X0124663Y0063250D01*
X0124195Y0063717D01*
X0126064Y0065585D01*
X0126064Y0063717D01*
X0126064Y0065585D02*
X0125597Y0066052D01*
X0124663Y0066052D01*
X0124195Y0065585D01*
X0124195Y0063717D01*
X0122841Y0063717D02*
X0122374Y0063250D01*
X0121440Y0063250D01*
X0120973Y0063717D01*
X0121907Y0064651D02*
X0122374Y0064651D01*
X0122841Y0064184D01*
X0122841Y0063717D01*
X0122374Y0064651D02*
X0122841Y0065118D01*
X0122841Y0065585D01*
X0122374Y0066052D01*
X0121440Y0066052D01*
X0120973Y0065585D01*
X0119618Y0065585D02*
X0119618Y0065118D01*
X0119151Y0064651D01*
X0119618Y0064184D01*
X0119618Y0063717D01*
X0119151Y0063250D01*
X0118217Y0063250D01*
X0117750Y0063717D01*
X0118684Y0064651D02*
X0119151Y0064651D01*
X0119618Y0065585D02*
X0119151Y0066052D01*
X0118217Y0066052D01*
X0117750Y0065585D01*
X0112583Y0060564D02*
X0113050Y0060097D01*
X0113050Y0059163D01*
X0112583Y0058695D01*
X0110715Y0060564D01*
X0112583Y0060564D01*
X0110715Y0060564D02*
X0110248Y0060097D01*
X0110248Y0059163D01*
X0110715Y0058695D01*
X0112583Y0058695D01*
X0112583Y0057341D02*
X0113050Y0056874D01*
X0113050Y0055940D01*
X0112583Y0055473D01*
X0111649Y0056407D02*
X0111649Y0056874D01*
X0112116Y0057341D01*
X0112583Y0057341D01*
X0111649Y0056874D02*
X0111182Y0057341D01*
X0110715Y0057341D01*
X0110248Y0056874D01*
X0110248Y0055940D01*
X0110715Y0055473D01*
X0110715Y0054118D02*
X0110248Y0053651D01*
X0110248Y0052717D01*
X0110715Y0052250D01*
X0111649Y0053184D02*
X0111649Y0053651D01*
X0112116Y0054118D01*
X0112583Y0054118D01*
X0113050Y0053651D01*
X0113050Y0052717D01*
X0112583Y0052250D01*
X0111649Y0053651D02*
X0111182Y0054118D01*
X0110715Y0054118D01*
X0130548Y0068550D02*
X0130548Y0069951D01*
X0131015Y0070418D01*
X0131949Y0070418D01*
X0132416Y0069951D01*
X0132416Y0068550D01*
X0133350Y0068550D02*
X0130548Y0068550D01*
X0132416Y0069484D02*
X0133350Y0070418D01*
X0132883Y0071773D02*
X0132416Y0071773D01*
X0131949Y0072240D01*
X0131949Y0073174D01*
X0132416Y0073641D01*
X0132883Y0073641D01*
X0133350Y0073174D01*
X0133350Y0072240D01*
X0132883Y0071773D01*
X0131949Y0072240D02*
X0131482Y0071773D01*
X0131015Y0071773D01*
X0130548Y0072240D01*
X0130548Y0073174D01*
X0131015Y0073641D01*
X0131482Y0073641D01*
X0131949Y0073174D01*
X0125795Y0078617D02*
X0125328Y0078150D01*
X0124394Y0078150D01*
X0123927Y0078617D01*
X0125795Y0080485D01*
X0125795Y0078617D01*
X0123927Y0078617D02*
X0123927Y0080485D01*
X0124394Y0080952D01*
X0125328Y0080952D01*
X0125795Y0080485D01*
X0122573Y0080485D02*
X0122573Y0080018D01*
X0122106Y0079551D01*
X0122573Y0079084D01*
X0122573Y0078617D01*
X0122106Y0078150D01*
X0121172Y0078150D01*
X0120704Y0078617D01*
X0121639Y0079551D02*
X0122106Y0079551D01*
X0122573Y0080485D02*
X0122106Y0080952D01*
X0121172Y0080952D01*
X0120704Y0080485D01*
X0119350Y0080485D02*
X0119350Y0080018D01*
X0118883Y0079551D01*
X0119350Y0079084D01*
X0119350Y0078617D01*
X0118883Y0078150D01*
X0117949Y0078150D01*
X0117482Y0078617D01*
X0118416Y0079551D02*
X0118883Y0079551D01*
X0119350Y0080485D02*
X0118883Y0080952D01*
X0117949Y0080952D01*
X0117482Y0080485D01*
X0130648Y0082805D02*
X0130648Y0084206D01*
X0131115Y0084673D01*
X0132049Y0084673D01*
X0132516Y0084206D01*
X0132516Y0082805D01*
X0132516Y0083739D02*
X0133450Y0084673D01*
X0132983Y0086027D02*
X0133450Y0086494D01*
X0133450Y0087428D01*
X0132983Y0087896D01*
X0132049Y0087896D01*
X0131582Y0087428D01*
X0131582Y0086961D01*
X0132049Y0086027D01*
X0130648Y0086027D01*
X0130648Y0087896D01*
X0130648Y0082805D02*
X0133450Y0082805D01*
X0148150Y0080285D02*
X0148617Y0080752D01*
X0149551Y0080752D01*
X0150018Y0080285D01*
X0150018Y0079818D01*
X0149551Y0079351D01*
X0150018Y0078884D01*
X0150018Y0078417D01*
X0149551Y0077950D01*
X0148617Y0077950D01*
X0148150Y0078417D01*
X0149084Y0079351D02*
X0149551Y0079351D01*
X0151373Y0078417D02*
X0151840Y0077950D01*
X0152774Y0077950D01*
X0153241Y0078417D01*
X0153241Y0078884D01*
X0152774Y0079351D01*
X0152307Y0079351D01*
X0152774Y0079351D02*
X0153241Y0079818D01*
X0153241Y0080285D01*
X0152774Y0080752D01*
X0151840Y0080752D01*
X0151373Y0080285D01*
X0154595Y0080285D02*
X0154595Y0078417D01*
X0156464Y0080285D01*
X0156464Y0078417D01*
X0155997Y0077950D01*
X0155063Y0077950D01*
X0154595Y0078417D01*
X0154595Y0080285D02*
X0155063Y0080752D01*
X0155997Y0080752D01*
X0156464Y0080285D01*
X0160148Y0083450D02*
X0160148Y0084851D01*
X0160615Y0085318D01*
X0161549Y0085318D01*
X0162016Y0084851D01*
X0162016Y0083450D01*
X0162950Y0083450D02*
X0160148Y0083450D01*
X0162016Y0084384D02*
X0162950Y0085318D01*
X0161549Y0086673D02*
X0161549Y0088541D01*
X0162950Y0088074D02*
X0160148Y0088074D01*
X0161549Y0086673D01*
X0155897Y0095950D02*
X0154963Y0095950D01*
X0154495Y0096417D01*
X0156364Y0098285D01*
X0156364Y0096417D01*
X0155897Y0095950D01*
X0154495Y0096417D02*
X0154495Y0098285D01*
X0154963Y0098752D01*
X0155897Y0098752D01*
X0156364Y0098285D01*
X0153141Y0098285D02*
X0152674Y0098752D01*
X0151740Y0098752D01*
X0151273Y0098285D01*
X0152207Y0097351D02*
X0152674Y0097351D01*
X0153141Y0096884D01*
X0153141Y0096417D01*
X0152674Y0095950D01*
X0151740Y0095950D01*
X0151273Y0096417D01*
X0149918Y0096417D02*
X0149451Y0095950D01*
X0148517Y0095950D01*
X0148050Y0096417D01*
X0148984Y0097351D02*
X0149451Y0097351D01*
X0149918Y0096884D01*
X0149918Y0096417D01*
X0149451Y0097351D02*
X0149918Y0097818D01*
X0149918Y0098285D01*
X0149451Y0098752D01*
X0148517Y0098752D01*
X0148050Y0098285D01*
X0152674Y0097351D02*
X0153141Y0097818D01*
X0153141Y0098285D01*
X0142950Y0101350D02*
X0140148Y0101350D01*
X0140148Y0102751D01*
X0140615Y0103218D01*
X0141549Y0103218D01*
X0142016Y0102751D01*
X0142016Y0101350D01*
X0142016Y0102284D02*
X0142950Y0103218D01*
X0142950Y0104573D02*
X0142950Y0106441D01*
X0142950Y0105507D02*
X0140148Y0105507D01*
X0141082Y0104573D01*
X0133750Y0104373D02*
X0131882Y0106241D01*
X0131415Y0106241D01*
X0130948Y0105774D01*
X0130948Y0104840D01*
X0131415Y0104373D01*
X0131415Y0103018D02*
X0130948Y0102551D01*
X0130948Y0101150D01*
X0133750Y0101150D01*
X0132816Y0101150D02*
X0132816Y0102551D01*
X0132349Y0103018D01*
X0131415Y0103018D01*
X0132816Y0102084D02*
X0133750Y0103018D01*
X0133750Y0104373D02*
X0133750Y0106241D01*
X0125964Y0098785D02*
X0124095Y0096917D01*
X0124563Y0096450D01*
X0125497Y0096450D01*
X0125964Y0096917D01*
X0125964Y0098785D01*
X0125497Y0099252D01*
X0124563Y0099252D01*
X0124095Y0098785D01*
X0124095Y0096917D01*
X0122741Y0096917D02*
X0122274Y0096450D01*
X0121340Y0096450D01*
X0120873Y0096917D01*
X0121807Y0097851D02*
X0122274Y0097851D01*
X0122741Y0097384D01*
X0122741Y0096917D01*
X0122274Y0097851D02*
X0122741Y0098318D01*
X0122741Y0098785D01*
X0122274Y0099252D01*
X0121340Y0099252D01*
X0120873Y0098785D01*
X0119518Y0098785D02*
X0119518Y0098318D01*
X0119051Y0097851D01*
X0119518Y0097384D01*
X0119518Y0096917D01*
X0119051Y0096450D01*
X0118117Y0096450D01*
X0117650Y0096917D01*
X0118584Y0097851D02*
X0119051Y0097851D01*
X0119518Y0098785D02*
X0119051Y0099252D01*
X0118117Y0099252D01*
X0117650Y0098785D01*
X0156297Y0066052D02*
X0156764Y0065585D01*
X0160615Y0060664D02*
X0162483Y0058795D01*
X0162950Y0059263D01*
X0162950Y0060197D01*
X0162483Y0060664D01*
X0160615Y0060664D01*
X0160148Y0060197D01*
X0160148Y0059263D01*
X0160615Y0058795D01*
X0162483Y0058795D01*
X0162950Y0057441D02*
X0162950Y0055573D01*
X0162950Y0056507D02*
X0160148Y0056507D01*
X0161082Y0055573D01*
X0161549Y0054218D02*
X0162016Y0053751D01*
X0162016Y0052350D01*
X0162950Y0052350D02*
X0160148Y0052350D01*
X0160148Y0053751D01*
X0160615Y0054218D01*
X0161549Y0054218D01*
X0162016Y0053284D02*
X0162950Y0054218D01*
X0243148Y0089936D02*
X0243148Y0091337D01*
X0243615Y0091804D01*
X0244082Y0091804D01*
X0244549Y0091337D01*
X0244549Y0089936D01*
X0245950Y0089936D02*
X0243148Y0089936D01*
X0244549Y0091337D02*
X0245016Y0091804D01*
X0245483Y0091804D01*
X0245950Y0091337D01*
X0245950Y0089936D01*
X0243148Y0093159D02*
X0243148Y0095027D01*
X0243148Y0094093D02*
X0245950Y0094093D01*
X0245950Y0096382D02*
X0244082Y0096382D01*
X0243148Y0097316D01*
X0244082Y0098250D01*
X0245950Y0098250D01*
X0245950Y0099604D02*
X0245950Y0101473D01*
X0245950Y0100539D02*
X0243148Y0100539D01*
X0244082Y0099604D01*
X0244549Y0098250D02*
X0244549Y0096382D01*
X0244549Y0102827D02*
X0244549Y0104228D01*
X0245016Y0104695D01*
X0245483Y0104695D01*
X0245950Y0104228D01*
X0245950Y0103294D01*
X0245483Y0102827D01*
X0244549Y0102827D01*
X0243615Y0103761D01*
X0243148Y0104695D01*
X0228695Y0108617D02*
X0228228Y0108150D01*
X0227294Y0108150D01*
X0226827Y0108617D01*
X0228695Y0110485D01*
X0228695Y0108617D01*
X0226827Y0108617D02*
X0226827Y0110485D01*
X0227294Y0110952D01*
X0228228Y0110952D01*
X0228695Y0110485D01*
X0225473Y0110485D02*
X0225473Y0110018D01*
X0225006Y0109551D01*
X0224072Y0109551D01*
X0223604Y0110018D01*
X0223604Y0110485D01*
X0224072Y0110952D01*
X0225006Y0110952D01*
X0225473Y0110485D01*
X0225006Y0109551D02*
X0225473Y0109084D01*
X0225473Y0108617D01*
X0225006Y0108150D01*
X0224072Y0108150D01*
X0223604Y0108617D01*
X0223604Y0109084D01*
X0224072Y0109551D01*
X0222250Y0108150D02*
X0220382Y0108150D01*
X0221316Y0108150D02*
X0221316Y0110952D01*
X0220382Y0110018D01*
X0204750Y0110040D02*
X0204750Y0110974D01*
X0204283Y0111441D01*
X0202415Y0111441D01*
X0201948Y0110974D01*
X0201948Y0110040D01*
X0202415Y0109573D01*
X0202882Y0109573D01*
X0203349Y0110040D01*
X0203349Y0111441D01*
X0204750Y0110040D02*
X0204283Y0109573D01*
X0204750Y0108218D02*
X0203816Y0107284D01*
X0203816Y0107751D02*
X0203816Y0106350D01*
X0204750Y0106350D02*
X0201948Y0106350D01*
X0201948Y0107751D01*
X0202415Y0108218D01*
X0203349Y0108218D01*
X0203816Y0107751D01*
X0243048Y0137536D02*
X0243048Y0138937D01*
X0243515Y0139404D01*
X0243982Y0139404D01*
X0244449Y0138937D01*
X0244449Y0137536D01*
X0245850Y0137536D02*
X0243048Y0137536D01*
X0244449Y0138937D02*
X0244916Y0139404D01*
X0245383Y0139404D01*
X0245850Y0138937D01*
X0245850Y0137536D01*
X0245850Y0141693D02*
X0243048Y0141693D01*
X0243048Y0140759D02*
X0243048Y0142627D01*
X0243982Y0143982D02*
X0243048Y0144916D01*
X0243982Y0145850D01*
X0245850Y0145850D01*
X0245850Y0147204D02*
X0245850Y0149073D01*
X0245850Y0148139D02*
X0243048Y0148139D01*
X0243982Y0147204D01*
X0244449Y0145850D02*
X0244449Y0143982D01*
X0243982Y0143982D02*
X0245850Y0143982D01*
X0245383Y0150427D02*
X0245850Y0150894D01*
X0245850Y0151828D01*
X0245383Y0152295D01*
X0244916Y0152295D01*
X0244449Y0151828D01*
X0244449Y0150427D01*
X0245383Y0150427D01*
X0244449Y0150427D02*
X0243515Y0151361D01*
X0243048Y0152295D01*
X0228695Y0154017D02*
X0228228Y0153550D01*
X0227294Y0153550D01*
X0226827Y0154017D01*
X0228695Y0155885D01*
X0228695Y0154017D01*
X0226827Y0154017D02*
X0226827Y0155885D01*
X0227294Y0156352D01*
X0228228Y0156352D01*
X0228695Y0155885D01*
X0225473Y0155885D02*
X0225473Y0155418D01*
X0225006Y0154951D01*
X0224072Y0154951D01*
X0223604Y0155418D01*
X0223604Y0155885D01*
X0224072Y0156352D01*
X0225006Y0156352D01*
X0225473Y0155885D01*
X0225006Y0154951D02*
X0225473Y0154484D01*
X0225473Y0154017D01*
X0225006Y0153550D01*
X0224072Y0153550D01*
X0223604Y0154017D01*
X0223604Y0154484D01*
X0224072Y0154951D01*
X0222250Y0153550D02*
X0220382Y0153550D01*
X0221316Y0153550D02*
X0221316Y0156352D01*
X0220382Y0155418D01*
X0203250Y0155340D02*
X0203250Y0156274D01*
X0202783Y0156741D01*
X0202316Y0156741D01*
X0201849Y0156274D01*
X0201849Y0154873D01*
X0202783Y0154873D01*
X0203250Y0155340D01*
X0201849Y0154873D02*
X0200915Y0155807D01*
X0200448Y0156741D01*
X0200915Y0153518D02*
X0200448Y0153051D01*
X0200448Y0151650D01*
X0203250Y0151650D01*
X0202316Y0151650D02*
X0202316Y0153051D01*
X0201849Y0153518D01*
X0200915Y0153518D01*
X0202316Y0152584D02*
X0203250Y0153518D01*
X0243048Y0184636D02*
X0243048Y0186037D01*
X0243515Y0186504D01*
X0243982Y0186504D01*
X0244449Y0186037D01*
X0244449Y0184636D01*
X0245850Y0184636D02*
X0243048Y0184636D01*
X0244449Y0186037D02*
X0244916Y0186504D01*
X0245383Y0186504D01*
X0245850Y0186037D01*
X0245850Y0184636D01*
X0245850Y0188793D02*
X0243048Y0188793D01*
X0243048Y0187859D02*
X0243048Y0189727D01*
X0243982Y0191082D02*
X0243048Y0192016D01*
X0243982Y0192950D01*
X0245850Y0192950D01*
X0245850Y0194304D02*
X0245850Y0196173D01*
X0245850Y0195239D02*
X0243048Y0195239D01*
X0243982Y0194304D01*
X0244449Y0192950D02*
X0244449Y0191082D01*
X0243982Y0191082D02*
X0245850Y0191082D01*
X0245383Y0197527D02*
X0245850Y0197994D01*
X0245850Y0198928D01*
X0245383Y0199395D01*
X0244916Y0199395D01*
X0244449Y0198928D01*
X0244449Y0197527D01*
X0245383Y0197527D01*
X0244449Y0197527D02*
X0243515Y0198461D01*
X0243048Y0199395D01*
X0229195Y0207917D02*
X0228728Y0207450D01*
X0227794Y0207450D01*
X0227327Y0207917D01*
X0229195Y0209785D01*
X0229195Y0207917D01*
X0227327Y0207917D02*
X0227327Y0209785D01*
X0227794Y0210252D01*
X0228728Y0210252D01*
X0229195Y0209785D01*
X0225973Y0209785D02*
X0225973Y0209318D01*
X0225506Y0208851D01*
X0224572Y0208851D01*
X0224104Y0209318D01*
X0224104Y0209785D01*
X0224572Y0210252D01*
X0225506Y0210252D01*
X0225973Y0209785D01*
X0225506Y0208851D02*
X0225973Y0208384D01*
X0225973Y0207917D01*
X0225506Y0207450D01*
X0224572Y0207450D01*
X0224104Y0207917D01*
X0224104Y0208384D01*
X0224572Y0208851D01*
X0222750Y0207450D02*
X0220882Y0207450D01*
X0221816Y0207450D02*
X0221816Y0210252D01*
X0220882Y0209318D01*
X0204650Y0208818D02*
X0203716Y0207884D01*
X0203716Y0208351D02*
X0203716Y0206950D01*
X0204650Y0206950D02*
X0201848Y0206950D01*
X0201848Y0208351D01*
X0202315Y0208818D01*
X0203249Y0208818D01*
X0203716Y0208351D01*
X0204183Y0210173D02*
X0204650Y0210640D01*
X0204650Y0211574D01*
X0204183Y0212041D01*
X0203716Y0212041D01*
X0203249Y0211574D01*
X0203249Y0211107D01*
X0203249Y0211574D02*
X0202782Y0212041D01*
X0202315Y0212041D01*
X0201848Y0211574D01*
X0201848Y0210640D01*
X0202315Y0210173D01*
D26*
X0154680Y0103806D03*
X0148880Y0103806D03*
X0124680Y0103806D03*
X0118880Y0103806D03*
X0118920Y0085794D03*
X0124720Y0085794D03*
X0124680Y0070806D03*
X0118880Y0070806D03*
X0118880Y0055806D03*
X0124680Y0055806D03*
X0148880Y0055806D03*
X0154680Y0055806D03*
X0154680Y0070806D03*
X0148880Y0070806D03*
X0148880Y0085806D03*
X0154680Y0085806D03*
D27*
X0059033Y0088501D02*
X0056564Y0088501D01*
X0057798Y0087267D02*
X0057798Y0089736D01*
X0057798Y0100267D02*
X0057798Y0102736D01*
X0056564Y0101501D02*
X0059033Y0101501D01*
X0057798Y0076736D02*
X0057798Y0074267D01*
X0056564Y0075501D02*
X0059033Y0075501D01*
X0057798Y0063736D02*
X0057798Y0061267D01*
X0056564Y0062501D02*
X0059033Y0062501D01*
D28*
X0066391Y0062162D03*
X0066391Y0057438D03*
X0066391Y0070438D03*
X0066391Y0075162D03*
X0066391Y0083438D03*
X0066391Y0088162D03*
X0066391Y0096438D03*
X0066391Y0101162D03*
D29*
X0066391Y0098800D03*
X0066391Y0085800D03*
X0066391Y0072800D03*
X0066391Y0059800D03*
D30*
X0068753Y0059800D03*
X0062847Y0059800D03*
X0062847Y0072800D03*
X0068753Y0072800D03*
X0068753Y0085800D03*
X0062847Y0085800D03*
X0062847Y0098800D03*
X0068753Y0098800D03*
D31*
X0249700Y0114500D03*
X0249700Y0069500D03*
X0249700Y0162000D03*
X0249700Y0209500D03*
D32*
X0262800Y0191800D03*
X0262800Y0144300D03*
X0262800Y0096800D03*
X0262800Y0051800D03*
D33*
X0260300Y0034550D03*
X0260300Y0069050D03*
X0260300Y0079550D03*
X0260300Y0114050D03*
X0260300Y0127050D03*
X0260300Y0161550D03*
X0260300Y0174550D03*
X0260300Y0209050D03*
D34*
X0260300Y0196800D03*
X0260300Y0186800D03*
X0260300Y0149300D03*
X0260300Y0139300D03*
X0260300Y0101800D03*
X0260300Y0091800D03*
X0260300Y0056800D03*
X0260300Y0046800D03*
D35*
X0260300Y0041800D03*
X0260300Y0051800D03*
X0260300Y0061800D03*
X0260300Y0086800D03*
X0260300Y0096800D03*
X0260300Y0106800D03*
X0260300Y0134300D03*
X0260300Y0144300D03*
X0260300Y0154300D03*
X0260300Y0181800D03*
X0260300Y0191800D03*
X0260300Y0201800D03*
M02*
