%
M48
M72
T01C0.02400
T02C0.03200
T03C0.04000
T04C0.04400
T05C0.04700
T06C0.11811
%
T01
X96800Y53300
X104300Y66800
X88925Y79600
X84600Y92400
X104300Y104300
X118675Y92425
X133050Y78675
X139300Y69300
X136800Y55550
X138275Y48275
X166800Y56175
X138500Y115225
X96800Y131800
X149300Y184300
T02
X204300Y35619
X204300Y45619
X204300Y55619
X209600Y66300
X204300Y78119
X204300Y88119
X204300Y98119
X210300Y108700
X204300Y123119
X204300Y133119
X204300Y143119
X209300Y153900
X234300Y143119
X234300Y133119
X234300Y123119
X240300Y108700
X234300Y98119
X234300Y88119
X234300Y78119
X239600Y66300
X234300Y55619
X234300Y45619
X234300Y35619
X239300Y153900
X234300Y178119
X234300Y188119
X234300Y198119
X239900Y209100
X209900Y209100
X204300Y198119
X204300Y188119
X204300Y178119
T03
X113300Y37300
X123300Y36300
X133300Y37300
X143300Y36300
X153300Y37300
X163300Y36300
X173300Y37300
X183300Y36300
X254300Y41800
X254300Y51800
X254300Y61800
X254300Y86800
X254300Y96800
X254300Y106800
X254300Y134300
X254300Y144300
X254300Y154300
X254300Y181800
X254300Y191800
X254300Y201800
X183300Y126300
X173300Y127300
X163300Y126300
X153300Y127300
X143300Y126300
X133300Y127300
X123300Y126300
X113300Y127300
X64300Y141800
X54300Y141800
X54300Y151800
X64300Y151800
X64300Y161800
X54300Y161800
X54300Y171800
X64300Y171800
X64300Y181800
X54300Y181800
T04
X191131Y144379
X191131Y164457
X84831Y165245
X84831Y205087
T05
X287700Y72272
X287700Y91957
X287700Y111643
X287700Y131328
X287800Y151800
X287800Y171800
T06
X50800Y38800
X303300Y38800
X303300Y205800
X50800Y205800
M30
