G75*
%MOIN*%
%OFA0B0*%
%FSLAX25Y25*%
%IPPOS*%
%LPD*%
%AMOC8*
5,1,8,0,0,1.08239X$1,22.5*
%
%ADD10C,0.01000*%
%ADD11C,0.00600*%
%ADD12C,0.01200*%
%ADD13C,0.00000*%
%ADD14R,0.02000X0.02000*%
%ADD15C,0.03000*%
%ADD16C,0.00500*%
D10*
X0028300Y0031800D02*
X0028300Y0219261D01*
X0302501Y0219261D01*
X0302501Y0031800D01*
X0028300Y0031800D01*
D11*
X0030284Y0041800D02*
X0030287Y0042021D01*
X0030295Y0042242D01*
X0030308Y0042463D01*
X0030327Y0042684D01*
X0030352Y0042904D01*
X0030382Y0043123D01*
X0030417Y0043341D01*
X0030457Y0043559D01*
X0030503Y0043775D01*
X0030554Y0043991D01*
X0030611Y0044205D01*
X0030672Y0044417D01*
X0030739Y0044628D01*
X0030811Y0044837D01*
X0030888Y0045045D01*
X0030970Y0045250D01*
X0031057Y0045454D01*
X0031150Y0045655D01*
X0031247Y0045854D01*
X0031349Y0046050D01*
X0031455Y0046244D01*
X0031567Y0046435D01*
X0031683Y0046624D01*
X0031803Y0046809D01*
X0031929Y0046991D01*
X0032058Y0047171D01*
X0032192Y0047347D01*
X0032331Y0047520D01*
X0032473Y0047689D01*
X0032620Y0047855D01*
X0032770Y0048017D01*
X0032925Y0048175D01*
X0033083Y0048330D01*
X0033245Y0048480D01*
X0033411Y0048627D01*
X0033580Y0048769D01*
X0033753Y0048908D01*
X0033929Y0049042D01*
X0034109Y0049171D01*
X0034291Y0049297D01*
X0034476Y0049417D01*
X0034665Y0049533D01*
X0034856Y0049645D01*
X0035050Y0049751D01*
X0035246Y0049853D01*
X0035445Y0049950D01*
X0035646Y0050043D01*
X0035850Y0050130D01*
X0036055Y0050212D01*
X0036263Y0050289D01*
X0036472Y0050361D01*
X0036683Y0050428D01*
X0036895Y0050489D01*
X0037109Y0050546D01*
X0037325Y0050597D01*
X0037541Y0050643D01*
X0037759Y0050683D01*
X0037977Y0050718D01*
X0038196Y0050748D01*
X0038416Y0050773D01*
X0038637Y0050792D01*
X0038858Y0050805D01*
X0039079Y0050813D01*
X0039300Y0050816D01*
X0039521Y0050813D01*
X0039742Y0050805D01*
X0039963Y0050792D01*
X0040184Y0050773D01*
X0040404Y0050748D01*
X0040623Y0050718D01*
X0040841Y0050683D01*
X0041059Y0050643D01*
X0041275Y0050597D01*
X0041491Y0050546D01*
X0041705Y0050489D01*
X0041917Y0050428D01*
X0042128Y0050361D01*
X0042337Y0050289D01*
X0042545Y0050212D01*
X0042750Y0050130D01*
X0042954Y0050043D01*
X0043155Y0049950D01*
X0043354Y0049853D01*
X0043550Y0049751D01*
X0043744Y0049645D01*
X0043935Y0049533D01*
X0044124Y0049417D01*
X0044309Y0049297D01*
X0044491Y0049171D01*
X0044671Y0049042D01*
X0044847Y0048908D01*
X0045020Y0048769D01*
X0045189Y0048627D01*
X0045355Y0048480D01*
X0045517Y0048330D01*
X0045675Y0048175D01*
X0045830Y0048017D01*
X0045980Y0047855D01*
X0046127Y0047689D01*
X0046269Y0047520D01*
X0046408Y0047347D01*
X0046542Y0047171D01*
X0046671Y0046991D01*
X0046797Y0046809D01*
X0046917Y0046624D01*
X0047033Y0046435D01*
X0047145Y0046244D01*
X0047251Y0046050D01*
X0047353Y0045854D01*
X0047450Y0045655D01*
X0047543Y0045454D01*
X0047630Y0045250D01*
X0047712Y0045045D01*
X0047789Y0044837D01*
X0047861Y0044628D01*
X0047928Y0044417D01*
X0047989Y0044205D01*
X0048046Y0043991D01*
X0048097Y0043775D01*
X0048143Y0043559D01*
X0048183Y0043341D01*
X0048218Y0043123D01*
X0048248Y0042904D01*
X0048273Y0042684D01*
X0048292Y0042463D01*
X0048305Y0042242D01*
X0048313Y0042021D01*
X0048316Y0041800D01*
X0048313Y0041579D01*
X0048305Y0041358D01*
X0048292Y0041137D01*
X0048273Y0040916D01*
X0048248Y0040696D01*
X0048218Y0040477D01*
X0048183Y0040259D01*
X0048143Y0040041D01*
X0048097Y0039825D01*
X0048046Y0039609D01*
X0047989Y0039395D01*
X0047928Y0039183D01*
X0047861Y0038972D01*
X0047789Y0038763D01*
X0047712Y0038555D01*
X0047630Y0038350D01*
X0047543Y0038146D01*
X0047450Y0037945D01*
X0047353Y0037746D01*
X0047251Y0037550D01*
X0047145Y0037356D01*
X0047033Y0037165D01*
X0046917Y0036976D01*
X0046797Y0036791D01*
X0046671Y0036609D01*
X0046542Y0036429D01*
X0046408Y0036253D01*
X0046269Y0036080D01*
X0046127Y0035911D01*
X0045980Y0035745D01*
X0045830Y0035583D01*
X0045675Y0035425D01*
X0045517Y0035270D01*
X0045355Y0035120D01*
X0045189Y0034973D01*
X0045020Y0034831D01*
X0044847Y0034692D01*
X0044671Y0034558D01*
X0044491Y0034429D01*
X0044309Y0034303D01*
X0044124Y0034183D01*
X0043935Y0034067D01*
X0043744Y0033955D01*
X0043550Y0033849D01*
X0043354Y0033747D01*
X0043155Y0033650D01*
X0042954Y0033557D01*
X0042750Y0033470D01*
X0042545Y0033388D01*
X0042337Y0033311D01*
X0042128Y0033239D01*
X0041917Y0033172D01*
X0041705Y0033111D01*
X0041491Y0033054D01*
X0041275Y0033003D01*
X0041059Y0032957D01*
X0040841Y0032917D01*
X0040623Y0032882D01*
X0040404Y0032852D01*
X0040184Y0032827D01*
X0039963Y0032808D01*
X0039742Y0032795D01*
X0039521Y0032787D01*
X0039300Y0032784D01*
X0039079Y0032787D01*
X0038858Y0032795D01*
X0038637Y0032808D01*
X0038416Y0032827D01*
X0038196Y0032852D01*
X0037977Y0032882D01*
X0037759Y0032917D01*
X0037541Y0032957D01*
X0037325Y0033003D01*
X0037109Y0033054D01*
X0036895Y0033111D01*
X0036683Y0033172D01*
X0036472Y0033239D01*
X0036263Y0033311D01*
X0036055Y0033388D01*
X0035850Y0033470D01*
X0035646Y0033557D01*
X0035445Y0033650D01*
X0035246Y0033747D01*
X0035050Y0033849D01*
X0034856Y0033955D01*
X0034665Y0034067D01*
X0034476Y0034183D01*
X0034291Y0034303D01*
X0034109Y0034429D01*
X0033929Y0034558D01*
X0033753Y0034692D01*
X0033580Y0034831D01*
X0033411Y0034973D01*
X0033245Y0035120D01*
X0033083Y0035270D01*
X0032925Y0035425D01*
X0032770Y0035583D01*
X0032620Y0035745D01*
X0032473Y0035911D01*
X0032331Y0036080D01*
X0032192Y0036253D01*
X0032058Y0036429D01*
X0031929Y0036609D01*
X0031803Y0036791D01*
X0031683Y0036976D01*
X0031567Y0037165D01*
X0031455Y0037356D01*
X0031349Y0037550D01*
X0031247Y0037746D01*
X0031150Y0037945D01*
X0031057Y0038146D01*
X0030970Y0038350D01*
X0030888Y0038555D01*
X0030811Y0038763D01*
X0030739Y0038972D01*
X0030672Y0039183D01*
X0030611Y0039395D01*
X0030554Y0039609D01*
X0030503Y0039825D01*
X0030457Y0040041D01*
X0030417Y0040259D01*
X0030382Y0040477D01*
X0030352Y0040696D01*
X0030327Y0040916D01*
X0030308Y0041137D01*
X0030295Y0041358D01*
X0030287Y0041579D01*
X0030284Y0041800D01*
X0040300Y0139800D02*
X0037800Y0142300D01*
X0037800Y0147300D01*
X0040300Y0149800D01*
X0055300Y0149800D01*
X0057800Y0152300D01*
X0057800Y0157300D01*
X0055300Y0159800D01*
X0040300Y0159800D01*
X0037800Y0162300D01*
X0037800Y0167300D01*
X0040300Y0169800D01*
X0055300Y0169800D01*
X0057800Y0172300D01*
X0057800Y0177300D01*
X0055300Y0179800D01*
X0057800Y0182300D01*
X0057800Y0187300D01*
X0055300Y0189800D01*
X0040300Y0189800D01*
X0037800Y0187300D01*
X0037800Y0182300D01*
X0040300Y0179800D01*
X0055300Y0179800D01*
X0059097Y0181667D02*
X0059664Y0181100D01*
X0061933Y0181100D01*
X0062500Y0181667D01*
X0062500Y0182801D01*
X0061933Y0183369D01*
X0060799Y0183369D01*
X0060799Y0182234D01*
X0059664Y0183369D02*
X0059097Y0182801D01*
X0059097Y0181667D01*
X0059097Y0184783D02*
X0062500Y0187052D01*
X0059097Y0187052D01*
X0059097Y0188466D02*
X0059097Y0190168D01*
X0059664Y0190735D01*
X0061933Y0190735D01*
X0062500Y0190168D01*
X0062500Y0188466D01*
X0059097Y0188466D01*
X0059097Y0184783D02*
X0062500Y0184783D01*
X0061933Y0177552D02*
X0062500Y0176985D01*
X0062500Y0175850D01*
X0061933Y0175283D01*
X0059664Y0177552D01*
X0061933Y0177552D01*
X0059664Y0177552D02*
X0059097Y0176985D01*
X0059097Y0175850D01*
X0059664Y0175283D01*
X0061933Y0175283D01*
X0061933Y0173869D02*
X0059664Y0173869D01*
X0059097Y0173301D01*
X0059097Y0171600D01*
X0062500Y0171600D01*
X0062500Y0173301D01*
X0061933Y0173869D01*
X0057800Y0167300D02*
X0055300Y0169800D01*
X0057800Y0167300D02*
X0057800Y0162300D01*
X0055300Y0159800D01*
X0059097Y0161600D02*
X0059097Y0163301D01*
X0059664Y0163869D01*
X0061933Y0163869D01*
X0062500Y0163301D01*
X0062500Y0161600D01*
X0059097Y0161600D01*
X0059097Y0157552D02*
X0059664Y0156417D01*
X0060799Y0155283D01*
X0060799Y0156985D01*
X0061366Y0157552D01*
X0061933Y0157552D01*
X0062500Y0156985D01*
X0062500Y0155850D01*
X0061933Y0155283D01*
X0060799Y0155283D01*
X0061933Y0153869D02*
X0059664Y0153869D01*
X0059097Y0153301D01*
X0059097Y0151600D01*
X0062500Y0151600D01*
X0062500Y0153301D01*
X0061933Y0153869D01*
X0057800Y0147300D02*
X0055300Y0149800D01*
X0059097Y0147552D02*
X0059664Y0147552D01*
X0061933Y0145283D01*
X0062500Y0145283D01*
X0061933Y0143869D02*
X0059664Y0143869D01*
X0059097Y0143301D01*
X0059097Y0141600D01*
X0062500Y0141600D01*
X0062500Y0143301D01*
X0061933Y0143869D01*
X0059097Y0145283D02*
X0059097Y0147552D01*
X0057800Y0147300D02*
X0057800Y0142300D01*
X0055300Y0139800D01*
X0040300Y0139800D01*
X0036000Y0142100D02*
X0036000Y0143801D01*
X0035433Y0144369D01*
X0033164Y0144369D01*
X0032597Y0143801D01*
X0032597Y0142100D01*
X0036000Y0142100D01*
X0036000Y0145783D02*
X0036000Y0148052D01*
X0036000Y0146917D02*
X0032597Y0146917D01*
X0033731Y0145783D01*
X0032597Y0152100D02*
X0032597Y0153801D01*
X0033164Y0154369D01*
X0035433Y0154369D01*
X0036000Y0153801D01*
X0036000Y0152100D01*
X0032597Y0152100D01*
X0037800Y0152300D02*
X0037800Y0157300D01*
X0040300Y0159800D01*
X0036000Y0158052D02*
X0036000Y0155783D01*
X0033731Y0158052D01*
X0033164Y0158052D01*
X0032597Y0157485D01*
X0032597Y0156350D01*
X0033164Y0155783D01*
X0037800Y0152300D02*
X0040300Y0149800D01*
X0036000Y0162100D02*
X0032597Y0162100D01*
X0032597Y0163801D01*
X0033164Y0164369D01*
X0035433Y0164369D01*
X0036000Y0163801D01*
X0036000Y0162100D01*
X0035433Y0165783D02*
X0036000Y0166350D01*
X0036000Y0167485D01*
X0035433Y0168052D01*
X0034866Y0168052D01*
X0034299Y0167485D01*
X0034299Y0166917D01*
X0034299Y0167485D02*
X0033731Y0168052D01*
X0033164Y0168052D01*
X0032597Y0167485D01*
X0032597Y0166350D01*
X0033164Y0165783D01*
X0037800Y0172300D02*
X0040300Y0169800D01*
X0037800Y0172300D02*
X0037800Y0177300D01*
X0040300Y0179800D01*
X0036000Y0177485D02*
X0032597Y0177485D01*
X0034299Y0175783D01*
X0034299Y0178052D01*
X0035433Y0174369D02*
X0033164Y0174369D01*
X0032597Y0173801D01*
X0032597Y0172100D01*
X0036000Y0172100D01*
X0036000Y0173801D01*
X0035433Y0174369D01*
X0035433Y0182100D02*
X0036000Y0182667D01*
X0036000Y0183801D01*
X0035433Y0184369D01*
X0034299Y0184369D01*
X0033731Y0183801D01*
X0033731Y0183234D01*
X0034299Y0182100D01*
X0032597Y0182100D01*
X0032597Y0184369D01*
X0032597Y0185783D02*
X0034866Y0185783D01*
X0036000Y0186917D01*
X0034866Y0188052D01*
X0032597Y0188052D01*
X0059097Y0167552D02*
X0059097Y0165283D01*
X0060799Y0165283D01*
X0060231Y0166417D01*
X0060231Y0166985D01*
X0060799Y0167552D01*
X0061933Y0167552D01*
X0062500Y0166985D01*
X0062500Y0165850D01*
X0061933Y0165283D01*
X0030284Y0208800D02*
X0030287Y0209021D01*
X0030295Y0209242D01*
X0030308Y0209463D01*
X0030327Y0209684D01*
X0030352Y0209904D01*
X0030382Y0210123D01*
X0030417Y0210341D01*
X0030457Y0210559D01*
X0030503Y0210775D01*
X0030554Y0210991D01*
X0030611Y0211205D01*
X0030672Y0211417D01*
X0030739Y0211628D01*
X0030811Y0211837D01*
X0030888Y0212045D01*
X0030970Y0212250D01*
X0031057Y0212454D01*
X0031150Y0212655D01*
X0031247Y0212854D01*
X0031349Y0213050D01*
X0031455Y0213244D01*
X0031567Y0213435D01*
X0031683Y0213624D01*
X0031803Y0213809D01*
X0031929Y0213991D01*
X0032058Y0214171D01*
X0032192Y0214347D01*
X0032331Y0214520D01*
X0032473Y0214689D01*
X0032620Y0214855D01*
X0032770Y0215017D01*
X0032925Y0215175D01*
X0033083Y0215330D01*
X0033245Y0215480D01*
X0033411Y0215627D01*
X0033580Y0215769D01*
X0033753Y0215908D01*
X0033929Y0216042D01*
X0034109Y0216171D01*
X0034291Y0216297D01*
X0034476Y0216417D01*
X0034665Y0216533D01*
X0034856Y0216645D01*
X0035050Y0216751D01*
X0035246Y0216853D01*
X0035445Y0216950D01*
X0035646Y0217043D01*
X0035850Y0217130D01*
X0036055Y0217212D01*
X0036263Y0217289D01*
X0036472Y0217361D01*
X0036683Y0217428D01*
X0036895Y0217489D01*
X0037109Y0217546D01*
X0037325Y0217597D01*
X0037541Y0217643D01*
X0037759Y0217683D01*
X0037977Y0217718D01*
X0038196Y0217748D01*
X0038416Y0217773D01*
X0038637Y0217792D01*
X0038858Y0217805D01*
X0039079Y0217813D01*
X0039300Y0217816D01*
X0039521Y0217813D01*
X0039742Y0217805D01*
X0039963Y0217792D01*
X0040184Y0217773D01*
X0040404Y0217748D01*
X0040623Y0217718D01*
X0040841Y0217683D01*
X0041059Y0217643D01*
X0041275Y0217597D01*
X0041491Y0217546D01*
X0041705Y0217489D01*
X0041917Y0217428D01*
X0042128Y0217361D01*
X0042337Y0217289D01*
X0042545Y0217212D01*
X0042750Y0217130D01*
X0042954Y0217043D01*
X0043155Y0216950D01*
X0043354Y0216853D01*
X0043550Y0216751D01*
X0043744Y0216645D01*
X0043935Y0216533D01*
X0044124Y0216417D01*
X0044309Y0216297D01*
X0044491Y0216171D01*
X0044671Y0216042D01*
X0044847Y0215908D01*
X0045020Y0215769D01*
X0045189Y0215627D01*
X0045355Y0215480D01*
X0045517Y0215330D01*
X0045675Y0215175D01*
X0045830Y0215017D01*
X0045980Y0214855D01*
X0046127Y0214689D01*
X0046269Y0214520D01*
X0046408Y0214347D01*
X0046542Y0214171D01*
X0046671Y0213991D01*
X0046797Y0213809D01*
X0046917Y0213624D01*
X0047033Y0213435D01*
X0047145Y0213244D01*
X0047251Y0213050D01*
X0047353Y0212854D01*
X0047450Y0212655D01*
X0047543Y0212454D01*
X0047630Y0212250D01*
X0047712Y0212045D01*
X0047789Y0211837D01*
X0047861Y0211628D01*
X0047928Y0211417D01*
X0047989Y0211205D01*
X0048046Y0210991D01*
X0048097Y0210775D01*
X0048143Y0210559D01*
X0048183Y0210341D01*
X0048218Y0210123D01*
X0048248Y0209904D01*
X0048273Y0209684D01*
X0048292Y0209463D01*
X0048305Y0209242D01*
X0048313Y0209021D01*
X0048316Y0208800D01*
X0048313Y0208579D01*
X0048305Y0208358D01*
X0048292Y0208137D01*
X0048273Y0207916D01*
X0048248Y0207696D01*
X0048218Y0207477D01*
X0048183Y0207259D01*
X0048143Y0207041D01*
X0048097Y0206825D01*
X0048046Y0206609D01*
X0047989Y0206395D01*
X0047928Y0206183D01*
X0047861Y0205972D01*
X0047789Y0205763D01*
X0047712Y0205555D01*
X0047630Y0205350D01*
X0047543Y0205146D01*
X0047450Y0204945D01*
X0047353Y0204746D01*
X0047251Y0204550D01*
X0047145Y0204356D01*
X0047033Y0204165D01*
X0046917Y0203976D01*
X0046797Y0203791D01*
X0046671Y0203609D01*
X0046542Y0203429D01*
X0046408Y0203253D01*
X0046269Y0203080D01*
X0046127Y0202911D01*
X0045980Y0202745D01*
X0045830Y0202583D01*
X0045675Y0202425D01*
X0045517Y0202270D01*
X0045355Y0202120D01*
X0045189Y0201973D01*
X0045020Y0201831D01*
X0044847Y0201692D01*
X0044671Y0201558D01*
X0044491Y0201429D01*
X0044309Y0201303D01*
X0044124Y0201183D01*
X0043935Y0201067D01*
X0043744Y0200955D01*
X0043550Y0200849D01*
X0043354Y0200747D01*
X0043155Y0200650D01*
X0042954Y0200557D01*
X0042750Y0200470D01*
X0042545Y0200388D01*
X0042337Y0200311D01*
X0042128Y0200239D01*
X0041917Y0200172D01*
X0041705Y0200111D01*
X0041491Y0200054D01*
X0041275Y0200003D01*
X0041059Y0199957D01*
X0040841Y0199917D01*
X0040623Y0199882D01*
X0040404Y0199852D01*
X0040184Y0199827D01*
X0039963Y0199808D01*
X0039742Y0199795D01*
X0039521Y0199787D01*
X0039300Y0199784D01*
X0039079Y0199787D01*
X0038858Y0199795D01*
X0038637Y0199808D01*
X0038416Y0199827D01*
X0038196Y0199852D01*
X0037977Y0199882D01*
X0037759Y0199917D01*
X0037541Y0199957D01*
X0037325Y0200003D01*
X0037109Y0200054D01*
X0036895Y0200111D01*
X0036683Y0200172D01*
X0036472Y0200239D01*
X0036263Y0200311D01*
X0036055Y0200388D01*
X0035850Y0200470D01*
X0035646Y0200557D01*
X0035445Y0200650D01*
X0035246Y0200747D01*
X0035050Y0200849D01*
X0034856Y0200955D01*
X0034665Y0201067D01*
X0034476Y0201183D01*
X0034291Y0201303D01*
X0034109Y0201429D01*
X0033929Y0201558D01*
X0033753Y0201692D01*
X0033580Y0201831D01*
X0033411Y0201973D01*
X0033245Y0202120D01*
X0033083Y0202270D01*
X0032925Y0202425D01*
X0032770Y0202583D01*
X0032620Y0202745D01*
X0032473Y0202911D01*
X0032331Y0203080D01*
X0032192Y0203253D01*
X0032058Y0203429D01*
X0031929Y0203609D01*
X0031803Y0203791D01*
X0031683Y0203976D01*
X0031567Y0204165D01*
X0031455Y0204356D01*
X0031349Y0204550D01*
X0031247Y0204746D01*
X0031150Y0204945D01*
X0031057Y0205146D01*
X0030970Y0205350D01*
X0030888Y0205555D01*
X0030811Y0205763D01*
X0030739Y0205972D01*
X0030672Y0206183D01*
X0030611Y0206395D01*
X0030554Y0206609D01*
X0030503Y0206825D01*
X0030457Y0207041D01*
X0030417Y0207259D01*
X0030382Y0207477D01*
X0030352Y0207696D01*
X0030327Y0207916D01*
X0030308Y0208137D01*
X0030295Y0208358D01*
X0030287Y0208579D01*
X0030284Y0208800D01*
X0282784Y0208800D02*
X0282787Y0209021D01*
X0282795Y0209242D01*
X0282808Y0209463D01*
X0282827Y0209684D01*
X0282852Y0209904D01*
X0282882Y0210123D01*
X0282917Y0210341D01*
X0282957Y0210559D01*
X0283003Y0210775D01*
X0283054Y0210991D01*
X0283111Y0211205D01*
X0283172Y0211417D01*
X0283239Y0211628D01*
X0283311Y0211837D01*
X0283388Y0212045D01*
X0283470Y0212250D01*
X0283557Y0212454D01*
X0283650Y0212655D01*
X0283747Y0212854D01*
X0283849Y0213050D01*
X0283955Y0213244D01*
X0284067Y0213435D01*
X0284183Y0213624D01*
X0284303Y0213809D01*
X0284429Y0213991D01*
X0284558Y0214171D01*
X0284692Y0214347D01*
X0284831Y0214520D01*
X0284973Y0214689D01*
X0285120Y0214855D01*
X0285270Y0215017D01*
X0285425Y0215175D01*
X0285583Y0215330D01*
X0285745Y0215480D01*
X0285911Y0215627D01*
X0286080Y0215769D01*
X0286253Y0215908D01*
X0286429Y0216042D01*
X0286609Y0216171D01*
X0286791Y0216297D01*
X0286976Y0216417D01*
X0287165Y0216533D01*
X0287356Y0216645D01*
X0287550Y0216751D01*
X0287746Y0216853D01*
X0287945Y0216950D01*
X0288146Y0217043D01*
X0288350Y0217130D01*
X0288555Y0217212D01*
X0288763Y0217289D01*
X0288972Y0217361D01*
X0289183Y0217428D01*
X0289395Y0217489D01*
X0289609Y0217546D01*
X0289825Y0217597D01*
X0290041Y0217643D01*
X0290259Y0217683D01*
X0290477Y0217718D01*
X0290696Y0217748D01*
X0290916Y0217773D01*
X0291137Y0217792D01*
X0291358Y0217805D01*
X0291579Y0217813D01*
X0291800Y0217816D01*
X0292021Y0217813D01*
X0292242Y0217805D01*
X0292463Y0217792D01*
X0292684Y0217773D01*
X0292904Y0217748D01*
X0293123Y0217718D01*
X0293341Y0217683D01*
X0293559Y0217643D01*
X0293775Y0217597D01*
X0293991Y0217546D01*
X0294205Y0217489D01*
X0294417Y0217428D01*
X0294628Y0217361D01*
X0294837Y0217289D01*
X0295045Y0217212D01*
X0295250Y0217130D01*
X0295454Y0217043D01*
X0295655Y0216950D01*
X0295854Y0216853D01*
X0296050Y0216751D01*
X0296244Y0216645D01*
X0296435Y0216533D01*
X0296624Y0216417D01*
X0296809Y0216297D01*
X0296991Y0216171D01*
X0297171Y0216042D01*
X0297347Y0215908D01*
X0297520Y0215769D01*
X0297689Y0215627D01*
X0297855Y0215480D01*
X0298017Y0215330D01*
X0298175Y0215175D01*
X0298330Y0215017D01*
X0298480Y0214855D01*
X0298627Y0214689D01*
X0298769Y0214520D01*
X0298908Y0214347D01*
X0299042Y0214171D01*
X0299171Y0213991D01*
X0299297Y0213809D01*
X0299417Y0213624D01*
X0299533Y0213435D01*
X0299645Y0213244D01*
X0299751Y0213050D01*
X0299853Y0212854D01*
X0299950Y0212655D01*
X0300043Y0212454D01*
X0300130Y0212250D01*
X0300212Y0212045D01*
X0300289Y0211837D01*
X0300361Y0211628D01*
X0300428Y0211417D01*
X0300489Y0211205D01*
X0300546Y0210991D01*
X0300597Y0210775D01*
X0300643Y0210559D01*
X0300683Y0210341D01*
X0300718Y0210123D01*
X0300748Y0209904D01*
X0300773Y0209684D01*
X0300792Y0209463D01*
X0300805Y0209242D01*
X0300813Y0209021D01*
X0300816Y0208800D01*
X0300813Y0208579D01*
X0300805Y0208358D01*
X0300792Y0208137D01*
X0300773Y0207916D01*
X0300748Y0207696D01*
X0300718Y0207477D01*
X0300683Y0207259D01*
X0300643Y0207041D01*
X0300597Y0206825D01*
X0300546Y0206609D01*
X0300489Y0206395D01*
X0300428Y0206183D01*
X0300361Y0205972D01*
X0300289Y0205763D01*
X0300212Y0205555D01*
X0300130Y0205350D01*
X0300043Y0205146D01*
X0299950Y0204945D01*
X0299853Y0204746D01*
X0299751Y0204550D01*
X0299645Y0204356D01*
X0299533Y0204165D01*
X0299417Y0203976D01*
X0299297Y0203791D01*
X0299171Y0203609D01*
X0299042Y0203429D01*
X0298908Y0203253D01*
X0298769Y0203080D01*
X0298627Y0202911D01*
X0298480Y0202745D01*
X0298330Y0202583D01*
X0298175Y0202425D01*
X0298017Y0202270D01*
X0297855Y0202120D01*
X0297689Y0201973D01*
X0297520Y0201831D01*
X0297347Y0201692D01*
X0297171Y0201558D01*
X0296991Y0201429D01*
X0296809Y0201303D01*
X0296624Y0201183D01*
X0296435Y0201067D01*
X0296244Y0200955D01*
X0296050Y0200849D01*
X0295854Y0200747D01*
X0295655Y0200650D01*
X0295454Y0200557D01*
X0295250Y0200470D01*
X0295045Y0200388D01*
X0294837Y0200311D01*
X0294628Y0200239D01*
X0294417Y0200172D01*
X0294205Y0200111D01*
X0293991Y0200054D01*
X0293775Y0200003D01*
X0293559Y0199957D01*
X0293341Y0199917D01*
X0293123Y0199882D01*
X0292904Y0199852D01*
X0292684Y0199827D01*
X0292463Y0199808D01*
X0292242Y0199795D01*
X0292021Y0199787D01*
X0291800Y0199784D01*
X0291579Y0199787D01*
X0291358Y0199795D01*
X0291137Y0199808D01*
X0290916Y0199827D01*
X0290696Y0199852D01*
X0290477Y0199882D01*
X0290259Y0199917D01*
X0290041Y0199957D01*
X0289825Y0200003D01*
X0289609Y0200054D01*
X0289395Y0200111D01*
X0289183Y0200172D01*
X0288972Y0200239D01*
X0288763Y0200311D01*
X0288555Y0200388D01*
X0288350Y0200470D01*
X0288146Y0200557D01*
X0287945Y0200650D01*
X0287746Y0200747D01*
X0287550Y0200849D01*
X0287356Y0200955D01*
X0287165Y0201067D01*
X0286976Y0201183D01*
X0286791Y0201303D01*
X0286609Y0201429D01*
X0286429Y0201558D01*
X0286253Y0201692D01*
X0286080Y0201831D01*
X0285911Y0201973D01*
X0285745Y0202120D01*
X0285583Y0202270D01*
X0285425Y0202425D01*
X0285270Y0202583D01*
X0285120Y0202745D01*
X0284973Y0202911D01*
X0284831Y0203080D01*
X0284692Y0203253D01*
X0284558Y0203429D01*
X0284429Y0203609D01*
X0284303Y0203791D01*
X0284183Y0203976D01*
X0284067Y0204165D01*
X0283955Y0204356D01*
X0283849Y0204550D01*
X0283747Y0204746D01*
X0283650Y0204945D01*
X0283557Y0205146D01*
X0283470Y0205350D01*
X0283388Y0205555D01*
X0283311Y0205763D01*
X0283239Y0205972D01*
X0283172Y0206183D01*
X0283111Y0206395D01*
X0283054Y0206609D01*
X0283003Y0206825D01*
X0282957Y0207041D01*
X0282917Y0207259D01*
X0282882Y0207477D01*
X0282852Y0207696D01*
X0282827Y0207916D01*
X0282808Y0208137D01*
X0282795Y0208358D01*
X0282787Y0208579D01*
X0282784Y0208800D01*
X0282784Y0041800D02*
X0282787Y0042021D01*
X0282795Y0042242D01*
X0282808Y0042463D01*
X0282827Y0042684D01*
X0282852Y0042904D01*
X0282882Y0043123D01*
X0282917Y0043341D01*
X0282957Y0043559D01*
X0283003Y0043775D01*
X0283054Y0043991D01*
X0283111Y0044205D01*
X0283172Y0044417D01*
X0283239Y0044628D01*
X0283311Y0044837D01*
X0283388Y0045045D01*
X0283470Y0045250D01*
X0283557Y0045454D01*
X0283650Y0045655D01*
X0283747Y0045854D01*
X0283849Y0046050D01*
X0283955Y0046244D01*
X0284067Y0046435D01*
X0284183Y0046624D01*
X0284303Y0046809D01*
X0284429Y0046991D01*
X0284558Y0047171D01*
X0284692Y0047347D01*
X0284831Y0047520D01*
X0284973Y0047689D01*
X0285120Y0047855D01*
X0285270Y0048017D01*
X0285425Y0048175D01*
X0285583Y0048330D01*
X0285745Y0048480D01*
X0285911Y0048627D01*
X0286080Y0048769D01*
X0286253Y0048908D01*
X0286429Y0049042D01*
X0286609Y0049171D01*
X0286791Y0049297D01*
X0286976Y0049417D01*
X0287165Y0049533D01*
X0287356Y0049645D01*
X0287550Y0049751D01*
X0287746Y0049853D01*
X0287945Y0049950D01*
X0288146Y0050043D01*
X0288350Y0050130D01*
X0288555Y0050212D01*
X0288763Y0050289D01*
X0288972Y0050361D01*
X0289183Y0050428D01*
X0289395Y0050489D01*
X0289609Y0050546D01*
X0289825Y0050597D01*
X0290041Y0050643D01*
X0290259Y0050683D01*
X0290477Y0050718D01*
X0290696Y0050748D01*
X0290916Y0050773D01*
X0291137Y0050792D01*
X0291358Y0050805D01*
X0291579Y0050813D01*
X0291800Y0050816D01*
X0292021Y0050813D01*
X0292242Y0050805D01*
X0292463Y0050792D01*
X0292684Y0050773D01*
X0292904Y0050748D01*
X0293123Y0050718D01*
X0293341Y0050683D01*
X0293559Y0050643D01*
X0293775Y0050597D01*
X0293991Y0050546D01*
X0294205Y0050489D01*
X0294417Y0050428D01*
X0294628Y0050361D01*
X0294837Y0050289D01*
X0295045Y0050212D01*
X0295250Y0050130D01*
X0295454Y0050043D01*
X0295655Y0049950D01*
X0295854Y0049853D01*
X0296050Y0049751D01*
X0296244Y0049645D01*
X0296435Y0049533D01*
X0296624Y0049417D01*
X0296809Y0049297D01*
X0296991Y0049171D01*
X0297171Y0049042D01*
X0297347Y0048908D01*
X0297520Y0048769D01*
X0297689Y0048627D01*
X0297855Y0048480D01*
X0298017Y0048330D01*
X0298175Y0048175D01*
X0298330Y0048017D01*
X0298480Y0047855D01*
X0298627Y0047689D01*
X0298769Y0047520D01*
X0298908Y0047347D01*
X0299042Y0047171D01*
X0299171Y0046991D01*
X0299297Y0046809D01*
X0299417Y0046624D01*
X0299533Y0046435D01*
X0299645Y0046244D01*
X0299751Y0046050D01*
X0299853Y0045854D01*
X0299950Y0045655D01*
X0300043Y0045454D01*
X0300130Y0045250D01*
X0300212Y0045045D01*
X0300289Y0044837D01*
X0300361Y0044628D01*
X0300428Y0044417D01*
X0300489Y0044205D01*
X0300546Y0043991D01*
X0300597Y0043775D01*
X0300643Y0043559D01*
X0300683Y0043341D01*
X0300718Y0043123D01*
X0300748Y0042904D01*
X0300773Y0042684D01*
X0300792Y0042463D01*
X0300805Y0042242D01*
X0300813Y0042021D01*
X0300816Y0041800D01*
X0300813Y0041579D01*
X0300805Y0041358D01*
X0300792Y0041137D01*
X0300773Y0040916D01*
X0300748Y0040696D01*
X0300718Y0040477D01*
X0300683Y0040259D01*
X0300643Y0040041D01*
X0300597Y0039825D01*
X0300546Y0039609D01*
X0300489Y0039395D01*
X0300428Y0039183D01*
X0300361Y0038972D01*
X0300289Y0038763D01*
X0300212Y0038555D01*
X0300130Y0038350D01*
X0300043Y0038146D01*
X0299950Y0037945D01*
X0299853Y0037746D01*
X0299751Y0037550D01*
X0299645Y0037356D01*
X0299533Y0037165D01*
X0299417Y0036976D01*
X0299297Y0036791D01*
X0299171Y0036609D01*
X0299042Y0036429D01*
X0298908Y0036253D01*
X0298769Y0036080D01*
X0298627Y0035911D01*
X0298480Y0035745D01*
X0298330Y0035583D01*
X0298175Y0035425D01*
X0298017Y0035270D01*
X0297855Y0035120D01*
X0297689Y0034973D01*
X0297520Y0034831D01*
X0297347Y0034692D01*
X0297171Y0034558D01*
X0296991Y0034429D01*
X0296809Y0034303D01*
X0296624Y0034183D01*
X0296435Y0034067D01*
X0296244Y0033955D01*
X0296050Y0033849D01*
X0295854Y0033747D01*
X0295655Y0033650D01*
X0295454Y0033557D01*
X0295250Y0033470D01*
X0295045Y0033388D01*
X0294837Y0033311D01*
X0294628Y0033239D01*
X0294417Y0033172D01*
X0294205Y0033111D01*
X0293991Y0033054D01*
X0293775Y0033003D01*
X0293559Y0032957D01*
X0293341Y0032917D01*
X0293123Y0032882D01*
X0292904Y0032852D01*
X0292684Y0032827D01*
X0292463Y0032808D01*
X0292242Y0032795D01*
X0292021Y0032787D01*
X0291800Y0032784D01*
X0291579Y0032787D01*
X0291358Y0032795D01*
X0291137Y0032808D01*
X0290916Y0032827D01*
X0290696Y0032852D01*
X0290477Y0032882D01*
X0290259Y0032917D01*
X0290041Y0032957D01*
X0289825Y0033003D01*
X0289609Y0033054D01*
X0289395Y0033111D01*
X0289183Y0033172D01*
X0288972Y0033239D01*
X0288763Y0033311D01*
X0288555Y0033388D01*
X0288350Y0033470D01*
X0288146Y0033557D01*
X0287945Y0033650D01*
X0287746Y0033747D01*
X0287550Y0033849D01*
X0287356Y0033955D01*
X0287165Y0034067D01*
X0286976Y0034183D01*
X0286791Y0034303D01*
X0286609Y0034429D01*
X0286429Y0034558D01*
X0286253Y0034692D01*
X0286080Y0034831D01*
X0285911Y0034973D01*
X0285745Y0035120D01*
X0285583Y0035270D01*
X0285425Y0035425D01*
X0285270Y0035583D01*
X0285120Y0035745D01*
X0284973Y0035911D01*
X0284831Y0036080D01*
X0284692Y0036253D01*
X0284558Y0036429D01*
X0284429Y0036609D01*
X0284303Y0036791D01*
X0284183Y0036976D01*
X0284067Y0037165D01*
X0283955Y0037356D01*
X0283849Y0037550D01*
X0283747Y0037746D01*
X0283650Y0037945D01*
X0283557Y0038146D01*
X0283470Y0038350D01*
X0283388Y0038555D01*
X0283311Y0038763D01*
X0283239Y0038972D01*
X0283172Y0039183D01*
X0283111Y0039395D01*
X0283054Y0039609D01*
X0283003Y0039825D01*
X0282957Y0040041D01*
X0282917Y0040259D01*
X0282882Y0040477D01*
X0282852Y0040696D01*
X0282827Y0040916D01*
X0282808Y0041137D01*
X0282795Y0041358D01*
X0282787Y0041579D01*
X0282784Y0041800D01*
D12*
X0225122Y0041403D02*
X0225122Y0038201D01*
X0224321Y0037400D01*
X0222720Y0037400D01*
X0221919Y0038201D01*
X0225122Y0041403D01*
X0224321Y0042204D01*
X0222720Y0042204D01*
X0221919Y0041403D01*
X0221919Y0038201D01*
X0219957Y0038201D02*
X0219957Y0037400D01*
X0219157Y0037400D01*
X0219157Y0038201D01*
X0219957Y0038201D01*
X0216835Y0037400D02*
X0213632Y0037400D01*
X0215233Y0037400D02*
X0215233Y0042204D01*
X0213632Y0040603D01*
X0211310Y0040603D02*
X0209709Y0037400D01*
X0208107Y0040603D01*
X0200261Y0040603D02*
X0197859Y0040603D01*
X0197058Y0039802D01*
X0197058Y0038201D01*
X0197859Y0037400D01*
X0200261Y0037400D01*
X0200261Y0042204D01*
X0194175Y0042204D02*
X0194175Y0037400D01*
X0193375Y0037400D02*
X0194976Y0037400D01*
X0191053Y0039001D02*
X0187850Y0039001D01*
X0187850Y0038201D02*
X0187850Y0039802D01*
X0188651Y0040603D01*
X0190252Y0040603D01*
X0191053Y0039802D01*
X0191053Y0039001D01*
X0190252Y0037400D02*
X0188651Y0037400D01*
X0187850Y0038201D01*
X0185768Y0037400D02*
X0184167Y0037400D01*
X0184967Y0037400D02*
X0184967Y0040603D01*
X0184167Y0040603D01*
X0184967Y0042204D02*
X0184967Y0043005D01*
X0181845Y0039802D02*
X0181845Y0037400D01*
X0181845Y0039802D02*
X0181044Y0040603D01*
X0179443Y0040603D01*
X0178642Y0039802D01*
X0178642Y0042204D02*
X0178642Y0037400D01*
X0176320Y0038201D02*
X0175519Y0037400D01*
X0173918Y0037400D01*
X0173117Y0038201D01*
X0173918Y0039802D02*
X0175519Y0039802D01*
X0176320Y0039001D01*
X0176320Y0038201D01*
X0173918Y0039802D02*
X0173117Y0040603D01*
X0173117Y0041403D01*
X0173918Y0042204D01*
X0175519Y0042204D01*
X0176320Y0041403D01*
X0165271Y0039802D02*
X0165271Y0037400D01*
X0165271Y0039802D02*
X0164470Y0040603D01*
X0162869Y0040603D01*
X0162068Y0039802D01*
X0162068Y0042204D02*
X0162068Y0037400D01*
X0159746Y0037400D02*
X0157344Y0037400D01*
X0156543Y0038201D01*
X0156543Y0039802D01*
X0157344Y0040603D01*
X0159746Y0040603D01*
X0154461Y0040603D02*
X0152860Y0040603D01*
X0153661Y0041403D02*
X0153661Y0038201D01*
X0154461Y0037400D01*
X0150778Y0037400D02*
X0149177Y0037400D01*
X0149978Y0037400D02*
X0149978Y0040603D01*
X0149177Y0040603D01*
X0149978Y0042204D02*
X0149978Y0043005D01*
X0146855Y0040603D02*
X0146855Y0038201D01*
X0146054Y0037400D01*
X0145254Y0038201D01*
X0144453Y0037400D01*
X0143652Y0038201D01*
X0143652Y0040603D01*
X0141330Y0041403D02*
X0140530Y0042204D01*
X0138928Y0042204D01*
X0138128Y0041403D01*
X0138128Y0040603D01*
X0138928Y0039802D01*
X0140530Y0039802D01*
X0141330Y0039001D01*
X0141330Y0038201D01*
X0140530Y0037400D01*
X0138928Y0037400D01*
X0138128Y0038201D01*
X0130281Y0037400D02*
X0127879Y0037400D01*
X0127078Y0038201D01*
X0127078Y0040603D01*
X0124876Y0040603D02*
X0122474Y0039001D01*
X0124876Y0037400D01*
X0122474Y0037400D02*
X0122474Y0042204D01*
X0120152Y0040603D02*
X0117750Y0040603D01*
X0116949Y0039802D01*
X0116949Y0038201D01*
X0117750Y0037400D01*
X0120152Y0037400D01*
X0114627Y0038201D02*
X0114627Y0039802D01*
X0113827Y0040603D01*
X0112225Y0040603D01*
X0111425Y0039802D01*
X0111425Y0038201D01*
X0112225Y0037400D01*
X0113827Y0037400D01*
X0114627Y0038201D01*
X0109103Y0037400D02*
X0107501Y0039001D01*
X0108302Y0039001D02*
X0105900Y0039001D01*
X0105900Y0037400D02*
X0105900Y0042204D01*
X0108302Y0042204D01*
X0109103Y0041403D01*
X0109103Y0039802D01*
X0108302Y0039001D01*
X0128679Y0035799D02*
X0129480Y0035799D01*
X0130281Y0036599D01*
X0130281Y0040603D01*
X0193375Y0042204D02*
X0194175Y0042204D01*
D13*
X0236650Y0082300D02*
X0236652Y0082421D01*
X0236658Y0082541D01*
X0236668Y0082662D01*
X0236682Y0082781D01*
X0236700Y0082901D01*
X0236722Y0083019D01*
X0236747Y0083137D01*
X0236777Y0083254D01*
X0236810Y0083370D01*
X0236848Y0083485D01*
X0236889Y0083599D01*
X0236934Y0083711D01*
X0236982Y0083821D01*
X0237034Y0083930D01*
X0237090Y0084037D01*
X0237149Y0084142D01*
X0237212Y0084246D01*
X0237278Y0084347D01*
X0237347Y0084445D01*
X0237420Y0084542D01*
X0237495Y0084636D01*
X0237574Y0084727D01*
X0237656Y0084816D01*
X0237740Y0084902D01*
X0237828Y0084985D01*
X0237918Y0085066D01*
X0238011Y0085143D01*
X0238106Y0085217D01*
X0238204Y0085288D01*
X0238304Y0085356D01*
X0238406Y0085420D01*
X0238510Y0085481D01*
X0238616Y0085538D01*
X0238724Y0085592D01*
X0238834Y0085643D01*
X0238945Y0085689D01*
X0239058Y0085732D01*
X0239172Y0085771D01*
X0239287Y0085807D01*
X0239404Y0085838D01*
X0239521Y0085866D01*
X0239640Y0085890D01*
X0239759Y0085910D01*
X0239878Y0085926D01*
X0239999Y0085938D01*
X0240119Y0085946D01*
X0240240Y0085950D01*
X0240360Y0085950D01*
X0240481Y0085946D01*
X0240601Y0085938D01*
X0240722Y0085926D01*
X0240841Y0085910D01*
X0240960Y0085890D01*
X0241079Y0085866D01*
X0241196Y0085838D01*
X0241313Y0085807D01*
X0241428Y0085771D01*
X0241542Y0085732D01*
X0241655Y0085689D01*
X0241766Y0085643D01*
X0241876Y0085592D01*
X0241984Y0085538D01*
X0242090Y0085481D01*
X0242194Y0085420D01*
X0242296Y0085356D01*
X0242396Y0085288D01*
X0242494Y0085217D01*
X0242589Y0085143D01*
X0242682Y0085066D01*
X0242772Y0084985D01*
X0242860Y0084902D01*
X0242944Y0084816D01*
X0243026Y0084727D01*
X0243105Y0084636D01*
X0243180Y0084542D01*
X0243253Y0084445D01*
X0243322Y0084347D01*
X0243388Y0084246D01*
X0243451Y0084142D01*
X0243510Y0084037D01*
X0243566Y0083930D01*
X0243618Y0083821D01*
X0243666Y0083711D01*
X0243711Y0083599D01*
X0243752Y0083485D01*
X0243790Y0083370D01*
X0243823Y0083254D01*
X0243853Y0083137D01*
X0243878Y0083019D01*
X0243900Y0082901D01*
X0243918Y0082781D01*
X0243932Y0082662D01*
X0243942Y0082541D01*
X0243948Y0082421D01*
X0243950Y0082300D01*
X0243948Y0082179D01*
X0243942Y0082059D01*
X0243932Y0081938D01*
X0243918Y0081819D01*
X0243900Y0081699D01*
X0243878Y0081581D01*
X0243853Y0081463D01*
X0243823Y0081346D01*
X0243790Y0081230D01*
X0243752Y0081115D01*
X0243711Y0081001D01*
X0243666Y0080889D01*
X0243618Y0080779D01*
X0243566Y0080670D01*
X0243510Y0080563D01*
X0243451Y0080458D01*
X0243388Y0080354D01*
X0243322Y0080253D01*
X0243253Y0080155D01*
X0243180Y0080058D01*
X0243105Y0079964D01*
X0243026Y0079873D01*
X0242944Y0079784D01*
X0242860Y0079698D01*
X0242772Y0079615D01*
X0242682Y0079534D01*
X0242589Y0079457D01*
X0242494Y0079383D01*
X0242396Y0079312D01*
X0242296Y0079244D01*
X0242194Y0079180D01*
X0242090Y0079119D01*
X0241984Y0079062D01*
X0241876Y0079008D01*
X0241766Y0078957D01*
X0241655Y0078911D01*
X0241542Y0078868D01*
X0241428Y0078829D01*
X0241313Y0078793D01*
X0241196Y0078762D01*
X0241079Y0078734D01*
X0240960Y0078710D01*
X0240841Y0078690D01*
X0240722Y0078674D01*
X0240601Y0078662D01*
X0240481Y0078654D01*
X0240360Y0078650D01*
X0240240Y0078650D01*
X0240119Y0078654D01*
X0239999Y0078662D01*
X0239878Y0078674D01*
X0239759Y0078690D01*
X0239640Y0078710D01*
X0239521Y0078734D01*
X0239404Y0078762D01*
X0239287Y0078793D01*
X0239172Y0078829D01*
X0239058Y0078868D01*
X0238945Y0078911D01*
X0238834Y0078957D01*
X0238724Y0079008D01*
X0238616Y0079062D01*
X0238510Y0079119D01*
X0238406Y0079180D01*
X0238304Y0079244D01*
X0238204Y0079312D01*
X0238106Y0079383D01*
X0238011Y0079457D01*
X0237918Y0079534D01*
X0237828Y0079615D01*
X0237740Y0079698D01*
X0237656Y0079784D01*
X0237574Y0079873D01*
X0237495Y0079964D01*
X0237420Y0080058D01*
X0237347Y0080155D01*
X0237278Y0080253D01*
X0237212Y0080354D01*
X0237149Y0080458D01*
X0237090Y0080563D01*
X0237034Y0080670D01*
X0236982Y0080779D01*
X0236934Y0080889D01*
X0236889Y0081001D01*
X0236848Y0081115D01*
X0236810Y0081230D01*
X0236777Y0081346D01*
X0236747Y0081463D01*
X0236722Y0081581D01*
X0236700Y0081699D01*
X0236682Y0081819D01*
X0236668Y0081938D01*
X0236658Y0082059D01*
X0236652Y0082179D01*
X0236650Y0082300D01*
X0285894Y0041800D02*
X0285896Y0041953D01*
X0285902Y0042107D01*
X0285912Y0042260D01*
X0285926Y0042412D01*
X0285944Y0042565D01*
X0285966Y0042716D01*
X0285991Y0042867D01*
X0286021Y0043018D01*
X0286055Y0043168D01*
X0286092Y0043316D01*
X0286133Y0043464D01*
X0286178Y0043610D01*
X0286227Y0043756D01*
X0286280Y0043900D01*
X0286336Y0044042D01*
X0286396Y0044183D01*
X0286460Y0044323D01*
X0286527Y0044461D01*
X0286598Y0044597D01*
X0286673Y0044731D01*
X0286750Y0044863D01*
X0286832Y0044993D01*
X0286916Y0045121D01*
X0287004Y0045247D01*
X0287095Y0045370D01*
X0287189Y0045491D01*
X0287287Y0045609D01*
X0287387Y0045725D01*
X0287491Y0045838D01*
X0287597Y0045949D01*
X0287706Y0046057D01*
X0287818Y0046162D01*
X0287932Y0046263D01*
X0288050Y0046362D01*
X0288169Y0046458D01*
X0288291Y0046551D01*
X0288416Y0046640D01*
X0288543Y0046727D01*
X0288672Y0046809D01*
X0288803Y0046889D01*
X0288936Y0046965D01*
X0289071Y0047038D01*
X0289208Y0047107D01*
X0289347Y0047172D01*
X0289487Y0047234D01*
X0289629Y0047292D01*
X0289772Y0047347D01*
X0289917Y0047398D01*
X0290063Y0047445D01*
X0290210Y0047488D01*
X0290358Y0047527D01*
X0290507Y0047563D01*
X0290657Y0047594D01*
X0290808Y0047622D01*
X0290959Y0047646D01*
X0291112Y0047666D01*
X0291264Y0047682D01*
X0291417Y0047694D01*
X0291570Y0047702D01*
X0291723Y0047706D01*
X0291877Y0047706D01*
X0292030Y0047702D01*
X0292183Y0047694D01*
X0292336Y0047682D01*
X0292488Y0047666D01*
X0292641Y0047646D01*
X0292792Y0047622D01*
X0292943Y0047594D01*
X0293093Y0047563D01*
X0293242Y0047527D01*
X0293390Y0047488D01*
X0293537Y0047445D01*
X0293683Y0047398D01*
X0293828Y0047347D01*
X0293971Y0047292D01*
X0294113Y0047234D01*
X0294253Y0047172D01*
X0294392Y0047107D01*
X0294529Y0047038D01*
X0294664Y0046965D01*
X0294797Y0046889D01*
X0294928Y0046809D01*
X0295057Y0046727D01*
X0295184Y0046640D01*
X0295309Y0046551D01*
X0295431Y0046458D01*
X0295550Y0046362D01*
X0295668Y0046263D01*
X0295782Y0046162D01*
X0295894Y0046057D01*
X0296003Y0045949D01*
X0296109Y0045838D01*
X0296213Y0045725D01*
X0296313Y0045609D01*
X0296411Y0045491D01*
X0296505Y0045370D01*
X0296596Y0045247D01*
X0296684Y0045121D01*
X0296768Y0044993D01*
X0296850Y0044863D01*
X0296927Y0044731D01*
X0297002Y0044597D01*
X0297073Y0044461D01*
X0297140Y0044323D01*
X0297204Y0044183D01*
X0297264Y0044042D01*
X0297320Y0043900D01*
X0297373Y0043756D01*
X0297422Y0043610D01*
X0297467Y0043464D01*
X0297508Y0043316D01*
X0297545Y0043168D01*
X0297579Y0043018D01*
X0297609Y0042867D01*
X0297634Y0042716D01*
X0297656Y0042565D01*
X0297674Y0042412D01*
X0297688Y0042260D01*
X0297698Y0042107D01*
X0297704Y0041953D01*
X0297706Y0041800D01*
X0297704Y0041647D01*
X0297698Y0041493D01*
X0297688Y0041340D01*
X0297674Y0041188D01*
X0297656Y0041035D01*
X0297634Y0040884D01*
X0297609Y0040733D01*
X0297579Y0040582D01*
X0297545Y0040432D01*
X0297508Y0040284D01*
X0297467Y0040136D01*
X0297422Y0039990D01*
X0297373Y0039844D01*
X0297320Y0039700D01*
X0297264Y0039558D01*
X0297204Y0039417D01*
X0297140Y0039277D01*
X0297073Y0039139D01*
X0297002Y0039003D01*
X0296927Y0038869D01*
X0296850Y0038737D01*
X0296768Y0038607D01*
X0296684Y0038479D01*
X0296596Y0038353D01*
X0296505Y0038230D01*
X0296411Y0038109D01*
X0296313Y0037991D01*
X0296213Y0037875D01*
X0296109Y0037762D01*
X0296003Y0037651D01*
X0295894Y0037543D01*
X0295782Y0037438D01*
X0295668Y0037337D01*
X0295550Y0037238D01*
X0295431Y0037142D01*
X0295309Y0037049D01*
X0295184Y0036960D01*
X0295057Y0036873D01*
X0294928Y0036791D01*
X0294797Y0036711D01*
X0294664Y0036635D01*
X0294529Y0036562D01*
X0294392Y0036493D01*
X0294253Y0036428D01*
X0294113Y0036366D01*
X0293971Y0036308D01*
X0293828Y0036253D01*
X0293683Y0036202D01*
X0293537Y0036155D01*
X0293390Y0036112D01*
X0293242Y0036073D01*
X0293093Y0036037D01*
X0292943Y0036006D01*
X0292792Y0035978D01*
X0292641Y0035954D01*
X0292488Y0035934D01*
X0292336Y0035918D01*
X0292183Y0035906D01*
X0292030Y0035898D01*
X0291877Y0035894D01*
X0291723Y0035894D01*
X0291570Y0035898D01*
X0291417Y0035906D01*
X0291264Y0035918D01*
X0291112Y0035934D01*
X0290959Y0035954D01*
X0290808Y0035978D01*
X0290657Y0036006D01*
X0290507Y0036037D01*
X0290358Y0036073D01*
X0290210Y0036112D01*
X0290063Y0036155D01*
X0289917Y0036202D01*
X0289772Y0036253D01*
X0289629Y0036308D01*
X0289487Y0036366D01*
X0289347Y0036428D01*
X0289208Y0036493D01*
X0289071Y0036562D01*
X0288936Y0036635D01*
X0288803Y0036711D01*
X0288672Y0036791D01*
X0288543Y0036873D01*
X0288416Y0036960D01*
X0288291Y0037049D01*
X0288169Y0037142D01*
X0288050Y0037238D01*
X0287932Y0037337D01*
X0287818Y0037438D01*
X0287706Y0037543D01*
X0287597Y0037651D01*
X0287491Y0037762D01*
X0287387Y0037875D01*
X0287287Y0037991D01*
X0287189Y0038109D01*
X0287095Y0038230D01*
X0287004Y0038353D01*
X0286916Y0038479D01*
X0286832Y0038607D01*
X0286750Y0038737D01*
X0286673Y0038869D01*
X0286598Y0039003D01*
X0286527Y0039139D01*
X0286460Y0039277D01*
X0286396Y0039417D01*
X0286336Y0039558D01*
X0286280Y0039700D01*
X0286227Y0039844D01*
X0286178Y0039990D01*
X0286133Y0040136D01*
X0286092Y0040284D01*
X0286055Y0040432D01*
X0286021Y0040582D01*
X0285991Y0040733D01*
X0285966Y0040884D01*
X0285944Y0041035D01*
X0285926Y0041188D01*
X0285912Y0041340D01*
X0285902Y0041493D01*
X0285896Y0041647D01*
X0285894Y0041800D01*
X0134150Y0082300D02*
X0134152Y0082421D01*
X0134158Y0082541D01*
X0134168Y0082662D01*
X0134182Y0082781D01*
X0134200Y0082901D01*
X0134222Y0083019D01*
X0134247Y0083137D01*
X0134277Y0083254D01*
X0134310Y0083370D01*
X0134348Y0083485D01*
X0134389Y0083599D01*
X0134434Y0083711D01*
X0134482Y0083821D01*
X0134534Y0083930D01*
X0134590Y0084037D01*
X0134649Y0084142D01*
X0134712Y0084246D01*
X0134778Y0084347D01*
X0134847Y0084445D01*
X0134920Y0084542D01*
X0134995Y0084636D01*
X0135074Y0084727D01*
X0135156Y0084816D01*
X0135240Y0084902D01*
X0135328Y0084985D01*
X0135418Y0085066D01*
X0135511Y0085143D01*
X0135606Y0085217D01*
X0135704Y0085288D01*
X0135804Y0085356D01*
X0135906Y0085420D01*
X0136010Y0085481D01*
X0136116Y0085538D01*
X0136224Y0085592D01*
X0136334Y0085643D01*
X0136445Y0085689D01*
X0136558Y0085732D01*
X0136672Y0085771D01*
X0136787Y0085807D01*
X0136904Y0085838D01*
X0137021Y0085866D01*
X0137140Y0085890D01*
X0137259Y0085910D01*
X0137378Y0085926D01*
X0137499Y0085938D01*
X0137619Y0085946D01*
X0137740Y0085950D01*
X0137860Y0085950D01*
X0137981Y0085946D01*
X0138101Y0085938D01*
X0138222Y0085926D01*
X0138341Y0085910D01*
X0138460Y0085890D01*
X0138579Y0085866D01*
X0138696Y0085838D01*
X0138813Y0085807D01*
X0138928Y0085771D01*
X0139042Y0085732D01*
X0139155Y0085689D01*
X0139266Y0085643D01*
X0139376Y0085592D01*
X0139484Y0085538D01*
X0139590Y0085481D01*
X0139694Y0085420D01*
X0139796Y0085356D01*
X0139896Y0085288D01*
X0139994Y0085217D01*
X0140089Y0085143D01*
X0140182Y0085066D01*
X0140272Y0084985D01*
X0140360Y0084902D01*
X0140444Y0084816D01*
X0140526Y0084727D01*
X0140605Y0084636D01*
X0140680Y0084542D01*
X0140753Y0084445D01*
X0140822Y0084347D01*
X0140888Y0084246D01*
X0140951Y0084142D01*
X0141010Y0084037D01*
X0141066Y0083930D01*
X0141118Y0083821D01*
X0141166Y0083711D01*
X0141211Y0083599D01*
X0141252Y0083485D01*
X0141290Y0083370D01*
X0141323Y0083254D01*
X0141353Y0083137D01*
X0141378Y0083019D01*
X0141400Y0082901D01*
X0141418Y0082781D01*
X0141432Y0082662D01*
X0141442Y0082541D01*
X0141448Y0082421D01*
X0141450Y0082300D01*
X0141448Y0082179D01*
X0141442Y0082059D01*
X0141432Y0081938D01*
X0141418Y0081819D01*
X0141400Y0081699D01*
X0141378Y0081581D01*
X0141353Y0081463D01*
X0141323Y0081346D01*
X0141290Y0081230D01*
X0141252Y0081115D01*
X0141211Y0081001D01*
X0141166Y0080889D01*
X0141118Y0080779D01*
X0141066Y0080670D01*
X0141010Y0080563D01*
X0140951Y0080458D01*
X0140888Y0080354D01*
X0140822Y0080253D01*
X0140753Y0080155D01*
X0140680Y0080058D01*
X0140605Y0079964D01*
X0140526Y0079873D01*
X0140444Y0079784D01*
X0140360Y0079698D01*
X0140272Y0079615D01*
X0140182Y0079534D01*
X0140089Y0079457D01*
X0139994Y0079383D01*
X0139896Y0079312D01*
X0139796Y0079244D01*
X0139694Y0079180D01*
X0139590Y0079119D01*
X0139484Y0079062D01*
X0139376Y0079008D01*
X0139266Y0078957D01*
X0139155Y0078911D01*
X0139042Y0078868D01*
X0138928Y0078829D01*
X0138813Y0078793D01*
X0138696Y0078762D01*
X0138579Y0078734D01*
X0138460Y0078710D01*
X0138341Y0078690D01*
X0138222Y0078674D01*
X0138101Y0078662D01*
X0137981Y0078654D01*
X0137860Y0078650D01*
X0137740Y0078650D01*
X0137619Y0078654D01*
X0137499Y0078662D01*
X0137378Y0078674D01*
X0137259Y0078690D01*
X0137140Y0078710D01*
X0137021Y0078734D01*
X0136904Y0078762D01*
X0136787Y0078793D01*
X0136672Y0078829D01*
X0136558Y0078868D01*
X0136445Y0078911D01*
X0136334Y0078957D01*
X0136224Y0079008D01*
X0136116Y0079062D01*
X0136010Y0079119D01*
X0135906Y0079180D01*
X0135804Y0079244D01*
X0135704Y0079312D01*
X0135606Y0079383D01*
X0135511Y0079457D01*
X0135418Y0079534D01*
X0135328Y0079615D01*
X0135240Y0079698D01*
X0135156Y0079784D01*
X0135074Y0079873D01*
X0134995Y0079964D01*
X0134920Y0080058D01*
X0134847Y0080155D01*
X0134778Y0080253D01*
X0134712Y0080354D01*
X0134649Y0080458D01*
X0134590Y0080563D01*
X0134534Y0080670D01*
X0134482Y0080779D01*
X0134434Y0080889D01*
X0134389Y0081001D01*
X0134348Y0081115D01*
X0134310Y0081230D01*
X0134277Y0081346D01*
X0134247Y0081463D01*
X0134222Y0081581D01*
X0134200Y0081699D01*
X0134182Y0081819D01*
X0134168Y0081938D01*
X0134158Y0082059D01*
X0134152Y0082179D01*
X0134150Y0082300D01*
X0033394Y0041800D02*
X0033396Y0041953D01*
X0033402Y0042107D01*
X0033412Y0042260D01*
X0033426Y0042412D01*
X0033444Y0042565D01*
X0033466Y0042716D01*
X0033491Y0042867D01*
X0033521Y0043018D01*
X0033555Y0043168D01*
X0033592Y0043316D01*
X0033633Y0043464D01*
X0033678Y0043610D01*
X0033727Y0043756D01*
X0033780Y0043900D01*
X0033836Y0044042D01*
X0033896Y0044183D01*
X0033960Y0044323D01*
X0034027Y0044461D01*
X0034098Y0044597D01*
X0034173Y0044731D01*
X0034250Y0044863D01*
X0034332Y0044993D01*
X0034416Y0045121D01*
X0034504Y0045247D01*
X0034595Y0045370D01*
X0034689Y0045491D01*
X0034787Y0045609D01*
X0034887Y0045725D01*
X0034991Y0045838D01*
X0035097Y0045949D01*
X0035206Y0046057D01*
X0035318Y0046162D01*
X0035432Y0046263D01*
X0035550Y0046362D01*
X0035669Y0046458D01*
X0035791Y0046551D01*
X0035916Y0046640D01*
X0036043Y0046727D01*
X0036172Y0046809D01*
X0036303Y0046889D01*
X0036436Y0046965D01*
X0036571Y0047038D01*
X0036708Y0047107D01*
X0036847Y0047172D01*
X0036987Y0047234D01*
X0037129Y0047292D01*
X0037272Y0047347D01*
X0037417Y0047398D01*
X0037563Y0047445D01*
X0037710Y0047488D01*
X0037858Y0047527D01*
X0038007Y0047563D01*
X0038157Y0047594D01*
X0038308Y0047622D01*
X0038459Y0047646D01*
X0038612Y0047666D01*
X0038764Y0047682D01*
X0038917Y0047694D01*
X0039070Y0047702D01*
X0039223Y0047706D01*
X0039377Y0047706D01*
X0039530Y0047702D01*
X0039683Y0047694D01*
X0039836Y0047682D01*
X0039988Y0047666D01*
X0040141Y0047646D01*
X0040292Y0047622D01*
X0040443Y0047594D01*
X0040593Y0047563D01*
X0040742Y0047527D01*
X0040890Y0047488D01*
X0041037Y0047445D01*
X0041183Y0047398D01*
X0041328Y0047347D01*
X0041471Y0047292D01*
X0041613Y0047234D01*
X0041753Y0047172D01*
X0041892Y0047107D01*
X0042029Y0047038D01*
X0042164Y0046965D01*
X0042297Y0046889D01*
X0042428Y0046809D01*
X0042557Y0046727D01*
X0042684Y0046640D01*
X0042809Y0046551D01*
X0042931Y0046458D01*
X0043050Y0046362D01*
X0043168Y0046263D01*
X0043282Y0046162D01*
X0043394Y0046057D01*
X0043503Y0045949D01*
X0043609Y0045838D01*
X0043713Y0045725D01*
X0043813Y0045609D01*
X0043911Y0045491D01*
X0044005Y0045370D01*
X0044096Y0045247D01*
X0044184Y0045121D01*
X0044268Y0044993D01*
X0044350Y0044863D01*
X0044427Y0044731D01*
X0044502Y0044597D01*
X0044573Y0044461D01*
X0044640Y0044323D01*
X0044704Y0044183D01*
X0044764Y0044042D01*
X0044820Y0043900D01*
X0044873Y0043756D01*
X0044922Y0043610D01*
X0044967Y0043464D01*
X0045008Y0043316D01*
X0045045Y0043168D01*
X0045079Y0043018D01*
X0045109Y0042867D01*
X0045134Y0042716D01*
X0045156Y0042565D01*
X0045174Y0042412D01*
X0045188Y0042260D01*
X0045198Y0042107D01*
X0045204Y0041953D01*
X0045206Y0041800D01*
X0045204Y0041647D01*
X0045198Y0041493D01*
X0045188Y0041340D01*
X0045174Y0041188D01*
X0045156Y0041035D01*
X0045134Y0040884D01*
X0045109Y0040733D01*
X0045079Y0040582D01*
X0045045Y0040432D01*
X0045008Y0040284D01*
X0044967Y0040136D01*
X0044922Y0039990D01*
X0044873Y0039844D01*
X0044820Y0039700D01*
X0044764Y0039558D01*
X0044704Y0039417D01*
X0044640Y0039277D01*
X0044573Y0039139D01*
X0044502Y0039003D01*
X0044427Y0038869D01*
X0044350Y0038737D01*
X0044268Y0038607D01*
X0044184Y0038479D01*
X0044096Y0038353D01*
X0044005Y0038230D01*
X0043911Y0038109D01*
X0043813Y0037991D01*
X0043713Y0037875D01*
X0043609Y0037762D01*
X0043503Y0037651D01*
X0043394Y0037543D01*
X0043282Y0037438D01*
X0043168Y0037337D01*
X0043050Y0037238D01*
X0042931Y0037142D01*
X0042809Y0037049D01*
X0042684Y0036960D01*
X0042557Y0036873D01*
X0042428Y0036791D01*
X0042297Y0036711D01*
X0042164Y0036635D01*
X0042029Y0036562D01*
X0041892Y0036493D01*
X0041753Y0036428D01*
X0041613Y0036366D01*
X0041471Y0036308D01*
X0041328Y0036253D01*
X0041183Y0036202D01*
X0041037Y0036155D01*
X0040890Y0036112D01*
X0040742Y0036073D01*
X0040593Y0036037D01*
X0040443Y0036006D01*
X0040292Y0035978D01*
X0040141Y0035954D01*
X0039988Y0035934D01*
X0039836Y0035918D01*
X0039683Y0035906D01*
X0039530Y0035898D01*
X0039377Y0035894D01*
X0039223Y0035894D01*
X0039070Y0035898D01*
X0038917Y0035906D01*
X0038764Y0035918D01*
X0038612Y0035934D01*
X0038459Y0035954D01*
X0038308Y0035978D01*
X0038157Y0036006D01*
X0038007Y0036037D01*
X0037858Y0036073D01*
X0037710Y0036112D01*
X0037563Y0036155D01*
X0037417Y0036202D01*
X0037272Y0036253D01*
X0037129Y0036308D01*
X0036987Y0036366D01*
X0036847Y0036428D01*
X0036708Y0036493D01*
X0036571Y0036562D01*
X0036436Y0036635D01*
X0036303Y0036711D01*
X0036172Y0036791D01*
X0036043Y0036873D01*
X0035916Y0036960D01*
X0035791Y0037049D01*
X0035669Y0037142D01*
X0035550Y0037238D01*
X0035432Y0037337D01*
X0035318Y0037438D01*
X0035206Y0037543D01*
X0035097Y0037651D01*
X0034991Y0037762D01*
X0034887Y0037875D01*
X0034787Y0037991D01*
X0034689Y0038109D01*
X0034595Y0038230D01*
X0034504Y0038353D01*
X0034416Y0038479D01*
X0034332Y0038607D01*
X0034250Y0038737D01*
X0034173Y0038869D01*
X0034098Y0039003D01*
X0034027Y0039139D01*
X0033960Y0039277D01*
X0033896Y0039417D01*
X0033836Y0039558D01*
X0033780Y0039700D01*
X0033727Y0039844D01*
X0033678Y0039990D01*
X0033633Y0040136D01*
X0033592Y0040284D01*
X0033555Y0040432D01*
X0033521Y0040582D01*
X0033491Y0040733D01*
X0033466Y0040884D01*
X0033444Y0041035D01*
X0033426Y0041188D01*
X0033412Y0041340D01*
X0033402Y0041493D01*
X0033396Y0041647D01*
X0033394Y0041800D01*
X0134150Y0169800D02*
X0134152Y0169921D01*
X0134158Y0170041D01*
X0134168Y0170162D01*
X0134182Y0170281D01*
X0134200Y0170401D01*
X0134222Y0170519D01*
X0134247Y0170637D01*
X0134277Y0170754D01*
X0134310Y0170870D01*
X0134348Y0170985D01*
X0134389Y0171099D01*
X0134434Y0171211D01*
X0134482Y0171321D01*
X0134534Y0171430D01*
X0134590Y0171537D01*
X0134649Y0171642D01*
X0134712Y0171746D01*
X0134778Y0171847D01*
X0134847Y0171945D01*
X0134920Y0172042D01*
X0134995Y0172136D01*
X0135074Y0172227D01*
X0135156Y0172316D01*
X0135240Y0172402D01*
X0135328Y0172485D01*
X0135418Y0172566D01*
X0135511Y0172643D01*
X0135606Y0172717D01*
X0135704Y0172788D01*
X0135804Y0172856D01*
X0135906Y0172920D01*
X0136010Y0172981D01*
X0136116Y0173038D01*
X0136224Y0173092D01*
X0136334Y0173143D01*
X0136445Y0173189D01*
X0136558Y0173232D01*
X0136672Y0173271D01*
X0136787Y0173307D01*
X0136904Y0173338D01*
X0137021Y0173366D01*
X0137140Y0173390D01*
X0137259Y0173410D01*
X0137378Y0173426D01*
X0137499Y0173438D01*
X0137619Y0173446D01*
X0137740Y0173450D01*
X0137860Y0173450D01*
X0137981Y0173446D01*
X0138101Y0173438D01*
X0138222Y0173426D01*
X0138341Y0173410D01*
X0138460Y0173390D01*
X0138579Y0173366D01*
X0138696Y0173338D01*
X0138813Y0173307D01*
X0138928Y0173271D01*
X0139042Y0173232D01*
X0139155Y0173189D01*
X0139266Y0173143D01*
X0139376Y0173092D01*
X0139484Y0173038D01*
X0139590Y0172981D01*
X0139694Y0172920D01*
X0139796Y0172856D01*
X0139896Y0172788D01*
X0139994Y0172717D01*
X0140089Y0172643D01*
X0140182Y0172566D01*
X0140272Y0172485D01*
X0140360Y0172402D01*
X0140444Y0172316D01*
X0140526Y0172227D01*
X0140605Y0172136D01*
X0140680Y0172042D01*
X0140753Y0171945D01*
X0140822Y0171847D01*
X0140888Y0171746D01*
X0140951Y0171642D01*
X0141010Y0171537D01*
X0141066Y0171430D01*
X0141118Y0171321D01*
X0141166Y0171211D01*
X0141211Y0171099D01*
X0141252Y0170985D01*
X0141290Y0170870D01*
X0141323Y0170754D01*
X0141353Y0170637D01*
X0141378Y0170519D01*
X0141400Y0170401D01*
X0141418Y0170281D01*
X0141432Y0170162D01*
X0141442Y0170041D01*
X0141448Y0169921D01*
X0141450Y0169800D01*
X0141448Y0169679D01*
X0141442Y0169559D01*
X0141432Y0169438D01*
X0141418Y0169319D01*
X0141400Y0169199D01*
X0141378Y0169081D01*
X0141353Y0168963D01*
X0141323Y0168846D01*
X0141290Y0168730D01*
X0141252Y0168615D01*
X0141211Y0168501D01*
X0141166Y0168389D01*
X0141118Y0168279D01*
X0141066Y0168170D01*
X0141010Y0168063D01*
X0140951Y0167958D01*
X0140888Y0167854D01*
X0140822Y0167753D01*
X0140753Y0167655D01*
X0140680Y0167558D01*
X0140605Y0167464D01*
X0140526Y0167373D01*
X0140444Y0167284D01*
X0140360Y0167198D01*
X0140272Y0167115D01*
X0140182Y0167034D01*
X0140089Y0166957D01*
X0139994Y0166883D01*
X0139896Y0166812D01*
X0139796Y0166744D01*
X0139694Y0166680D01*
X0139590Y0166619D01*
X0139484Y0166562D01*
X0139376Y0166508D01*
X0139266Y0166457D01*
X0139155Y0166411D01*
X0139042Y0166368D01*
X0138928Y0166329D01*
X0138813Y0166293D01*
X0138696Y0166262D01*
X0138579Y0166234D01*
X0138460Y0166210D01*
X0138341Y0166190D01*
X0138222Y0166174D01*
X0138101Y0166162D01*
X0137981Y0166154D01*
X0137860Y0166150D01*
X0137740Y0166150D01*
X0137619Y0166154D01*
X0137499Y0166162D01*
X0137378Y0166174D01*
X0137259Y0166190D01*
X0137140Y0166210D01*
X0137021Y0166234D01*
X0136904Y0166262D01*
X0136787Y0166293D01*
X0136672Y0166329D01*
X0136558Y0166368D01*
X0136445Y0166411D01*
X0136334Y0166457D01*
X0136224Y0166508D01*
X0136116Y0166562D01*
X0136010Y0166619D01*
X0135906Y0166680D01*
X0135804Y0166744D01*
X0135704Y0166812D01*
X0135606Y0166883D01*
X0135511Y0166957D01*
X0135418Y0167034D01*
X0135328Y0167115D01*
X0135240Y0167198D01*
X0135156Y0167284D01*
X0135074Y0167373D01*
X0134995Y0167464D01*
X0134920Y0167558D01*
X0134847Y0167655D01*
X0134778Y0167753D01*
X0134712Y0167854D01*
X0134649Y0167958D01*
X0134590Y0168063D01*
X0134534Y0168170D01*
X0134482Y0168279D01*
X0134434Y0168389D01*
X0134389Y0168501D01*
X0134348Y0168615D01*
X0134310Y0168730D01*
X0134277Y0168846D01*
X0134247Y0168963D01*
X0134222Y0169081D01*
X0134200Y0169199D01*
X0134182Y0169319D01*
X0134168Y0169438D01*
X0134158Y0169559D01*
X0134152Y0169679D01*
X0134150Y0169800D01*
X0033394Y0208800D02*
X0033396Y0208953D01*
X0033402Y0209107D01*
X0033412Y0209260D01*
X0033426Y0209412D01*
X0033444Y0209565D01*
X0033466Y0209716D01*
X0033491Y0209867D01*
X0033521Y0210018D01*
X0033555Y0210168D01*
X0033592Y0210316D01*
X0033633Y0210464D01*
X0033678Y0210610D01*
X0033727Y0210756D01*
X0033780Y0210900D01*
X0033836Y0211042D01*
X0033896Y0211183D01*
X0033960Y0211323D01*
X0034027Y0211461D01*
X0034098Y0211597D01*
X0034173Y0211731D01*
X0034250Y0211863D01*
X0034332Y0211993D01*
X0034416Y0212121D01*
X0034504Y0212247D01*
X0034595Y0212370D01*
X0034689Y0212491D01*
X0034787Y0212609D01*
X0034887Y0212725D01*
X0034991Y0212838D01*
X0035097Y0212949D01*
X0035206Y0213057D01*
X0035318Y0213162D01*
X0035432Y0213263D01*
X0035550Y0213362D01*
X0035669Y0213458D01*
X0035791Y0213551D01*
X0035916Y0213640D01*
X0036043Y0213727D01*
X0036172Y0213809D01*
X0036303Y0213889D01*
X0036436Y0213965D01*
X0036571Y0214038D01*
X0036708Y0214107D01*
X0036847Y0214172D01*
X0036987Y0214234D01*
X0037129Y0214292D01*
X0037272Y0214347D01*
X0037417Y0214398D01*
X0037563Y0214445D01*
X0037710Y0214488D01*
X0037858Y0214527D01*
X0038007Y0214563D01*
X0038157Y0214594D01*
X0038308Y0214622D01*
X0038459Y0214646D01*
X0038612Y0214666D01*
X0038764Y0214682D01*
X0038917Y0214694D01*
X0039070Y0214702D01*
X0039223Y0214706D01*
X0039377Y0214706D01*
X0039530Y0214702D01*
X0039683Y0214694D01*
X0039836Y0214682D01*
X0039988Y0214666D01*
X0040141Y0214646D01*
X0040292Y0214622D01*
X0040443Y0214594D01*
X0040593Y0214563D01*
X0040742Y0214527D01*
X0040890Y0214488D01*
X0041037Y0214445D01*
X0041183Y0214398D01*
X0041328Y0214347D01*
X0041471Y0214292D01*
X0041613Y0214234D01*
X0041753Y0214172D01*
X0041892Y0214107D01*
X0042029Y0214038D01*
X0042164Y0213965D01*
X0042297Y0213889D01*
X0042428Y0213809D01*
X0042557Y0213727D01*
X0042684Y0213640D01*
X0042809Y0213551D01*
X0042931Y0213458D01*
X0043050Y0213362D01*
X0043168Y0213263D01*
X0043282Y0213162D01*
X0043394Y0213057D01*
X0043503Y0212949D01*
X0043609Y0212838D01*
X0043713Y0212725D01*
X0043813Y0212609D01*
X0043911Y0212491D01*
X0044005Y0212370D01*
X0044096Y0212247D01*
X0044184Y0212121D01*
X0044268Y0211993D01*
X0044350Y0211863D01*
X0044427Y0211731D01*
X0044502Y0211597D01*
X0044573Y0211461D01*
X0044640Y0211323D01*
X0044704Y0211183D01*
X0044764Y0211042D01*
X0044820Y0210900D01*
X0044873Y0210756D01*
X0044922Y0210610D01*
X0044967Y0210464D01*
X0045008Y0210316D01*
X0045045Y0210168D01*
X0045079Y0210018D01*
X0045109Y0209867D01*
X0045134Y0209716D01*
X0045156Y0209565D01*
X0045174Y0209412D01*
X0045188Y0209260D01*
X0045198Y0209107D01*
X0045204Y0208953D01*
X0045206Y0208800D01*
X0045204Y0208647D01*
X0045198Y0208493D01*
X0045188Y0208340D01*
X0045174Y0208188D01*
X0045156Y0208035D01*
X0045134Y0207884D01*
X0045109Y0207733D01*
X0045079Y0207582D01*
X0045045Y0207432D01*
X0045008Y0207284D01*
X0044967Y0207136D01*
X0044922Y0206990D01*
X0044873Y0206844D01*
X0044820Y0206700D01*
X0044764Y0206558D01*
X0044704Y0206417D01*
X0044640Y0206277D01*
X0044573Y0206139D01*
X0044502Y0206003D01*
X0044427Y0205869D01*
X0044350Y0205737D01*
X0044268Y0205607D01*
X0044184Y0205479D01*
X0044096Y0205353D01*
X0044005Y0205230D01*
X0043911Y0205109D01*
X0043813Y0204991D01*
X0043713Y0204875D01*
X0043609Y0204762D01*
X0043503Y0204651D01*
X0043394Y0204543D01*
X0043282Y0204438D01*
X0043168Y0204337D01*
X0043050Y0204238D01*
X0042931Y0204142D01*
X0042809Y0204049D01*
X0042684Y0203960D01*
X0042557Y0203873D01*
X0042428Y0203791D01*
X0042297Y0203711D01*
X0042164Y0203635D01*
X0042029Y0203562D01*
X0041892Y0203493D01*
X0041753Y0203428D01*
X0041613Y0203366D01*
X0041471Y0203308D01*
X0041328Y0203253D01*
X0041183Y0203202D01*
X0041037Y0203155D01*
X0040890Y0203112D01*
X0040742Y0203073D01*
X0040593Y0203037D01*
X0040443Y0203006D01*
X0040292Y0202978D01*
X0040141Y0202954D01*
X0039988Y0202934D01*
X0039836Y0202918D01*
X0039683Y0202906D01*
X0039530Y0202898D01*
X0039377Y0202894D01*
X0039223Y0202894D01*
X0039070Y0202898D01*
X0038917Y0202906D01*
X0038764Y0202918D01*
X0038612Y0202934D01*
X0038459Y0202954D01*
X0038308Y0202978D01*
X0038157Y0203006D01*
X0038007Y0203037D01*
X0037858Y0203073D01*
X0037710Y0203112D01*
X0037563Y0203155D01*
X0037417Y0203202D01*
X0037272Y0203253D01*
X0037129Y0203308D01*
X0036987Y0203366D01*
X0036847Y0203428D01*
X0036708Y0203493D01*
X0036571Y0203562D01*
X0036436Y0203635D01*
X0036303Y0203711D01*
X0036172Y0203791D01*
X0036043Y0203873D01*
X0035916Y0203960D01*
X0035791Y0204049D01*
X0035669Y0204142D01*
X0035550Y0204238D01*
X0035432Y0204337D01*
X0035318Y0204438D01*
X0035206Y0204543D01*
X0035097Y0204651D01*
X0034991Y0204762D01*
X0034887Y0204875D01*
X0034787Y0204991D01*
X0034689Y0205109D01*
X0034595Y0205230D01*
X0034504Y0205353D01*
X0034416Y0205479D01*
X0034332Y0205607D01*
X0034250Y0205737D01*
X0034173Y0205869D01*
X0034098Y0206003D01*
X0034027Y0206139D01*
X0033960Y0206277D01*
X0033896Y0206417D01*
X0033836Y0206558D01*
X0033780Y0206700D01*
X0033727Y0206844D01*
X0033678Y0206990D01*
X0033633Y0207136D01*
X0033592Y0207284D01*
X0033555Y0207432D01*
X0033521Y0207582D01*
X0033491Y0207733D01*
X0033466Y0207884D01*
X0033444Y0208035D01*
X0033426Y0208188D01*
X0033412Y0208340D01*
X0033402Y0208493D01*
X0033396Y0208647D01*
X0033394Y0208800D01*
X0236650Y0169800D02*
X0236652Y0169921D01*
X0236658Y0170041D01*
X0236668Y0170162D01*
X0236682Y0170281D01*
X0236700Y0170401D01*
X0236722Y0170519D01*
X0236747Y0170637D01*
X0236777Y0170754D01*
X0236810Y0170870D01*
X0236848Y0170985D01*
X0236889Y0171099D01*
X0236934Y0171211D01*
X0236982Y0171321D01*
X0237034Y0171430D01*
X0237090Y0171537D01*
X0237149Y0171642D01*
X0237212Y0171746D01*
X0237278Y0171847D01*
X0237347Y0171945D01*
X0237420Y0172042D01*
X0237495Y0172136D01*
X0237574Y0172227D01*
X0237656Y0172316D01*
X0237740Y0172402D01*
X0237828Y0172485D01*
X0237918Y0172566D01*
X0238011Y0172643D01*
X0238106Y0172717D01*
X0238204Y0172788D01*
X0238304Y0172856D01*
X0238406Y0172920D01*
X0238510Y0172981D01*
X0238616Y0173038D01*
X0238724Y0173092D01*
X0238834Y0173143D01*
X0238945Y0173189D01*
X0239058Y0173232D01*
X0239172Y0173271D01*
X0239287Y0173307D01*
X0239404Y0173338D01*
X0239521Y0173366D01*
X0239640Y0173390D01*
X0239759Y0173410D01*
X0239878Y0173426D01*
X0239999Y0173438D01*
X0240119Y0173446D01*
X0240240Y0173450D01*
X0240360Y0173450D01*
X0240481Y0173446D01*
X0240601Y0173438D01*
X0240722Y0173426D01*
X0240841Y0173410D01*
X0240960Y0173390D01*
X0241079Y0173366D01*
X0241196Y0173338D01*
X0241313Y0173307D01*
X0241428Y0173271D01*
X0241542Y0173232D01*
X0241655Y0173189D01*
X0241766Y0173143D01*
X0241876Y0173092D01*
X0241984Y0173038D01*
X0242090Y0172981D01*
X0242194Y0172920D01*
X0242296Y0172856D01*
X0242396Y0172788D01*
X0242494Y0172717D01*
X0242589Y0172643D01*
X0242682Y0172566D01*
X0242772Y0172485D01*
X0242860Y0172402D01*
X0242944Y0172316D01*
X0243026Y0172227D01*
X0243105Y0172136D01*
X0243180Y0172042D01*
X0243253Y0171945D01*
X0243322Y0171847D01*
X0243388Y0171746D01*
X0243451Y0171642D01*
X0243510Y0171537D01*
X0243566Y0171430D01*
X0243618Y0171321D01*
X0243666Y0171211D01*
X0243711Y0171099D01*
X0243752Y0170985D01*
X0243790Y0170870D01*
X0243823Y0170754D01*
X0243853Y0170637D01*
X0243878Y0170519D01*
X0243900Y0170401D01*
X0243918Y0170281D01*
X0243932Y0170162D01*
X0243942Y0170041D01*
X0243948Y0169921D01*
X0243950Y0169800D01*
X0243948Y0169679D01*
X0243942Y0169559D01*
X0243932Y0169438D01*
X0243918Y0169319D01*
X0243900Y0169199D01*
X0243878Y0169081D01*
X0243853Y0168963D01*
X0243823Y0168846D01*
X0243790Y0168730D01*
X0243752Y0168615D01*
X0243711Y0168501D01*
X0243666Y0168389D01*
X0243618Y0168279D01*
X0243566Y0168170D01*
X0243510Y0168063D01*
X0243451Y0167958D01*
X0243388Y0167854D01*
X0243322Y0167753D01*
X0243253Y0167655D01*
X0243180Y0167558D01*
X0243105Y0167464D01*
X0243026Y0167373D01*
X0242944Y0167284D01*
X0242860Y0167198D01*
X0242772Y0167115D01*
X0242682Y0167034D01*
X0242589Y0166957D01*
X0242494Y0166883D01*
X0242396Y0166812D01*
X0242296Y0166744D01*
X0242194Y0166680D01*
X0242090Y0166619D01*
X0241984Y0166562D01*
X0241876Y0166508D01*
X0241766Y0166457D01*
X0241655Y0166411D01*
X0241542Y0166368D01*
X0241428Y0166329D01*
X0241313Y0166293D01*
X0241196Y0166262D01*
X0241079Y0166234D01*
X0240960Y0166210D01*
X0240841Y0166190D01*
X0240722Y0166174D01*
X0240601Y0166162D01*
X0240481Y0166154D01*
X0240360Y0166150D01*
X0240240Y0166150D01*
X0240119Y0166154D01*
X0239999Y0166162D01*
X0239878Y0166174D01*
X0239759Y0166190D01*
X0239640Y0166210D01*
X0239521Y0166234D01*
X0239404Y0166262D01*
X0239287Y0166293D01*
X0239172Y0166329D01*
X0239058Y0166368D01*
X0238945Y0166411D01*
X0238834Y0166457D01*
X0238724Y0166508D01*
X0238616Y0166562D01*
X0238510Y0166619D01*
X0238406Y0166680D01*
X0238304Y0166744D01*
X0238204Y0166812D01*
X0238106Y0166883D01*
X0238011Y0166957D01*
X0237918Y0167034D01*
X0237828Y0167115D01*
X0237740Y0167198D01*
X0237656Y0167284D01*
X0237574Y0167373D01*
X0237495Y0167464D01*
X0237420Y0167558D01*
X0237347Y0167655D01*
X0237278Y0167753D01*
X0237212Y0167854D01*
X0237149Y0167958D01*
X0237090Y0168063D01*
X0237034Y0168170D01*
X0236982Y0168279D01*
X0236934Y0168389D01*
X0236889Y0168501D01*
X0236848Y0168615D01*
X0236810Y0168730D01*
X0236777Y0168846D01*
X0236747Y0168963D01*
X0236722Y0169081D01*
X0236700Y0169199D01*
X0236682Y0169319D01*
X0236668Y0169438D01*
X0236658Y0169559D01*
X0236652Y0169679D01*
X0236650Y0169800D01*
X0285894Y0208800D02*
X0285896Y0208953D01*
X0285902Y0209107D01*
X0285912Y0209260D01*
X0285926Y0209412D01*
X0285944Y0209565D01*
X0285966Y0209716D01*
X0285991Y0209867D01*
X0286021Y0210018D01*
X0286055Y0210168D01*
X0286092Y0210316D01*
X0286133Y0210464D01*
X0286178Y0210610D01*
X0286227Y0210756D01*
X0286280Y0210900D01*
X0286336Y0211042D01*
X0286396Y0211183D01*
X0286460Y0211323D01*
X0286527Y0211461D01*
X0286598Y0211597D01*
X0286673Y0211731D01*
X0286750Y0211863D01*
X0286832Y0211993D01*
X0286916Y0212121D01*
X0287004Y0212247D01*
X0287095Y0212370D01*
X0287189Y0212491D01*
X0287287Y0212609D01*
X0287387Y0212725D01*
X0287491Y0212838D01*
X0287597Y0212949D01*
X0287706Y0213057D01*
X0287818Y0213162D01*
X0287932Y0213263D01*
X0288050Y0213362D01*
X0288169Y0213458D01*
X0288291Y0213551D01*
X0288416Y0213640D01*
X0288543Y0213727D01*
X0288672Y0213809D01*
X0288803Y0213889D01*
X0288936Y0213965D01*
X0289071Y0214038D01*
X0289208Y0214107D01*
X0289347Y0214172D01*
X0289487Y0214234D01*
X0289629Y0214292D01*
X0289772Y0214347D01*
X0289917Y0214398D01*
X0290063Y0214445D01*
X0290210Y0214488D01*
X0290358Y0214527D01*
X0290507Y0214563D01*
X0290657Y0214594D01*
X0290808Y0214622D01*
X0290959Y0214646D01*
X0291112Y0214666D01*
X0291264Y0214682D01*
X0291417Y0214694D01*
X0291570Y0214702D01*
X0291723Y0214706D01*
X0291877Y0214706D01*
X0292030Y0214702D01*
X0292183Y0214694D01*
X0292336Y0214682D01*
X0292488Y0214666D01*
X0292641Y0214646D01*
X0292792Y0214622D01*
X0292943Y0214594D01*
X0293093Y0214563D01*
X0293242Y0214527D01*
X0293390Y0214488D01*
X0293537Y0214445D01*
X0293683Y0214398D01*
X0293828Y0214347D01*
X0293971Y0214292D01*
X0294113Y0214234D01*
X0294253Y0214172D01*
X0294392Y0214107D01*
X0294529Y0214038D01*
X0294664Y0213965D01*
X0294797Y0213889D01*
X0294928Y0213809D01*
X0295057Y0213727D01*
X0295184Y0213640D01*
X0295309Y0213551D01*
X0295431Y0213458D01*
X0295550Y0213362D01*
X0295668Y0213263D01*
X0295782Y0213162D01*
X0295894Y0213057D01*
X0296003Y0212949D01*
X0296109Y0212838D01*
X0296213Y0212725D01*
X0296313Y0212609D01*
X0296411Y0212491D01*
X0296505Y0212370D01*
X0296596Y0212247D01*
X0296684Y0212121D01*
X0296768Y0211993D01*
X0296850Y0211863D01*
X0296927Y0211731D01*
X0297002Y0211597D01*
X0297073Y0211461D01*
X0297140Y0211323D01*
X0297204Y0211183D01*
X0297264Y0211042D01*
X0297320Y0210900D01*
X0297373Y0210756D01*
X0297422Y0210610D01*
X0297467Y0210464D01*
X0297508Y0210316D01*
X0297545Y0210168D01*
X0297579Y0210018D01*
X0297609Y0209867D01*
X0297634Y0209716D01*
X0297656Y0209565D01*
X0297674Y0209412D01*
X0297688Y0209260D01*
X0297698Y0209107D01*
X0297704Y0208953D01*
X0297706Y0208800D01*
X0297704Y0208647D01*
X0297698Y0208493D01*
X0297688Y0208340D01*
X0297674Y0208188D01*
X0297656Y0208035D01*
X0297634Y0207884D01*
X0297609Y0207733D01*
X0297579Y0207582D01*
X0297545Y0207432D01*
X0297508Y0207284D01*
X0297467Y0207136D01*
X0297422Y0206990D01*
X0297373Y0206844D01*
X0297320Y0206700D01*
X0297264Y0206558D01*
X0297204Y0206417D01*
X0297140Y0206277D01*
X0297073Y0206139D01*
X0297002Y0206003D01*
X0296927Y0205869D01*
X0296850Y0205737D01*
X0296768Y0205607D01*
X0296684Y0205479D01*
X0296596Y0205353D01*
X0296505Y0205230D01*
X0296411Y0205109D01*
X0296313Y0204991D01*
X0296213Y0204875D01*
X0296109Y0204762D01*
X0296003Y0204651D01*
X0295894Y0204543D01*
X0295782Y0204438D01*
X0295668Y0204337D01*
X0295550Y0204238D01*
X0295431Y0204142D01*
X0295309Y0204049D01*
X0295184Y0203960D01*
X0295057Y0203873D01*
X0294928Y0203791D01*
X0294797Y0203711D01*
X0294664Y0203635D01*
X0294529Y0203562D01*
X0294392Y0203493D01*
X0294253Y0203428D01*
X0294113Y0203366D01*
X0293971Y0203308D01*
X0293828Y0203253D01*
X0293683Y0203202D01*
X0293537Y0203155D01*
X0293390Y0203112D01*
X0293242Y0203073D01*
X0293093Y0203037D01*
X0292943Y0203006D01*
X0292792Y0202978D01*
X0292641Y0202954D01*
X0292488Y0202934D01*
X0292336Y0202918D01*
X0292183Y0202906D01*
X0292030Y0202898D01*
X0291877Y0202894D01*
X0291723Y0202894D01*
X0291570Y0202898D01*
X0291417Y0202906D01*
X0291264Y0202918D01*
X0291112Y0202934D01*
X0290959Y0202954D01*
X0290808Y0202978D01*
X0290657Y0203006D01*
X0290507Y0203037D01*
X0290358Y0203073D01*
X0290210Y0203112D01*
X0290063Y0203155D01*
X0289917Y0203202D01*
X0289772Y0203253D01*
X0289629Y0203308D01*
X0289487Y0203366D01*
X0289347Y0203428D01*
X0289208Y0203493D01*
X0289071Y0203562D01*
X0288936Y0203635D01*
X0288803Y0203711D01*
X0288672Y0203791D01*
X0288543Y0203873D01*
X0288416Y0203960D01*
X0288291Y0204049D01*
X0288169Y0204142D01*
X0288050Y0204238D01*
X0287932Y0204337D01*
X0287818Y0204438D01*
X0287706Y0204543D01*
X0287597Y0204651D01*
X0287491Y0204762D01*
X0287387Y0204875D01*
X0287287Y0204991D01*
X0287189Y0205109D01*
X0287095Y0205230D01*
X0287004Y0205353D01*
X0286916Y0205479D01*
X0286832Y0205607D01*
X0286750Y0205737D01*
X0286673Y0205869D01*
X0286598Y0206003D01*
X0286527Y0206139D01*
X0286460Y0206277D01*
X0286396Y0206417D01*
X0286336Y0206558D01*
X0286280Y0206700D01*
X0286227Y0206844D01*
X0286178Y0206990D01*
X0286133Y0207136D01*
X0286092Y0207284D01*
X0286055Y0207432D01*
X0286021Y0207582D01*
X0285991Y0207733D01*
X0285966Y0207884D01*
X0285944Y0208035D01*
X0285926Y0208188D01*
X0285912Y0208340D01*
X0285902Y0208493D01*
X0285896Y0208647D01*
X0285894Y0208800D01*
D14*
X0052800Y0184800D03*
X0042800Y0184800D03*
X0042800Y0174800D03*
X0052800Y0174800D03*
X0052800Y0164800D03*
X0042800Y0164800D03*
X0042800Y0154800D03*
X0052800Y0154800D03*
X0052800Y0144800D03*
X0042800Y0144800D03*
D15*
X0111800Y0169800D02*
X0111808Y0170438D01*
X0111831Y0171076D01*
X0111870Y0171713D01*
X0111925Y0172348D01*
X0111996Y0172983D01*
X0112081Y0173615D01*
X0112183Y0174245D01*
X0112300Y0174872D01*
X0112432Y0175497D01*
X0112579Y0176117D01*
X0112742Y0176735D01*
X0112920Y0177347D01*
X0113112Y0177956D01*
X0113320Y0178559D01*
X0113542Y0179157D01*
X0113779Y0179750D01*
X0114031Y0180336D01*
X0114296Y0180916D01*
X0114576Y0181490D01*
X0114870Y0182056D01*
X0115178Y0182615D01*
X0115499Y0183167D01*
X0115834Y0183710D01*
X0116182Y0184245D01*
X0116543Y0184771D01*
X0116917Y0185288D01*
X0117303Y0185796D01*
X0117702Y0186294D01*
X0118113Y0186782D01*
X0118535Y0187261D01*
X0118970Y0187728D01*
X0119415Y0188185D01*
X0119872Y0188630D01*
X0120339Y0189065D01*
X0120818Y0189487D01*
X0121306Y0189898D01*
X0121804Y0190297D01*
X0122312Y0190683D01*
X0122829Y0191057D01*
X0123355Y0191418D01*
X0123890Y0191766D01*
X0124433Y0192101D01*
X0124985Y0192422D01*
X0125544Y0192730D01*
X0126110Y0193024D01*
X0126684Y0193304D01*
X0127264Y0193569D01*
X0127850Y0193821D01*
X0128443Y0194058D01*
X0129041Y0194280D01*
X0129644Y0194488D01*
X0130253Y0194680D01*
X0130865Y0194858D01*
X0131483Y0195021D01*
X0132103Y0195168D01*
X0132728Y0195300D01*
X0133355Y0195417D01*
X0133985Y0195519D01*
X0134617Y0195604D01*
X0135252Y0195675D01*
X0135887Y0195730D01*
X0136524Y0195769D01*
X0137162Y0195792D01*
X0137800Y0195800D01*
X0138438Y0195792D01*
X0139076Y0195769D01*
X0139713Y0195730D01*
X0140348Y0195675D01*
X0140983Y0195604D01*
X0141615Y0195519D01*
X0142245Y0195417D01*
X0142872Y0195300D01*
X0143497Y0195168D01*
X0144117Y0195021D01*
X0144735Y0194858D01*
X0145347Y0194680D01*
X0145956Y0194488D01*
X0146559Y0194280D01*
X0147157Y0194058D01*
X0147750Y0193821D01*
X0148336Y0193569D01*
X0148916Y0193304D01*
X0149490Y0193024D01*
X0150056Y0192730D01*
X0150615Y0192422D01*
X0151167Y0192101D01*
X0151710Y0191766D01*
X0152245Y0191418D01*
X0152771Y0191057D01*
X0153288Y0190683D01*
X0153796Y0190297D01*
X0154294Y0189898D01*
X0154782Y0189487D01*
X0155261Y0189065D01*
X0155728Y0188630D01*
X0156185Y0188185D01*
X0156630Y0187728D01*
X0157065Y0187261D01*
X0157487Y0186782D01*
X0157898Y0186294D01*
X0158297Y0185796D01*
X0158683Y0185288D01*
X0159057Y0184771D01*
X0159418Y0184245D01*
X0159766Y0183710D01*
X0160101Y0183167D01*
X0160422Y0182615D01*
X0160730Y0182056D01*
X0161024Y0181490D01*
X0161304Y0180916D01*
X0161569Y0180336D01*
X0161821Y0179750D01*
X0162058Y0179157D01*
X0162280Y0178559D01*
X0162488Y0177956D01*
X0162680Y0177347D01*
X0162858Y0176735D01*
X0163021Y0176117D01*
X0163168Y0175497D01*
X0163300Y0174872D01*
X0163417Y0174245D01*
X0163519Y0173615D01*
X0163604Y0172983D01*
X0163675Y0172348D01*
X0163730Y0171713D01*
X0163769Y0171076D01*
X0163792Y0170438D01*
X0163800Y0169800D01*
X0163792Y0169162D01*
X0163769Y0168524D01*
X0163730Y0167887D01*
X0163675Y0167252D01*
X0163604Y0166617D01*
X0163519Y0165985D01*
X0163417Y0165355D01*
X0163300Y0164728D01*
X0163168Y0164103D01*
X0163021Y0163483D01*
X0162858Y0162865D01*
X0162680Y0162253D01*
X0162488Y0161644D01*
X0162280Y0161041D01*
X0162058Y0160443D01*
X0161821Y0159850D01*
X0161569Y0159264D01*
X0161304Y0158684D01*
X0161024Y0158110D01*
X0160730Y0157544D01*
X0160422Y0156985D01*
X0160101Y0156433D01*
X0159766Y0155890D01*
X0159418Y0155355D01*
X0159057Y0154829D01*
X0158683Y0154312D01*
X0158297Y0153804D01*
X0157898Y0153306D01*
X0157487Y0152818D01*
X0157065Y0152339D01*
X0156630Y0151872D01*
X0156185Y0151415D01*
X0155728Y0150970D01*
X0155261Y0150535D01*
X0154782Y0150113D01*
X0154294Y0149702D01*
X0153796Y0149303D01*
X0153288Y0148917D01*
X0152771Y0148543D01*
X0152245Y0148182D01*
X0151710Y0147834D01*
X0151167Y0147499D01*
X0150615Y0147178D01*
X0150056Y0146870D01*
X0149490Y0146576D01*
X0148916Y0146296D01*
X0148336Y0146031D01*
X0147750Y0145779D01*
X0147157Y0145542D01*
X0146559Y0145320D01*
X0145956Y0145112D01*
X0145347Y0144920D01*
X0144735Y0144742D01*
X0144117Y0144579D01*
X0143497Y0144432D01*
X0142872Y0144300D01*
X0142245Y0144183D01*
X0141615Y0144081D01*
X0140983Y0143996D01*
X0140348Y0143925D01*
X0139713Y0143870D01*
X0139076Y0143831D01*
X0138438Y0143808D01*
X0137800Y0143800D01*
X0137162Y0143808D01*
X0136524Y0143831D01*
X0135887Y0143870D01*
X0135252Y0143925D01*
X0134617Y0143996D01*
X0133985Y0144081D01*
X0133355Y0144183D01*
X0132728Y0144300D01*
X0132103Y0144432D01*
X0131483Y0144579D01*
X0130865Y0144742D01*
X0130253Y0144920D01*
X0129644Y0145112D01*
X0129041Y0145320D01*
X0128443Y0145542D01*
X0127850Y0145779D01*
X0127264Y0146031D01*
X0126684Y0146296D01*
X0126110Y0146576D01*
X0125544Y0146870D01*
X0124985Y0147178D01*
X0124433Y0147499D01*
X0123890Y0147834D01*
X0123355Y0148182D01*
X0122829Y0148543D01*
X0122312Y0148917D01*
X0121804Y0149303D01*
X0121306Y0149702D01*
X0120818Y0150113D01*
X0120339Y0150535D01*
X0119872Y0150970D01*
X0119415Y0151415D01*
X0118970Y0151872D01*
X0118535Y0152339D01*
X0118113Y0152818D01*
X0117702Y0153306D01*
X0117303Y0153804D01*
X0116917Y0154312D01*
X0116543Y0154829D01*
X0116182Y0155355D01*
X0115834Y0155890D01*
X0115499Y0156433D01*
X0115178Y0156985D01*
X0114870Y0157544D01*
X0114576Y0158110D01*
X0114296Y0158684D01*
X0114031Y0159264D01*
X0113779Y0159850D01*
X0113542Y0160443D01*
X0113320Y0161041D01*
X0113112Y0161644D01*
X0112920Y0162253D01*
X0112742Y0162865D01*
X0112579Y0163483D01*
X0112432Y0164103D01*
X0112300Y0164728D01*
X0112183Y0165355D01*
X0112081Y0165985D01*
X0111996Y0166617D01*
X0111925Y0167252D01*
X0111870Y0167887D01*
X0111831Y0168524D01*
X0111808Y0169162D01*
X0111800Y0169800D01*
X0111800Y0082300D02*
X0111808Y0082938D01*
X0111831Y0083576D01*
X0111870Y0084213D01*
X0111925Y0084848D01*
X0111996Y0085483D01*
X0112081Y0086115D01*
X0112183Y0086745D01*
X0112300Y0087372D01*
X0112432Y0087997D01*
X0112579Y0088617D01*
X0112742Y0089235D01*
X0112920Y0089847D01*
X0113112Y0090456D01*
X0113320Y0091059D01*
X0113542Y0091657D01*
X0113779Y0092250D01*
X0114031Y0092836D01*
X0114296Y0093416D01*
X0114576Y0093990D01*
X0114870Y0094556D01*
X0115178Y0095115D01*
X0115499Y0095667D01*
X0115834Y0096210D01*
X0116182Y0096745D01*
X0116543Y0097271D01*
X0116917Y0097788D01*
X0117303Y0098296D01*
X0117702Y0098794D01*
X0118113Y0099282D01*
X0118535Y0099761D01*
X0118970Y0100228D01*
X0119415Y0100685D01*
X0119872Y0101130D01*
X0120339Y0101565D01*
X0120818Y0101987D01*
X0121306Y0102398D01*
X0121804Y0102797D01*
X0122312Y0103183D01*
X0122829Y0103557D01*
X0123355Y0103918D01*
X0123890Y0104266D01*
X0124433Y0104601D01*
X0124985Y0104922D01*
X0125544Y0105230D01*
X0126110Y0105524D01*
X0126684Y0105804D01*
X0127264Y0106069D01*
X0127850Y0106321D01*
X0128443Y0106558D01*
X0129041Y0106780D01*
X0129644Y0106988D01*
X0130253Y0107180D01*
X0130865Y0107358D01*
X0131483Y0107521D01*
X0132103Y0107668D01*
X0132728Y0107800D01*
X0133355Y0107917D01*
X0133985Y0108019D01*
X0134617Y0108104D01*
X0135252Y0108175D01*
X0135887Y0108230D01*
X0136524Y0108269D01*
X0137162Y0108292D01*
X0137800Y0108300D01*
X0138438Y0108292D01*
X0139076Y0108269D01*
X0139713Y0108230D01*
X0140348Y0108175D01*
X0140983Y0108104D01*
X0141615Y0108019D01*
X0142245Y0107917D01*
X0142872Y0107800D01*
X0143497Y0107668D01*
X0144117Y0107521D01*
X0144735Y0107358D01*
X0145347Y0107180D01*
X0145956Y0106988D01*
X0146559Y0106780D01*
X0147157Y0106558D01*
X0147750Y0106321D01*
X0148336Y0106069D01*
X0148916Y0105804D01*
X0149490Y0105524D01*
X0150056Y0105230D01*
X0150615Y0104922D01*
X0151167Y0104601D01*
X0151710Y0104266D01*
X0152245Y0103918D01*
X0152771Y0103557D01*
X0153288Y0103183D01*
X0153796Y0102797D01*
X0154294Y0102398D01*
X0154782Y0101987D01*
X0155261Y0101565D01*
X0155728Y0101130D01*
X0156185Y0100685D01*
X0156630Y0100228D01*
X0157065Y0099761D01*
X0157487Y0099282D01*
X0157898Y0098794D01*
X0158297Y0098296D01*
X0158683Y0097788D01*
X0159057Y0097271D01*
X0159418Y0096745D01*
X0159766Y0096210D01*
X0160101Y0095667D01*
X0160422Y0095115D01*
X0160730Y0094556D01*
X0161024Y0093990D01*
X0161304Y0093416D01*
X0161569Y0092836D01*
X0161821Y0092250D01*
X0162058Y0091657D01*
X0162280Y0091059D01*
X0162488Y0090456D01*
X0162680Y0089847D01*
X0162858Y0089235D01*
X0163021Y0088617D01*
X0163168Y0087997D01*
X0163300Y0087372D01*
X0163417Y0086745D01*
X0163519Y0086115D01*
X0163604Y0085483D01*
X0163675Y0084848D01*
X0163730Y0084213D01*
X0163769Y0083576D01*
X0163792Y0082938D01*
X0163800Y0082300D01*
X0163792Y0081662D01*
X0163769Y0081024D01*
X0163730Y0080387D01*
X0163675Y0079752D01*
X0163604Y0079117D01*
X0163519Y0078485D01*
X0163417Y0077855D01*
X0163300Y0077228D01*
X0163168Y0076603D01*
X0163021Y0075983D01*
X0162858Y0075365D01*
X0162680Y0074753D01*
X0162488Y0074144D01*
X0162280Y0073541D01*
X0162058Y0072943D01*
X0161821Y0072350D01*
X0161569Y0071764D01*
X0161304Y0071184D01*
X0161024Y0070610D01*
X0160730Y0070044D01*
X0160422Y0069485D01*
X0160101Y0068933D01*
X0159766Y0068390D01*
X0159418Y0067855D01*
X0159057Y0067329D01*
X0158683Y0066812D01*
X0158297Y0066304D01*
X0157898Y0065806D01*
X0157487Y0065318D01*
X0157065Y0064839D01*
X0156630Y0064372D01*
X0156185Y0063915D01*
X0155728Y0063470D01*
X0155261Y0063035D01*
X0154782Y0062613D01*
X0154294Y0062202D01*
X0153796Y0061803D01*
X0153288Y0061417D01*
X0152771Y0061043D01*
X0152245Y0060682D01*
X0151710Y0060334D01*
X0151167Y0059999D01*
X0150615Y0059678D01*
X0150056Y0059370D01*
X0149490Y0059076D01*
X0148916Y0058796D01*
X0148336Y0058531D01*
X0147750Y0058279D01*
X0147157Y0058042D01*
X0146559Y0057820D01*
X0145956Y0057612D01*
X0145347Y0057420D01*
X0144735Y0057242D01*
X0144117Y0057079D01*
X0143497Y0056932D01*
X0142872Y0056800D01*
X0142245Y0056683D01*
X0141615Y0056581D01*
X0140983Y0056496D01*
X0140348Y0056425D01*
X0139713Y0056370D01*
X0139076Y0056331D01*
X0138438Y0056308D01*
X0137800Y0056300D01*
X0137162Y0056308D01*
X0136524Y0056331D01*
X0135887Y0056370D01*
X0135252Y0056425D01*
X0134617Y0056496D01*
X0133985Y0056581D01*
X0133355Y0056683D01*
X0132728Y0056800D01*
X0132103Y0056932D01*
X0131483Y0057079D01*
X0130865Y0057242D01*
X0130253Y0057420D01*
X0129644Y0057612D01*
X0129041Y0057820D01*
X0128443Y0058042D01*
X0127850Y0058279D01*
X0127264Y0058531D01*
X0126684Y0058796D01*
X0126110Y0059076D01*
X0125544Y0059370D01*
X0124985Y0059678D01*
X0124433Y0059999D01*
X0123890Y0060334D01*
X0123355Y0060682D01*
X0122829Y0061043D01*
X0122312Y0061417D01*
X0121804Y0061803D01*
X0121306Y0062202D01*
X0120818Y0062613D01*
X0120339Y0063035D01*
X0119872Y0063470D01*
X0119415Y0063915D01*
X0118970Y0064372D01*
X0118535Y0064839D01*
X0118113Y0065318D01*
X0117702Y0065806D01*
X0117303Y0066304D01*
X0116917Y0066812D01*
X0116543Y0067329D01*
X0116182Y0067855D01*
X0115834Y0068390D01*
X0115499Y0068933D01*
X0115178Y0069485D01*
X0114870Y0070044D01*
X0114576Y0070610D01*
X0114296Y0071184D01*
X0114031Y0071764D01*
X0113779Y0072350D01*
X0113542Y0072943D01*
X0113320Y0073541D01*
X0113112Y0074144D01*
X0112920Y0074753D01*
X0112742Y0075365D01*
X0112579Y0075983D01*
X0112432Y0076603D01*
X0112300Y0077228D01*
X0112183Y0077855D01*
X0112081Y0078485D01*
X0111996Y0079117D01*
X0111925Y0079752D01*
X0111870Y0080387D01*
X0111831Y0081024D01*
X0111808Y0081662D01*
X0111800Y0082300D01*
X0214300Y0082300D02*
X0214308Y0082938D01*
X0214331Y0083576D01*
X0214370Y0084213D01*
X0214425Y0084848D01*
X0214496Y0085483D01*
X0214581Y0086115D01*
X0214683Y0086745D01*
X0214800Y0087372D01*
X0214932Y0087997D01*
X0215079Y0088617D01*
X0215242Y0089235D01*
X0215420Y0089847D01*
X0215612Y0090456D01*
X0215820Y0091059D01*
X0216042Y0091657D01*
X0216279Y0092250D01*
X0216531Y0092836D01*
X0216796Y0093416D01*
X0217076Y0093990D01*
X0217370Y0094556D01*
X0217678Y0095115D01*
X0217999Y0095667D01*
X0218334Y0096210D01*
X0218682Y0096745D01*
X0219043Y0097271D01*
X0219417Y0097788D01*
X0219803Y0098296D01*
X0220202Y0098794D01*
X0220613Y0099282D01*
X0221035Y0099761D01*
X0221470Y0100228D01*
X0221915Y0100685D01*
X0222372Y0101130D01*
X0222839Y0101565D01*
X0223318Y0101987D01*
X0223806Y0102398D01*
X0224304Y0102797D01*
X0224812Y0103183D01*
X0225329Y0103557D01*
X0225855Y0103918D01*
X0226390Y0104266D01*
X0226933Y0104601D01*
X0227485Y0104922D01*
X0228044Y0105230D01*
X0228610Y0105524D01*
X0229184Y0105804D01*
X0229764Y0106069D01*
X0230350Y0106321D01*
X0230943Y0106558D01*
X0231541Y0106780D01*
X0232144Y0106988D01*
X0232753Y0107180D01*
X0233365Y0107358D01*
X0233983Y0107521D01*
X0234603Y0107668D01*
X0235228Y0107800D01*
X0235855Y0107917D01*
X0236485Y0108019D01*
X0237117Y0108104D01*
X0237752Y0108175D01*
X0238387Y0108230D01*
X0239024Y0108269D01*
X0239662Y0108292D01*
X0240300Y0108300D01*
X0240938Y0108292D01*
X0241576Y0108269D01*
X0242213Y0108230D01*
X0242848Y0108175D01*
X0243483Y0108104D01*
X0244115Y0108019D01*
X0244745Y0107917D01*
X0245372Y0107800D01*
X0245997Y0107668D01*
X0246617Y0107521D01*
X0247235Y0107358D01*
X0247847Y0107180D01*
X0248456Y0106988D01*
X0249059Y0106780D01*
X0249657Y0106558D01*
X0250250Y0106321D01*
X0250836Y0106069D01*
X0251416Y0105804D01*
X0251990Y0105524D01*
X0252556Y0105230D01*
X0253115Y0104922D01*
X0253667Y0104601D01*
X0254210Y0104266D01*
X0254745Y0103918D01*
X0255271Y0103557D01*
X0255788Y0103183D01*
X0256296Y0102797D01*
X0256794Y0102398D01*
X0257282Y0101987D01*
X0257761Y0101565D01*
X0258228Y0101130D01*
X0258685Y0100685D01*
X0259130Y0100228D01*
X0259565Y0099761D01*
X0259987Y0099282D01*
X0260398Y0098794D01*
X0260797Y0098296D01*
X0261183Y0097788D01*
X0261557Y0097271D01*
X0261918Y0096745D01*
X0262266Y0096210D01*
X0262601Y0095667D01*
X0262922Y0095115D01*
X0263230Y0094556D01*
X0263524Y0093990D01*
X0263804Y0093416D01*
X0264069Y0092836D01*
X0264321Y0092250D01*
X0264558Y0091657D01*
X0264780Y0091059D01*
X0264988Y0090456D01*
X0265180Y0089847D01*
X0265358Y0089235D01*
X0265521Y0088617D01*
X0265668Y0087997D01*
X0265800Y0087372D01*
X0265917Y0086745D01*
X0266019Y0086115D01*
X0266104Y0085483D01*
X0266175Y0084848D01*
X0266230Y0084213D01*
X0266269Y0083576D01*
X0266292Y0082938D01*
X0266300Y0082300D01*
X0266292Y0081662D01*
X0266269Y0081024D01*
X0266230Y0080387D01*
X0266175Y0079752D01*
X0266104Y0079117D01*
X0266019Y0078485D01*
X0265917Y0077855D01*
X0265800Y0077228D01*
X0265668Y0076603D01*
X0265521Y0075983D01*
X0265358Y0075365D01*
X0265180Y0074753D01*
X0264988Y0074144D01*
X0264780Y0073541D01*
X0264558Y0072943D01*
X0264321Y0072350D01*
X0264069Y0071764D01*
X0263804Y0071184D01*
X0263524Y0070610D01*
X0263230Y0070044D01*
X0262922Y0069485D01*
X0262601Y0068933D01*
X0262266Y0068390D01*
X0261918Y0067855D01*
X0261557Y0067329D01*
X0261183Y0066812D01*
X0260797Y0066304D01*
X0260398Y0065806D01*
X0259987Y0065318D01*
X0259565Y0064839D01*
X0259130Y0064372D01*
X0258685Y0063915D01*
X0258228Y0063470D01*
X0257761Y0063035D01*
X0257282Y0062613D01*
X0256794Y0062202D01*
X0256296Y0061803D01*
X0255788Y0061417D01*
X0255271Y0061043D01*
X0254745Y0060682D01*
X0254210Y0060334D01*
X0253667Y0059999D01*
X0253115Y0059678D01*
X0252556Y0059370D01*
X0251990Y0059076D01*
X0251416Y0058796D01*
X0250836Y0058531D01*
X0250250Y0058279D01*
X0249657Y0058042D01*
X0249059Y0057820D01*
X0248456Y0057612D01*
X0247847Y0057420D01*
X0247235Y0057242D01*
X0246617Y0057079D01*
X0245997Y0056932D01*
X0245372Y0056800D01*
X0244745Y0056683D01*
X0244115Y0056581D01*
X0243483Y0056496D01*
X0242848Y0056425D01*
X0242213Y0056370D01*
X0241576Y0056331D01*
X0240938Y0056308D01*
X0240300Y0056300D01*
X0239662Y0056308D01*
X0239024Y0056331D01*
X0238387Y0056370D01*
X0237752Y0056425D01*
X0237117Y0056496D01*
X0236485Y0056581D01*
X0235855Y0056683D01*
X0235228Y0056800D01*
X0234603Y0056932D01*
X0233983Y0057079D01*
X0233365Y0057242D01*
X0232753Y0057420D01*
X0232144Y0057612D01*
X0231541Y0057820D01*
X0230943Y0058042D01*
X0230350Y0058279D01*
X0229764Y0058531D01*
X0229184Y0058796D01*
X0228610Y0059076D01*
X0228044Y0059370D01*
X0227485Y0059678D01*
X0226933Y0059999D01*
X0226390Y0060334D01*
X0225855Y0060682D01*
X0225329Y0061043D01*
X0224812Y0061417D01*
X0224304Y0061803D01*
X0223806Y0062202D01*
X0223318Y0062613D01*
X0222839Y0063035D01*
X0222372Y0063470D01*
X0221915Y0063915D01*
X0221470Y0064372D01*
X0221035Y0064839D01*
X0220613Y0065318D01*
X0220202Y0065806D01*
X0219803Y0066304D01*
X0219417Y0066812D01*
X0219043Y0067329D01*
X0218682Y0067855D01*
X0218334Y0068390D01*
X0217999Y0068933D01*
X0217678Y0069485D01*
X0217370Y0070044D01*
X0217076Y0070610D01*
X0216796Y0071184D01*
X0216531Y0071764D01*
X0216279Y0072350D01*
X0216042Y0072943D01*
X0215820Y0073541D01*
X0215612Y0074144D01*
X0215420Y0074753D01*
X0215242Y0075365D01*
X0215079Y0075983D01*
X0214932Y0076603D01*
X0214800Y0077228D01*
X0214683Y0077855D01*
X0214581Y0078485D01*
X0214496Y0079117D01*
X0214425Y0079752D01*
X0214370Y0080387D01*
X0214331Y0081024D01*
X0214308Y0081662D01*
X0214300Y0082300D01*
X0214300Y0169800D02*
X0214308Y0170438D01*
X0214331Y0171076D01*
X0214370Y0171713D01*
X0214425Y0172348D01*
X0214496Y0172983D01*
X0214581Y0173615D01*
X0214683Y0174245D01*
X0214800Y0174872D01*
X0214932Y0175497D01*
X0215079Y0176117D01*
X0215242Y0176735D01*
X0215420Y0177347D01*
X0215612Y0177956D01*
X0215820Y0178559D01*
X0216042Y0179157D01*
X0216279Y0179750D01*
X0216531Y0180336D01*
X0216796Y0180916D01*
X0217076Y0181490D01*
X0217370Y0182056D01*
X0217678Y0182615D01*
X0217999Y0183167D01*
X0218334Y0183710D01*
X0218682Y0184245D01*
X0219043Y0184771D01*
X0219417Y0185288D01*
X0219803Y0185796D01*
X0220202Y0186294D01*
X0220613Y0186782D01*
X0221035Y0187261D01*
X0221470Y0187728D01*
X0221915Y0188185D01*
X0222372Y0188630D01*
X0222839Y0189065D01*
X0223318Y0189487D01*
X0223806Y0189898D01*
X0224304Y0190297D01*
X0224812Y0190683D01*
X0225329Y0191057D01*
X0225855Y0191418D01*
X0226390Y0191766D01*
X0226933Y0192101D01*
X0227485Y0192422D01*
X0228044Y0192730D01*
X0228610Y0193024D01*
X0229184Y0193304D01*
X0229764Y0193569D01*
X0230350Y0193821D01*
X0230943Y0194058D01*
X0231541Y0194280D01*
X0232144Y0194488D01*
X0232753Y0194680D01*
X0233365Y0194858D01*
X0233983Y0195021D01*
X0234603Y0195168D01*
X0235228Y0195300D01*
X0235855Y0195417D01*
X0236485Y0195519D01*
X0237117Y0195604D01*
X0237752Y0195675D01*
X0238387Y0195730D01*
X0239024Y0195769D01*
X0239662Y0195792D01*
X0240300Y0195800D01*
X0240938Y0195792D01*
X0241576Y0195769D01*
X0242213Y0195730D01*
X0242848Y0195675D01*
X0243483Y0195604D01*
X0244115Y0195519D01*
X0244745Y0195417D01*
X0245372Y0195300D01*
X0245997Y0195168D01*
X0246617Y0195021D01*
X0247235Y0194858D01*
X0247847Y0194680D01*
X0248456Y0194488D01*
X0249059Y0194280D01*
X0249657Y0194058D01*
X0250250Y0193821D01*
X0250836Y0193569D01*
X0251416Y0193304D01*
X0251990Y0193024D01*
X0252556Y0192730D01*
X0253115Y0192422D01*
X0253667Y0192101D01*
X0254210Y0191766D01*
X0254745Y0191418D01*
X0255271Y0191057D01*
X0255788Y0190683D01*
X0256296Y0190297D01*
X0256794Y0189898D01*
X0257282Y0189487D01*
X0257761Y0189065D01*
X0258228Y0188630D01*
X0258685Y0188185D01*
X0259130Y0187728D01*
X0259565Y0187261D01*
X0259987Y0186782D01*
X0260398Y0186294D01*
X0260797Y0185796D01*
X0261183Y0185288D01*
X0261557Y0184771D01*
X0261918Y0184245D01*
X0262266Y0183710D01*
X0262601Y0183167D01*
X0262922Y0182615D01*
X0263230Y0182056D01*
X0263524Y0181490D01*
X0263804Y0180916D01*
X0264069Y0180336D01*
X0264321Y0179750D01*
X0264558Y0179157D01*
X0264780Y0178559D01*
X0264988Y0177956D01*
X0265180Y0177347D01*
X0265358Y0176735D01*
X0265521Y0176117D01*
X0265668Y0175497D01*
X0265800Y0174872D01*
X0265917Y0174245D01*
X0266019Y0173615D01*
X0266104Y0172983D01*
X0266175Y0172348D01*
X0266230Y0171713D01*
X0266269Y0171076D01*
X0266292Y0170438D01*
X0266300Y0169800D01*
X0266292Y0169162D01*
X0266269Y0168524D01*
X0266230Y0167887D01*
X0266175Y0167252D01*
X0266104Y0166617D01*
X0266019Y0165985D01*
X0265917Y0165355D01*
X0265800Y0164728D01*
X0265668Y0164103D01*
X0265521Y0163483D01*
X0265358Y0162865D01*
X0265180Y0162253D01*
X0264988Y0161644D01*
X0264780Y0161041D01*
X0264558Y0160443D01*
X0264321Y0159850D01*
X0264069Y0159264D01*
X0263804Y0158684D01*
X0263524Y0158110D01*
X0263230Y0157544D01*
X0262922Y0156985D01*
X0262601Y0156433D01*
X0262266Y0155890D01*
X0261918Y0155355D01*
X0261557Y0154829D01*
X0261183Y0154312D01*
X0260797Y0153804D01*
X0260398Y0153306D01*
X0259987Y0152818D01*
X0259565Y0152339D01*
X0259130Y0151872D01*
X0258685Y0151415D01*
X0258228Y0150970D01*
X0257761Y0150535D01*
X0257282Y0150113D01*
X0256794Y0149702D01*
X0256296Y0149303D01*
X0255788Y0148917D01*
X0255271Y0148543D01*
X0254745Y0148182D01*
X0254210Y0147834D01*
X0253667Y0147499D01*
X0253115Y0147178D01*
X0252556Y0146870D01*
X0251990Y0146576D01*
X0251416Y0146296D01*
X0250836Y0146031D01*
X0250250Y0145779D01*
X0249657Y0145542D01*
X0249059Y0145320D01*
X0248456Y0145112D01*
X0247847Y0144920D01*
X0247235Y0144742D01*
X0246617Y0144579D01*
X0245997Y0144432D01*
X0245372Y0144300D01*
X0244745Y0144183D01*
X0244115Y0144081D01*
X0243483Y0143996D01*
X0242848Y0143925D01*
X0242213Y0143870D01*
X0241576Y0143831D01*
X0240938Y0143808D01*
X0240300Y0143800D01*
X0239662Y0143808D01*
X0239024Y0143831D01*
X0238387Y0143870D01*
X0237752Y0143925D01*
X0237117Y0143996D01*
X0236485Y0144081D01*
X0235855Y0144183D01*
X0235228Y0144300D01*
X0234603Y0144432D01*
X0233983Y0144579D01*
X0233365Y0144742D01*
X0232753Y0144920D01*
X0232144Y0145112D01*
X0231541Y0145320D01*
X0230943Y0145542D01*
X0230350Y0145779D01*
X0229764Y0146031D01*
X0229184Y0146296D01*
X0228610Y0146576D01*
X0228044Y0146870D01*
X0227485Y0147178D01*
X0226933Y0147499D01*
X0226390Y0147834D01*
X0225855Y0148182D01*
X0225329Y0148543D01*
X0224812Y0148917D01*
X0224304Y0149303D01*
X0223806Y0149702D01*
X0223318Y0150113D01*
X0222839Y0150535D01*
X0222372Y0150970D01*
X0221915Y0151415D01*
X0221470Y0151872D01*
X0221035Y0152339D01*
X0220613Y0152818D01*
X0220202Y0153306D01*
X0219803Y0153804D01*
X0219417Y0154312D01*
X0219043Y0154829D01*
X0218682Y0155355D01*
X0218334Y0155890D01*
X0217999Y0156433D01*
X0217678Y0156985D01*
X0217370Y0157544D01*
X0217076Y0158110D01*
X0216796Y0158684D01*
X0216531Y0159264D01*
X0216279Y0159850D01*
X0216042Y0160443D01*
X0215820Y0161041D01*
X0215612Y0161644D01*
X0215420Y0162253D01*
X0215242Y0162865D01*
X0215079Y0163483D01*
X0214932Y0164103D01*
X0214800Y0164728D01*
X0214683Y0165355D01*
X0214581Y0165985D01*
X0214496Y0166617D01*
X0214425Y0167252D01*
X0214370Y0167887D01*
X0214331Y0168524D01*
X0214308Y0169162D01*
X0214300Y0169800D01*
D16*
X0209113Y0170606D02*
X0206110Y0170606D01*
X0207612Y0171827D02*
X0206110Y0173329D01*
X0209113Y0173329D01*
X0207612Y0173829D02*
X0207612Y0171827D01*
X0209113Y0170606D02*
X0206110Y0168604D01*
X0209113Y0168604D01*
X0209113Y0166383D02*
X0206110Y0166383D01*
X0206110Y0167383D02*
X0206110Y0165382D01*
X0206611Y0164161D02*
X0207111Y0164161D01*
X0207612Y0163660D01*
X0207612Y0162159D01*
X0209113Y0162159D02*
X0209113Y0163660D01*
X0208613Y0164161D01*
X0208112Y0164161D01*
X0207612Y0163660D01*
X0206611Y0164161D02*
X0206110Y0163660D01*
X0206110Y0162159D01*
X0209113Y0162159D01*
X0106613Y0164659D02*
X0106613Y0166160D01*
X0106113Y0166661D01*
X0105612Y0166661D01*
X0105112Y0166160D01*
X0105112Y0164659D01*
X0106613Y0164659D02*
X0103610Y0164659D01*
X0103610Y0166160D01*
X0104111Y0166661D01*
X0104611Y0166661D01*
X0105112Y0166160D01*
X0103610Y0167882D02*
X0103610Y0169883D01*
X0103610Y0168883D02*
X0106613Y0168883D01*
X0106613Y0171104D02*
X0103610Y0171104D01*
X0106613Y0173106D01*
X0103610Y0173106D01*
X0104111Y0174327D02*
X0103610Y0174828D01*
X0103610Y0175829D01*
X0104111Y0176329D01*
X0104611Y0176329D01*
X0106613Y0174327D01*
X0106613Y0176329D01*
X0106613Y0088829D02*
X0106613Y0086827D01*
X0106613Y0087828D02*
X0103610Y0087828D01*
X0104611Y0086827D01*
X0103610Y0085606D02*
X0106613Y0085606D01*
X0103610Y0083604D01*
X0106613Y0083604D01*
X0106613Y0081383D02*
X0103610Y0081383D01*
X0103610Y0082383D02*
X0103610Y0080382D01*
X0104111Y0079161D02*
X0104611Y0079161D01*
X0105112Y0078660D01*
X0105112Y0077159D01*
X0106613Y0077159D02*
X0106613Y0078660D01*
X0106113Y0079161D01*
X0105612Y0079161D01*
X0105112Y0078660D01*
X0104111Y0079161D02*
X0103610Y0078660D01*
X0103610Y0077159D01*
X0106613Y0077159D01*
X0204984Y0077550D02*
X0204984Y0079051D01*
X0205485Y0079552D01*
X0205985Y0079552D01*
X0206486Y0079051D01*
X0206486Y0077550D01*
X0207987Y0077550D02*
X0204984Y0077550D01*
X0206486Y0079051D02*
X0206986Y0079552D01*
X0207487Y0079552D01*
X0207987Y0079051D01*
X0207987Y0077550D01*
X0207987Y0081774D02*
X0204984Y0081774D01*
X0204984Y0082774D02*
X0204984Y0080773D01*
X0204984Y0083995D02*
X0207987Y0085997D01*
X0204984Y0085997D01*
X0205485Y0087218D02*
X0204984Y0087719D01*
X0204984Y0088720D01*
X0205485Y0089220D01*
X0205985Y0089220D01*
X0206486Y0088720D01*
X0206986Y0089220D01*
X0207487Y0089220D01*
X0207987Y0088720D01*
X0207987Y0087719D01*
X0207487Y0087218D01*
X0206486Y0088219D02*
X0206486Y0088720D01*
X0207987Y0083995D02*
X0204984Y0083995D01*
M02*
