G75*
%MOIN*%
%OFA0B0*%
%FSLAX25Y25*%
%IPPOS*%
%LPD*%
%AMOC8*
5,1,8,0,0,1.08239X$1,22.5*
%
%ADD10C,0.01000*%
%ADD11C,0.00000*%
%ADD12OC8,0.06600*%
%ADD13C,0.05000*%
%ADD14C,0.01600*%
%ADD15C,0.04400*%
D10*
X0028300Y0031800D02*
X0028300Y0219261D01*
X0302501Y0219261D01*
X0302501Y0031800D01*
X0028300Y0031800D01*
X0117230Y0074499D02*
X0116439Y0077035D01*
X0115960Y0079648D01*
X0115800Y0082300D01*
X0132800Y0082300D01*
X0132876Y0081432D01*
X0133102Y0080590D01*
X0133470Y0079800D01*
X0133970Y0079086D01*
X0134586Y0078470D01*
X0135300Y0077970D01*
X0136090Y0077602D01*
X0136932Y0077376D01*
X0137800Y0077300D01*
X0137800Y0060300D01*
X0135148Y0060460D01*
X0132535Y0060939D01*
X0129999Y0061730D01*
X0127576Y0062820D01*
X0125303Y0064194D01*
X0123211Y0065833D01*
X0121333Y0067711D01*
X0119694Y0069803D01*
X0118320Y0072076D01*
X0117230Y0074499D01*
X0117164Y0074711D02*
X0137800Y0074711D01*
X0158436Y0074711D01*
X0158370Y0074499D02*
X0157280Y0072076D01*
X0155906Y0069803D01*
X0154267Y0067711D01*
X0152389Y0065833D01*
X0150297Y0064194D01*
X0148024Y0062820D01*
X0145601Y0061730D01*
X0143065Y0060939D01*
X0140452Y0060460D01*
X0137800Y0060300D01*
X0137800Y0077300D01*
X0138668Y0077376D01*
X0139510Y0077602D01*
X0140300Y0077970D01*
X0141014Y0078470D01*
X0141630Y0079086D01*
X0142130Y0079800D01*
X0142498Y0080590D01*
X0142724Y0081432D01*
X0142800Y0082300D01*
X0159800Y0082300D01*
X0159640Y0079648D01*
X0159161Y0077035D01*
X0158370Y0074499D01*
X0158016Y0073712D02*
X0137800Y0073712D01*
X0117584Y0073712D01*
X0118033Y0072714D02*
X0137800Y0072714D01*
X0157567Y0072714D01*
X0157062Y0071715D02*
X0137800Y0071715D01*
X0118538Y0071715D01*
X0119142Y0070717D02*
X0137800Y0070717D01*
X0156458Y0070717D01*
X0155839Y0069718D02*
X0137800Y0069718D01*
X0119761Y0069718D01*
X0120543Y0068720D02*
X0137800Y0068720D01*
X0155057Y0068720D01*
X0154275Y0067721D02*
X0137800Y0067721D01*
X0121325Y0067721D01*
X0122321Y0066723D02*
X0137800Y0066723D01*
X0153279Y0066723D01*
X0152250Y0065724D02*
X0137800Y0065724D01*
X0123350Y0065724D01*
X0124625Y0064726D02*
X0137800Y0064726D01*
X0150975Y0064726D01*
X0149524Y0063727D02*
X0137800Y0063727D01*
X0126076Y0063727D01*
X0127779Y0062729D02*
X0137800Y0062729D01*
X0147821Y0062729D01*
X0145602Y0061730D02*
X0137800Y0061730D01*
X0129998Y0061730D01*
X0133669Y0060732D02*
X0137800Y0060732D01*
X0141931Y0060732D01*
X0137800Y0075709D02*
X0116852Y0075709D01*
X0116541Y0076708D02*
X0137800Y0076708D01*
X0159059Y0076708D01*
X0159284Y0077706D02*
X0139735Y0077706D01*
X0141249Y0078705D02*
X0159467Y0078705D01*
X0159643Y0079703D02*
X0142062Y0079703D01*
X0142528Y0080702D02*
X0159703Y0080702D01*
X0159764Y0081700D02*
X0142748Y0081700D01*
X0142800Y0082300D02*
X0142724Y0083168D01*
X0142498Y0084010D01*
X0142130Y0084800D01*
X0141630Y0085514D01*
X0141014Y0086130D01*
X0140300Y0086630D01*
X0139510Y0086998D01*
X0138668Y0087224D01*
X0137800Y0087300D01*
X0137800Y0104300D01*
X0135148Y0104140D01*
X0132535Y0103661D01*
X0129999Y0102870D01*
X0127576Y0101780D01*
X0125303Y0100406D01*
X0123211Y0098767D01*
X0121333Y0096889D01*
X0119694Y0094797D01*
X0118320Y0092524D01*
X0117230Y0090101D01*
X0116439Y0087565D01*
X0115960Y0084952D01*
X0115800Y0082300D01*
X0132800Y0082300D01*
X0132876Y0083168D01*
X0133102Y0084010D01*
X0133470Y0084800D01*
X0133970Y0085514D01*
X0134586Y0086130D01*
X0135300Y0086630D01*
X0136090Y0086998D01*
X0136932Y0087224D01*
X0137800Y0087300D01*
X0137800Y0104300D01*
X0140452Y0104140D01*
X0143065Y0103661D01*
X0145601Y0102870D01*
X0148024Y0101780D01*
X0150297Y0100406D01*
X0152389Y0098767D01*
X0154267Y0096889D01*
X0155906Y0094797D01*
X0157280Y0092524D01*
X0158370Y0090101D01*
X0159161Y0087565D01*
X0159640Y0084952D01*
X0159800Y0082300D01*
X0142800Y0082300D01*
X0142765Y0082699D02*
X0159776Y0082699D01*
X0159715Y0083697D02*
X0142582Y0083697D01*
X0142179Y0084696D02*
X0159655Y0084696D01*
X0159504Y0085694D02*
X0141450Y0085694D01*
X0140166Y0086693D02*
X0159321Y0086693D01*
X0159121Y0087691D02*
X0137800Y0087691D01*
X0116479Y0087691D01*
X0116279Y0086693D02*
X0135434Y0086693D01*
X0134150Y0085694D02*
X0116096Y0085694D01*
X0115945Y0084696D02*
X0133421Y0084696D01*
X0133018Y0083697D02*
X0115885Y0083697D01*
X0115824Y0082699D02*
X0132835Y0082699D01*
X0132852Y0081700D02*
X0115836Y0081700D01*
X0115897Y0080702D02*
X0133072Y0080702D01*
X0133538Y0079703D02*
X0115957Y0079703D01*
X0116133Y0078705D02*
X0134351Y0078705D01*
X0135865Y0077706D02*
X0116316Y0077706D01*
X0116790Y0088690D02*
X0137800Y0088690D01*
X0158810Y0088690D01*
X0158499Y0089688D02*
X0137800Y0089688D01*
X0117101Y0089688D01*
X0117493Y0090687D02*
X0137800Y0090687D01*
X0158107Y0090687D01*
X0157657Y0091685D02*
X0137800Y0091685D01*
X0117943Y0091685D01*
X0118417Y0092684D02*
X0137800Y0092684D01*
X0157183Y0092684D01*
X0156580Y0093682D02*
X0137800Y0093682D01*
X0119020Y0093682D01*
X0119624Y0094681D02*
X0137800Y0094681D01*
X0155976Y0094681D01*
X0155215Y0095679D02*
X0137800Y0095679D01*
X0120385Y0095679D01*
X0121168Y0096678D02*
X0137800Y0096678D01*
X0154432Y0096678D01*
X0153479Y0097676D02*
X0137800Y0097676D01*
X0122121Y0097676D01*
X0123119Y0098675D02*
X0137800Y0098675D01*
X0152481Y0098675D01*
X0151232Y0099673D02*
X0137800Y0099673D01*
X0124368Y0099673D01*
X0125743Y0100672D02*
X0137800Y0100672D01*
X0149857Y0100672D01*
X0148205Y0101670D02*
X0137800Y0101670D01*
X0127395Y0101670D01*
X0129551Y0102669D02*
X0137800Y0102669D01*
X0146049Y0102669D01*
X0143028Y0103668D02*
X0137800Y0103668D01*
X0132572Y0103668D01*
X0137800Y0075709D02*
X0158748Y0075709D01*
X0178300Y0109925D02*
X0157800Y0130425D01*
X0067175Y0130425D01*
X0057800Y0137300D02*
X0087800Y0167300D01*
X0076800Y0184800D02*
X0123800Y0137800D01*
X0180300Y0137800D01*
X0155346Y0156589D02*
X0137800Y0156589D01*
X0120254Y0156589D01*
X0119694Y0157303D02*
X0118320Y0159576D01*
X0117230Y0161999D01*
X0116439Y0164535D01*
X0115960Y0167148D01*
X0115800Y0169800D01*
X0132800Y0169800D01*
X0132876Y0170668D01*
X0133102Y0171510D01*
X0133470Y0172300D01*
X0133970Y0173014D01*
X0134586Y0173630D01*
X0135300Y0174130D01*
X0136090Y0174498D01*
X0136932Y0174724D01*
X0137800Y0174800D01*
X0137800Y0191800D01*
X0135148Y0191640D01*
X0132535Y0191161D01*
X0129999Y0190370D01*
X0127576Y0189280D01*
X0125303Y0187906D01*
X0123211Y0186267D01*
X0121333Y0184389D01*
X0119694Y0182297D01*
X0118320Y0180024D01*
X0117230Y0177601D01*
X0116439Y0175065D01*
X0115960Y0172452D01*
X0115800Y0169800D01*
X0132800Y0169800D01*
X0132876Y0168932D01*
X0133102Y0168090D01*
X0133470Y0167300D01*
X0133970Y0166586D01*
X0134586Y0165970D01*
X0135300Y0165470D01*
X0136090Y0165102D01*
X0136932Y0164876D01*
X0137800Y0164800D01*
X0137800Y0147800D01*
X0135148Y0147960D01*
X0132535Y0148439D01*
X0129999Y0149230D01*
X0127576Y0150320D01*
X0125303Y0151694D01*
X0123211Y0153333D01*
X0121333Y0155211D01*
X0119694Y0157303D01*
X0119522Y0157587D02*
X0137800Y0157587D01*
X0156078Y0157587D01*
X0155906Y0157303D02*
X0154267Y0155211D01*
X0152389Y0153333D01*
X0150297Y0151694D01*
X0148024Y0150320D01*
X0145601Y0149230D01*
X0143065Y0148439D01*
X0140452Y0147960D01*
X0137800Y0147800D01*
X0137800Y0164800D01*
X0138668Y0164876D01*
X0139510Y0165102D01*
X0140300Y0165470D01*
X0141014Y0165970D01*
X0141630Y0166586D01*
X0142130Y0167300D01*
X0142498Y0168090D01*
X0142724Y0168932D01*
X0142800Y0169800D01*
X0159800Y0169800D01*
X0159640Y0172452D01*
X0159161Y0175065D01*
X0158370Y0177601D01*
X0157280Y0180024D01*
X0155906Y0182297D01*
X0154267Y0184389D01*
X0152389Y0186267D01*
X0150297Y0187906D01*
X0148024Y0189280D01*
X0145601Y0190370D01*
X0143065Y0191161D01*
X0140452Y0191640D01*
X0137800Y0191800D01*
X0137800Y0174800D01*
X0138668Y0174724D01*
X0139510Y0174498D01*
X0140300Y0174130D01*
X0141014Y0173630D01*
X0141630Y0173014D01*
X0142130Y0172300D01*
X0142498Y0171510D01*
X0142724Y0170668D01*
X0142800Y0169800D01*
X0159800Y0169800D01*
X0159640Y0167148D01*
X0159161Y0164535D01*
X0158370Y0161999D01*
X0157280Y0159576D01*
X0155906Y0157303D01*
X0156681Y0158586D02*
X0137800Y0158586D01*
X0118919Y0158586D01*
X0118316Y0159584D02*
X0137800Y0159584D01*
X0157284Y0159584D01*
X0157733Y0160583D02*
X0137800Y0160583D01*
X0117867Y0160583D01*
X0117418Y0161581D02*
X0137800Y0161581D01*
X0158182Y0161581D01*
X0158551Y0162580D02*
X0137800Y0162580D01*
X0117049Y0162580D01*
X0116737Y0163578D02*
X0137800Y0163578D01*
X0158863Y0163578D01*
X0159168Y0164577D02*
X0137800Y0164577D01*
X0116432Y0164577D01*
X0116249Y0165575D02*
X0135150Y0165575D01*
X0133982Y0166574D02*
X0116066Y0166574D01*
X0115935Y0167572D02*
X0133343Y0167572D01*
X0132973Y0168571D02*
X0115874Y0168571D01*
X0115814Y0169569D02*
X0132820Y0169569D01*
X0132867Y0170568D02*
X0115846Y0170568D01*
X0115907Y0171566D02*
X0133128Y0171566D01*
X0133655Y0172565D02*
X0115981Y0172565D01*
X0116164Y0173563D02*
X0134519Y0173563D01*
X0136326Y0174562D02*
X0116347Y0174562D01*
X0116594Y0175560D02*
X0137800Y0175560D01*
X0159006Y0175560D01*
X0159253Y0174562D02*
X0139274Y0174562D01*
X0141081Y0173563D02*
X0159436Y0173563D01*
X0159619Y0172565D02*
X0141945Y0172565D01*
X0142472Y0171566D02*
X0159693Y0171566D01*
X0159754Y0170568D02*
X0142733Y0170568D01*
X0142780Y0169569D02*
X0159786Y0169569D01*
X0159726Y0168571D02*
X0142627Y0168571D01*
X0142257Y0167572D02*
X0159665Y0167572D01*
X0159534Y0166574D02*
X0141618Y0166574D01*
X0140450Y0165575D02*
X0159351Y0165575D01*
X0154564Y0155590D02*
X0137800Y0155590D01*
X0121036Y0155590D01*
X0121952Y0154592D02*
X0137800Y0154592D01*
X0153648Y0154592D01*
X0152649Y0153593D02*
X0137800Y0153593D01*
X0122951Y0153593D01*
X0124154Y0152595D02*
X0137800Y0152595D01*
X0151446Y0152595D01*
X0150135Y0151596D02*
X0137800Y0151596D01*
X0125465Y0151596D01*
X0127117Y0150598D02*
X0137800Y0150598D01*
X0148483Y0150598D01*
X0146422Y0149599D02*
X0137800Y0149599D01*
X0129178Y0149599D01*
X0132018Y0148601D02*
X0137800Y0148601D01*
X0143582Y0148601D01*
X0137800Y0176559D02*
X0116905Y0176559D01*
X0117216Y0177557D02*
X0137800Y0177557D01*
X0158384Y0177557D01*
X0158695Y0176559D02*
X0137800Y0176559D01*
X0137800Y0178556D02*
X0117659Y0178556D01*
X0118109Y0179554D02*
X0137800Y0179554D01*
X0157491Y0179554D01*
X0157941Y0178556D02*
X0137800Y0178556D01*
X0137800Y0180553D02*
X0118640Y0180553D01*
X0119243Y0181551D02*
X0137800Y0181551D01*
X0156357Y0181551D01*
X0156960Y0180553D02*
X0137800Y0180553D01*
X0137800Y0182550D02*
X0119892Y0182550D01*
X0120674Y0183548D02*
X0137800Y0183548D01*
X0154926Y0183548D01*
X0155708Y0182550D02*
X0137800Y0182550D01*
X0137800Y0184547D02*
X0121491Y0184547D01*
X0122490Y0185545D02*
X0137800Y0185545D01*
X0153110Y0185545D01*
X0154109Y0184547D02*
X0137800Y0184547D01*
X0137800Y0186544D02*
X0123565Y0186544D01*
X0124839Y0187542D02*
X0137800Y0187542D01*
X0150761Y0187542D01*
X0152036Y0186544D02*
X0137800Y0186544D01*
X0137800Y0188541D02*
X0126354Y0188541D01*
X0128153Y0189539D02*
X0137800Y0189539D01*
X0147447Y0189539D01*
X0149246Y0188541D02*
X0137800Y0188541D01*
X0137800Y0190538D02*
X0130537Y0190538D01*
X0134586Y0191537D02*
X0137800Y0191537D01*
X0141014Y0191537D01*
X0137800Y0190538D02*
X0145063Y0190538D01*
X0087800Y0209800D02*
X0255300Y0209800D01*
X0285300Y0179800D01*
X0261661Y0175065D02*
X0262140Y0172452D01*
X0262300Y0169800D01*
X0245300Y0169800D01*
X0245224Y0170668D01*
X0244998Y0171510D01*
X0244630Y0172300D01*
X0244130Y0173014D01*
X0243514Y0173630D01*
X0242800Y0174130D01*
X0242010Y0174498D01*
X0241168Y0174724D01*
X0240300Y0174800D01*
X0240300Y0191800D01*
X0237648Y0191640D01*
X0235035Y0191161D01*
X0232499Y0190370D01*
X0230076Y0189280D01*
X0227803Y0187906D01*
X0225711Y0186267D01*
X0223833Y0184389D01*
X0222194Y0182297D01*
X0220820Y0180024D01*
X0219730Y0177601D01*
X0218939Y0175065D01*
X0218460Y0172452D01*
X0218300Y0169800D01*
X0235300Y0169800D01*
X0235376Y0170668D01*
X0235602Y0171510D01*
X0235970Y0172300D01*
X0236470Y0173014D01*
X0237086Y0173630D01*
X0237800Y0174130D01*
X0238590Y0174498D01*
X0239432Y0174724D01*
X0240300Y0174800D01*
X0240300Y0191800D01*
X0242952Y0191640D01*
X0245565Y0191161D01*
X0248101Y0190370D01*
X0250524Y0189280D01*
X0252797Y0187906D01*
X0254889Y0186267D01*
X0256767Y0184389D01*
X0258406Y0182297D01*
X0259780Y0180024D01*
X0260870Y0177601D01*
X0261661Y0175065D01*
X0261753Y0174562D02*
X0241774Y0174562D01*
X0240300Y0175560D02*
X0219094Y0175560D01*
X0218847Y0174562D02*
X0238826Y0174562D01*
X0240300Y0175560D02*
X0261506Y0175560D01*
X0261195Y0176559D02*
X0240300Y0176559D01*
X0219405Y0176559D01*
X0219716Y0177557D02*
X0240300Y0177557D01*
X0260884Y0177557D01*
X0260441Y0178556D02*
X0240300Y0178556D01*
X0220159Y0178556D01*
X0220609Y0179554D02*
X0240300Y0179554D01*
X0259991Y0179554D01*
X0259460Y0180553D02*
X0240300Y0180553D01*
X0221140Y0180553D01*
X0221743Y0181551D02*
X0240300Y0181551D01*
X0258857Y0181551D01*
X0258208Y0182550D02*
X0240300Y0182550D01*
X0222392Y0182550D01*
X0223174Y0183548D02*
X0240300Y0183548D01*
X0257426Y0183548D01*
X0256609Y0184547D02*
X0240300Y0184547D01*
X0223991Y0184547D01*
X0224990Y0185545D02*
X0240300Y0185545D01*
X0255610Y0185545D01*
X0254536Y0186544D02*
X0240300Y0186544D01*
X0226065Y0186544D01*
X0227339Y0187542D02*
X0240300Y0187542D01*
X0253261Y0187542D01*
X0251746Y0188541D02*
X0240300Y0188541D01*
X0228854Y0188541D01*
X0230653Y0189539D02*
X0240300Y0189539D01*
X0249947Y0189539D01*
X0247563Y0190538D02*
X0240300Y0190538D01*
X0233037Y0190538D01*
X0237086Y0191537D02*
X0240300Y0191537D01*
X0243514Y0191537D01*
X0243581Y0173563D02*
X0261936Y0173563D01*
X0262119Y0172565D02*
X0244445Y0172565D01*
X0244972Y0171566D02*
X0262193Y0171566D01*
X0262254Y0170568D02*
X0245233Y0170568D01*
X0245300Y0169800D02*
X0262300Y0169800D01*
X0262140Y0167148D01*
X0261661Y0164535D01*
X0260870Y0161999D01*
X0259780Y0159576D01*
X0258406Y0157303D01*
X0256767Y0155211D01*
X0254889Y0153333D01*
X0252797Y0151694D01*
X0250524Y0150320D01*
X0248101Y0149230D01*
X0245565Y0148439D01*
X0242952Y0147960D01*
X0240300Y0147800D01*
X0240300Y0164800D01*
X0239432Y0164876D01*
X0238590Y0165102D01*
X0237800Y0165470D01*
X0237086Y0165970D01*
X0236470Y0166586D01*
X0235970Y0167300D01*
X0235602Y0168090D01*
X0235376Y0168932D01*
X0235300Y0169800D01*
X0218300Y0169800D01*
X0218460Y0167148D01*
X0218939Y0164535D01*
X0219730Y0161999D01*
X0220820Y0159576D01*
X0222194Y0157303D01*
X0223833Y0155211D01*
X0225711Y0153333D01*
X0227803Y0151694D01*
X0230076Y0150320D01*
X0232499Y0149230D01*
X0235035Y0148439D01*
X0237648Y0147960D01*
X0240300Y0147800D01*
X0240300Y0164800D01*
X0241168Y0164876D01*
X0242010Y0165102D01*
X0242800Y0165470D01*
X0243514Y0165970D01*
X0244130Y0166586D01*
X0244630Y0167300D01*
X0244998Y0168090D01*
X0245224Y0168932D01*
X0245300Y0169800D01*
X0245280Y0169569D02*
X0262286Y0169569D01*
X0262226Y0168571D02*
X0245127Y0168571D01*
X0244757Y0167572D02*
X0262165Y0167572D01*
X0262034Y0166574D02*
X0244118Y0166574D01*
X0242950Y0165575D02*
X0261851Y0165575D01*
X0261668Y0164577D02*
X0240300Y0164577D01*
X0218932Y0164577D01*
X0218749Y0165575D02*
X0237650Y0165575D01*
X0236482Y0166574D02*
X0218566Y0166574D01*
X0218435Y0167572D02*
X0235843Y0167572D01*
X0235473Y0168571D02*
X0218374Y0168571D01*
X0218314Y0169569D02*
X0235320Y0169569D01*
X0235367Y0170568D02*
X0218346Y0170568D01*
X0218407Y0171566D02*
X0235628Y0171566D01*
X0236155Y0172565D02*
X0218481Y0172565D01*
X0218664Y0173563D02*
X0237019Y0173563D01*
X0240300Y0163578D02*
X0219237Y0163578D01*
X0219549Y0162580D02*
X0240300Y0162580D01*
X0261051Y0162580D01*
X0261363Y0163578D02*
X0240300Y0163578D01*
X0240300Y0161581D02*
X0219918Y0161581D01*
X0220367Y0160583D02*
X0240300Y0160583D01*
X0260233Y0160583D01*
X0260682Y0161581D02*
X0240300Y0161581D01*
X0240300Y0159584D02*
X0220816Y0159584D01*
X0221419Y0158586D02*
X0240300Y0158586D01*
X0259181Y0158586D01*
X0259784Y0159584D02*
X0240300Y0159584D01*
X0240300Y0157587D02*
X0222022Y0157587D01*
X0222754Y0156589D02*
X0240300Y0156589D01*
X0257846Y0156589D01*
X0258578Y0157587D02*
X0240300Y0157587D01*
X0240300Y0155590D02*
X0223536Y0155590D01*
X0224452Y0154592D02*
X0240300Y0154592D01*
X0256148Y0154592D01*
X0257064Y0155590D02*
X0240300Y0155590D01*
X0240300Y0153593D02*
X0225451Y0153593D01*
X0226654Y0152595D02*
X0240300Y0152595D01*
X0253946Y0152595D01*
X0255149Y0153593D02*
X0240300Y0153593D01*
X0240300Y0151596D02*
X0227965Y0151596D01*
X0229617Y0150598D02*
X0240300Y0150598D01*
X0250983Y0150598D01*
X0252635Y0151596D02*
X0240300Y0151596D01*
X0240300Y0149599D02*
X0231678Y0149599D01*
X0234518Y0148601D02*
X0240300Y0148601D01*
X0246082Y0148601D01*
X0248922Y0149599D02*
X0240300Y0149599D01*
X0240300Y0127300D02*
X0260300Y0127300D01*
X0277800Y0109800D01*
X0292800Y0109800D02*
X0292800Y0123800D01*
X0256932Y0096678D02*
X0240300Y0096678D01*
X0223668Y0096678D01*
X0223833Y0096889D02*
X0222194Y0094797D01*
X0220820Y0092524D01*
X0219730Y0090101D01*
X0218939Y0087565D01*
X0218460Y0084952D01*
X0218300Y0082300D01*
X0235300Y0082300D01*
X0235376Y0081432D01*
X0235602Y0080590D01*
X0235970Y0079800D01*
X0236470Y0079086D01*
X0237086Y0078470D01*
X0237800Y0077970D01*
X0238590Y0077602D01*
X0239432Y0077376D01*
X0240300Y0077300D01*
X0240300Y0060300D01*
X0237648Y0060460D01*
X0235035Y0060939D01*
X0232499Y0061730D01*
X0230076Y0062820D01*
X0227803Y0064194D01*
X0225711Y0065833D01*
X0223833Y0067711D01*
X0222194Y0069803D01*
X0220820Y0072076D01*
X0219730Y0074499D01*
X0218939Y0077035D01*
X0218460Y0079648D01*
X0218300Y0082300D01*
X0235300Y0082300D01*
X0235376Y0083168D01*
X0235602Y0084010D01*
X0235970Y0084800D01*
X0236470Y0085514D01*
X0237086Y0086130D01*
X0237800Y0086630D01*
X0238590Y0086998D01*
X0239432Y0087224D01*
X0240300Y0087300D01*
X0240300Y0104300D01*
X0237648Y0104140D01*
X0235035Y0103661D01*
X0232499Y0102870D01*
X0230076Y0101780D01*
X0227803Y0100406D01*
X0225711Y0098767D01*
X0223833Y0096889D01*
X0224621Y0097676D02*
X0240300Y0097676D01*
X0255979Y0097676D01*
X0256767Y0096889D02*
X0258406Y0094797D01*
X0259780Y0092524D01*
X0260870Y0090101D01*
X0261661Y0087565D01*
X0262140Y0084952D01*
X0262300Y0082300D01*
X0245300Y0082300D01*
X0245224Y0081432D01*
X0244998Y0080590D01*
X0244630Y0079800D01*
X0244130Y0079086D01*
X0243514Y0078470D01*
X0242800Y0077970D01*
X0242010Y0077602D01*
X0241168Y0077376D01*
X0240300Y0077300D01*
X0240300Y0060300D01*
X0242952Y0060460D01*
X0245565Y0060939D01*
X0248101Y0061730D01*
X0250524Y0062820D01*
X0252797Y0064194D01*
X0254889Y0065833D01*
X0256767Y0067711D01*
X0258406Y0069803D01*
X0259780Y0072076D01*
X0260870Y0074499D01*
X0261661Y0077035D01*
X0262140Y0079648D01*
X0262300Y0082300D01*
X0245300Y0082300D01*
X0245224Y0083168D01*
X0244998Y0084010D01*
X0244630Y0084800D01*
X0244130Y0085514D01*
X0243514Y0086130D01*
X0242800Y0086630D01*
X0242010Y0086998D01*
X0241168Y0087224D01*
X0240300Y0087300D01*
X0240300Y0104300D01*
X0242952Y0104140D01*
X0245565Y0103661D01*
X0248101Y0102870D01*
X0250524Y0101780D01*
X0252797Y0100406D01*
X0254889Y0098767D01*
X0256767Y0096889D01*
X0257715Y0095679D02*
X0240300Y0095679D01*
X0222885Y0095679D01*
X0222124Y0094681D02*
X0240300Y0094681D01*
X0258476Y0094681D01*
X0259080Y0093682D02*
X0240300Y0093682D01*
X0221520Y0093682D01*
X0220917Y0092684D02*
X0240300Y0092684D01*
X0259683Y0092684D01*
X0260157Y0091685D02*
X0240300Y0091685D01*
X0220443Y0091685D01*
X0219993Y0090687D02*
X0240300Y0090687D01*
X0260607Y0090687D01*
X0260999Y0089688D02*
X0240300Y0089688D01*
X0219601Y0089688D01*
X0219290Y0088690D02*
X0240300Y0088690D01*
X0261310Y0088690D01*
X0261621Y0087691D02*
X0240300Y0087691D01*
X0218979Y0087691D01*
X0218779Y0086693D02*
X0237934Y0086693D01*
X0236650Y0085694D02*
X0218596Y0085694D01*
X0218445Y0084696D02*
X0235921Y0084696D01*
X0235518Y0083697D02*
X0218385Y0083697D01*
X0218324Y0082699D02*
X0235335Y0082699D01*
X0235352Y0081700D02*
X0218336Y0081700D01*
X0218397Y0080702D02*
X0235572Y0080702D01*
X0236038Y0079703D02*
X0218457Y0079703D01*
X0218633Y0078705D02*
X0236851Y0078705D01*
X0238365Y0077706D02*
X0218816Y0077706D01*
X0219041Y0076708D02*
X0240300Y0076708D01*
X0261559Y0076708D01*
X0261784Y0077706D02*
X0242235Y0077706D01*
X0243749Y0078705D02*
X0261967Y0078705D01*
X0262143Y0079703D02*
X0244562Y0079703D01*
X0245028Y0080702D02*
X0262203Y0080702D01*
X0262264Y0081700D02*
X0245248Y0081700D01*
X0245265Y0082699D02*
X0262276Y0082699D01*
X0262215Y0083697D02*
X0245082Y0083697D01*
X0244679Y0084696D02*
X0262155Y0084696D01*
X0262004Y0085694D02*
X0243950Y0085694D01*
X0242666Y0086693D02*
X0261821Y0086693D01*
X0261248Y0075709D02*
X0240300Y0075709D01*
X0219352Y0075709D01*
X0219664Y0074711D02*
X0240300Y0074711D01*
X0260936Y0074711D01*
X0260516Y0073712D02*
X0240300Y0073712D01*
X0220084Y0073712D01*
X0220533Y0072714D02*
X0240300Y0072714D01*
X0260067Y0072714D01*
X0259562Y0071715D02*
X0240300Y0071715D01*
X0221038Y0071715D01*
X0221642Y0070717D02*
X0240300Y0070717D01*
X0258958Y0070717D01*
X0258339Y0069718D02*
X0240300Y0069718D01*
X0222261Y0069718D01*
X0223043Y0068720D02*
X0240300Y0068720D01*
X0257557Y0068720D01*
X0256775Y0067721D02*
X0240300Y0067721D01*
X0223825Y0067721D01*
X0224821Y0066723D02*
X0240300Y0066723D01*
X0255779Y0066723D01*
X0254750Y0065724D02*
X0240300Y0065724D01*
X0225850Y0065724D01*
X0227125Y0064726D02*
X0240300Y0064726D01*
X0253475Y0064726D01*
X0252024Y0063727D02*
X0240300Y0063727D01*
X0228576Y0063727D01*
X0230279Y0062729D02*
X0240300Y0062729D01*
X0250321Y0062729D01*
X0248102Y0061730D02*
X0240300Y0061730D01*
X0232498Y0061730D01*
X0236169Y0060732D02*
X0240300Y0060732D01*
X0244431Y0060732D01*
X0240300Y0098675D02*
X0225619Y0098675D01*
X0226868Y0099673D02*
X0240300Y0099673D01*
X0253732Y0099673D01*
X0254981Y0098675D02*
X0240300Y0098675D01*
X0240300Y0100672D02*
X0228243Y0100672D01*
X0229895Y0101670D02*
X0240300Y0101670D01*
X0250705Y0101670D01*
X0252357Y0100672D02*
X0240300Y0100672D01*
X0240300Y0102669D02*
X0232051Y0102669D01*
X0235072Y0103668D02*
X0240300Y0103668D01*
X0245528Y0103668D01*
X0248549Y0102669D02*
X0240300Y0102669D01*
X0207800Y0179800D02*
X0207800Y0202300D01*
X0087800Y0209800D02*
X0052800Y0174800D01*
X0042800Y0154800D02*
X0037800Y0154800D01*
X0035300Y0152300D01*
X0035300Y0142300D01*
X0040300Y0137300D01*
X0057800Y0137300D01*
D11*
X0134150Y0169800D02*
X0134152Y0169921D01*
X0134158Y0170041D01*
X0134168Y0170162D01*
X0134182Y0170281D01*
X0134200Y0170401D01*
X0134222Y0170519D01*
X0134247Y0170637D01*
X0134277Y0170754D01*
X0134310Y0170870D01*
X0134348Y0170985D01*
X0134389Y0171099D01*
X0134434Y0171211D01*
X0134482Y0171321D01*
X0134534Y0171430D01*
X0134590Y0171537D01*
X0134649Y0171642D01*
X0134712Y0171746D01*
X0134778Y0171847D01*
X0134847Y0171945D01*
X0134920Y0172042D01*
X0134995Y0172136D01*
X0135074Y0172227D01*
X0135156Y0172316D01*
X0135240Y0172402D01*
X0135328Y0172485D01*
X0135418Y0172566D01*
X0135511Y0172643D01*
X0135606Y0172717D01*
X0135704Y0172788D01*
X0135804Y0172856D01*
X0135906Y0172920D01*
X0136010Y0172981D01*
X0136116Y0173038D01*
X0136224Y0173092D01*
X0136334Y0173143D01*
X0136445Y0173189D01*
X0136558Y0173232D01*
X0136672Y0173271D01*
X0136787Y0173307D01*
X0136904Y0173338D01*
X0137021Y0173366D01*
X0137140Y0173390D01*
X0137259Y0173410D01*
X0137378Y0173426D01*
X0137499Y0173438D01*
X0137619Y0173446D01*
X0137740Y0173450D01*
X0137860Y0173450D01*
X0137981Y0173446D01*
X0138101Y0173438D01*
X0138222Y0173426D01*
X0138341Y0173410D01*
X0138460Y0173390D01*
X0138579Y0173366D01*
X0138696Y0173338D01*
X0138813Y0173307D01*
X0138928Y0173271D01*
X0139042Y0173232D01*
X0139155Y0173189D01*
X0139266Y0173143D01*
X0139376Y0173092D01*
X0139484Y0173038D01*
X0139590Y0172981D01*
X0139694Y0172920D01*
X0139796Y0172856D01*
X0139896Y0172788D01*
X0139994Y0172717D01*
X0140089Y0172643D01*
X0140182Y0172566D01*
X0140272Y0172485D01*
X0140360Y0172402D01*
X0140444Y0172316D01*
X0140526Y0172227D01*
X0140605Y0172136D01*
X0140680Y0172042D01*
X0140753Y0171945D01*
X0140822Y0171847D01*
X0140888Y0171746D01*
X0140951Y0171642D01*
X0141010Y0171537D01*
X0141066Y0171430D01*
X0141118Y0171321D01*
X0141166Y0171211D01*
X0141211Y0171099D01*
X0141252Y0170985D01*
X0141290Y0170870D01*
X0141323Y0170754D01*
X0141353Y0170637D01*
X0141378Y0170519D01*
X0141400Y0170401D01*
X0141418Y0170281D01*
X0141432Y0170162D01*
X0141442Y0170041D01*
X0141448Y0169921D01*
X0141450Y0169800D01*
X0141448Y0169679D01*
X0141442Y0169559D01*
X0141432Y0169438D01*
X0141418Y0169319D01*
X0141400Y0169199D01*
X0141378Y0169081D01*
X0141353Y0168963D01*
X0141323Y0168846D01*
X0141290Y0168730D01*
X0141252Y0168615D01*
X0141211Y0168501D01*
X0141166Y0168389D01*
X0141118Y0168279D01*
X0141066Y0168170D01*
X0141010Y0168063D01*
X0140951Y0167958D01*
X0140888Y0167854D01*
X0140822Y0167753D01*
X0140753Y0167655D01*
X0140680Y0167558D01*
X0140605Y0167464D01*
X0140526Y0167373D01*
X0140444Y0167284D01*
X0140360Y0167198D01*
X0140272Y0167115D01*
X0140182Y0167034D01*
X0140089Y0166957D01*
X0139994Y0166883D01*
X0139896Y0166812D01*
X0139796Y0166744D01*
X0139694Y0166680D01*
X0139590Y0166619D01*
X0139484Y0166562D01*
X0139376Y0166508D01*
X0139266Y0166457D01*
X0139155Y0166411D01*
X0139042Y0166368D01*
X0138928Y0166329D01*
X0138813Y0166293D01*
X0138696Y0166262D01*
X0138579Y0166234D01*
X0138460Y0166210D01*
X0138341Y0166190D01*
X0138222Y0166174D01*
X0138101Y0166162D01*
X0137981Y0166154D01*
X0137860Y0166150D01*
X0137740Y0166150D01*
X0137619Y0166154D01*
X0137499Y0166162D01*
X0137378Y0166174D01*
X0137259Y0166190D01*
X0137140Y0166210D01*
X0137021Y0166234D01*
X0136904Y0166262D01*
X0136787Y0166293D01*
X0136672Y0166329D01*
X0136558Y0166368D01*
X0136445Y0166411D01*
X0136334Y0166457D01*
X0136224Y0166508D01*
X0136116Y0166562D01*
X0136010Y0166619D01*
X0135906Y0166680D01*
X0135804Y0166744D01*
X0135704Y0166812D01*
X0135606Y0166883D01*
X0135511Y0166957D01*
X0135418Y0167034D01*
X0135328Y0167115D01*
X0135240Y0167198D01*
X0135156Y0167284D01*
X0135074Y0167373D01*
X0134995Y0167464D01*
X0134920Y0167558D01*
X0134847Y0167655D01*
X0134778Y0167753D01*
X0134712Y0167854D01*
X0134649Y0167958D01*
X0134590Y0168063D01*
X0134534Y0168170D01*
X0134482Y0168279D01*
X0134434Y0168389D01*
X0134389Y0168501D01*
X0134348Y0168615D01*
X0134310Y0168730D01*
X0134277Y0168846D01*
X0134247Y0168963D01*
X0134222Y0169081D01*
X0134200Y0169199D01*
X0134182Y0169319D01*
X0134168Y0169438D01*
X0134158Y0169559D01*
X0134152Y0169679D01*
X0134150Y0169800D01*
X0033394Y0208800D02*
X0033396Y0208953D01*
X0033402Y0209107D01*
X0033412Y0209260D01*
X0033426Y0209412D01*
X0033444Y0209565D01*
X0033466Y0209716D01*
X0033491Y0209867D01*
X0033521Y0210018D01*
X0033555Y0210168D01*
X0033592Y0210316D01*
X0033633Y0210464D01*
X0033678Y0210610D01*
X0033727Y0210756D01*
X0033780Y0210900D01*
X0033836Y0211042D01*
X0033896Y0211183D01*
X0033960Y0211323D01*
X0034027Y0211461D01*
X0034098Y0211597D01*
X0034173Y0211731D01*
X0034250Y0211863D01*
X0034332Y0211993D01*
X0034416Y0212121D01*
X0034504Y0212247D01*
X0034595Y0212370D01*
X0034689Y0212491D01*
X0034787Y0212609D01*
X0034887Y0212725D01*
X0034991Y0212838D01*
X0035097Y0212949D01*
X0035206Y0213057D01*
X0035318Y0213162D01*
X0035432Y0213263D01*
X0035550Y0213362D01*
X0035669Y0213458D01*
X0035791Y0213551D01*
X0035916Y0213640D01*
X0036043Y0213727D01*
X0036172Y0213809D01*
X0036303Y0213889D01*
X0036436Y0213965D01*
X0036571Y0214038D01*
X0036708Y0214107D01*
X0036847Y0214172D01*
X0036987Y0214234D01*
X0037129Y0214292D01*
X0037272Y0214347D01*
X0037417Y0214398D01*
X0037563Y0214445D01*
X0037710Y0214488D01*
X0037858Y0214527D01*
X0038007Y0214563D01*
X0038157Y0214594D01*
X0038308Y0214622D01*
X0038459Y0214646D01*
X0038612Y0214666D01*
X0038764Y0214682D01*
X0038917Y0214694D01*
X0039070Y0214702D01*
X0039223Y0214706D01*
X0039377Y0214706D01*
X0039530Y0214702D01*
X0039683Y0214694D01*
X0039836Y0214682D01*
X0039988Y0214666D01*
X0040141Y0214646D01*
X0040292Y0214622D01*
X0040443Y0214594D01*
X0040593Y0214563D01*
X0040742Y0214527D01*
X0040890Y0214488D01*
X0041037Y0214445D01*
X0041183Y0214398D01*
X0041328Y0214347D01*
X0041471Y0214292D01*
X0041613Y0214234D01*
X0041753Y0214172D01*
X0041892Y0214107D01*
X0042029Y0214038D01*
X0042164Y0213965D01*
X0042297Y0213889D01*
X0042428Y0213809D01*
X0042557Y0213727D01*
X0042684Y0213640D01*
X0042809Y0213551D01*
X0042931Y0213458D01*
X0043050Y0213362D01*
X0043168Y0213263D01*
X0043282Y0213162D01*
X0043394Y0213057D01*
X0043503Y0212949D01*
X0043609Y0212838D01*
X0043713Y0212725D01*
X0043813Y0212609D01*
X0043911Y0212491D01*
X0044005Y0212370D01*
X0044096Y0212247D01*
X0044184Y0212121D01*
X0044268Y0211993D01*
X0044350Y0211863D01*
X0044427Y0211731D01*
X0044502Y0211597D01*
X0044573Y0211461D01*
X0044640Y0211323D01*
X0044704Y0211183D01*
X0044764Y0211042D01*
X0044820Y0210900D01*
X0044873Y0210756D01*
X0044922Y0210610D01*
X0044967Y0210464D01*
X0045008Y0210316D01*
X0045045Y0210168D01*
X0045079Y0210018D01*
X0045109Y0209867D01*
X0045134Y0209716D01*
X0045156Y0209565D01*
X0045174Y0209412D01*
X0045188Y0209260D01*
X0045198Y0209107D01*
X0045204Y0208953D01*
X0045206Y0208800D01*
X0045204Y0208647D01*
X0045198Y0208493D01*
X0045188Y0208340D01*
X0045174Y0208188D01*
X0045156Y0208035D01*
X0045134Y0207884D01*
X0045109Y0207733D01*
X0045079Y0207582D01*
X0045045Y0207432D01*
X0045008Y0207284D01*
X0044967Y0207136D01*
X0044922Y0206990D01*
X0044873Y0206844D01*
X0044820Y0206700D01*
X0044764Y0206558D01*
X0044704Y0206417D01*
X0044640Y0206277D01*
X0044573Y0206139D01*
X0044502Y0206003D01*
X0044427Y0205869D01*
X0044350Y0205737D01*
X0044268Y0205607D01*
X0044184Y0205479D01*
X0044096Y0205353D01*
X0044005Y0205230D01*
X0043911Y0205109D01*
X0043813Y0204991D01*
X0043713Y0204875D01*
X0043609Y0204762D01*
X0043503Y0204651D01*
X0043394Y0204543D01*
X0043282Y0204438D01*
X0043168Y0204337D01*
X0043050Y0204238D01*
X0042931Y0204142D01*
X0042809Y0204049D01*
X0042684Y0203960D01*
X0042557Y0203873D01*
X0042428Y0203791D01*
X0042297Y0203711D01*
X0042164Y0203635D01*
X0042029Y0203562D01*
X0041892Y0203493D01*
X0041753Y0203428D01*
X0041613Y0203366D01*
X0041471Y0203308D01*
X0041328Y0203253D01*
X0041183Y0203202D01*
X0041037Y0203155D01*
X0040890Y0203112D01*
X0040742Y0203073D01*
X0040593Y0203037D01*
X0040443Y0203006D01*
X0040292Y0202978D01*
X0040141Y0202954D01*
X0039988Y0202934D01*
X0039836Y0202918D01*
X0039683Y0202906D01*
X0039530Y0202898D01*
X0039377Y0202894D01*
X0039223Y0202894D01*
X0039070Y0202898D01*
X0038917Y0202906D01*
X0038764Y0202918D01*
X0038612Y0202934D01*
X0038459Y0202954D01*
X0038308Y0202978D01*
X0038157Y0203006D01*
X0038007Y0203037D01*
X0037858Y0203073D01*
X0037710Y0203112D01*
X0037563Y0203155D01*
X0037417Y0203202D01*
X0037272Y0203253D01*
X0037129Y0203308D01*
X0036987Y0203366D01*
X0036847Y0203428D01*
X0036708Y0203493D01*
X0036571Y0203562D01*
X0036436Y0203635D01*
X0036303Y0203711D01*
X0036172Y0203791D01*
X0036043Y0203873D01*
X0035916Y0203960D01*
X0035791Y0204049D01*
X0035669Y0204142D01*
X0035550Y0204238D01*
X0035432Y0204337D01*
X0035318Y0204438D01*
X0035206Y0204543D01*
X0035097Y0204651D01*
X0034991Y0204762D01*
X0034887Y0204875D01*
X0034787Y0204991D01*
X0034689Y0205109D01*
X0034595Y0205230D01*
X0034504Y0205353D01*
X0034416Y0205479D01*
X0034332Y0205607D01*
X0034250Y0205737D01*
X0034173Y0205869D01*
X0034098Y0206003D01*
X0034027Y0206139D01*
X0033960Y0206277D01*
X0033896Y0206417D01*
X0033836Y0206558D01*
X0033780Y0206700D01*
X0033727Y0206844D01*
X0033678Y0206990D01*
X0033633Y0207136D01*
X0033592Y0207284D01*
X0033555Y0207432D01*
X0033521Y0207582D01*
X0033491Y0207733D01*
X0033466Y0207884D01*
X0033444Y0208035D01*
X0033426Y0208188D01*
X0033412Y0208340D01*
X0033402Y0208493D01*
X0033396Y0208647D01*
X0033394Y0208800D01*
X0134150Y0082300D02*
X0134152Y0082421D01*
X0134158Y0082541D01*
X0134168Y0082662D01*
X0134182Y0082781D01*
X0134200Y0082901D01*
X0134222Y0083019D01*
X0134247Y0083137D01*
X0134277Y0083254D01*
X0134310Y0083370D01*
X0134348Y0083485D01*
X0134389Y0083599D01*
X0134434Y0083711D01*
X0134482Y0083821D01*
X0134534Y0083930D01*
X0134590Y0084037D01*
X0134649Y0084142D01*
X0134712Y0084246D01*
X0134778Y0084347D01*
X0134847Y0084445D01*
X0134920Y0084542D01*
X0134995Y0084636D01*
X0135074Y0084727D01*
X0135156Y0084816D01*
X0135240Y0084902D01*
X0135328Y0084985D01*
X0135418Y0085066D01*
X0135511Y0085143D01*
X0135606Y0085217D01*
X0135704Y0085288D01*
X0135804Y0085356D01*
X0135906Y0085420D01*
X0136010Y0085481D01*
X0136116Y0085538D01*
X0136224Y0085592D01*
X0136334Y0085643D01*
X0136445Y0085689D01*
X0136558Y0085732D01*
X0136672Y0085771D01*
X0136787Y0085807D01*
X0136904Y0085838D01*
X0137021Y0085866D01*
X0137140Y0085890D01*
X0137259Y0085910D01*
X0137378Y0085926D01*
X0137499Y0085938D01*
X0137619Y0085946D01*
X0137740Y0085950D01*
X0137860Y0085950D01*
X0137981Y0085946D01*
X0138101Y0085938D01*
X0138222Y0085926D01*
X0138341Y0085910D01*
X0138460Y0085890D01*
X0138579Y0085866D01*
X0138696Y0085838D01*
X0138813Y0085807D01*
X0138928Y0085771D01*
X0139042Y0085732D01*
X0139155Y0085689D01*
X0139266Y0085643D01*
X0139376Y0085592D01*
X0139484Y0085538D01*
X0139590Y0085481D01*
X0139694Y0085420D01*
X0139796Y0085356D01*
X0139896Y0085288D01*
X0139994Y0085217D01*
X0140089Y0085143D01*
X0140182Y0085066D01*
X0140272Y0084985D01*
X0140360Y0084902D01*
X0140444Y0084816D01*
X0140526Y0084727D01*
X0140605Y0084636D01*
X0140680Y0084542D01*
X0140753Y0084445D01*
X0140822Y0084347D01*
X0140888Y0084246D01*
X0140951Y0084142D01*
X0141010Y0084037D01*
X0141066Y0083930D01*
X0141118Y0083821D01*
X0141166Y0083711D01*
X0141211Y0083599D01*
X0141252Y0083485D01*
X0141290Y0083370D01*
X0141323Y0083254D01*
X0141353Y0083137D01*
X0141378Y0083019D01*
X0141400Y0082901D01*
X0141418Y0082781D01*
X0141432Y0082662D01*
X0141442Y0082541D01*
X0141448Y0082421D01*
X0141450Y0082300D01*
X0141448Y0082179D01*
X0141442Y0082059D01*
X0141432Y0081938D01*
X0141418Y0081819D01*
X0141400Y0081699D01*
X0141378Y0081581D01*
X0141353Y0081463D01*
X0141323Y0081346D01*
X0141290Y0081230D01*
X0141252Y0081115D01*
X0141211Y0081001D01*
X0141166Y0080889D01*
X0141118Y0080779D01*
X0141066Y0080670D01*
X0141010Y0080563D01*
X0140951Y0080458D01*
X0140888Y0080354D01*
X0140822Y0080253D01*
X0140753Y0080155D01*
X0140680Y0080058D01*
X0140605Y0079964D01*
X0140526Y0079873D01*
X0140444Y0079784D01*
X0140360Y0079698D01*
X0140272Y0079615D01*
X0140182Y0079534D01*
X0140089Y0079457D01*
X0139994Y0079383D01*
X0139896Y0079312D01*
X0139796Y0079244D01*
X0139694Y0079180D01*
X0139590Y0079119D01*
X0139484Y0079062D01*
X0139376Y0079008D01*
X0139266Y0078957D01*
X0139155Y0078911D01*
X0139042Y0078868D01*
X0138928Y0078829D01*
X0138813Y0078793D01*
X0138696Y0078762D01*
X0138579Y0078734D01*
X0138460Y0078710D01*
X0138341Y0078690D01*
X0138222Y0078674D01*
X0138101Y0078662D01*
X0137981Y0078654D01*
X0137860Y0078650D01*
X0137740Y0078650D01*
X0137619Y0078654D01*
X0137499Y0078662D01*
X0137378Y0078674D01*
X0137259Y0078690D01*
X0137140Y0078710D01*
X0137021Y0078734D01*
X0136904Y0078762D01*
X0136787Y0078793D01*
X0136672Y0078829D01*
X0136558Y0078868D01*
X0136445Y0078911D01*
X0136334Y0078957D01*
X0136224Y0079008D01*
X0136116Y0079062D01*
X0136010Y0079119D01*
X0135906Y0079180D01*
X0135804Y0079244D01*
X0135704Y0079312D01*
X0135606Y0079383D01*
X0135511Y0079457D01*
X0135418Y0079534D01*
X0135328Y0079615D01*
X0135240Y0079698D01*
X0135156Y0079784D01*
X0135074Y0079873D01*
X0134995Y0079964D01*
X0134920Y0080058D01*
X0134847Y0080155D01*
X0134778Y0080253D01*
X0134712Y0080354D01*
X0134649Y0080458D01*
X0134590Y0080563D01*
X0134534Y0080670D01*
X0134482Y0080779D01*
X0134434Y0080889D01*
X0134389Y0081001D01*
X0134348Y0081115D01*
X0134310Y0081230D01*
X0134277Y0081346D01*
X0134247Y0081463D01*
X0134222Y0081581D01*
X0134200Y0081699D01*
X0134182Y0081819D01*
X0134168Y0081938D01*
X0134158Y0082059D01*
X0134152Y0082179D01*
X0134150Y0082300D01*
X0033394Y0041800D02*
X0033396Y0041953D01*
X0033402Y0042107D01*
X0033412Y0042260D01*
X0033426Y0042412D01*
X0033444Y0042565D01*
X0033466Y0042716D01*
X0033491Y0042867D01*
X0033521Y0043018D01*
X0033555Y0043168D01*
X0033592Y0043316D01*
X0033633Y0043464D01*
X0033678Y0043610D01*
X0033727Y0043756D01*
X0033780Y0043900D01*
X0033836Y0044042D01*
X0033896Y0044183D01*
X0033960Y0044323D01*
X0034027Y0044461D01*
X0034098Y0044597D01*
X0034173Y0044731D01*
X0034250Y0044863D01*
X0034332Y0044993D01*
X0034416Y0045121D01*
X0034504Y0045247D01*
X0034595Y0045370D01*
X0034689Y0045491D01*
X0034787Y0045609D01*
X0034887Y0045725D01*
X0034991Y0045838D01*
X0035097Y0045949D01*
X0035206Y0046057D01*
X0035318Y0046162D01*
X0035432Y0046263D01*
X0035550Y0046362D01*
X0035669Y0046458D01*
X0035791Y0046551D01*
X0035916Y0046640D01*
X0036043Y0046727D01*
X0036172Y0046809D01*
X0036303Y0046889D01*
X0036436Y0046965D01*
X0036571Y0047038D01*
X0036708Y0047107D01*
X0036847Y0047172D01*
X0036987Y0047234D01*
X0037129Y0047292D01*
X0037272Y0047347D01*
X0037417Y0047398D01*
X0037563Y0047445D01*
X0037710Y0047488D01*
X0037858Y0047527D01*
X0038007Y0047563D01*
X0038157Y0047594D01*
X0038308Y0047622D01*
X0038459Y0047646D01*
X0038612Y0047666D01*
X0038764Y0047682D01*
X0038917Y0047694D01*
X0039070Y0047702D01*
X0039223Y0047706D01*
X0039377Y0047706D01*
X0039530Y0047702D01*
X0039683Y0047694D01*
X0039836Y0047682D01*
X0039988Y0047666D01*
X0040141Y0047646D01*
X0040292Y0047622D01*
X0040443Y0047594D01*
X0040593Y0047563D01*
X0040742Y0047527D01*
X0040890Y0047488D01*
X0041037Y0047445D01*
X0041183Y0047398D01*
X0041328Y0047347D01*
X0041471Y0047292D01*
X0041613Y0047234D01*
X0041753Y0047172D01*
X0041892Y0047107D01*
X0042029Y0047038D01*
X0042164Y0046965D01*
X0042297Y0046889D01*
X0042428Y0046809D01*
X0042557Y0046727D01*
X0042684Y0046640D01*
X0042809Y0046551D01*
X0042931Y0046458D01*
X0043050Y0046362D01*
X0043168Y0046263D01*
X0043282Y0046162D01*
X0043394Y0046057D01*
X0043503Y0045949D01*
X0043609Y0045838D01*
X0043713Y0045725D01*
X0043813Y0045609D01*
X0043911Y0045491D01*
X0044005Y0045370D01*
X0044096Y0045247D01*
X0044184Y0045121D01*
X0044268Y0044993D01*
X0044350Y0044863D01*
X0044427Y0044731D01*
X0044502Y0044597D01*
X0044573Y0044461D01*
X0044640Y0044323D01*
X0044704Y0044183D01*
X0044764Y0044042D01*
X0044820Y0043900D01*
X0044873Y0043756D01*
X0044922Y0043610D01*
X0044967Y0043464D01*
X0045008Y0043316D01*
X0045045Y0043168D01*
X0045079Y0043018D01*
X0045109Y0042867D01*
X0045134Y0042716D01*
X0045156Y0042565D01*
X0045174Y0042412D01*
X0045188Y0042260D01*
X0045198Y0042107D01*
X0045204Y0041953D01*
X0045206Y0041800D01*
X0045204Y0041647D01*
X0045198Y0041493D01*
X0045188Y0041340D01*
X0045174Y0041188D01*
X0045156Y0041035D01*
X0045134Y0040884D01*
X0045109Y0040733D01*
X0045079Y0040582D01*
X0045045Y0040432D01*
X0045008Y0040284D01*
X0044967Y0040136D01*
X0044922Y0039990D01*
X0044873Y0039844D01*
X0044820Y0039700D01*
X0044764Y0039558D01*
X0044704Y0039417D01*
X0044640Y0039277D01*
X0044573Y0039139D01*
X0044502Y0039003D01*
X0044427Y0038869D01*
X0044350Y0038737D01*
X0044268Y0038607D01*
X0044184Y0038479D01*
X0044096Y0038353D01*
X0044005Y0038230D01*
X0043911Y0038109D01*
X0043813Y0037991D01*
X0043713Y0037875D01*
X0043609Y0037762D01*
X0043503Y0037651D01*
X0043394Y0037543D01*
X0043282Y0037438D01*
X0043168Y0037337D01*
X0043050Y0037238D01*
X0042931Y0037142D01*
X0042809Y0037049D01*
X0042684Y0036960D01*
X0042557Y0036873D01*
X0042428Y0036791D01*
X0042297Y0036711D01*
X0042164Y0036635D01*
X0042029Y0036562D01*
X0041892Y0036493D01*
X0041753Y0036428D01*
X0041613Y0036366D01*
X0041471Y0036308D01*
X0041328Y0036253D01*
X0041183Y0036202D01*
X0041037Y0036155D01*
X0040890Y0036112D01*
X0040742Y0036073D01*
X0040593Y0036037D01*
X0040443Y0036006D01*
X0040292Y0035978D01*
X0040141Y0035954D01*
X0039988Y0035934D01*
X0039836Y0035918D01*
X0039683Y0035906D01*
X0039530Y0035898D01*
X0039377Y0035894D01*
X0039223Y0035894D01*
X0039070Y0035898D01*
X0038917Y0035906D01*
X0038764Y0035918D01*
X0038612Y0035934D01*
X0038459Y0035954D01*
X0038308Y0035978D01*
X0038157Y0036006D01*
X0038007Y0036037D01*
X0037858Y0036073D01*
X0037710Y0036112D01*
X0037563Y0036155D01*
X0037417Y0036202D01*
X0037272Y0036253D01*
X0037129Y0036308D01*
X0036987Y0036366D01*
X0036847Y0036428D01*
X0036708Y0036493D01*
X0036571Y0036562D01*
X0036436Y0036635D01*
X0036303Y0036711D01*
X0036172Y0036791D01*
X0036043Y0036873D01*
X0035916Y0036960D01*
X0035791Y0037049D01*
X0035669Y0037142D01*
X0035550Y0037238D01*
X0035432Y0037337D01*
X0035318Y0037438D01*
X0035206Y0037543D01*
X0035097Y0037651D01*
X0034991Y0037762D01*
X0034887Y0037875D01*
X0034787Y0037991D01*
X0034689Y0038109D01*
X0034595Y0038230D01*
X0034504Y0038353D01*
X0034416Y0038479D01*
X0034332Y0038607D01*
X0034250Y0038737D01*
X0034173Y0038869D01*
X0034098Y0039003D01*
X0034027Y0039139D01*
X0033960Y0039277D01*
X0033896Y0039417D01*
X0033836Y0039558D01*
X0033780Y0039700D01*
X0033727Y0039844D01*
X0033678Y0039990D01*
X0033633Y0040136D01*
X0033592Y0040284D01*
X0033555Y0040432D01*
X0033521Y0040582D01*
X0033491Y0040733D01*
X0033466Y0040884D01*
X0033444Y0041035D01*
X0033426Y0041188D01*
X0033412Y0041340D01*
X0033402Y0041493D01*
X0033396Y0041647D01*
X0033394Y0041800D01*
X0236650Y0082300D02*
X0236652Y0082421D01*
X0236658Y0082541D01*
X0236668Y0082662D01*
X0236682Y0082781D01*
X0236700Y0082901D01*
X0236722Y0083019D01*
X0236747Y0083137D01*
X0236777Y0083254D01*
X0236810Y0083370D01*
X0236848Y0083485D01*
X0236889Y0083599D01*
X0236934Y0083711D01*
X0236982Y0083821D01*
X0237034Y0083930D01*
X0237090Y0084037D01*
X0237149Y0084142D01*
X0237212Y0084246D01*
X0237278Y0084347D01*
X0237347Y0084445D01*
X0237420Y0084542D01*
X0237495Y0084636D01*
X0237574Y0084727D01*
X0237656Y0084816D01*
X0237740Y0084902D01*
X0237828Y0084985D01*
X0237918Y0085066D01*
X0238011Y0085143D01*
X0238106Y0085217D01*
X0238204Y0085288D01*
X0238304Y0085356D01*
X0238406Y0085420D01*
X0238510Y0085481D01*
X0238616Y0085538D01*
X0238724Y0085592D01*
X0238834Y0085643D01*
X0238945Y0085689D01*
X0239058Y0085732D01*
X0239172Y0085771D01*
X0239287Y0085807D01*
X0239404Y0085838D01*
X0239521Y0085866D01*
X0239640Y0085890D01*
X0239759Y0085910D01*
X0239878Y0085926D01*
X0239999Y0085938D01*
X0240119Y0085946D01*
X0240240Y0085950D01*
X0240360Y0085950D01*
X0240481Y0085946D01*
X0240601Y0085938D01*
X0240722Y0085926D01*
X0240841Y0085910D01*
X0240960Y0085890D01*
X0241079Y0085866D01*
X0241196Y0085838D01*
X0241313Y0085807D01*
X0241428Y0085771D01*
X0241542Y0085732D01*
X0241655Y0085689D01*
X0241766Y0085643D01*
X0241876Y0085592D01*
X0241984Y0085538D01*
X0242090Y0085481D01*
X0242194Y0085420D01*
X0242296Y0085356D01*
X0242396Y0085288D01*
X0242494Y0085217D01*
X0242589Y0085143D01*
X0242682Y0085066D01*
X0242772Y0084985D01*
X0242860Y0084902D01*
X0242944Y0084816D01*
X0243026Y0084727D01*
X0243105Y0084636D01*
X0243180Y0084542D01*
X0243253Y0084445D01*
X0243322Y0084347D01*
X0243388Y0084246D01*
X0243451Y0084142D01*
X0243510Y0084037D01*
X0243566Y0083930D01*
X0243618Y0083821D01*
X0243666Y0083711D01*
X0243711Y0083599D01*
X0243752Y0083485D01*
X0243790Y0083370D01*
X0243823Y0083254D01*
X0243853Y0083137D01*
X0243878Y0083019D01*
X0243900Y0082901D01*
X0243918Y0082781D01*
X0243932Y0082662D01*
X0243942Y0082541D01*
X0243948Y0082421D01*
X0243950Y0082300D01*
X0243948Y0082179D01*
X0243942Y0082059D01*
X0243932Y0081938D01*
X0243918Y0081819D01*
X0243900Y0081699D01*
X0243878Y0081581D01*
X0243853Y0081463D01*
X0243823Y0081346D01*
X0243790Y0081230D01*
X0243752Y0081115D01*
X0243711Y0081001D01*
X0243666Y0080889D01*
X0243618Y0080779D01*
X0243566Y0080670D01*
X0243510Y0080563D01*
X0243451Y0080458D01*
X0243388Y0080354D01*
X0243322Y0080253D01*
X0243253Y0080155D01*
X0243180Y0080058D01*
X0243105Y0079964D01*
X0243026Y0079873D01*
X0242944Y0079784D01*
X0242860Y0079698D01*
X0242772Y0079615D01*
X0242682Y0079534D01*
X0242589Y0079457D01*
X0242494Y0079383D01*
X0242396Y0079312D01*
X0242296Y0079244D01*
X0242194Y0079180D01*
X0242090Y0079119D01*
X0241984Y0079062D01*
X0241876Y0079008D01*
X0241766Y0078957D01*
X0241655Y0078911D01*
X0241542Y0078868D01*
X0241428Y0078829D01*
X0241313Y0078793D01*
X0241196Y0078762D01*
X0241079Y0078734D01*
X0240960Y0078710D01*
X0240841Y0078690D01*
X0240722Y0078674D01*
X0240601Y0078662D01*
X0240481Y0078654D01*
X0240360Y0078650D01*
X0240240Y0078650D01*
X0240119Y0078654D01*
X0239999Y0078662D01*
X0239878Y0078674D01*
X0239759Y0078690D01*
X0239640Y0078710D01*
X0239521Y0078734D01*
X0239404Y0078762D01*
X0239287Y0078793D01*
X0239172Y0078829D01*
X0239058Y0078868D01*
X0238945Y0078911D01*
X0238834Y0078957D01*
X0238724Y0079008D01*
X0238616Y0079062D01*
X0238510Y0079119D01*
X0238406Y0079180D01*
X0238304Y0079244D01*
X0238204Y0079312D01*
X0238106Y0079383D01*
X0238011Y0079457D01*
X0237918Y0079534D01*
X0237828Y0079615D01*
X0237740Y0079698D01*
X0237656Y0079784D01*
X0237574Y0079873D01*
X0237495Y0079964D01*
X0237420Y0080058D01*
X0237347Y0080155D01*
X0237278Y0080253D01*
X0237212Y0080354D01*
X0237149Y0080458D01*
X0237090Y0080563D01*
X0237034Y0080670D01*
X0236982Y0080779D01*
X0236934Y0080889D01*
X0236889Y0081001D01*
X0236848Y0081115D01*
X0236810Y0081230D01*
X0236777Y0081346D01*
X0236747Y0081463D01*
X0236722Y0081581D01*
X0236700Y0081699D01*
X0236682Y0081819D01*
X0236668Y0081938D01*
X0236658Y0082059D01*
X0236652Y0082179D01*
X0236650Y0082300D01*
X0285894Y0041800D02*
X0285896Y0041953D01*
X0285902Y0042107D01*
X0285912Y0042260D01*
X0285926Y0042412D01*
X0285944Y0042565D01*
X0285966Y0042716D01*
X0285991Y0042867D01*
X0286021Y0043018D01*
X0286055Y0043168D01*
X0286092Y0043316D01*
X0286133Y0043464D01*
X0286178Y0043610D01*
X0286227Y0043756D01*
X0286280Y0043900D01*
X0286336Y0044042D01*
X0286396Y0044183D01*
X0286460Y0044323D01*
X0286527Y0044461D01*
X0286598Y0044597D01*
X0286673Y0044731D01*
X0286750Y0044863D01*
X0286832Y0044993D01*
X0286916Y0045121D01*
X0287004Y0045247D01*
X0287095Y0045370D01*
X0287189Y0045491D01*
X0287287Y0045609D01*
X0287387Y0045725D01*
X0287491Y0045838D01*
X0287597Y0045949D01*
X0287706Y0046057D01*
X0287818Y0046162D01*
X0287932Y0046263D01*
X0288050Y0046362D01*
X0288169Y0046458D01*
X0288291Y0046551D01*
X0288416Y0046640D01*
X0288543Y0046727D01*
X0288672Y0046809D01*
X0288803Y0046889D01*
X0288936Y0046965D01*
X0289071Y0047038D01*
X0289208Y0047107D01*
X0289347Y0047172D01*
X0289487Y0047234D01*
X0289629Y0047292D01*
X0289772Y0047347D01*
X0289917Y0047398D01*
X0290063Y0047445D01*
X0290210Y0047488D01*
X0290358Y0047527D01*
X0290507Y0047563D01*
X0290657Y0047594D01*
X0290808Y0047622D01*
X0290959Y0047646D01*
X0291112Y0047666D01*
X0291264Y0047682D01*
X0291417Y0047694D01*
X0291570Y0047702D01*
X0291723Y0047706D01*
X0291877Y0047706D01*
X0292030Y0047702D01*
X0292183Y0047694D01*
X0292336Y0047682D01*
X0292488Y0047666D01*
X0292641Y0047646D01*
X0292792Y0047622D01*
X0292943Y0047594D01*
X0293093Y0047563D01*
X0293242Y0047527D01*
X0293390Y0047488D01*
X0293537Y0047445D01*
X0293683Y0047398D01*
X0293828Y0047347D01*
X0293971Y0047292D01*
X0294113Y0047234D01*
X0294253Y0047172D01*
X0294392Y0047107D01*
X0294529Y0047038D01*
X0294664Y0046965D01*
X0294797Y0046889D01*
X0294928Y0046809D01*
X0295057Y0046727D01*
X0295184Y0046640D01*
X0295309Y0046551D01*
X0295431Y0046458D01*
X0295550Y0046362D01*
X0295668Y0046263D01*
X0295782Y0046162D01*
X0295894Y0046057D01*
X0296003Y0045949D01*
X0296109Y0045838D01*
X0296213Y0045725D01*
X0296313Y0045609D01*
X0296411Y0045491D01*
X0296505Y0045370D01*
X0296596Y0045247D01*
X0296684Y0045121D01*
X0296768Y0044993D01*
X0296850Y0044863D01*
X0296927Y0044731D01*
X0297002Y0044597D01*
X0297073Y0044461D01*
X0297140Y0044323D01*
X0297204Y0044183D01*
X0297264Y0044042D01*
X0297320Y0043900D01*
X0297373Y0043756D01*
X0297422Y0043610D01*
X0297467Y0043464D01*
X0297508Y0043316D01*
X0297545Y0043168D01*
X0297579Y0043018D01*
X0297609Y0042867D01*
X0297634Y0042716D01*
X0297656Y0042565D01*
X0297674Y0042412D01*
X0297688Y0042260D01*
X0297698Y0042107D01*
X0297704Y0041953D01*
X0297706Y0041800D01*
X0297704Y0041647D01*
X0297698Y0041493D01*
X0297688Y0041340D01*
X0297674Y0041188D01*
X0297656Y0041035D01*
X0297634Y0040884D01*
X0297609Y0040733D01*
X0297579Y0040582D01*
X0297545Y0040432D01*
X0297508Y0040284D01*
X0297467Y0040136D01*
X0297422Y0039990D01*
X0297373Y0039844D01*
X0297320Y0039700D01*
X0297264Y0039558D01*
X0297204Y0039417D01*
X0297140Y0039277D01*
X0297073Y0039139D01*
X0297002Y0039003D01*
X0296927Y0038869D01*
X0296850Y0038737D01*
X0296768Y0038607D01*
X0296684Y0038479D01*
X0296596Y0038353D01*
X0296505Y0038230D01*
X0296411Y0038109D01*
X0296313Y0037991D01*
X0296213Y0037875D01*
X0296109Y0037762D01*
X0296003Y0037651D01*
X0295894Y0037543D01*
X0295782Y0037438D01*
X0295668Y0037337D01*
X0295550Y0037238D01*
X0295431Y0037142D01*
X0295309Y0037049D01*
X0295184Y0036960D01*
X0295057Y0036873D01*
X0294928Y0036791D01*
X0294797Y0036711D01*
X0294664Y0036635D01*
X0294529Y0036562D01*
X0294392Y0036493D01*
X0294253Y0036428D01*
X0294113Y0036366D01*
X0293971Y0036308D01*
X0293828Y0036253D01*
X0293683Y0036202D01*
X0293537Y0036155D01*
X0293390Y0036112D01*
X0293242Y0036073D01*
X0293093Y0036037D01*
X0292943Y0036006D01*
X0292792Y0035978D01*
X0292641Y0035954D01*
X0292488Y0035934D01*
X0292336Y0035918D01*
X0292183Y0035906D01*
X0292030Y0035898D01*
X0291877Y0035894D01*
X0291723Y0035894D01*
X0291570Y0035898D01*
X0291417Y0035906D01*
X0291264Y0035918D01*
X0291112Y0035934D01*
X0290959Y0035954D01*
X0290808Y0035978D01*
X0290657Y0036006D01*
X0290507Y0036037D01*
X0290358Y0036073D01*
X0290210Y0036112D01*
X0290063Y0036155D01*
X0289917Y0036202D01*
X0289772Y0036253D01*
X0289629Y0036308D01*
X0289487Y0036366D01*
X0289347Y0036428D01*
X0289208Y0036493D01*
X0289071Y0036562D01*
X0288936Y0036635D01*
X0288803Y0036711D01*
X0288672Y0036791D01*
X0288543Y0036873D01*
X0288416Y0036960D01*
X0288291Y0037049D01*
X0288169Y0037142D01*
X0288050Y0037238D01*
X0287932Y0037337D01*
X0287818Y0037438D01*
X0287706Y0037543D01*
X0287597Y0037651D01*
X0287491Y0037762D01*
X0287387Y0037875D01*
X0287287Y0037991D01*
X0287189Y0038109D01*
X0287095Y0038230D01*
X0287004Y0038353D01*
X0286916Y0038479D01*
X0286832Y0038607D01*
X0286750Y0038737D01*
X0286673Y0038869D01*
X0286598Y0039003D01*
X0286527Y0039139D01*
X0286460Y0039277D01*
X0286396Y0039417D01*
X0286336Y0039558D01*
X0286280Y0039700D01*
X0286227Y0039844D01*
X0286178Y0039990D01*
X0286133Y0040136D01*
X0286092Y0040284D01*
X0286055Y0040432D01*
X0286021Y0040582D01*
X0285991Y0040733D01*
X0285966Y0040884D01*
X0285944Y0041035D01*
X0285926Y0041188D01*
X0285912Y0041340D01*
X0285902Y0041493D01*
X0285896Y0041647D01*
X0285894Y0041800D01*
X0236650Y0169800D02*
X0236652Y0169921D01*
X0236658Y0170041D01*
X0236668Y0170162D01*
X0236682Y0170281D01*
X0236700Y0170401D01*
X0236722Y0170519D01*
X0236747Y0170637D01*
X0236777Y0170754D01*
X0236810Y0170870D01*
X0236848Y0170985D01*
X0236889Y0171099D01*
X0236934Y0171211D01*
X0236982Y0171321D01*
X0237034Y0171430D01*
X0237090Y0171537D01*
X0237149Y0171642D01*
X0237212Y0171746D01*
X0237278Y0171847D01*
X0237347Y0171945D01*
X0237420Y0172042D01*
X0237495Y0172136D01*
X0237574Y0172227D01*
X0237656Y0172316D01*
X0237740Y0172402D01*
X0237828Y0172485D01*
X0237918Y0172566D01*
X0238011Y0172643D01*
X0238106Y0172717D01*
X0238204Y0172788D01*
X0238304Y0172856D01*
X0238406Y0172920D01*
X0238510Y0172981D01*
X0238616Y0173038D01*
X0238724Y0173092D01*
X0238834Y0173143D01*
X0238945Y0173189D01*
X0239058Y0173232D01*
X0239172Y0173271D01*
X0239287Y0173307D01*
X0239404Y0173338D01*
X0239521Y0173366D01*
X0239640Y0173390D01*
X0239759Y0173410D01*
X0239878Y0173426D01*
X0239999Y0173438D01*
X0240119Y0173446D01*
X0240240Y0173450D01*
X0240360Y0173450D01*
X0240481Y0173446D01*
X0240601Y0173438D01*
X0240722Y0173426D01*
X0240841Y0173410D01*
X0240960Y0173390D01*
X0241079Y0173366D01*
X0241196Y0173338D01*
X0241313Y0173307D01*
X0241428Y0173271D01*
X0241542Y0173232D01*
X0241655Y0173189D01*
X0241766Y0173143D01*
X0241876Y0173092D01*
X0241984Y0173038D01*
X0242090Y0172981D01*
X0242194Y0172920D01*
X0242296Y0172856D01*
X0242396Y0172788D01*
X0242494Y0172717D01*
X0242589Y0172643D01*
X0242682Y0172566D01*
X0242772Y0172485D01*
X0242860Y0172402D01*
X0242944Y0172316D01*
X0243026Y0172227D01*
X0243105Y0172136D01*
X0243180Y0172042D01*
X0243253Y0171945D01*
X0243322Y0171847D01*
X0243388Y0171746D01*
X0243451Y0171642D01*
X0243510Y0171537D01*
X0243566Y0171430D01*
X0243618Y0171321D01*
X0243666Y0171211D01*
X0243711Y0171099D01*
X0243752Y0170985D01*
X0243790Y0170870D01*
X0243823Y0170754D01*
X0243853Y0170637D01*
X0243878Y0170519D01*
X0243900Y0170401D01*
X0243918Y0170281D01*
X0243932Y0170162D01*
X0243942Y0170041D01*
X0243948Y0169921D01*
X0243950Y0169800D01*
X0243948Y0169679D01*
X0243942Y0169559D01*
X0243932Y0169438D01*
X0243918Y0169319D01*
X0243900Y0169199D01*
X0243878Y0169081D01*
X0243853Y0168963D01*
X0243823Y0168846D01*
X0243790Y0168730D01*
X0243752Y0168615D01*
X0243711Y0168501D01*
X0243666Y0168389D01*
X0243618Y0168279D01*
X0243566Y0168170D01*
X0243510Y0168063D01*
X0243451Y0167958D01*
X0243388Y0167854D01*
X0243322Y0167753D01*
X0243253Y0167655D01*
X0243180Y0167558D01*
X0243105Y0167464D01*
X0243026Y0167373D01*
X0242944Y0167284D01*
X0242860Y0167198D01*
X0242772Y0167115D01*
X0242682Y0167034D01*
X0242589Y0166957D01*
X0242494Y0166883D01*
X0242396Y0166812D01*
X0242296Y0166744D01*
X0242194Y0166680D01*
X0242090Y0166619D01*
X0241984Y0166562D01*
X0241876Y0166508D01*
X0241766Y0166457D01*
X0241655Y0166411D01*
X0241542Y0166368D01*
X0241428Y0166329D01*
X0241313Y0166293D01*
X0241196Y0166262D01*
X0241079Y0166234D01*
X0240960Y0166210D01*
X0240841Y0166190D01*
X0240722Y0166174D01*
X0240601Y0166162D01*
X0240481Y0166154D01*
X0240360Y0166150D01*
X0240240Y0166150D01*
X0240119Y0166154D01*
X0239999Y0166162D01*
X0239878Y0166174D01*
X0239759Y0166190D01*
X0239640Y0166210D01*
X0239521Y0166234D01*
X0239404Y0166262D01*
X0239287Y0166293D01*
X0239172Y0166329D01*
X0239058Y0166368D01*
X0238945Y0166411D01*
X0238834Y0166457D01*
X0238724Y0166508D01*
X0238616Y0166562D01*
X0238510Y0166619D01*
X0238406Y0166680D01*
X0238304Y0166744D01*
X0238204Y0166812D01*
X0238106Y0166883D01*
X0238011Y0166957D01*
X0237918Y0167034D01*
X0237828Y0167115D01*
X0237740Y0167198D01*
X0237656Y0167284D01*
X0237574Y0167373D01*
X0237495Y0167464D01*
X0237420Y0167558D01*
X0237347Y0167655D01*
X0237278Y0167753D01*
X0237212Y0167854D01*
X0237149Y0167958D01*
X0237090Y0168063D01*
X0237034Y0168170D01*
X0236982Y0168279D01*
X0236934Y0168389D01*
X0236889Y0168501D01*
X0236848Y0168615D01*
X0236810Y0168730D01*
X0236777Y0168846D01*
X0236747Y0168963D01*
X0236722Y0169081D01*
X0236700Y0169199D01*
X0236682Y0169319D01*
X0236668Y0169438D01*
X0236658Y0169559D01*
X0236652Y0169679D01*
X0236650Y0169800D01*
X0285894Y0208800D02*
X0285896Y0208953D01*
X0285902Y0209107D01*
X0285912Y0209260D01*
X0285926Y0209412D01*
X0285944Y0209565D01*
X0285966Y0209716D01*
X0285991Y0209867D01*
X0286021Y0210018D01*
X0286055Y0210168D01*
X0286092Y0210316D01*
X0286133Y0210464D01*
X0286178Y0210610D01*
X0286227Y0210756D01*
X0286280Y0210900D01*
X0286336Y0211042D01*
X0286396Y0211183D01*
X0286460Y0211323D01*
X0286527Y0211461D01*
X0286598Y0211597D01*
X0286673Y0211731D01*
X0286750Y0211863D01*
X0286832Y0211993D01*
X0286916Y0212121D01*
X0287004Y0212247D01*
X0287095Y0212370D01*
X0287189Y0212491D01*
X0287287Y0212609D01*
X0287387Y0212725D01*
X0287491Y0212838D01*
X0287597Y0212949D01*
X0287706Y0213057D01*
X0287818Y0213162D01*
X0287932Y0213263D01*
X0288050Y0213362D01*
X0288169Y0213458D01*
X0288291Y0213551D01*
X0288416Y0213640D01*
X0288543Y0213727D01*
X0288672Y0213809D01*
X0288803Y0213889D01*
X0288936Y0213965D01*
X0289071Y0214038D01*
X0289208Y0214107D01*
X0289347Y0214172D01*
X0289487Y0214234D01*
X0289629Y0214292D01*
X0289772Y0214347D01*
X0289917Y0214398D01*
X0290063Y0214445D01*
X0290210Y0214488D01*
X0290358Y0214527D01*
X0290507Y0214563D01*
X0290657Y0214594D01*
X0290808Y0214622D01*
X0290959Y0214646D01*
X0291112Y0214666D01*
X0291264Y0214682D01*
X0291417Y0214694D01*
X0291570Y0214702D01*
X0291723Y0214706D01*
X0291877Y0214706D01*
X0292030Y0214702D01*
X0292183Y0214694D01*
X0292336Y0214682D01*
X0292488Y0214666D01*
X0292641Y0214646D01*
X0292792Y0214622D01*
X0292943Y0214594D01*
X0293093Y0214563D01*
X0293242Y0214527D01*
X0293390Y0214488D01*
X0293537Y0214445D01*
X0293683Y0214398D01*
X0293828Y0214347D01*
X0293971Y0214292D01*
X0294113Y0214234D01*
X0294253Y0214172D01*
X0294392Y0214107D01*
X0294529Y0214038D01*
X0294664Y0213965D01*
X0294797Y0213889D01*
X0294928Y0213809D01*
X0295057Y0213727D01*
X0295184Y0213640D01*
X0295309Y0213551D01*
X0295431Y0213458D01*
X0295550Y0213362D01*
X0295668Y0213263D01*
X0295782Y0213162D01*
X0295894Y0213057D01*
X0296003Y0212949D01*
X0296109Y0212838D01*
X0296213Y0212725D01*
X0296313Y0212609D01*
X0296411Y0212491D01*
X0296505Y0212370D01*
X0296596Y0212247D01*
X0296684Y0212121D01*
X0296768Y0211993D01*
X0296850Y0211863D01*
X0296927Y0211731D01*
X0297002Y0211597D01*
X0297073Y0211461D01*
X0297140Y0211323D01*
X0297204Y0211183D01*
X0297264Y0211042D01*
X0297320Y0210900D01*
X0297373Y0210756D01*
X0297422Y0210610D01*
X0297467Y0210464D01*
X0297508Y0210316D01*
X0297545Y0210168D01*
X0297579Y0210018D01*
X0297609Y0209867D01*
X0297634Y0209716D01*
X0297656Y0209565D01*
X0297674Y0209412D01*
X0297688Y0209260D01*
X0297698Y0209107D01*
X0297704Y0208953D01*
X0297706Y0208800D01*
X0297704Y0208647D01*
X0297698Y0208493D01*
X0297688Y0208340D01*
X0297674Y0208188D01*
X0297656Y0208035D01*
X0297634Y0207884D01*
X0297609Y0207733D01*
X0297579Y0207582D01*
X0297545Y0207432D01*
X0297508Y0207284D01*
X0297467Y0207136D01*
X0297422Y0206990D01*
X0297373Y0206844D01*
X0297320Y0206700D01*
X0297264Y0206558D01*
X0297204Y0206417D01*
X0297140Y0206277D01*
X0297073Y0206139D01*
X0297002Y0206003D01*
X0296927Y0205869D01*
X0296850Y0205737D01*
X0296768Y0205607D01*
X0296684Y0205479D01*
X0296596Y0205353D01*
X0296505Y0205230D01*
X0296411Y0205109D01*
X0296313Y0204991D01*
X0296213Y0204875D01*
X0296109Y0204762D01*
X0296003Y0204651D01*
X0295894Y0204543D01*
X0295782Y0204438D01*
X0295668Y0204337D01*
X0295550Y0204238D01*
X0295431Y0204142D01*
X0295309Y0204049D01*
X0295184Y0203960D01*
X0295057Y0203873D01*
X0294928Y0203791D01*
X0294797Y0203711D01*
X0294664Y0203635D01*
X0294529Y0203562D01*
X0294392Y0203493D01*
X0294253Y0203428D01*
X0294113Y0203366D01*
X0293971Y0203308D01*
X0293828Y0203253D01*
X0293683Y0203202D01*
X0293537Y0203155D01*
X0293390Y0203112D01*
X0293242Y0203073D01*
X0293093Y0203037D01*
X0292943Y0203006D01*
X0292792Y0202978D01*
X0292641Y0202954D01*
X0292488Y0202934D01*
X0292336Y0202918D01*
X0292183Y0202906D01*
X0292030Y0202898D01*
X0291877Y0202894D01*
X0291723Y0202894D01*
X0291570Y0202898D01*
X0291417Y0202906D01*
X0291264Y0202918D01*
X0291112Y0202934D01*
X0290959Y0202954D01*
X0290808Y0202978D01*
X0290657Y0203006D01*
X0290507Y0203037D01*
X0290358Y0203073D01*
X0290210Y0203112D01*
X0290063Y0203155D01*
X0289917Y0203202D01*
X0289772Y0203253D01*
X0289629Y0203308D01*
X0289487Y0203366D01*
X0289347Y0203428D01*
X0289208Y0203493D01*
X0289071Y0203562D01*
X0288936Y0203635D01*
X0288803Y0203711D01*
X0288672Y0203791D01*
X0288543Y0203873D01*
X0288416Y0203960D01*
X0288291Y0204049D01*
X0288169Y0204142D01*
X0288050Y0204238D01*
X0287932Y0204337D01*
X0287818Y0204438D01*
X0287706Y0204543D01*
X0287597Y0204651D01*
X0287491Y0204762D01*
X0287387Y0204875D01*
X0287287Y0204991D01*
X0287189Y0205109D01*
X0287095Y0205230D01*
X0287004Y0205353D01*
X0286916Y0205479D01*
X0286832Y0205607D01*
X0286750Y0205737D01*
X0286673Y0205869D01*
X0286598Y0206003D01*
X0286527Y0206139D01*
X0286460Y0206277D01*
X0286396Y0206417D01*
X0286336Y0206558D01*
X0286280Y0206700D01*
X0286227Y0206844D01*
X0286178Y0206990D01*
X0286133Y0207136D01*
X0286092Y0207284D01*
X0286055Y0207432D01*
X0286021Y0207582D01*
X0285991Y0207733D01*
X0285966Y0207884D01*
X0285944Y0208035D01*
X0285926Y0208188D01*
X0285912Y0208340D01*
X0285902Y0208493D01*
X0285896Y0208647D01*
X0285894Y0208800D01*
D12*
X0052800Y0184800D03*
X0042800Y0184800D03*
X0042800Y0174800D03*
X0052800Y0174800D03*
X0052800Y0164800D03*
X0042800Y0164800D03*
X0042800Y0154800D03*
X0052800Y0154800D03*
X0052800Y0144800D03*
X0042800Y0144800D03*
D13*
X0148800Y0154800D03*
X0152800Y0093300D03*
X0251300Y0154800D03*
X0255300Y0093300D03*
D14*
X0265017Y0100460D02*
X0263637Y0102221D01*
X0263559Y0102410D01*
X0263236Y0102733D01*
X0262954Y0103093D01*
X0262776Y0103194D01*
X0261194Y0104776D01*
X0261093Y0104954D01*
X0260734Y0105236D01*
X0260410Y0105559D01*
X0260221Y0105637D01*
X0258460Y0107017D01*
X0258339Y0107182D01*
X0257948Y0107418D01*
X0257588Y0107700D01*
X0257391Y0107755D01*
X0255476Y0108912D01*
X0255336Y0109062D01*
X0254919Y0109249D01*
X0254528Y0109486D01*
X0254326Y0109516D01*
X0252286Y0110434D01*
X0252128Y0110566D01*
X0251692Y0110702D01*
X0251275Y0110889D01*
X0251071Y0110895D01*
X0248935Y0111561D01*
X0248763Y0111672D01*
X0248313Y0111754D01*
X0247877Y0111890D01*
X0247673Y0111872D01*
X0245473Y0112275D01*
X0245288Y0112365D01*
X0244833Y0112392D01*
X0244383Y0112475D01*
X0244183Y0112432D01*
X0242052Y0112561D01*
X0241956Y0112600D01*
X0241400Y0112600D01*
X0240844Y0112634D01*
X0240747Y0112600D01*
X0240644Y0112600D01*
X0240300Y0112458D01*
X0239956Y0112600D01*
X0239853Y0112600D01*
X0239756Y0112634D01*
X0239200Y0112600D01*
X0238644Y0112600D01*
X0238548Y0112561D01*
X0236417Y0112432D01*
X0236217Y0112475D01*
X0235767Y0112392D01*
X0235312Y0112365D01*
X0235127Y0112275D01*
X0232927Y0111872D01*
X0232723Y0111890D01*
X0232287Y0111754D01*
X0231837Y0111672D01*
X0231665Y0111561D01*
X0229529Y0110895D01*
X0229324Y0110889D01*
X0228908Y0110702D01*
X0228472Y0110566D01*
X0228314Y0110434D01*
X0226274Y0109516D01*
X0226072Y0109486D01*
X0225681Y0109249D01*
X0225264Y0109062D01*
X0225124Y0108912D01*
X0223209Y0107755D01*
X0223012Y0107700D01*
X0222652Y0107418D01*
X0222261Y0107182D01*
X0222140Y0107017D01*
X0220379Y0105637D01*
X0220190Y0105559D01*
X0219867Y0105236D01*
X0219507Y0104954D01*
X0219406Y0104776D01*
X0217824Y0103194D01*
X0217646Y0103093D01*
X0217364Y0102733D01*
X0217041Y0102410D01*
X0216963Y0102221D01*
X0215583Y0100460D01*
X0215418Y0100339D01*
X0215182Y0099948D01*
X0214900Y0099588D01*
X0214845Y0099391D01*
X0213688Y0097476D01*
X0213538Y0097336D01*
X0213351Y0096919D01*
X0213114Y0096528D01*
X0213084Y0096326D01*
X0212166Y0094286D01*
X0212034Y0094128D01*
X0211898Y0093692D01*
X0211711Y0093275D01*
X0211705Y0093071D01*
X0211039Y0090935D01*
X0210928Y0090763D01*
X0210846Y0090313D01*
X0210710Y0089877D01*
X0210728Y0089673D01*
X0210325Y0087473D01*
X0210235Y0087288D01*
X0210208Y0086833D01*
X0210125Y0086383D01*
X0210168Y0086183D01*
X0210039Y0084052D01*
X0210000Y0083956D01*
X0210000Y0083400D01*
X0209966Y0082844D01*
X0210000Y0082747D01*
X0210000Y0080853D01*
X0209966Y0080756D01*
X0210000Y0080200D01*
X0210000Y0079644D01*
X0210039Y0079548D01*
X0210161Y0077538D01*
X0210118Y0077337D01*
X0210200Y0076888D01*
X0210228Y0076432D01*
X0210318Y0076248D01*
X0210699Y0074166D01*
X0210681Y0073962D01*
X0210816Y0073526D01*
X0210899Y0073077D01*
X0211010Y0072904D01*
X0211640Y0070884D01*
X0211646Y0070679D01*
X0211833Y0070263D01*
X0211969Y0069826D01*
X0212101Y0069669D01*
X0212969Y0067739D01*
X0213000Y0067536D01*
X0213236Y0067145D01*
X0213424Y0066729D01*
X0213573Y0066588D01*
X0214668Y0064777D01*
X0214723Y0064580D01*
X0215005Y0064220D01*
X0215241Y0063829D01*
X0215406Y0063708D01*
X0216711Y0062042D01*
X0216790Y0061853D01*
X0217113Y0061530D01*
X0217394Y0061170D01*
X0217573Y0061069D01*
X0219069Y0059573D01*
X0219170Y0059394D01*
X0219530Y0059113D01*
X0219853Y0058790D01*
X0220042Y0058711D01*
X0221708Y0057406D01*
X0221829Y0057241D01*
X0222220Y0057005D01*
X0222580Y0056723D01*
X0222777Y0056668D01*
X0224588Y0055573D01*
X0224729Y0055424D01*
X0225145Y0055236D01*
X0225536Y0055000D01*
X0225739Y0054969D01*
X0227669Y0054101D01*
X0227826Y0053969D01*
X0228263Y0053833D01*
X0228679Y0053646D01*
X0228884Y0053640D01*
X0230904Y0053010D01*
X0231077Y0052899D01*
X0231526Y0052816D01*
X0231962Y0052681D01*
X0232166Y0052699D01*
X0234248Y0052318D01*
X0234432Y0052228D01*
X0234888Y0052200D01*
X0235337Y0052118D01*
X0235538Y0052161D01*
X0237548Y0052039D01*
X0237644Y0052000D01*
X0238200Y0052000D01*
X0238756Y0051966D01*
X0238853Y0052000D01*
X0240747Y0052000D01*
X0240844Y0051966D01*
X0241400Y0052000D01*
X0241956Y0052000D01*
X0242052Y0052039D01*
X0244183Y0052168D01*
X0244383Y0052125D01*
X0244833Y0052208D01*
X0245288Y0052235D01*
X0245473Y0052325D01*
X0247673Y0052728D01*
X0247877Y0052710D01*
X0248313Y0052846D01*
X0248763Y0052928D01*
X0248935Y0053039D01*
X0251071Y0053705D01*
X0251275Y0053711D01*
X0251692Y0053898D01*
X0252128Y0054034D01*
X0252286Y0054166D01*
X0254326Y0055084D01*
X0254528Y0055114D01*
X0254919Y0055351D01*
X0255336Y0055538D01*
X0255476Y0055688D01*
X0257391Y0056845D01*
X0257588Y0056900D01*
X0257948Y0057182D01*
X0258339Y0057418D01*
X0258460Y0057583D01*
X0260221Y0058963D01*
X0260410Y0059041D01*
X0260733Y0059364D01*
X0261093Y0059646D01*
X0261194Y0059824D01*
X0262776Y0061406D01*
X0262954Y0061507D01*
X0263236Y0061867D01*
X0263559Y0062190D01*
X0263637Y0062379D01*
X0265017Y0064140D01*
X0265182Y0064261D01*
X0265418Y0064652D01*
X0265700Y0065012D01*
X0265755Y0065209D01*
X0266912Y0067124D01*
X0267062Y0067264D01*
X0267249Y0067681D01*
X0267486Y0068072D01*
X0267516Y0068274D01*
X0268434Y0070314D01*
X0268566Y0070472D01*
X0268702Y0070908D01*
X0268889Y0071324D01*
X0268895Y0071529D01*
X0269561Y0073665D01*
X0269672Y0073837D01*
X0269754Y0074287D01*
X0269890Y0074723D01*
X0269872Y0074927D01*
X0270275Y0077127D01*
X0270365Y0077312D01*
X0270392Y0077767D01*
X0270475Y0078217D01*
X0270432Y0078417D01*
X0270561Y0080548D01*
X0270600Y0080644D01*
X0270600Y0081200D01*
X0270634Y0081756D01*
X0270600Y0081853D01*
X0270600Y0082747D01*
X0270634Y0082844D01*
X0270600Y0083400D01*
X0270600Y0083956D01*
X0270561Y0084052D01*
X0270432Y0086183D01*
X0270475Y0086383D01*
X0270392Y0086833D01*
X0270365Y0087288D01*
X0270275Y0087473D01*
X0269872Y0089673D01*
X0269890Y0089877D01*
X0269754Y0090313D01*
X0269672Y0090763D01*
X0269561Y0090935D01*
X0268895Y0093071D01*
X0268889Y0093275D01*
X0268702Y0093692D01*
X0268566Y0094128D01*
X0268434Y0094286D01*
X0267516Y0096326D01*
X0267486Y0096528D01*
X0267249Y0096919D01*
X0267062Y0097336D01*
X0266912Y0097476D01*
X0265755Y0099391D01*
X0265700Y0099588D01*
X0265418Y0099948D01*
X0265182Y0100339D01*
X0265017Y0100460D01*
X0265534Y0099800D02*
X0299201Y0099800D01*
X0299201Y0094800D02*
X0268203Y0094800D01*
X0267800Y0095695D02*
X0267800Y0115133D01*
X0268133Y0114800D02*
X0229676Y0114800D01*
X0229539Y0114468D02*
X0230300Y0116305D01*
X0230300Y0118295D01*
X0229539Y0120132D01*
X0228132Y0121539D01*
X0226295Y0122300D01*
X0224305Y0122300D01*
X0222468Y0121539D01*
X0221829Y0120900D01*
X0210291Y0120900D01*
X0199060Y0132131D01*
X0199060Y0133295D01*
X0198299Y0135132D01*
X0196892Y0136539D01*
X0196400Y0136743D01*
X0196400Y0178829D01*
X0197039Y0179468D01*
X0197800Y0181305D01*
X0197800Y0183295D01*
X0197039Y0185132D01*
X0195632Y0186539D01*
X0193795Y0187300D01*
X0191805Y0187300D01*
X0189968Y0186539D01*
X0188561Y0185132D01*
X0187800Y0183295D01*
X0187800Y0206500D01*
X0182800Y0206500D02*
X0182800Y0148651D01*
X0181651Y0149800D02*
X0189200Y0149800D01*
X0189200Y0154800D02*
X0164578Y0154800D01*
X0164562Y0154764D02*
X0164749Y0155181D01*
X0164986Y0155572D01*
X0165016Y0155774D01*
X0165934Y0157814D01*
X0166066Y0157972D01*
X0166202Y0158408D01*
X0166389Y0158824D01*
X0166395Y0159029D01*
X0167061Y0161165D01*
X0167172Y0161337D01*
X0167254Y0161787D01*
X0167390Y0162223D01*
X0167372Y0162427D01*
X0167775Y0164627D01*
X0167865Y0164812D01*
X0167892Y0165267D01*
X0167975Y0165717D01*
X0167932Y0165917D01*
X0168061Y0168048D01*
X0168100Y0168144D01*
X0168100Y0168700D01*
X0168134Y0169256D01*
X0168100Y0169353D01*
X0168100Y0169456D01*
X0167958Y0169800D01*
X0189200Y0169800D01*
X0189200Y0164800D02*
X0167859Y0164800D01*
X0167800Y0164679D02*
X0167800Y0154800D01*
X0168795Y0154800D02*
X0166805Y0154800D01*
X0164968Y0154039D01*
X0163561Y0152632D01*
X0162800Y0150795D01*
X0162800Y0151956D01*
X0162682Y0151761D02*
X0162918Y0152152D01*
X0163200Y0152512D01*
X0163255Y0152709D01*
X0164412Y0154624D01*
X0164562Y0154764D01*
X0168795Y0154800D02*
X0170632Y0154039D01*
X0171271Y0153400D01*
X0177276Y0153400D01*
X0178599Y0152852D01*
X0179612Y0151839D01*
X0179612Y0151839D01*
X0189200Y0142251D01*
X0189200Y0178829D01*
X0188561Y0179468D01*
X0187800Y0181305D01*
X0187800Y0143651D01*
X0186651Y0144800D02*
X0189200Y0144800D01*
X0196400Y0144800D02*
X0222456Y0144800D01*
X0222261Y0144918D02*
X0222652Y0144682D01*
X0223012Y0144400D01*
X0223209Y0144345D01*
X0225124Y0143188D01*
X0225264Y0143038D01*
X0225681Y0142851D01*
X0226072Y0142614D01*
X0226274Y0142584D01*
X0228314Y0141666D01*
X0228472Y0141534D01*
X0228908Y0141398D01*
X0229324Y0141211D01*
X0229529Y0141205D01*
X0231665Y0140539D01*
X0231837Y0140428D01*
X0232287Y0140346D01*
X0232723Y0140210D01*
X0232927Y0140228D01*
X0235127Y0139825D01*
X0235312Y0139735D01*
X0235767Y0139708D01*
X0236217Y0139625D01*
X0236417Y0139668D01*
X0238548Y0139539D01*
X0238644Y0139500D01*
X0239200Y0139500D01*
X0239756Y0139466D01*
X0239853Y0139500D01*
X0240747Y0139500D01*
X0240844Y0139466D01*
X0241400Y0139500D01*
X0241956Y0139500D01*
X0242052Y0139539D01*
X0244183Y0139668D01*
X0244383Y0139625D01*
X0244833Y0139708D01*
X0245288Y0139735D01*
X0245473Y0139825D01*
X0247673Y0140228D01*
X0247877Y0140210D01*
X0248313Y0140346D01*
X0248763Y0140428D01*
X0248935Y0140539D01*
X0251071Y0141205D01*
X0251275Y0141211D01*
X0251692Y0141398D01*
X0252128Y0141534D01*
X0252286Y0141666D01*
X0254326Y0142584D01*
X0254528Y0142614D01*
X0254919Y0142851D01*
X0255336Y0143038D01*
X0255476Y0143188D01*
X0257391Y0144345D01*
X0257588Y0144400D01*
X0257948Y0144682D01*
X0258339Y0144918D01*
X0258460Y0145083D01*
X0260221Y0146463D01*
X0260410Y0146541D01*
X0260733Y0146864D01*
X0261093Y0147146D01*
X0261194Y0147324D01*
X0262776Y0148906D01*
X0262954Y0149007D01*
X0263236Y0149367D01*
X0263559Y0149690D01*
X0263637Y0149879D01*
X0265017Y0151640D01*
X0265182Y0151761D01*
X0265418Y0152152D01*
X0265700Y0152512D01*
X0265755Y0152709D01*
X0266912Y0154624D01*
X0267062Y0154764D01*
X0267249Y0155181D01*
X0267486Y0155572D01*
X0267516Y0155774D01*
X0268434Y0157814D01*
X0268566Y0157972D01*
X0268702Y0158408D01*
X0268889Y0158824D01*
X0268895Y0159029D01*
X0269561Y0161165D01*
X0269672Y0161337D01*
X0269754Y0161787D01*
X0269890Y0162223D01*
X0269872Y0162427D01*
X0270275Y0164627D01*
X0270365Y0164812D01*
X0270392Y0165267D01*
X0270475Y0165717D01*
X0270432Y0165917D01*
X0270561Y0168048D01*
X0270600Y0168144D01*
X0270600Y0168700D01*
X0270634Y0169256D01*
X0270600Y0169353D01*
X0270600Y0169456D01*
X0270458Y0169800D01*
X0299201Y0169800D01*
X0299201Y0164800D02*
X0270359Y0164800D01*
X0270458Y0169800D02*
X0270600Y0170144D01*
X0270600Y0170247D01*
X0270634Y0170344D01*
X0270600Y0170900D01*
X0270600Y0171456D01*
X0270561Y0171552D01*
X0270432Y0173683D01*
X0270475Y0173883D01*
X0270392Y0174333D01*
X0270365Y0174788D01*
X0270275Y0174973D01*
X0269872Y0177173D01*
X0269890Y0177377D01*
X0269754Y0177813D01*
X0269672Y0178263D01*
X0269561Y0178435D01*
X0268895Y0180571D01*
X0268889Y0180775D01*
X0268702Y0181192D01*
X0268566Y0181628D01*
X0268434Y0181786D01*
X0267516Y0183826D01*
X0267486Y0184028D01*
X0267249Y0184419D01*
X0267062Y0184836D01*
X0266912Y0184976D01*
X0265755Y0186891D01*
X0265700Y0187088D01*
X0265418Y0187448D01*
X0265182Y0187839D01*
X0265017Y0187960D01*
X0263637Y0189721D01*
X0263559Y0189910D01*
X0263236Y0190233D01*
X0262954Y0190593D01*
X0262776Y0190694D01*
X0261194Y0192276D01*
X0261093Y0192454D01*
X0260733Y0192736D01*
X0260410Y0193059D01*
X0260221Y0193137D01*
X0258460Y0194517D01*
X0258339Y0194682D01*
X0257948Y0194918D01*
X0257588Y0195200D01*
X0257391Y0195255D01*
X0255476Y0196412D01*
X0255336Y0196562D01*
X0254919Y0196749D01*
X0254528Y0196986D01*
X0254326Y0197016D01*
X0252286Y0197934D01*
X0252128Y0198066D01*
X0251692Y0198202D01*
X0251275Y0198389D01*
X0251071Y0198395D01*
X0248935Y0199061D01*
X0248763Y0199172D01*
X0248313Y0199254D01*
X0247877Y0199390D01*
X0247673Y0199372D01*
X0245473Y0199775D01*
X0245288Y0199865D01*
X0244833Y0199892D01*
X0244383Y0199975D01*
X0244183Y0199932D01*
X0242052Y0200061D01*
X0241956Y0200100D01*
X0241400Y0200100D01*
X0240844Y0200134D01*
X0240747Y0200100D01*
X0238853Y0200100D01*
X0238756Y0200134D01*
X0238200Y0200100D01*
X0237644Y0200100D01*
X0237548Y0200061D01*
X0235538Y0199939D01*
X0235337Y0199982D01*
X0234888Y0199900D01*
X0234432Y0199872D01*
X0234248Y0199782D01*
X0232166Y0199401D01*
X0231962Y0199419D01*
X0231526Y0199284D01*
X0231077Y0199201D01*
X0230904Y0199090D01*
X0228884Y0198460D01*
X0228679Y0198454D01*
X0228263Y0198267D01*
X0227826Y0198131D01*
X0227669Y0197999D01*
X0225739Y0197131D01*
X0225536Y0197100D01*
X0225145Y0196864D01*
X0224729Y0196676D01*
X0224588Y0196527D01*
X0222777Y0195432D01*
X0222580Y0195377D01*
X0222220Y0195095D01*
X0221829Y0194859D01*
X0221708Y0194694D01*
X0220042Y0193389D01*
X0219853Y0193310D01*
X0219530Y0192987D01*
X0219170Y0192706D01*
X0219069Y0192527D01*
X0217573Y0191031D01*
X0217394Y0190930D01*
X0217113Y0190570D01*
X0216790Y0190247D01*
X0216711Y0190058D01*
X0215406Y0188392D01*
X0215241Y0188271D01*
X0215005Y0187880D01*
X0214723Y0187520D01*
X0214668Y0187323D01*
X0213573Y0185512D01*
X0213424Y0185371D01*
X0213236Y0184955D01*
X0213000Y0184564D01*
X0212969Y0184361D01*
X0212112Y0182456D01*
X0212039Y0182632D01*
X0211100Y0183571D01*
X0211100Y0198529D01*
X0212039Y0199468D01*
X0212800Y0201305D01*
X0212800Y0203295D01*
X0212039Y0205132D01*
X0210671Y0206500D01*
X0253933Y0206500D01*
X0280300Y0180133D01*
X0280300Y0178805D01*
X0281061Y0176968D01*
X0282468Y0175561D01*
X0284305Y0174800D01*
X0270359Y0174800D01*
X0269135Y0179800D02*
X0280300Y0179800D01*
X0277800Y0182633D02*
X0277800Y0114800D01*
X0277467Y0114800D02*
X0262169Y0130098D01*
X0260956Y0130600D01*
X0244071Y0130600D01*
X0243132Y0131539D01*
X0241295Y0132300D01*
X0239305Y0132300D01*
X0237468Y0131539D01*
X0236061Y0130132D01*
X0235300Y0128295D01*
X0235300Y0126305D01*
X0236061Y0124468D01*
X0237468Y0123061D01*
X0239305Y0122300D01*
X0241295Y0122300D01*
X0243132Y0123061D01*
X0244071Y0124000D01*
X0258933Y0124000D01*
X0272800Y0110133D01*
X0272800Y0108805D01*
X0272800Y0035100D01*
X0277800Y0035100D02*
X0277800Y0104800D01*
X0278795Y0104800D02*
X0299201Y0104800D01*
X0299201Y0109800D02*
X0282800Y0109800D01*
X0282800Y0110795D02*
X0282039Y0112632D01*
X0280632Y0114039D01*
X0278795Y0114800D01*
X0277467Y0114800D01*
X0299201Y0114800D01*
X0299201Y0119800D02*
X0272467Y0119800D01*
X0272800Y0119467D02*
X0272800Y0187633D01*
X0270633Y0189800D02*
X0263605Y0189800D01*
X0262800Y0190680D02*
X0262800Y0197633D01*
X0260633Y0199800D02*
X0245421Y0199800D01*
X0247800Y0199383D02*
X0247800Y0206500D01*
X0242800Y0206500D02*
X0242800Y0200015D01*
X0237800Y0200100D02*
X0237800Y0206500D01*
X0232800Y0206500D02*
X0232800Y0199517D01*
X0234284Y0199800D02*
X0212176Y0199800D01*
X0212176Y0204800D02*
X0255633Y0204800D01*
X0257800Y0202633D02*
X0257800Y0195034D01*
X0258144Y0194800D02*
X0265633Y0194800D01*
X0267800Y0192633D02*
X0267800Y0183195D01*
X0267078Y0184800D02*
X0275633Y0184800D01*
X0279967Y0189800D02*
X0299201Y0189800D01*
X0299201Y0184800D02*
X0284967Y0184800D01*
X0257169Y0212598D01*
X0255956Y0213100D01*
X0087144Y0213100D01*
X0085931Y0212598D01*
X0085002Y0211669D01*
X0057900Y0184567D01*
X0057900Y0184600D01*
X0053000Y0184600D01*
X0053000Y0185000D01*
X0052600Y0185000D01*
X0052600Y0189900D01*
X0050688Y0189900D01*
X0048507Y0187720D01*
X0045327Y0190900D01*
X0040273Y0190900D01*
X0036700Y0187327D01*
X0036700Y0182273D01*
X0039173Y0179800D01*
X0031600Y0179800D01*
X0036700Y0177327D02*
X0036700Y0172273D01*
X0039173Y0169800D01*
X0031600Y0169800D01*
X0036700Y0167327D02*
X0036700Y0162273D01*
X0039173Y0159800D01*
X0031600Y0159800D01*
X0035931Y0157598D02*
X0033431Y0155098D01*
X0032502Y0154169D01*
X0032000Y0152956D01*
X0032000Y0141644D01*
X0032502Y0140431D01*
X0037502Y0135431D01*
X0038431Y0134502D01*
X0039644Y0134000D01*
X0058456Y0134000D01*
X0059669Y0134502D01*
X0087467Y0162300D01*
X0088795Y0162300D01*
X0090632Y0163061D01*
X0092039Y0164468D01*
X0092800Y0166305D01*
X0092800Y0168295D01*
X0092039Y0170132D01*
X0090632Y0171539D01*
X0088795Y0172300D01*
X0086805Y0172300D01*
X0084968Y0171539D01*
X0083561Y0170132D01*
X0082800Y0168295D01*
X0082800Y0200133D01*
X0082467Y0199800D02*
X0131784Y0199800D01*
X0131748Y0199782D02*
X0129666Y0199401D01*
X0129462Y0199419D01*
X0129026Y0199284D01*
X0128577Y0199201D01*
X0128404Y0199090D01*
X0126384Y0198460D01*
X0126179Y0198454D01*
X0125763Y0198267D01*
X0125326Y0198131D01*
X0125169Y0197999D01*
X0123239Y0197131D01*
X0123036Y0197100D01*
X0122645Y0196864D01*
X0122229Y0196676D01*
X0122088Y0196527D01*
X0120277Y0195432D01*
X0120080Y0195377D01*
X0119720Y0195095D01*
X0119329Y0194859D01*
X0119208Y0194694D01*
X0117542Y0193389D01*
X0117353Y0193310D01*
X0117030Y0192987D01*
X0116670Y0192706D01*
X0116569Y0192527D01*
X0115073Y0191031D01*
X0114894Y0190930D01*
X0114613Y0190570D01*
X0114290Y0190247D01*
X0114211Y0190058D01*
X0112906Y0188392D01*
X0112741Y0188271D01*
X0112505Y0187880D01*
X0112223Y0187520D01*
X0112168Y0187323D01*
X0111073Y0185512D01*
X0110924Y0185371D01*
X0110736Y0184955D01*
X0110500Y0184564D01*
X0110469Y0184361D01*
X0109601Y0182431D01*
X0109469Y0182274D01*
X0109333Y0181837D01*
X0109146Y0181421D01*
X0109140Y0181216D01*
X0108510Y0179196D01*
X0108399Y0179023D01*
X0108316Y0178574D01*
X0108181Y0178138D01*
X0108199Y0177934D01*
X0107818Y0175852D01*
X0107728Y0175668D01*
X0107700Y0175212D01*
X0107618Y0174763D01*
X0107661Y0174562D01*
X0107539Y0172552D01*
X0107500Y0172456D01*
X0107500Y0171900D01*
X0107466Y0171344D01*
X0107500Y0171247D01*
X0107500Y0169353D01*
X0107466Y0169256D01*
X0107500Y0168700D01*
X0107500Y0168144D01*
X0107539Y0168048D01*
X0107668Y0165917D01*
X0107625Y0165717D01*
X0107708Y0165267D01*
X0107735Y0164812D01*
X0107825Y0164627D01*
X0108228Y0162427D01*
X0108210Y0162223D01*
X0108346Y0161787D01*
X0108428Y0161337D01*
X0108539Y0161165D01*
X0109205Y0159029D01*
X0109211Y0158824D01*
X0109398Y0158408D01*
X0109534Y0157972D01*
X0109666Y0157814D01*
X0110584Y0155774D01*
X0110614Y0155572D01*
X0110851Y0155181D01*
X0111038Y0154764D01*
X0111188Y0154624D01*
X0112345Y0152709D01*
X0112400Y0152512D01*
X0112682Y0152152D01*
X0112918Y0151761D01*
X0113083Y0151640D01*
X0114463Y0149879D01*
X0114541Y0149690D01*
X0114864Y0149367D01*
X0115146Y0149007D01*
X0115324Y0148906D01*
X0116906Y0147324D01*
X0117007Y0147146D01*
X0117367Y0146864D01*
X0117690Y0146541D01*
X0117879Y0146463D01*
X0119640Y0145083D01*
X0119761Y0144918D01*
X0120152Y0144682D01*
X0120512Y0144400D01*
X0120709Y0144345D01*
X0122624Y0143188D01*
X0122764Y0143038D01*
X0123181Y0142851D01*
X0123572Y0142614D01*
X0123774Y0142584D01*
X0125814Y0141666D01*
X0125972Y0141534D01*
X0126408Y0141398D01*
X0126824Y0141211D01*
X0127029Y0141205D01*
X0129165Y0140539D01*
X0129337Y0140428D01*
X0129787Y0140346D01*
X0130223Y0140210D01*
X0130427Y0140228D01*
X0132627Y0139825D01*
X0132812Y0139735D01*
X0133267Y0139708D01*
X0133717Y0139625D01*
X0133917Y0139668D01*
X0136048Y0139539D01*
X0136144Y0139500D01*
X0136700Y0139500D01*
X0137256Y0139466D01*
X0137353Y0139500D01*
X0138247Y0139500D01*
X0138344Y0139466D01*
X0138900Y0139500D01*
X0139456Y0139500D01*
X0139552Y0139539D01*
X0141683Y0139668D01*
X0141883Y0139625D01*
X0142332Y0139708D01*
X0142788Y0139735D01*
X0142973Y0139825D01*
X0145173Y0140228D01*
X0145377Y0140210D01*
X0145813Y0140346D01*
X0146263Y0140428D01*
X0146435Y0140539D01*
X0148571Y0141205D01*
X0148775Y0141211D01*
X0149192Y0141398D01*
X0149628Y0141534D01*
X0149786Y0141666D01*
X0151826Y0142584D01*
X0152028Y0142614D01*
X0152419Y0142851D01*
X0152836Y0143038D01*
X0152976Y0143188D01*
X0154891Y0144345D01*
X0155088Y0144400D01*
X0155448Y0144682D01*
X0155839Y0144918D01*
X0155960Y0145083D01*
X0157721Y0146463D01*
X0157910Y0146541D01*
X0158233Y0146864D01*
X0158593Y0147146D01*
X0158694Y0147324D01*
X0160276Y0148906D01*
X0160454Y0149007D01*
X0160736Y0149367D01*
X0161059Y0149690D01*
X0161137Y0149879D01*
X0162517Y0151640D01*
X0162682Y0151761D01*
X0162800Y0150795D02*
X0162800Y0148805D01*
X0162800Y0130092D01*
X0163092Y0129800D02*
X0189683Y0129800D01*
X0189821Y0129468D02*
X0191228Y0128061D01*
X0193065Y0127300D01*
X0193709Y0127300D01*
X0205748Y0115261D01*
X0206761Y0114248D01*
X0208084Y0113700D01*
X0221829Y0113700D01*
X0222468Y0113061D01*
X0224305Y0112300D01*
X0226295Y0112300D01*
X0228132Y0113061D01*
X0229539Y0114468D01*
X0227800Y0112924D02*
X0227800Y0110203D01*
X0226905Y0109800D02*
X0202176Y0109800D01*
X0202039Y0110132D02*
X0200632Y0111539D01*
X0198795Y0112300D01*
X0196805Y0112300D01*
X0194968Y0111539D01*
X0193561Y0110132D01*
X0192800Y0108295D01*
X0192800Y0127410D01*
X0189821Y0129468D02*
X0189060Y0131305D01*
X0189060Y0132209D01*
X0175069Y0146200D01*
X0171271Y0146200D01*
X0170632Y0145561D01*
X0168795Y0144800D01*
X0176469Y0144800D01*
X0177800Y0143469D02*
X0177800Y0115092D01*
X0177967Y0114925D02*
X0159669Y0133223D01*
X0158456Y0133725D01*
X0157144Y0133725D01*
X0070946Y0133725D01*
X0070007Y0134664D01*
X0068170Y0135425D01*
X0066180Y0135425D01*
X0064343Y0134664D01*
X0062936Y0133257D01*
X0062175Y0131420D01*
X0062175Y0129430D01*
X0062936Y0127593D01*
X0064343Y0126186D01*
X0066180Y0125425D01*
X0068170Y0125425D01*
X0070007Y0126186D01*
X0070946Y0127125D01*
X0156433Y0127125D01*
X0173300Y0110258D01*
X0173300Y0108930D01*
X0174061Y0107093D01*
X0175468Y0105686D01*
X0177305Y0104925D01*
X0179295Y0104925D01*
X0181132Y0105686D01*
X0182539Y0107093D01*
X0183300Y0108930D01*
X0183300Y0110920D01*
X0182539Y0112757D01*
X0181132Y0114164D01*
X0179295Y0114925D01*
X0177967Y0114925D01*
X0179596Y0114800D02*
X0206209Y0114800D01*
X0207800Y0113818D02*
X0207800Y0035100D01*
X0212800Y0035100D02*
X0212800Y0068115D01*
X0211991Y0069800D02*
X0165703Y0069800D01*
X0165934Y0070314D02*
X0166066Y0070472D01*
X0166202Y0070908D01*
X0166389Y0071324D01*
X0166395Y0071529D01*
X0167061Y0073665D01*
X0167172Y0073837D01*
X0167254Y0074287D01*
X0167390Y0074723D01*
X0167372Y0074927D01*
X0167775Y0077127D01*
X0167865Y0077312D01*
X0167892Y0077767D01*
X0167975Y0078217D01*
X0167932Y0078417D01*
X0168061Y0080548D01*
X0168100Y0080644D01*
X0168100Y0081200D01*
X0168134Y0081756D01*
X0168100Y0081853D01*
X0168100Y0082747D01*
X0168134Y0082844D01*
X0168100Y0083400D01*
X0168100Y0083956D01*
X0168061Y0084052D01*
X0167932Y0086183D01*
X0167975Y0086383D01*
X0167892Y0086833D01*
X0167865Y0087288D01*
X0167775Y0087473D01*
X0167372Y0089673D01*
X0167390Y0089877D01*
X0167254Y0090313D01*
X0167172Y0090763D01*
X0167061Y0090935D01*
X0166395Y0093071D01*
X0166389Y0093275D01*
X0166202Y0093692D01*
X0166066Y0094128D01*
X0165934Y0094286D01*
X0165016Y0096326D01*
X0164986Y0096528D01*
X0164749Y0096919D01*
X0164562Y0097336D01*
X0164412Y0097476D01*
X0163255Y0099391D01*
X0163200Y0099588D01*
X0162918Y0099948D01*
X0162682Y0100339D01*
X0162517Y0100460D01*
X0161137Y0102221D01*
X0161059Y0102410D01*
X0160736Y0102733D01*
X0160454Y0103093D01*
X0160276Y0103194D01*
X0158694Y0104776D01*
X0158593Y0104954D01*
X0158233Y0105236D01*
X0157910Y0105559D01*
X0157721Y0105637D01*
X0155960Y0107017D01*
X0155839Y0107182D01*
X0155448Y0107418D01*
X0155088Y0107700D01*
X0154891Y0107755D01*
X0152976Y0108912D01*
X0152836Y0109062D01*
X0152419Y0109249D01*
X0152028Y0109486D01*
X0151826Y0109516D01*
X0149786Y0110434D01*
X0149628Y0110566D01*
X0149192Y0110702D01*
X0148775Y0110889D01*
X0148571Y0110895D01*
X0146435Y0111561D01*
X0146263Y0111672D01*
X0145813Y0111754D01*
X0145377Y0111890D01*
X0145173Y0111872D01*
X0142973Y0112275D01*
X0142788Y0112365D01*
X0142333Y0112392D01*
X0141883Y0112475D01*
X0141683Y0112432D01*
X0139552Y0112561D01*
X0139456Y0112600D01*
X0138900Y0112600D01*
X0138344Y0112634D01*
X0138247Y0112600D01*
X0138144Y0112600D01*
X0137800Y0112458D01*
X0137800Y0127125D01*
X0132800Y0127125D02*
X0132800Y0112359D01*
X0132812Y0112365D02*
X0132627Y0112275D01*
X0130427Y0111872D01*
X0130223Y0111890D01*
X0129787Y0111754D01*
X0129337Y0111672D01*
X0129165Y0111561D01*
X0127029Y0110895D01*
X0126824Y0110889D01*
X0126408Y0110702D01*
X0125972Y0110566D01*
X0125814Y0110434D01*
X0123774Y0109516D01*
X0123572Y0109486D01*
X0123181Y0109249D01*
X0122764Y0109062D01*
X0122624Y0108912D01*
X0120709Y0107755D01*
X0120512Y0107700D01*
X0120152Y0107418D01*
X0119761Y0107182D01*
X0119640Y0107017D01*
X0117879Y0105637D01*
X0117690Y0105559D01*
X0117367Y0105236D01*
X0117007Y0104954D01*
X0116906Y0104776D01*
X0115324Y0103194D01*
X0115146Y0103093D01*
X0114864Y0102733D01*
X0114541Y0102410D01*
X0114463Y0102221D01*
X0113083Y0100460D01*
X0112918Y0100339D01*
X0112682Y0099948D01*
X0112400Y0099588D01*
X0112345Y0099391D01*
X0111188Y0097476D01*
X0111038Y0097336D01*
X0110851Y0096919D01*
X0110614Y0096528D01*
X0110584Y0096326D01*
X0109666Y0094286D01*
X0109534Y0094128D01*
X0109398Y0093692D01*
X0109211Y0093275D01*
X0109205Y0093071D01*
X0108539Y0090935D01*
X0108428Y0090763D01*
X0108346Y0090313D01*
X0108210Y0089877D01*
X0108228Y0089673D01*
X0107825Y0087473D01*
X0107735Y0087288D01*
X0107708Y0086833D01*
X0107625Y0086383D01*
X0107668Y0086183D01*
X0107539Y0084052D01*
X0107500Y0083956D01*
X0107500Y0083400D01*
X0107466Y0082844D01*
X0107500Y0082747D01*
X0107500Y0080853D01*
X0107466Y0080756D01*
X0107500Y0080200D01*
X0107500Y0079644D01*
X0107539Y0079548D01*
X0107661Y0077538D01*
X0107618Y0077337D01*
X0107700Y0076888D01*
X0107728Y0076432D01*
X0107818Y0076248D01*
X0108199Y0074166D01*
X0108181Y0073962D01*
X0108316Y0073526D01*
X0108399Y0073077D01*
X0108510Y0072904D01*
X0109140Y0070884D01*
X0109146Y0070679D01*
X0109333Y0070263D01*
X0109469Y0069826D01*
X0109601Y0069669D01*
X0110469Y0067739D01*
X0110500Y0067536D01*
X0110736Y0067145D01*
X0110924Y0066729D01*
X0111073Y0066588D01*
X0112168Y0064777D01*
X0112223Y0064580D01*
X0112505Y0064220D01*
X0112741Y0063829D01*
X0112906Y0063708D01*
X0114211Y0062042D01*
X0114290Y0061853D01*
X0114613Y0061530D01*
X0114894Y0061170D01*
X0115073Y0061069D01*
X0116569Y0059573D01*
X0116670Y0059394D01*
X0117030Y0059113D01*
X0117353Y0058790D01*
X0117542Y0058711D01*
X0119208Y0057406D01*
X0119329Y0057241D01*
X0119720Y0057005D01*
X0120080Y0056723D01*
X0120277Y0056668D01*
X0122088Y0055573D01*
X0122229Y0055424D01*
X0122645Y0055236D01*
X0123036Y0055000D01*
X0123239Y0054969D01*
X0125169Y0054101D01*
X0125326Y0053969D01*
X0125763Y0053833D01*
X0126179Y0053646D01*
X0126384Y0053640D01*
X0128404Y0053010D01*
X0128577Y0052899D01*
X0129026Y0052816D01*
X0129462Y0052681D01*
X0129666Y0052699D01*
X0131748Y0052318D01*
X0131932Y0052228D01*
X0132388Y0052200D01*
X0132837Y0052118D01*
X0133038Y0052161D01*
X0135048Y0052039D01*
X0135144Y0052000D01*
X0135700Y0052000D01*
X0136256Y0051966D01*
X0136353Y0052000D01*
X0138247Y0052000D01*
X0138344Y0051966D01*
X0138900Y0052000D01*
X0139456Y0052000D01*
X0139552Y0052039D01*
X0141683Y0052168D01*
X0141883Y0052125D01*
X0142333Y0052208D01*
X0142788Y0052235D01*
X0142973Y0052325D01*
X0145173Y0052728D01*
X0145377Y0052710D01*
X0145813Y0052846D01*
X0146263Y0052928D01*
X0146435Y0053039D01*
X0148571Y0053705D01*
X0148775Y0053711D01*
X0149192Y0053898D01*
X0149628Y0054034D01*
X0149786Y0054166D01*
X0151826Y0055084D01*
X0152028Y0055114D01*
X0152419Y0055351D01*
X0152836Y0055538D01*
X0152976Y0055688D01*
X0154891Y0056845D01*
X0155088Y0056900D01*
X0155448Y0057182D01*
X0155839Y0057418D01*
X0155960Y0057583D01*
X0157721Y0058963D01*
X0157910Y0059041D01*
X0158233Y0059364D01*
X0158593Y0059646D01*
X0158694Y0059824D01*
X0160276Y0061406D01*
X0160454Y0061507D01*
X0160736Y0061867D01*
X0161059Y0062190D01*
X0161137Y0062379D01*
X0162517Y0064140D01*
X0162682Y0064261D01*
X0162918Y0064652D01*
X0163200Y0065012D01*
X0163255Y0065209D01*
X0164412Y0067124D01*
X0164562Y0067264D01*
X0164749Y0067681D01*
X0164986Y0068072D01*
X0165016Y0068274D01*
X0165934Y0070314D01*
X0167383Y0074800D02*
X0210583Y0074800D01*
X0210000Y0079800D02*
X0168015Y0079800D01*
X0167800Y0077179D02*
X0167800Y0035100D01*
X0162800Y0035100D02*
X0162800Y0064456D01*
X0163034Y0064800D02*
X0214654Y0064800D01*
X0217800Y0060842D02*
X0217800Y0035100D01*
X0222800Y0035100D02*
X0222800Y0056654D01*
X0226115Y0054800D02*
X0151195Y0054800D01*
X0152800Y0055522D02*
X0152800Y0035100D01*
X0157800Y0035100D02*
X0157800Y0058995D01*
X0158680Y0059800D02*
X0218842Y0059800D01*
X0227800Y0053991D02*
X0227800Y0035100D01*
X0232800Y0035100D02*
X0232800Y0052583D01*
X0237800Y0052000D02*
X0237800Y0035100D01*
X0242800Y0035100D02*
X0242800Y0052085D01*
X0247800Y0052717D02*
X0247800Y0035100D01*
X0252800Y0035100D02*
X0252800Y0054397D01*
X0253695Y0054800D02*
X0299201Y0054800D01*
X0297800Y0052934D02*
X0297800Y0197666D01*
X0296680Y0197019D02*
X0299201Y0198475D01*
X0299201Y0052125D01*
X0296680Y0053581D01*
X0293464Y0054443D01*
X0290136Y0054443D01*
X0286920Y0053581D01*
X0284037Y0051917D01*
X0281683Y0049563D01*
X0280019Y0046680D01*
X0279157Y0043464D01*
X0279157Y0040136D01*
X0280019Y0036920D01*
X0281070Y0035100D01*
X0050030Y0035100D01*
X0051081Y0036920D01*
X0051943Y0040136D01*
X0051943Y0043464D01*
X0051081Y0046680D01*
X0049417Y0049563D01*
X0047063Y0051917D01*
X0044180Y0053581D01*
X0040964Y0054443D01*
X0037636Y0054443D01*
X0034420Y0053581D01*
X0031600Y0051953D01*
X0031600Y0198647D01*
X0034420Y0197019D01*
X0037636Y0196157D01*
X0040964Y0196157D01*
X0044180Y0197019D01*
X0047063Y0198683D01*
X0049417Y0201037D01*
X0051081Y0203920D01*
X0051943Y0207136D01*
X0051943Y0210464D01*
X0051081Y0213680D01*
X0049764Y0215961D01*
X0281336Y0215961D01*
X0280019Y0213680D01*
X0279157Y0210464D01*
X0279157Y0207136D01*
X0280019Y0203920D01*
X0281683Y0201037D01*
X0284037Y0198683D01*
X0286920Y0197019D01*
X0290136Y0196157D01*
X0293464Y0196157D01*
X0296680Y0197019D01*
X0299201Y0194800D02*
X0274967Y0194800D01*
X0272800Y0196967D02*
X0272800Y0215961D01*
X0277800Y0215961D02*
X0277800Y0191967D01*
X0282800Y0186967D02*
X0282800Y0199921D01*
X0282921Y0199800D02*
X0269967Y0199800D01*
X0267800Y0201967D02*
X0267800Y0215961D01*
X0262800Y0215961D02*
X0262800Y0206967D01*
X0264967Y0204800D02*
X0279783Y0204800D01*
X0279157Y0209800D02*
X0259967Y0209800D01*
X0257800Y0211967D02*
X0257800Y0215961D01*
X0252800Y0215961D02*
X0252800Y0213100D01*
X0247800Y0213100D02*
X0247800Y0215961D01*
X0242800Y0215961D02*
X0242800Y0213100D01*
X0237800Y0213100D02*
X0237800Y0215961D01*
X0232800Y0215961D02*
X0232800Y0213100D01*
X0227800Y0213100D02*
X0227800Y0215961D01*
X0222800Y0215961D02*
X0222800Y0213100D01*
X0217800Y0213100D02*
X0217800Y0215961D01*
X0212800Y0215961D02*
X0212800Y0213100D01*
X0207800Y0213100D02*
X0207800Y0215961D01*
X0202800Y0215961D02*
X0202800Y0213100D01*
X0197800Y0213100D02*
X0197800Y0215961D01*
X0192800Y0215961D02*
X0192800Y0213100D01*
X0187800Y0213100D02*
X0187800Y0215961D01*
X0182800Y0215961D02*
X0182800Y0213100D01*
X0177800Y0213100D02*
X0177800Y0215961D01*
X0172800Y0215961D02*
X0172800Y0213100D01*
X0167800Y0213100D02*
X0167800Y0215961D01*
X0162800Y0215961D02*
X0162800Y0213100D01*
X0157800Y0213100D02*
X0157800Y0215961D01*
X0152800Y0215961D02*
X0152800Y0213100D01*
X0147800Y0213100D02*
X0147800Y0215961D01*
X0142800Y0215961D02*
X0142800Y0213100D01*
X0137800Y0213100D02*
X0137800Y0215961D01*
X0132800Y0215961D02*
X0132800Y0213100D01*
X0127800Y0213100D02*
X0127800Y0215961D01*
X0122800Y0215961D02*
X0122800Y0213100D01*
X0117800Y0213100D02*
X0117800Y0215961D01*
X0112800Y0215961D02*
X0112800Y0213100D01*
X0107800Y0213100D02*
X0107800Y0215961D01*
X0102800Y0215961D02*
X0102800Y0213100D01*
X0097800Y0213100D02*
X0097800Y0215961D01*
X0092800Y0215961D02*
X0092800Y0213100D01*
X0087800Y0213100D02*
X0087800Y0215961D01*
X0082800Y0215961D02*
X0082800Y0209467D01*
X0083133Y0209800D02*
X0051943Y0209800D01*
X0051317Y0204800D02*
X0078133Y0204800D01*
X0077800Y0204467D02*
X0077800Y0215961D01*
X0072800Y0215961D02*
X0072800Y0199467D01*
X0073133Y0199800D02*
X0048179Y0199800D01*
X0047800Y0199421D02*
X0047800Y0188427D01*
X0046427Y0189800D02*
X0050588Y0189800D01*
X0052600Y0189800D02*
X0053000Y0189800D01*
X0053000Y0189900D02*
X0053000Y0185000D01*
X0057900Y0185000D01*
X0057900Y0186912D01*
X0054912Y0189900D01*
X0053000Y0189900D01*
X0055012Y0189800D02*
X0063133Y0189800D01*
X0062800Y0189467D02*
X0062800Y0215961D01*
X0067800Y0215961D02*
X0067800Y0194467D01*
X0068133Y0194800D02*
X0031600Y0194800D01*
X0032800Y0197954D02*
X0032800Y0154467D01*
X0033133Y0154800D02*
X0031600Y0154800D01*
X0035931Y0157598D02*
X0037144Y0158100D01*
X0037473Y0158100D01*
X0039173Y0159800D01*
X0037800Y0158427D02*
X0037800Y0161173D01*
X0036700Y0164800D02*
X0031600Y0164800D01*
X0036700Y0167327D02*
X0039173Y0169800D01*
X0037800Y0168427D02*
X0037800Y0171173D01*
X0036700Y0174800D02*
X0031600Y0174800D01*
X0036700Y0177327D02*
X0039173Y0179800D01*
X0037800Y0178427D02*
X0037800Y0181173D01*
X0036700Y0184800D02*
X0031600Y0184800D01*
X0037800Y0188427D02*
X0037800Y0196157D01*
X0042800Y0196649D02*
X0042800Y0190900D01*
X0039173Y0189800D02*
X0031600Y0189800D01*
X0052800Y0185000D02*
X0052800Y0215961D01*
X0050434Y0214800D02*
X0280666Y0214800D01*
X0287800Y0196783D02*
X0287800Y0184176D01*
X0288132Y0184039D02*
X0286295Y0184800D01*
X0284967Y0184800D01*
X0288132Y0184039D02*
X0289539Y0182632D01*
X0290300Y0180795D01*
X0290300Y0178805D01*
X0289539Y0176968D01*
X0288132Y0175561D01*
X0286295Y0174800D01*
X0299201Y0174800D01*
X0299201Y0179800D02*
X0290300Y0179800D01*
X0287800Y0175424D02*
X0287800Y0053817D01*
X0292800Y0054443D02*
X0292800Y0196157D01*
X0286295Y0174800D02*
X0284305Y0174800D01*
X0282800Y0175424D02*
X0282800Y0050679D01*
X0281921Y0049800D02*
X0049179Y0049800D01*
X0047800Y0051179D02*
X0047800Y0134000D01*
X0042800Y0134000D02*
X0042800Y0053951D01*
X0037800Y0054443D02*
X0037800Y0135133D01*
X0038133Y0134800D02*
X0031600Y0134800D01*
X0031600Y0129800D02*
X0062175Y0129800D01*
X0062800Y0127922D02*
X0062800Y0035100D01*
X0067800Y0035100D02*
X0067800Y0125425D01*
X0072800Y0127125D02*
X0072800Y0035100D01*
X0077800Y0035100D02*
X0077800Y0127125D01*
X0082800Y0127125D02*
X0082800Y0035100D01*
X0087800Y0035100D02*
X0087800Y0127125D01*
X0092800Y0127125D02*
X0092800Y0035100D01*
X0097800Y0035100D02*
X0097800Y0127125D01*
X0102800Y0127125D02*
X0102800Y0035100D01*
X0107800Y0035100D02*
X0107800Y0076284D01*
X0108083Y0074800D02*
X0031600Y0074800D01*
X0031600Y0069800D02*
X0109491Y0069800D01*
X0112154Y0064800D02*
X0031600Y0064800D01*
X0031600Y0059800D02*
X0116342Y0059800D01*
X0117800Y0058509D02*
X0117800Y0035100D01*
X0122800Y0035100D02*
X0122800Y0055143D01*
X0123615Y0054800D02*
X0031600Y0054800D01*
X0032800Y0052646D02*
X0032800Y0140133D01*
X0033133Y0139800D02*
X0031600Y0139800D01*
X0031600Y0144800D02*
X0032000Y0144800D01*
X0032000Y0149800D02*
X0031600Y0149800D01*
X0056427Y0149800D02*
X0058900Y0152273D01*
X0058900Y0157327D01*
X0056427Y0159800D01*
X0075633Y0159800D01*
X0077800Y0161967D02*
X0077800Y0195133D01*
X0077467Y0194800D02*
X0119286Y0194800D01*
X0117800Y0193591D02*
X0117800Y0206500D01*
X0122800Y0206500D02*
X0122800Y0196957D01*
X0127800Y0198901D02*
X0127800Y0206500D01*
X0132800Y0206500D02*
X0132800Y0199975D01*
X0132837Y0199982D02*
X0132388Y0199900D01*
X0131932Y0199872D01*
X0131748Y0199782D01*
X0132837Y0199982D02*
X0133038Y0199939D01*
X0135048Y0200061D01*
X0135144Y0200100D01*
X0135700Y0200100D01*
X0136256Y0200134D01*
X0136353Y0200100D01*
X0138247Y0200100D01*
X0138344Y0200134D01*
X0138900Y0200100D01*
X0139456Y0200100D01*
X0139552Y0200061D01*
X0141683Y0199932D01*
X0141883Y0199975D01*
X0142333Y0199892D01*
X0142788Y0199865D01*
X0142973Y0199775D01*
X0145173Y0199372D01*
X0145377Y0199390D01*
X0145813Y0199254D01*
X0146263Y0199172D01*
X0146435Y0199061D01*
X0148571Y0198395D01*
X0148775Y0198389D01*
X0149192Y0198202D01*
X0149628Y0198066D01*
X0149786Y0197934D01*
X0151826Y0197016D01*
X0152028Y0196986D01*
X0152419Y0196749D01*
X0152836Y0196562D01*
X0152976Y0196412D01*
X0154891Y0195255D01*
X0155088Y0195200D01*
X0155448Y0194918D01*
X0155839Y0194682D01*
X0155960Y0194517D01*
X0157721Y0193137D01*
X0157910Y0193059D01*
X0158234Y0192736D01*
X0158593Y0192454D01*
X0158694Y0192276D01*
X0160276Y0190694D01*
X0160454Y0190593D01*
X0160736Y0190233D01*
X0161059Y0189910D01*
X0161137Y0189721D01*
X0162517Y0187960D01*
X0162682Y0187839D01*
X0162918Y0187448D01*
X0163200Y0187088D01*
X0163255Y0186891D01*
X0164412Y0184976D01*
X0164562Y0184836D01*
X0164749Y0184419D01*
X0164986Y0184028D01*
X0165016Y0183826D01*
X0165934Y0181786D01*
X0166066Y0181628D01*
X0166202Y0181192D01*
X0166389Y0180775D01*
X0166395Y0180571D01*
X0167061Y0178435D01*
X0167172Y0178263D01*
X0167254Y0177813D01*
X0167390Y0177377D01*
X0167372Y0177173D01*
X0167775Y0174973D01*
X0167865Y0174788D01*
X0167892Y0174333D01*
X0167975Y0173883D01*
X0167932Y0173683D01*
X0168061Y0171552D01*
X0168100Y0171456D01*
X0168100Y0170900D01*
X0168134Y0170344D01*
X0168100Y0170247D01*
X0168100Y0170144D01*
X0167958Y0169800D01*
X0167859Y0174800D02*
X0189200Y0174800D01*
X0188424Y0179800D02*
X0166635Y0179800D01*
X0167800Y0174921D02*
X0167800Y0206500D01*
X0162800Y0206500D02*
X0162800Y0187644D01*
X0161105Y0189800D02*
X0204500Y0189800D01*
X0204500Y0184800D02*
X0197176Y0184800D01*
X0197176Y0179800D02*
X0202800Y0179800D01*
X0202800Y0180795D02*
X0202800Y0201305D01*
X0203561Y0199468D01*
X0204500Y0198529D01*
X0204500Y0183571D01*
X0203561Y0182632D01*
X0202800Y0180795D01*
X0202800Y0178805D01*
X0202800Y0128391D01*
X0201391Y0129800D02*
X0235924Y0129800D01*
X0237800Y0131676D02*
X0237800Y0139585D01*
X0235179Y0139800D02*
X0196400Y0139800D01*
X0197800Y0135631D02*
X0197800Y0206500D01*
X0202800Y0206500D02*
X0202800Y0203295D01*
X0202800Y0201305D01*
X0203424Y0199800D02*
X0142921Y0199800D01*
X0142800Y0199859D02*
X0142800Y0206500D01*
X0147800Y0206500D02*
X0147800Y0198635D01*
X0152800Y0196578D02*
X0152800Y0206500D01*
X0157800Y0206500D02*
X0157800Y0193105D01*
X0155644Y0194800D02*
X0204500Y0194800D01*
X0211100Y0194800D02*
X0221786Y0194800D01*
X0222800Y0195446D02*
X0222800Y0206500D01*
X0217800Y0206500D02*
X0217800Y0191258D01*
X0216509Y0189800D02*
X0211100Y0189800D01*
X0211100Y0184800D02*
X0213143Y0184800D01*
X0212800Y0183985D02*
X0212800Y0206500D01*
X0204929Y0206500D02*
X0203561Y0205132D01*
X0202800Y0203295D01*
X0203424Y0204800D02*
X0087467Y0204800D01*
X0087800Y0205133D02*
X0087800Y0172300D01*
X0083424Y0169800D02*
X0056427Y0169800D01*
X0058900Y0172273D01*
X0058900Y0176233D01*
X0089167Y0206500D01*
X0204929Y0206500D01*
X0192800Y0206500D02*
X0192800Y0187300D01*
X0188424Y0184800D02*
X0164578Y0184800D01*
X0187800Y0183295D02*
X0187800Y0181305D01*
X0192800Y0182300D02*
X0192800Y0133560D01*
X0194060Y0132300D01*
X0176560Y0149800D01*
X0167800Y0149800D01*
X0162800Y0149800D02*
X0161105Y0149800D01*
X0162800Y0148805D02*
X0163561Y0146968D01*
X0164968Y0145561D01*
X0166805Y0144800D01*
X0155644Y0144800D01*
X0157800Y0146495D02*
X0157800Y0133725D01*
X0152800Y0133725D02*
X0152800Y0143022D01*
X0147800Y0140965D02*
X0147800Y0133725D01*
X0142800Y0133725D02*
X0142800Y0139741D01*
X0142921Y0139800D02*
X0181469Y0139800D01*
X0182800Y0138469D02*
X0182800Y0112127D01*
X0183300Y0109800D02*
X0193424Y0109800D01*
X0192800Y0108295D02*
X0192800Y0106305D01*
X0192800Y0098295D01*
X0192800Y0096305D01*
X0192800Y0035100D01*
X0187800Y0035100D02*
X0187800Y0133469D01*
X0186469Y0134800D02*
X0069678Y0134800D01*
X0067800Y0135425D02*
X0067800Y0142633D01*
X0069967Y0144800D02*
X0119956Y0144800D01*
X0117800Y0146495D02*
X0117800Y0133725D01*
X0122800Y0133725D02*
X0122800Y0143022D01*
X0127800Y0140965D02*
X0127800Y0133725D01*
X0132800Y0133725D02*
X0132800Y0139741D01*
X0132679Y0139800D02*
X0064967Y0139800D01*
X0062800Y0137633D02*
X0062800Y0132928D01*
X0064672Y0134800D02*
X0059967Y0134800D01*
X0057800Y0134000D02*
X0057800Y0035100D01*
X0052800Y0035100D02*
X0052800Y0134000D01*
X0058900Y0143067D02*
X0058900Y0147327D01*
X0056427Y0149800D01*
X0065633Y0149800D01*
X0067800Y0151967D02*
X0067800Y0185133D01*
X0067467Y0184800D02*
X0110643Y0184800D01*
X0112800Y0188314D02*
X0112800Y0206500D01*
X0107800Y0206500D02*
X0107800Y0175816D01*
X0107625Y0174800D02*
X0058900Y0174800D01*
X0057800Y0171173D02*
X0057800Y0168427D01*
X0058900Y0167327D02*
X0056427Y0169800D01*
X0058900Y0167327D02*
X0058900Y0162273D01*
X0056427Y0159800D01*
X0057800Y0158427D02*
X0057800Y0161173D01*
X0058900Y0164800D02*
X0080633Y0164800D01*
X0082800Y0166967D02*
X0058900Y0143067D01*
X0058900Y0144800D02*
X0060633Y0144800D01*
X0062800Y0146967D02*
X0062800Y0180133D01*
X0062467Y0179800D02*
X0108699Y0179800D01*
X0107500Y0169800D02*
X0092176Y0169800D01*
X0092176Y0164800D02*
X0107741Y0164800D01*
X0107800Y0164679D02*
X0107800Y0133725D01*
X0112800Y0133725D02*
X0112800Y0151956D01*
X0114495Y0149800D02*
X0074967Y0149800D01*
X0072800Y0147633D02*
X0072800Y0133725D01*
X0077800Y0133725D02*
X0077800Y0152633D01*
X0079967Y0154800D02*
X0111022Y0154800D01*
X0108965Y0159800D02*
X0084967Y0159800D01*
X0082800Y0157633D02*
X0082800Y0133725D01*
X0087800Y0133725D02*
X0087800Y0162300D01*
X0082800Y0166967D02*
X0082800Y0168295D01*
X0072800Y0156967D02*
X0072800Y0190133D01*
X0072467Y0189800D02*
X0114009Y0189800D01*
X0137800Y0200100D02*
X0137800Y0206500D01*
X0102800Y0206500D02*
X0102800Y0133725D01*
X0097800Y0133725D02*
X0097800Y0206500D01*
X0092800Y0206500D02*
X0092800Y0133725D01*
X0107800Y0127125D02*
X0107800Y0087421D01*
X0108217Y0089800D02*
X0031600Y0089800D01*
X0031600Y0084800D02*
X0107585Y0084800D01*
X0107500Y0079800D02*
X0031600Y0079800D01*
X0031600Y0094800D02*
X0109897Y0094800D01*
X0112566Y0099800D02*
X0031600Y0099800D01*
X0031600Y0104800D02*
X0116920Y0104800D01*
X0117800Y0105605D02*
X0117800Y0127125D01*
X0122800Y0127125D02*
X0122800Y0109078D01*
X0124405Y0109800D02*
X0031600Y0109800D01*
X0031600Y0114800D02*
X0168758Y0114800D01*
X0167800Y0115758D02*
X0167800Y0087421D01*
X0167383Y0089800D02*
X0210717Y0089800D01*
X0210085Y0084800D02*
X0168015Y0084800D01*
X0165703Y0094800D02*
X0193424Y0094800D01*
X0193561Y0094468D02*
X0194968Y0093061D01*
X0196805Y0092300D01*
X0198795Y0092300D01*
X0200632Y0093061D01*
X0202039Y0094468D01*
X0202800Y0096305D01*
X0202800Y0098295D01*
X0202039Y0100132D01*
X0201400Y0100771D01*
X0201400Y0103829D01*
X0202039Y0104468D01*
X0202800Y0106305D01*
X0202800Y0108295D01*
X0202039Y0110132D01*
X0197800Y0112300D02*
X0197800Y0123209D01*
X0196209Y0124800D02*
X0168092Y0124800D01*
X0167800Y0125092D02*
X0167800Y0144800D01*
X0166805Y0144800D02*
X0168795Y0144800D01*
X0172800Y0146200D02*
X0172800Y0120092D01*
X0173092Y0119800D02*
X0201209Y0119800D01*
X0202800Y0118209D02*
X0202800Y0035100D01*
X0197800Y0035100D02*
X0197800Y0092300D01*
X0193561Y0094468D02*
X0192800Y0096305D01*
X0192800Y0098295D02*
X0193561Y0100132D01*
X0194200Y0100771D01*
X0194200Y0103829D01*
X0193561Y0104468D01*
X0192800Y0106305D01*
X0193424Y0104800D02*
X0158680Y0104800D01*
X0157800Y0105605D02*
X0157800Y0125758D01*
X0158758Y0124800D02*
X0031600Y0124800D01*
X0031600Y0119800D02*
X0163758Y0119800D01*
X0162800Y0120758D02*
X0162800Y0100144D01*
X0163034Y0099800D02*
X0193424Y0099800D01*
X0197800Y0097300D02*
X0197800Y0107300D01*
X0202176Y0104800D02*
X0219420Y0104800D01*
X0217800Y0103180D02*
X0217800Y0113700D01*
X0222800Y0112924D02*
X0222800Y0107534D01*
X0232800Y0111883D02*
X0232800Y0140217D01*
X0227800Y0141897D02*
X0227800Y0121676D01*
X0229676Y0119800D02*
X0263133Y0119800D01*
X0262800Y0120133D02*
X0262800Y0103180D01*
X0261180Y0104800D02*
X0276805Y0104800D01*
X0278795Y0104800D01*
X0280632Y0105561D01*
X0282039Y0106968D01*
X0282800Y0108805D01*
X0282800Y0110795D01*
X0276805Y0104800D02*
X0274968Y0105561D01*
X0273561Y0106968D01*
X0272800Y0108805D01*
X0272800Y0109800D02*
X0253695Y0109800D01*
X0252800Y0110203D02*
X0252800Y0124000D01*
X0257800Y0124000D02*
X0257800Y0107534D01*
X0247800Y0111883D02*
X0247800Y0124000D01*
X0242800Y0122924D02*
X0242800Y0112515D01*
X0237800Y0112515D02*
X0237800Y0122924D01*
X0235924Y0124800D02*
X0206391Y0124800D01*
X0207800Y0123391D02*
X0207800Y0174800D01*
X0208795Y0174800D02*
X0210125Y0174800D01*
X0210118Y0174763D02*
X0210161Y0174562D01*
X0210039Y0172552D01*
X0210000Y0172456D01*
X0210000Y0171900D01*
X0209966Y0171344D01*
X0210000Y0171247D01*
X0210000Y0169353D01*
X0209966Y0169256D01*
X0210000Y0168700D01*
X0210000Y0168144D01*
X0210039Y0168048D01*
X0210168Y0165917D01*
X0210125Y0165717D01*
X0210208Y0165267D01*
X0210235Y0164812D01*
X0210325Y0164627D01*
X0210728Y0162427D01*
X0210710Y0162223D01*
X0210846Y0161787D01*
X0210928Y0161337D01*
X0211039Y0161165D01*
X0211705Y0159029D01*
X0211711Y0158824D01*
X0211898Y0158408D01*
X0212034Y0157972D01*
X0212166Y0157814D01*
X0213084Y0155774D01*
X0213114Y0155572D01*
X0213351Y0155181D01*
X0213538Y0154764D01*
X0213688Y0154624D01*
X0214845Y0152709D01*
X0214900Y0152512D01*
X0215182Y0152152D01*
X0215418Y0151761D01*
X0215583Y0151640D01*
X0216963Y0149879D01*
X0217041Y0149690D01*
X0217364Y0149367D01*
X0217646Y0149007D01*
X0217824Y0148906D01*
X0219406Y0147324D01*
X0219507Y0147146D01*
X0219867Y0146864D01*
X0220190Y0146541D01*
X0220379Y0146463D01*
X0222140Y0145083D01*
X0222261Y0144918D01*
X0222800Y0144566D02*
X0222800Y0121676D01*
X0217800Y0120900D02*
X0217800Y0148920D01*
X0216995Y0149800D02*
X0196400Y0149800D01*
X0196400Y0154800D02*
X0213522Y0154800D01*
X0212800Y0156405D02*
X0212800Y0120900D01*
X0208800Y0117300D02*
X0225300Y0117300D01*
X0212800Y0113700D02*
X0212800Y0095695D01*
X0212397Y0094800D02*
X0202176Y0094800D01*
X0202176Y0099800D02*
X0215066Y0099800D01*
X0208800Y0117300D02*
X0194060Y0132040D01*
X0194060Y0132300D01*
X0198436Y0134800D02*
X0299201Y0134800D01*
X0299201Y0129800D02*
X0262467Y0129800D01*
X0262800Y0129467D02*
X0262800Y0148920D01*
X0263605Y0149800D02*
X0299201Y0149800D01*
X0299201Y0154800D02*
X0267078Y0154800D01*
X0267800Y0156405D02*
X0267800Y0124467D01*
X0267467Y0124800D02*
X0299201Y0124800D01*
X0299201Y0139800D02*
X0245421Y0139800D01*
X0247800Y0140217D02*
X0247800Y0130600D01*
X0242800Y0131676D02*
X0242800Y0139585D01*
X0252800Y0141897D02*
X0252800Y0130600D01*
X0257800Y0130600D02*
X0257800Y0144566D01*
X0258144Y0144800D02*
X0299201Y0144800D01*
X0299201Y0159800D02*
X0269135Y0159800D01*
X0252800Y0197703D02*
X0252800Y0206500D01*
X0227800Y0206500D02*
X0227800Y0198109D01*
X0202800Y0178805D02*
X0203561Y0176968D01*
X0204968Y0175561D01*
X0206805Y0174800D01*
X0196400Y0174800D01*
X0196400Y0169800D02*
X0210000Y0169800D01*
X0210118Y0174763D02*
X0210200Y0175212D01*
X0210211Y0175387D01*
X0208795Y0174800D01*
X0206805Y0174800D01*
X0210241Y0164800D02*
X0196400Y0164800D01*
X0196400Y0159800D02*
X0211465Y0159800D01*
X0189200Y0159800D02*
X0166635Y0159800D01*
X0172800Y0153400D02*
X0172800Y0206500D01*
X0177800Y0206500D02*
X0177800Y0153183D01*
X0152800Y0127125D02*
X0152800Y0109078D01*
X0151195Y0109800D02*
X0173300Y0109800D01*
X0172800Y0110758D02*
X0172800Y0035100D01*
X0177800Y0035100D02*
X0177800Y0104925D01*
X0182800Y0107723D02*
X0182800Y0035100D01*
X0147800Y0035100D02*
X0147800Y0053465D01*
X0142800Y0052241D02*
X0142800Y0035100D01*
X0137800Y0035100D02*
X0137800Y0052000D01*
X0132800Y0052125D02*
X0132800Y0035100D01*
X0127800Y0035100D02*
X0127800Y0053199D01*
X0112800Y0063786D02*
X0112800Y0035100D01*
X0051853Y0039800D02*
X0279247Y0039800D01*
X0279515Y0044800D02*
X0051585Y0044800D01*
X0112800Y0100144D02*
X0112800Y0127125D01*
X0127800Y0127125D02*
X0127800Y0111135D01*
X0132812Y0112365D02*
X0133268Y0112392D01*
X0133717Y0112475D01*
X0133917Y0112432D01*
X0136048Y0112561D01*
X0136144Y0112600D01*
X0136700Y0112600D01*
X0137256Y0112634D01*
X0137353Y0112600D01*
X0137456Y0112600D01*
X0137800Y0112458D01*
X0142800Y0112359D02*
X0142800Y0127125D01*
X0147800Y0127125D02*
X0147800Y0111135D01*
X0137800Y0133725D02*
X0137800Y0139500D01*
X0070633Y0154800D02*
X0058900Y0154800D01*
X0057800Y0151173D02*
X0057800Y0148427D01*
X0057800Y0184600D02*
X0057800Y0185000D01*
X0058133Y0184800D02*
X0053000Y0184800D01*
X0057800Y0187012D02*
X0057800Y0215961D01*
X0085002Y0211669D02*
X0085002Y0211669D01*
X0269883Y0089800D02*
X0299201Y0089800D01*
X0299201Y0084800D02*
X0270515Y0084800D01*
X0270515Y0079800D02*
X0299201Y0079800D01*
X0299201Y0074800D02*
X0269883Y0074800D01*
X0268203Y0069800D02*
X0299201Y0069800D01*
X0299201Y0064800D02*
X0265534Y0064800D01*
X0262800Y0061420D02*
X0262800Y0035100D01*
X0267800Y0035100D02*
X0267800Y0068905D01*
X0261180Y0059800D02*
X0299201Y0059800D01*
X0257800Y0057066D02*
X0257800Y0035100D01*
D15*
X0197800Y0097300D03*
X0197800Y0107300D03*
X0178300Y0109925D03*
X0194060Y0132300D03*
X0180300Y0137800D03*
X0167800Y0149800D03*
X0207800Y0179800D03*
X0192800Y0182300D03*
X0207800Y0202300D03*
X0285300Y0179800D03*
X0240300Y0127300D03*
X0225300Y0117300D03*
X0277800Y0109800D03*
X0292800Y0109800D03*
X0292800Y0123800D03*
X0087800Y0167300D03*
X0076800Y0184800D03*
X0067175Y0130425D03*
M02*
