%
M48
M72
T01C0.02400
T02C0.04000
T03C0.07300
T04C0.11811
%
T01
X152800Y93300
X178300Y109925
X197800Y107300
X197800Y97300
X225300Y117300
X240300Y127300
X277800Y109800
X292800Y109800
X292800Y123800
X255300Y93300
X194060Y132300
X180300Y137800
X167800Y149800
X148800Y154800
X87800Y167300
X76800Y184800
X67175Y130425
X192800Y182300
X207800Y179800
X207800Y202300
X251300Y154800
X285300Y179800
T02
X52800Y144800
X42800Y144800
X42800Y154800
X52800Y154800
X52800Y164800
X42800Y164800
X42800Y174800
X52800Y174800
X52800Y184800
X42800Y184800
T03
X137800Y82300
X240300Y82300
X240300Y169800
X137800Y169800
T04
X39300Y41800
X291800Y41800
X291800Y208800
X39300Y208800
M30
