G75*
%MOIN*%
%OFA0B0*%
%FSLAX25Y25*%
%IPPOS*%
%LPD*%
%AMOC8*
5,1,8,0,0,1.08239X$1,22.5*
%
%ADD10C,0.01000*%
%ADD11C,0.00000*%
%ADD12C,0.12611*%
%ADD13OC8,0.07400*%
%ADD14R,0.05918X0.07099*%
%ADD15R,0.06100X0.02800*%
%ADD16R,0.06312X0.06300*%
%ADD17C,0.08100*%
%ADD18R,0.06300X0.06312*%
%ADD19R,0.05918X0.06706*%
%ADD20C,0.05200*%
D10*
X0028300Y0031800D02*
X0028300Y0219261D01*
X0302501Y0219261D01*
X0302501Y0031800D01*
X0028300Y0031800D01*
D11*
X0033394Y0041800D02*
X0033396Y0041953D01*
X0033402Y0042107D01*
X0033412Y0042260D01*
X0033426Y0042412D01*
X0033444Y0042565D01*
X0033466Y0042716D01*
X0033491Y0042867D01*
X0033521Y0043018D01*
X0033555Y0043168D01*
X0033592Y0043316D01*
X0033633Y0043464D01*
X0033678Y0043610D01*
X0033727Y0043756D01*
X0033780Y0043900D01*
X0033836Y0044042D01*
X0033896Y0044183D01*
X0033960Y0044323D01*
X0034027Y0044461D01*
X0034098Y0044597D01*
X0034173Y0044731D01*
X0034250Y0044863D01*
X0034332Y0044993D01*
X0034416Y0045121D01*
X0034504Y0045247D01*
X0034595Y0045370D01*
X0034689Y0045491D01*
X0034787Y0045609D01*
X0034887Y0045725D01*
X0034991Y0045838D01*
X0035097Y0045949D01*
X0035206Y0046057D01*
X0035318Y0046162D01*
X0035432Y0046263D01*
X0035550Y0046362D01*
X0035669Y0046458D01*
X0035791Y0046551D01*
X0035916Y0046640D01*
X0036043Y0046727D01*
X0036172Y0046809D01*
X0036303Y0046889D01*
X0036436Y0046965D01*
X0036571Y0047038D01*
X0036708Y0047107D01*
X0036847Y0047172D01*
X0036987Y0047234D01*
X0037129Y0047292D01*
X0037272Y0047347D01*
X0037417Y0047398D01*
X0037563Y0047445D01*
X0037710Y0047488D01*
X0037858Y0047527D01*
X0038007Y0047563D01*
X0038157Y0047594D01*
X0038308Y0047622D01*
X0038459Y0047646D01*
X0038612Y0047666D01*
X0038764Y0047682D01*
X0038917Y0047694D01*
X0039070Y0047702D01*
X0039223Y0047706D01*
X0039377Y0047706D01*
X0039530Y0047702D01*
X0039683Y0047694D01*
X0039836Y0047682D01*
X0039988Y0047666D01*
X0040141Y0047646D01*
X0040292Y0047622D01*
X0040443Y0047594D01*
X0040593Y0047563D01*
X0040742Y0047527D01*
X0040890Y0047488D01*
X0041037Y0047445D01*
X0041183Y0047398D01*
X0041328Y0047347D01*
X0041471Y0047292D01*
X0041613Y0047234D01*
X0041753Y0047172D01*
X0041892Y0047107D01*
X0042029Y0047038D01*
X0042164Y0046965D01*
X0042297Y0046889D01*
X0042428Y0046809D01*
X0042557Y0046727D01*
X0042684Y0046640D01*
X0042809Y0046551D01*
X0042931Y0046458D01*
X0043050Y0046362D01*
X0043168Y0046263D01*
X0043282Y0046162D01*
X0043394Y0046057D01*
X0043503Y0045949D01*
X0043609Y0045838D01*
X0043713Y0045725D01*
X0043813Y0045609D01*
X0043911Y0045491D01*
X0044005Y0045370D01*
X0044096Y0045247D01*
X0044184Y0045121D01*
X0044268Y0044993D01*
X0044350Y0044863D01*
X0044427Y0044731D01*
X0044502Y0044597D01*
X0044573Y0044461D01*
X0044640Y0044323D01*
X0044704Y0044183D01*
X0044764Y0044042D01*
X0044820Y0043900D01*
X0044873Y0043756D01*
X0044922Y0043610D01*
X0044967Y0043464D01*
X0045008Y0043316D01*
X0045045Y0043168D01*
X0045079Y0043018D01*
X0045109Y0042867D01*
X0045134Y0042716D01*
X0045156Y0042565D01*
X0045174Y0042412D01*
X0045188Y0042260D01*
X0045198Y0042107D01*
X0045204Y0041953D01*
X0045206Y0041800D01*
X0045204Y0041647D01*
X0045198Y0041493D01*
X0045188Y0041340D01*
X0045174Y0041188D01*
X0045156Y0041035D01*
X0045134Y0040884D01*
X0045109Y0040733D01*
X0045079Y0040582D01*
X0045045Y0040432D01*
X0045008Y0040284D01*
X0044967Y0040136D01*
X0044922Y0039990D01*
X0044873Y0039844D01*
X0044820Y0039700D01*
X0044764Y0039558D01*
X0044704Y0039417D01*
X0044640Y0039277D01*
X0044573Y0039139D01*
X0044502Y0039003D01*
X0044427Y0038869D01*
X0044350Y0038737D01*
X0044268Y0038607D01*
X0044184Y0038479D01*
X0044096Y0038353D01*
X0044005Y0038230D01*
X0043911Y0038109D01*
X0043813Y0037991D01*
X0043713Y0037875D01*
X0043609Y0037762D01*
X0043503Y0037651D01*
X0043394Y0037543D01*
X0043282Y0037438D01*
X0043168Y0037337D01*
X0043050Y0037238D01*
X0042931Y0037142D01*
X0042809Y0037049D01*
X0042684Y0036960D01*
X0042557Y0036873D01*
X0042428Y0036791D01*
X0042297Y0036711D01*
X0042164Y0036635D01*
X0042029Y0036562D01*
X0041892Y0036493D01*
X0041753Y0036428D01*
X0041613Y0036366D01*
X0041471Y0036308D01*
X0041328Y0036253D01*
X0041183Y0036202D01*
X0041037Y0036155D01*
X0040890Y0036112D01*
X0040742Y0036073D01*
X0040593Y0036037D01*
X0040443Y0036006D01*
X0040292Y0035978D01*
X0040141Y0035954D01*
X0039988Y0035934D01*
X0039836Y0035918D01*
X0039683Y0035906D01*
X0039530Y0035898D01*
X0039377Y0035894D01*
X0039223Y0035894D01*
X0039070Y0035898D01*
X0038917Y0035906D01*
X0038764Y0035918D01*
X0038612Y0035934D01*
X0038459Y0035954D01*
X0038308Y0035978D01*
X0038157Y0036006D01*
X0038007Y0036037D01*
X0037858Y0036073D01*
X0037710Y0036112D01*
X0037563Y0036155D01*
X0037417Y0036202D01*
X0037272Y0036253D01*
X0037129Y0036308D01*
X0036987Y0036366D01*
X0036847Y0036428D01*
X0036708Y0036493D01*
X0036571Y0036562D01*
X0036436Y0036635D01*
X0036303Y0036711D01*
X0036172Y0036791D01*
X0036043Y0036873D01*
X0035916Y0036960D01*
X0035791Y0037049D01*
X0035669Y0037142D01*
X0035550Y0037238D01*
X0035432Y0037337D01*
X0035318Y0037438D01*
X0035206Y0037543D01*
X0035097Y0037651D01*
X0034991Y0037762D01*
X0034887Y0037875D01*
X0034787Y0037991D01*
X0034689Y0038109D01*
X0034595Y0038230D01*
X0034504Y0038353D01*
X0034416Y0038479D01*
X0034332Y0038607D01*
X0034250Y0038737D01*
X0034173Y0038869D01*
X0034098Y0039003D01*
X0034027Y0039139D01*
X0033960Y0039277D01*
X0033896Y0039417D01*
X0033836Y0039558D01*
X0033780Y0039700D01*
X0033727Y0039844D01*
X0033678Y0039990D01*
X0033633Y0040136D01*
X0033592Y0040284D01*
X0033555Y0040432D01*
X0033521Y0040582D01*
X0033491Y0040733D01*
X0033466Y0040884D01*
X0033444Y0041035D01*
X0033426Y0041188D01*
X0033412Y0041340D01*
X0033402Y0041493D01*
X0033396Y0041647D01*
X0033394Y0041800D01*
X0134150Y0082300D02*
X0134152Y0082421D01*
X0134158Y0082541D01*
X0134168Y0082662D01*
X0134182Y0082781D01*
X0134200Y0082901D01*
X0134222Y0083019D01*
X0134247Y0083137D01*
X0134277Y0083254D01*
X0134310Y0083370D01*
X0134348Y0083485D01*
X0134389Y0083599D01*
X0134434Y0083711D01*
X0134482Y0083821D01*
X0134534Y0083930D01*
X0134590Y0084037D01*
X0134649Y0084142D01*
X0134712Y0084246D01*
X0134778Y0084347D01*
X0134847Y0084445D01*
X0134920Y0084542D01*
X0134995Y0084636D01*
X0135074Y0084727D01*
X0135156Y0084816D01*
X0135240Y0084902D01*
X0135328Y0084985D01*
X0135418Y0085066D01*
X0135511Y0085143D01*
X0135606Y0085217D01*
X0135704Y0085288D01*
X0135804Y0085356D01*
X0135906Y0085420D01*
X0136010Y0085481D01*
X0136116Y0085538D01*
X0136224Y0085592D01*
X0136334Y0085643D01*
X0136445Y0085689D01*
X0136558Y0085732D01*
X0136672Y0085771D01*
X0136787Y0085807D01*
X0136904Y0085838D01*
X0137021Y0085866D01*
X0137140Y0085890D01*
X0137259Y0085910D01*
X0137378Y0085926D01*
X0137499Y0085938D01*
X0137619Y0085946D01*
X0137740Y0085950D01*
X0137860Y0085950D01*
X0137981Y0085946D01*
X0138101Y0085938D01*
X0138222Y0085926D01*
X0138341Y0085910D01*
X0138460Y0085890D01*
X0138579Y0085866D01*
X0138696Y0085838D01*
X0138813Y0085807D01*
X0138928Y0085771D01*
X0139042Y0085732D01*
X0139155Y0085689D01*
X0139266Y0085643D01*
X0139376Y0085592D01*
X0139484Y0085538D01*
X0139590Y0085481D01*
X0139694Y0085420D01*
X0139796Y0085356D01*
X0139896Y0085288D01*
X0139994Y0085217D01*
X0140089Y0085143D01*
X0140182Y0085066D01*
X0140272Y0084985D01*
X0140360Y0084902D01*
X0140444Y0084816D01*
X0140526Y0084727D01*
X0140605Y0084636D01*
X0140680Y0084542D01*
X0140753Y0084445D01*
X0140822Y0084347D01*
X0140888Y0084246D01*
X0140951Y0084142D01*
X0141010Y0084037D01*
X0141066Y0083930D01*
X0141118Y0083821D01*
X0141166Y0083711D01*
X0141211Y0083599D01*
X0141252Y0083485D01*
X0141290Y0083370D01*
X0141323Y0083254D01*
X0141353Y0083137D01*
X0141378Y0083019D01*
X0141400Y0082901D01*
X0141418Y0082781D01*
X0141432Y0082662D01*
X0141442Y0082541D01*
X0141448Y0082421D01*
X0141450Y0082300D01*
X0141448Y0082179D01*
X0141442Y0082059D01*
X0141432Y0081938D01*
X0141418Y0081819D01*
X0141400Y0081699D01*
X0141378Y0081581D01*
X0141353Y0081463D01*
X0141323Y0081346D01*
X0141290Y0081230D01*
X0141252Y0081115D01*
X0141211Y0081001D01*
X0141166Y0080889D01*
X0141118Y0080779D01*
X0141066Y0080670D01*
X0141010Y0080563D01*
X0140951Y0080458D01*
X0140888Y0080354D01*
X0140822Y0080253D01*
X0140753Y0080155D01*
X0140680Y0080058D01*
X0140605Y0079964D01*
X0140526Y0079873D01*
X0140444Y0079784D01*
X0140360Y0079698D01*
X0140272Y0079615D01*
X0140182Y0079534D01*
X0140089Y0079457D01*
X0139994Y0079383D01*
X0139896Y0079312D01*
X0139796Y0079244D01*
X0139694Y0079180D01*
X0139590Y0079119D01*
X0139484Y0079062D01*
X0139376Y0079008D01*
X0139266Y0078957D01*
X0139155Y0078911D01*
X0139042Y0078868D01*
X0138928Y0078829D01*
X0138813Y0078793D01*
X0138696Y0078762D01*
X0138579Y0078734D01*
X0138460Y0078710D01*
X0138341Y0078690D01*
X0138222Y0078674D01*
X0138101Y0078662D01*
X0137981Y0078654D01*
X0137860Y0078650D01*
X0137740Y0078650D01*
X0137619Y0078654D01*
X0137499Y0078662D01*
X0137378Y0078674D01*
X0137259Y0078690D01*
X0137140Y0078710D01*
X0137021Y0078734D01*
X0136904Y0078762D01*
X0136787Y0078793D01*
X0136672Y0078829D01*
X0136558Y0078868D01*
X0136445Y0078911D01*
X0136334Y0078957D01*
X0136224Y0079008D01*
X0136116Y0079062D01*
X0136010Y0079119D01*
X0135906Y0079180D01*
X0135804Y0079244D01*
X0135704Y0079312D01*
X0135606Y0079383D01*
X0135511Y0079457D01*
X0135418Y0079534D01*
X0135328Y0079615D01*
X0135240Y0079698D01*
X0135156Y0079784D01*
X0135074Y0079873D01*
X0134995Y0079964D01*
X0134920Y0080058D01*
X0134847Y0080155D01*
X0134778Y0080253D01*
X0134712Y0080354D01*
X0134649Y0080458D01*
X0134590Y0080563D01*
X0134534Y0080670D01*
X0134482Y0080779D01*
X0134434Y0080889D01*
X0134389Y0081001D01*
X0134348Y0081115D01*
X0134310Y0081230D01*
X0134277Y0081346D01*
X0134247Y0081463D01*
X0134222Y0081581D01*
X0134200Y0081699D01*
X0134182Y0081819D01*
X0134168Y0081938D01*
X0134158Y0082059D01*
X0134152Y0082179D01*
X0134150Y0082300D01*
X0236650Y0082300D02*
X0236652Y0082421D01*
X0236658Y0082541D01*
X0236668Y0082662D01*
X0236682Y0082781D01*
X0236700Y0082901D01*
X0236722Y0083019D01*
X0236747Y0083137D01*
X0236777Y0083254D01*
X0236810Y0083370D01*
X0236848Y0083485D01*
X0236889Y0083599D01*
X0236934Y0083711D01*
X0236982Y0083821D01*
X0237034Y0083930D01*
X0237090Y0084037D01*
X0237149Y0084142D01*
X0237212Y0084246D01*
X0237278Y0084347D01*
X0237347Y0084445D01*
X0237420Y0084542D01*
X0237495Y0084636D01*
X0237574Y0084727D01*
X0237656Y0084816D01*
X0237740Y0084902D01*
X0237828Y0084985D01*
X0237918Y0085066D01*
X0238011Y0085143D01*
X0238106Y0085217D01*
X0238204Y0085288D01*
X0238304Y0085356D01*
X0238406Y0085420D01*
X0238510Y0085481D01*
X0238616Y0085538D01*
X0238724Y0085592D01*
X0238834Y0085643D01*
X0238945Y0085689D01*
X0239058Y0085732D01*
X0239172Y0085771D01*
X0239287Y0085807D01*
X0239404Y0085838D01*
X0239521Y0085866D01*
X0239640Y0085890D01*
X0239759Y0085910D01*
X0239878Y0085926D01*
X0239999Y0085938D01*
X0240119Y0085946D01*
X0240240Y0085950D01*
X0240360Y0085950D01*
X0240481Y0085946D01*
X0240601Y0085938D01*
X0240722Y0085926D01*
X0240841Y0085910D01*
X0240960Y0085890D01*
X0241079Y0085866D01*
X0241196Y0085838D01*
X0241313Y0085807D01*
X0241428Y0085771D01*
X0241542Y0085732D01*
X0241655Y0085689D01*
X0241766Y0085643D01*
X0241876Y0085592D01*
X0241984Y0085538D01*
X0242090Y0085481D01*
X0242194Y0085420D01*
X0242296Y0085356D01*
X0242396Y0085288D01*
X0242494Y0085217D01*
X0242589Y0085143D01*
X0242682Y0085066D01*
X0242772Y0084985D01*
X0242860Y0084902D01*
X0242944Y0084816D01*
X0243026Y0084727D01*
X0243105Y0084636D01*
X0243180Y0084542D01*
X0243253Y0084445D01*
X0243322Y0084347D01*
X0243388Y0084246D01*
X0243451Y0084142D01*
X0243510Y0084037D01*
X0243566Y0083930D01*
X0243618Y0083821D01*
X0243666Y0083711D01*
X0243711Y0083599D01*
X0243752Y0083485D01*
X0243790Y0083370D01*
X0243823Y0083254D01*
X0243853Y0083137D01*
X0243878Y0083019D01*
X0243900Y0082901D01*
X0243918Y0082781D01*
X0243932Y0082662D01*
X0243942Y0082541D01*
X0243948Y0082421D01*
X0243950Y0082300D01*
X0243948Y0082179D01*
X0243942Y0082059D01*
X0243932Y0081938D01*
X0243918Y0081819D01*
X0243900Y0081699D01*
X0243878Y0081581D01*
X0243853Y0081463D01*
X0243823Y0081346D01*
X0243790Y0081230D01*
X0243752Y0081115D01*
X0243711Y0081001D01*
X0243666Y0080889D01*
X0243618Y0080779D01*
X0243566Y0080670D01*
X0243510Y0080563D01*
X0243451Y0080458D01*
X0243388Y0080354D01*
X0243322Y0080253D01*
X0243253Y0080155D01*
X0243180Y0080058D01*
X0243105Y0079964D01*
X0243026Y0079873D01*
X0242944Y0079784D01*
X0242860Y0079698D01*
X0242772Y0079615D01*
X0242682Y0079534D01*
X0242589Y0079457D01*
X0242494Y0079383D01*
X0242396Y0079312D01*
X0242296Y0079244D01*
X0242194Y0079180D01*
X0242090Y0079119D01*
X0241984Y0079062D01*
X0241876Y0079008D01*
X0241766Y0078957D01*
X0241655Y0078911D01*
X0241542Y0078868D01*
X0241428Y0078829D01*
X0241313Y0078793D01*
X0241196Y0078762D01*
X0241079Y0078734D01*
X0240960Y0078710D01*
X0240841Y0078690D01*
X0240722Y0078674D01*
X0240601Y0078662D01*
X0240481Y0078654D01*
X0240360Y0078650D01*
X0240240Y0078650D01*
X0240119Y0078654D01*
X0239999Y0078662D01*
X0239878Y0078674D01*
X0239759Y0078690D01*
X0239640Y0078710D01*
X0239521Y0078734D01*
X0239404Y0078762D01*
X0239287Y0078793D01*
X0239172Y0078829D01*
X0239058Y0078868D01*
X0238945Y0078911D01*
X0238834Y0078957D01*
X0238724Y0079008D01*
X0238616Y0079062D01*
X0238510Y0079119D01*
X0238406Y0079180D01*
X0238304Y0079244D01*
X0238204Y0079312D01*
X0238106Y0079383D01*
X0238011Y0079457D01*
X0237918Y0079534D01*
X0237828Y0079615D01*
X0237740Y0079698D01*
X0237656Y0079784D01*
X0237574Y0079873D01*
X0237495Y0079964D01*
X0237420Y0080058D01*
X0237347Y0080155D01*
X0237278Y0080253D01*
X0237212Y0080354D01*
X0237149Y0080458D01*
X0237090Y0080563D01*
X0237034Y0080670D01*
X0236982Y0080779D01*
X0236934Y0080889D01*
X0236889Y0081001D01*
X0236848Y0081115D01*
X0236810Y0081230D01*
X0236777Y0081346D01*
X0236747Y0081463D01*
X0236722Y0081581D01*
X0236700Y0081699D01*
X0236682Y0081819D01*
X0236668Y0081938D01*
X0236658Y0082059D01*
X0236652Y0082179D01*
X0236650Y0082300D01*
X0285894Y0041800D02*
X0285896Y0041953D01*
X0285902Y0042107D01*
X0285912Y0042260D01*
X0285926Y0042412D01*
X0285944Y0042565D01*
X0285966Y0042716D01*
X0285991Y0042867D01*
X0286021Y0043018D01*
X0286055Y0043168D01*
X0286092Y0043316D01*
X0286133Y0043464D01*
X0286178Y0043610D01*
X0286227Y0043756D01*
X0286280Y0043900D01*
X0286336Y0044042D01*
X0286396Y0044183D01*
X0286460Y0044323D01*
X0286527Y0044461D01*
X0286598Y0044597D01*
X0286673Y0044731D01*
X0286750Y0044863D01*
X0286832Y0044993D01*
X0286916Y0045121D01*
X0287004Y0045247D01*
X0287095Y0045370D01*
X0287189Y0045491D01*
X0287287Y0045609D01*
X0287387Y0045725D01*
X0287491Y0045838D01*
X0287597Y0045949D01*
X0287706Y0046057D01*
X0287818Y0046162D01*
X0287932Y0046263D01*
X0288050Y0046362D01*
X0288169Y0046458D01*
X0288291Y0046551D01*
X0288416Y0046640D01*
X0288543Y0046727D01*
X0288672Y0046809D01*
X0288803Y0046889D01*
X0288936Y0046965D01*
X0289071Y0047038D01*
X0289208Y0047107D01*
X0289347Y0047172D01*
X0289487Y0047234D01*
X0289629Y0047292D01*
X0289772Y0047347D01*
X0289917Y0047398D01*
X0290063Y0047445D01*
X0290210Y0047488D01*
X0290358Y0047527D01*
X0290507Y0047563D01*
X0290657Y0047594D01*
X0290808Y0047622D01*
X0290959Y0047646D01*
X0291112Y0047666D01*
X0291264Y0047682D01*
X0291417Y0047694D01*
X0291570Y0047702D01*
X0291723Y0047706D01*
X0291877Y0047706D01*
X0292030Y0047702D01*
X0292183Y0047694D01*
X0292336Y0047682D01*
X0292488Y0047666D01*
X0292641Y0047646D01*
X0292792Y0047622D01*
X0292943Y0047594D01*
X0293093Y0047563D01*
X0293242Y0047527D01*
X0293390Y0047488D01*
X0293537Y0047445D01*
X0293683Y0047398D01*
X0293828Y0047347D01*
X0293971Y0047292D01*
X0294113Y0047234D01*
X0294253Y0047172D01*
X0294392Y0047107D01*
X0294529Y0047038D01*
X0294664Y0046965D01*
X0294797Y0046889D01*
X0294928Y0046809D01*
X0295057Y0046727D01*
X0295184Y0046640D01*
X0295309Y0046551D01*
X0295431Y0046458D01*
X0295550Y0046362D01*
X0295668Y0046263D01*
X0295782Y0046162D01*
X0295894Y0046057D01*
X0296003Y0045949D01*
X0296109Y0045838D01*
X0296213Y0045725D01*
X0296313Y0045609D01*
X0296411Y0045491D01*
X0296505Y0045370D01*
X0296596Y0045247D01*
X0296684Y0045121D01*
X0296768Y0044993D01*
X0296850Y0044863D01*
X0296927Y0044731D01*
X0297002Y0044597D01*
X0297073Y0044461D01*
X0297140Y0044323D01*
X0297204Y0044183D01*
X0297264Y0044042D01*
X0297320Y0043900D01*
X0297373Y0043756D01*
X0297422Y0043610D01*
X0297467Y0043464D01*
X0297508Y0043316D01*
X0297545Y0043168D01*
X0297579Y0043018D01*
X0297609Y0042867D01*
X0297634Y0042716D01*
X0297656Y0042565D01*
X0297674Y0042412D01*
X0297688Y0042260D01*
X0297698Y0042107D01*
X0297704Y0041953D01*
X0297706Y0041800D01*
X0297704Y0041647D01*
X0297698Y0041493D01*
X0297688Y0041340D01*
X0297674Y0041188D01*
X0297656Y0041035D01*
X0297634Y0040884D01*
X0297609Y0040733D01*
X0297579Y0040582D01*
X0297545Y0040432D01*
X0297508Y0040284D01*
X0297467Y0040136D01*
X0297422Y0039990D01*
X0297373Y0039844D01*
X0297320Y0039700D01*
X0297264Y0039558D01*
X0297204Y0039417D01*
X0297140Y0039277D01*
X0297073Y0039139D01*
X0297002Y0039003D01*
X0296927Y0038869D01*
X0296850Y0038737D01*
X0296768Y0038607D01*
X0296684Y0038479D01*
X0296596Y0038353D01*
X0296505Y0038230D01*
X0296411Y0038109D01*
X0296313Y0037991D01*
X0296213Y0037875D01*
X0296109Y0037762D01*
X0296003Y0037651D01*
X0295894Y0037543D01*
X0295782Y0037438D01*
X0295668Y0037337D01*
X0295550Y0037238D01*
X0295431Y0037142D01*
X0295309Y0037049D01*
X0295184Y0036960D01*
X0295057Y0036873D01*
X0294928Y0036791D01*
X0294797Y0036711D01*
X0294664Y0036635D01*
X0294529Y0036562D01*
X0294392Y0036493D01*
X0294253Y0036428D01*
X0294113Y0036366D01*
X0293971Y0036308D01*
X0293828Y0036253D01*
X0293683Y0036202D01*
X0293537Y0036155D01*
X0293390Y0036112D01*
X0293242Y0036073D01*
X0293093Y0036037D01*
X0292943Y0036006D01*
X0292792Y0035978D01*
X0292641Y0035954D01*
X0292488Y0035934D01*
X0292336Y0035918D01*
X0292183Y0035906D01*
X0292030Y0035898D01*
X0291877Y0035894D01*
X0291723Y0035894D01*
X0291570Y0035898D01*
X0291417Y0035906D01*
X0291264Y0035918D01*
X0291112Y0035934D01*
X0290959Y0035954D01*
X0290808Y0035978D01*
X0290657Y0036006D01*
X0290507Y0036037D01*
X0290358Y0036073D01*
X0290210Y0036112D01*
X0290063Y0036155D01*
X0289917Y0036202D01*
X0289772Y0036253D01*
X0289629Y0036308D01*
X0289487Y0036366D01*
X0289347Y0036428D01*
X0289208Y0036493D01*
X0289071Y0036562D01*
X0288936Y0036635D01*
X0288803Y0036711D01*
X0288672Y0036791D01*
X0288543Y0036873D01*
X0288416Y0036960D01*
X0288291Y0037049D01*
X0288169Y0037142D01*
X0288050Y0037238D01*
X0287932Y0037337D01*
X0287818Y0037438D01*
X0287706Y0037543D01*
X0287597Y0037651D01*
X0287491Y0037762D01*
X0287387Y0037875D01*
X0287287Y0037991D01*
X0287189Y0038109D01*
X0287095Y0038230D01*
X0287004Y0038353D01*
X0286916Y0038479D01*
X0286832Y0038607D01*
X0286750Y0038737D01*
X0286673Y0038869D01*
X0286598Y0039003D01*
X0286527Y0039139D01*
X0286460Y0039277D01*
X0286396Y0039417D01*
X0286336Y0039558D01*
X0286280Y0039700D01*
X0286227Y0039844D01*
X0286178Y0039990D01*
X0286133Y0040136D01*
X0286092Y0040284D01*
X0286055Y0040432D01*
X0286021Y0040582D01*
X0285991Y0040733D01*
X0285966Y0040884D01*
X0285944Y0041035D01*
X0285926Y0041188D01*
X0285912Y0041340D01*
X0285902Y0041493D01*
X0285896Y0041647D01*
X0285894Y0041800D01*
X0236650Y0169800D02*
X0236652Y0169921D01*
X0236658Y0170041D01*
X0236668Y0170162D01*
X0236682Y0170281D01*
X0236700Y0170401D01*
X0236722Y0170519D01*
X0236747Y0170637D01*
X0236777Y0170754D01*
X0236810Y0170870D01*
X0236848Y0170985D01*
X0236889Y0171099D01*
X0236934Y0171211D01*
X0236982Y0171321D01*
X0237034Y0171430D01*
X0237090Y0171537D01*
X0237149Y0171642D01*
X0237212Y0171746D01*
X0237278Y0171847D01*
X0237347Y0171945D01*
X0237420Y0172042D01*
X0237495Y0172136D01*
X0237574Y0172227D01*
X0237656Y0172316D01*
X0237740Y0172402D01*
X0237828Y0172485D01*
X0237918Y0172566D01*
X0238011Y0172643D01*
X0238106Y0172717D01*
X0238204Y0172788D01*
X0238304Y0172856D01*
X0238406Y0172920D01*
X0238510Y0172981D01*
X0238616Y0173038D01*
X0238724Y0173092D01*
X0238834Y0173143D01*
X0238945Y0173189D01*
X0239058Y0173232D01*
X0239172Y0173271D01*
X0239287Y0173307D01*
X0239404Y0173338D01*
X0239521Y0173366D01*
X0239640Y0173390D01*
X0239759Y0173410D01*
X0239878Y0173426D01*
X0239999Y0173438D01*
X0240119Y0173446D01*
X0240240Y0173450D01*
X0240360Y0173450D01*
X0240481Y0173446D01*
X0240601Y0173438D01*
X0240722Y0173426D01*
X0240841Y0173410D01*
X0240960Y0173390D01*
X0241079Y0173366D01*
X0241196Y0173338D01*
X0241313Y0173307D01*
X0241428Y0173271D01*
X0241542Y0173232D01*
X0241655Y0173189D01*
X0241766Y0173143D01*
X0241876Y0173092D01*
X0241984Y0173038D01*
X0242090Y0172981D01*
X0242194Y0172920D01*
X0242296Y0172856D01*
X0242396Y0172788D01*
X0242494Y0172717D01*
X0242589Y0172643D01*
X0242682Y0172566D01*
X0242772Y0172485D01*
X0242860Y0172402D01*
X0242944Y0172316D01*
X0243026Y0172227D01*
X0243105Y0172136D01*
X0243180Y0172042D01*
X0243253Y0171945D01*
X0243322Y0171847D01*
X0243388Y0171746D01*
X0243451Y0171642D01*
X0243510Y0171537D01*
X0243566Y0171430D01*
X0243618Y0171321D01*
X0243666Y0171211D01*
X0243711Y0171099D01*
X0243752Y0170985D01*
X0243790Y0170870D01*
X0243823Y0170754D01*
X0243853Y0170637D01*
X0243878Y0170519D01*
X0243900Y0170401D01*
X0243918Y0170281D01*
X0243932Y0170162D01*
X0243942Y0170041D01*
X0243948Y0169921D01*
X0243950Y0169800D01*
X0243948Y0169679D01*
X0243942Y0169559D01*
X0243932Y0169438D01*
X0243918Y0169319D01*
X0243900Y0169199D01*
X0243878Y0169081D01*
X0243853Y0168963D01*
X0243823Y0168846D01*
X0243790Y0168730D01*
X0243752Y0168615D01*
X0243711Y0168501D01*
X0243666Y0168389D01*
X0243618Y0168279D01*
X0243566Y0168170D01*
X0243510Y0168063D01*
X0243451Y0167958D01*
X0243388Y0167854D01*
X0243322Y0167753D01*
X0243253Y0167655D01*
X0243180Y0167558D01*
X0243105Y0167464D01*
X0243026Y0167373D01*
X0242944Y0167284D01*
X0242860Y0167198D01*
X0242772Y0167115D01*
X0242682Y0167034D01*
X0242589Y0166957D01*
X0242494Y0166883D01*
X0242396Y0166812D01*
X0242296Y0166744D01*
X0242194Y0166680D01*
X0242090Y0166619D01*
X0241984Y0166562D01*
X0241876Y0166508D01*
X0241766Y0166457D01*
X0241655Y0166411D01*
X0241542Y0166368D01*
X0241428Y0166329D01*
X0241313Y0166293D01*
X0241196Y0166262D01*
X0241079Y0166234D01*
X0240960Y0166210D01*
X0240841Y0166190D01*
X0240722Y0166174D01*
X0240601Y0166162D01*
X0240481Y0166154D01*
X0240360Y0166150D01*
X0240240Y0166150D01*
X0240119Y0166154D01*
X0239999Y0166162D01*
X0239878Y0166174D01*
X0239759Y0166190D01*
X0239640Y0166210D01*
X0239521Y0166234D01*
X0239404Y0166262D01*
X0239287Y0166293D01*
X0239172Y0166329D01*
X0239058Y0166368D01*
X0238945Y0166411D01*
X0238834Y0166457D01*
X0238724Y0166508D01*
X0238616Y0166562D01*
X0238510Y0166619D01*
X0238406Y0166680D01*
X0238304Y0166744D01*
X0238204Y0166812D01*
X0238106Y0166883D01*
X0238011Y0166957D01*
X0237918Y0167034D01*
X0237828Y0167115D01*
X0237740Y0167198D01*
X0237656Y0167284D01*
X0237574Y0167373D01*
X0237495Y0167464D01*
X0237420Y0167558D01*
X0237347Y0167655D01*
X0237278Y0167753D01*
X0237212Y0167854D01*
X0237149Y0167958D01*
X0237090Y0168063D01*
X0237034Y0168170D01*
X0236982Y0168279D01*
X0236934Y0168389D01*
X0236889Y0168501D01*
X0236848Y0168615D01*
X0236810Y0168730D01*
X0236777Y0168846D01*
X0236747Y0168963D01*
X0236722Y0169081D01*
X0236700Y0169199D01*
X0236682Y0169319D01*
X0236668Y0169438D01*
X0236658Y0169559D01*
X0236652Y0169679D01*
X0236650Y0169800D01*
X0285894Y0208800D02*
X0285896Y0208953D01*
X0285902Y0209107D01*
X0285912Y0209260D01*
X0285926Y0209412D01*
X0285944Y0209565D01*
X0285966Y0209716D01*
X0285991Y0209867D01*
X0286021Y0210018D01*
X0286055Y0210168D01*
X0286092Y0210316D01*
X0286133Y0210464D01*
X0286178Y0210610D01*
X0286227Y0210756D01*
X0286280Y0210900D01*
X0286336Y0211042D01*
X0286396Y0211183D01*
X0286460Y0211323D01*
X0286527Y0211461D01*
X0286598Y0211597D01*
X0286673Y0211731D01*
X0286750Y0211863D01*
X0286832Y0211993D01*
X0286916Y0212121D01*
X0287004Y0212247D01*
X0287095Y0212370D01*
X0287189Y0212491D01*
X0287287Y0212609D01*
X0287387Y0212725D01*
X0287491Y0212838D01*
X0287597Y0212949D01*
X0287706Y0213057D01*
X0287818Y0213162D01*
X0287932Y0213263D01*
X0288050Y0213362D01*
X0288169Y0213458D01*
X0288291Y0213551D01*
X0288416Y0213640D01*
X0288543Y0213727D01*
X0288672Y0213809D01*
X0288803Y0213889D01*
X0288936Y0213965D01*
X0289071Y0214038D01*
X0289208Y0214107D01*
X0289347Y0214172D01*
X0289487Y0214234D01*
X0289629Y0214292D01*
X0289772Y0214347D01*
X0289917Y0214398D01*
X0290063Y0214445D01*
X0290210Y0214488D01*
X0290358Y0214527D01*
X0290507Y0214563D01*
X0290657Y0214594D01*
X0290808Y0214622D01*
X0290959Y0214646D01*
X0291112Y0214666D01*
X0291264Y0214682D01*
X0291417Y0214694D01*
X0291570Y0214702D01*
X0291723Y0214706D01*
X0291877Y0214706D01*
X0292030Y0214702D01*
X0292183Y0214694D01*
X0292336Y0214682D01*
X0292488Y0214666D01*
X0292641Y0214646D01*
X0292792Y0214622D01*
X0292943Y0214594D01*
X0293093Y0214563D01*
X0293242Y0214527D01*
X0293390Y0214488D01*
X0293537Y0214445D01*
X0293683Y0214398D01*
X0293828Y0214347D01*
X0293971Y0214292D01*
X0294113Y0214234D01*
X0294253Y0214172D01*
X0294392Y0214107D01*
X0294529Y0214038D01*
X0294664Y0213965D01*
X0294797Y0213889D01*
X0294928Y0213809D01*
X0295057Y0213727D01*
X0295184Y0213640D01*
X0295309Y0213551D01*
X0295431Y0213458D01*
X0295550Y0213362D01*
X0295668Y0213263D01*
X0295782Y0213162D01*
X0295894Y0213057D01*
X0296003Y0212949D01*
X0296109Y0212838D01*
X0296213Y0212725D01*
X0296313Y0212609D01*
X0296411Y0212491D01*
X0296505Y0212370D01*
X0296596Y0212247D01*
X0296684Y0212121D01*
X0296768Y0211993D01*
X0296850Y0211863D01*
X0296927Y0211731D01*
X0297002Y0211597D01*
X0297073Y0211461D01*
X0297140Y0211323D01*
X0297204Y0211183D01*
X0297264Y0211042D01*
X0297320Y0210900D01*
X0297373Y0210756D01*
X0297422Y0210610D01*
X0297467Y0210464D01*
X0297508Y0210316D01*
X0297545Y0210168D01*
X0297579Y0210018D01*
X0297609Y0209867D01*
X0297634Y0209716D01*
X0297656Y0209565D01*
X0297674Y0209412D01*
X0297688Y0209260D01*
X0297698Y0209107D01*
X0297704Y0208953D01*
X0297706Y0208800D01*
X0297704Y0208647D01*
X0297698Y0208493D01*
X0297688Y0208340D01*
X0297674Y0208188D01*
X0297656Y0208035D01*
X0297634Y0207884D01*
X0297609Y0207733D01*
X0297579Y0207582D01*
X0297545Y0207432D01*
X0297508Y0207284D01*
X0297467Y0207136D01*
X0297422Y0206990D01*
X0297373Y0206844D01*
X0297320Y0206700D01*
X0297264Y0206558D01*
X0297204Y0206417D01*
X0297140Y0206277D01*
X0297073Y0206139D01*
X0297002Y0206003D01*
X0296927Y0205869D01*
X0296850Y0205737D01*
X0296768Y0205607D01*
X0296684Y0205479D01*
X0296596Y0205353D01*
X0296505Y0205230D01*
X0296411Y0205109D01*
X0296313Y0204991D01*
X0296213Y0204875D01*
X0296109Y0204762D01*
X0296003Y0204651D01*
X0295894Y0204543D01*
X0295782Y0204438D01*
X0295668Y0204337D01*
X0295550Y0204238D01*
X0295431Y0204142D01*
X0295309Y0204049D01*
X0295184Y0203960D01*
X0295057Y0203873D01*
X0294928Y0203791D01*
X0294797Y0203711D01*
X0294664Y0203635D01*
X0294529Y0203562D01*
X0294392Y0203493D01*
X0294253Y0203428D01*
X0294113Y0203366D01*
X0293971Y0203308D01*
X0293828Y0203253D01*
X0293683Y0203202D01*
X0293537Y0203155D01*
X0293390Y0203112D01*
X0293242Y0203073D01*
X0293093Y0203037D01*
X0292943Y0203006D01*
X0292792Y0202978D01*
X0292641Y0202954D01*
X0292488Y0202934D01*
X0292336Y0202918D01*
X0292183Y0202906D01*
X0292030Y0202898D01*
X0291877Y0202894D01*
X0291723Y0202894D01*
X0291570Y0202898D01*
X0291417Y0202906D01*
X0291264Y0202918D01*
X0291112Y0202934D01*
X0290959Y0202954D01*
X0290808Y0202978D01*
X0290657Y0203006D01*
X0290507Y0203037D01*
X0290358Y0203073D01*
X0290210Y0203112D01*
X0290063Y0203155D01*
X0289917Y0203202D01*
X0289772Y0203253D01*
X0289629Y0203308D01*
X0289487Y0203366D01*
X0289347Y0203428D01*
X0289208Y0203493D01*
X0289071Y0203562D01*
X0288936Y0203635D01*
X0288803Y0203711D01*
X0288672Y0203791D01*
X0288543Y0203873D01*
X0288416Y0203960D01*
X0288291Y0204049D01*
X0288169Y0204142D01*
X0288050Y0204238D01*
X0287932Y0204337D01*
X0287818Y0204438D01*
X0287706Y0204543D01*
X0287597Y0204651D01*
X0287491Y0204762D01*
X0287387Y0204875D01*
X0287287Y0204991D01*
X0287189Y0205109D01*
X0287095Y0205230D01*
X0287004Y0205353D01*
X0286916Y0205479D01*
X0286832Y0205607D01*
X0286750Y0205737D01*
X0286673Y0205869D01*
X0286598Y0206003D01*
X0286527Y0206139D01*
X0286460Y0206277D01*
X0286396Y0206417D01*
X0286336Y0206558D01*
X0286280Y0206700D01*
X0286227Y0206844D01*
X0286178Y0206990D01*
X0286133Y0207136D01*
X0286092Y0207284D01*
X0286055Y0207432D01*
X0286021Y0207582D01*
X0285991Y0207733D01*
X0285966Y0207884D01*
X0285944Y0208035D01*
X0285926Y0208188D01*
X0285912Y0208340D01*
X0285902Y0208493D01*
X0285896Y0208647D01*
X0285894Y0208800D01*
X0134150Y0169800D02*
X0134152Y0169921D01*
X0134158Y0170041D01*
X0134168Y0170162D01*
X0134182Y0170281D01*
X0134200Y0170401D01*
X0134222Y0170519D01*
X0134247Y0170637D01*
X0134277Y0170754D01*
X0134310Y0170870D01*
X0134348Y0170985D01*
X0134389Y0171099D01*
X0134434Y0171211D01*
X0134482Y0171321D01*
X0134534Y0171430D01*
X0134590Y0171537D01*
X0134649Y0171642D01*
X0134712Y0171746D01*
X0134778Y0171847D01*
X0134847Y0171945D01*
X0134920Y0172042D01*
X0134995Y0172136D01*
X0135074Y0172227D01*
X0135156Y0172316D01*
X0135240Y0172402D01*
X0135328Y0172485D01*
X0135418Y0172566D01*
X0135511Y0172643D01*
X0135606Y0172717D01*
X0135704Y0172788D01*
X0135804Y0172856D01*
X0135906Y0172920D01*
X0136010Y0172981D01*
X0136116Y0173038D01*
X0136224Y0173092D01*
X0136334Y0173143D01*
X0136445Y0173189D01*
X0136558Y0173232D01*
X0136672Y0173271D01*
X0136787Y0173307D01*
X0136904Y0173338D01*
X0137021Y0173366D01*
X0137140Y0173390D01*
X0137259Y0173410D01*
X0137378Y0173426D01*
X0137499Y0173438D01*
X0137619Y0173446D01*
X0137740Y0173450D01*
X0137860Y0173450D01*
X0137981Y0173446D01*
X0138101Y0173438D01*
X0138222Y0173426D01*
X0138341Y0173410D01*
X0138460Y0173390D01*
X0138579Y0173366D01*
X0138696Y0173338D01*
X0138813Y0173307D01*
X0138928Y0173271D01*
X0139042Y0173232D01*
X0139155Y0173189D01*
X0139266Y0173143D01*
X0139376Y0173092D01*
X0139484Y0173038D01*
X0139590Y0172981D01*
X0139694Y0172920D01*
X0139796Y0172856D01*
X0139896Y0172788D01*
X0139994Y0172717D01*
X0140089Y0172643D01*
X0140182Y0172566D01*
X0140272Y0172485D01*
X0140360Y0172402D01*
X0140444Y0172316D01*
X0140526Y0172227D01*
X0140605Y0172136D01*
X0140680Y0172042D01*
X0140753Y0171945D01*
X0140822Y0171847D01*
X0140888Y0171746D01*
X0140951Y0171642D01*
X0141010Y0171537D01*
X0141066Y0171430D01*
X0141118Y0171321D01*
X0141166Y0171211D01*
X0141211Y0171099D01*
X0141252Y0170985D01*
X0141290Y0170870D01*
X0141323Y0170754D01*
X0141353Y0170637D01*
X0141378Y0170519D01*
X0141400Y0170401D01*
X0141418Y0170281D01*
X0141432Y0170162D01*
X0141442Y0170041D01*
X0141448Y0169921D01*
X0141450Y0169800D01*
X0141448Y0169679D01*
X0141442Y0169559D01*
X0141432Y0169438D01*
X0141418Y0169319D01*
X0141400Y0169199D01*
X0141378Y0169081D01*
X0141353Y0168963D01*
X0141323Y0168846D01*
X0141290Y0168730D01*
X0141252Y0168615D01*
X0141211Y0168501D01*
X0141166Y0168389D01*
X0141118Y0168279D01*
X0141066Y0168170D01*
X0141010Y0168063D01*
X0140951Y0167958D01*
X0140888Y0167854D01*
X0140822Y0167753D01*
X0140753Y0167655D01*
X0140680Y0167558D01*
X0140605Y0167464D01*
X0140526Y0167373D01*
X0140444Y0167284D01*
X0140360Y0167198D01*
X0140272Y0167115D01*
X0140182Y0167034D01*
X0140089Y0166957D01*
X0139994Y0166883D01*
X0139896Y0166812D01*
X0139796Y0166744D01*
X0139694Y0166680D01*
X0139590Y0166619D01*
X0139484Y0166562D01*
X0139376Y0166508D01*
X0139266Y0166457D01*
X0139155Y0166411D01*
X0139042Y0166368D01*
X0138928Y0166329D01*
X0138813Y0166293D01*
X0138696Y0166262D01*
X0138579Y0166234D01*
X0138460Y0166210D01*
X0138341Y0166190D01*
X0138222Y0166174D01*
X0138101Y0166162D01*
X0137981Y0166154D01*
X0137860Y0166150D01*
X0137740Y0166150D01*
X0137619Y0166154D01*
X0137499Y0166162D01*
X0137378Y0166174D01*
X0137259Y0166190D01*
X0137140Y0166210D01*
X0137021Y0166234D01*
X0136904Y0166262D01*
X0136787Y0166293D01*
X0136672Y0166329D01*
X0136558Y0166368D01*
X0136445Y0166411D01*
X0136334Y0166457D01*
X0136224Y0166508D01*
X0136116Y0166562D01*
X0136010Y0166619D01*
X0135906Y0166680D01*
X0135804Y0166744D01*
X0135704Y0166812D01*
X0135606Y0166883D01*
X0135511Y0166957D01*
X0135418Y0167034D01*
X0135328Y0167115D01*
X0135240Y0167198D01*
X0135156Y0167284D01*
X0135074Y0167373D01*
X0134995Y0167464D01*
X0134920Y0167558D01*
X0134847Y0167655D01*
X0134778Y0167753D01*
X0134712Y0167854D01*
X0134649Y0167958D01*
X0134590Y0168063D01*
X0134534Y0168170D01*
X0134482Y0168279D01*
X0134434Y0168389D01*
X0134389Y0168501D01*
X0134348Y0168615D01*
X0134310Y0168730D01*
X0134277Y0168846D01*
X0134247Y0168963D01*
X0134222Y0169081D01*
X0134200Y0169199D01*
X0134182Y0169319D01*
X0134168Y0169438D01*
X0134158Y0169559D01*
X0134152Y0169679D01*
X0134150Y0169800D01*
X0033394Y0208800D02*
X0033396Y0208953D01*
X0033402Y0209107D01*
X0033412Y0209260D01*
X0033426Y0209412D01*
X0033444Y0209565D01*
X0033466Y0209716D01*
X0033491Y0209867D01*
X0033521Y0210018D01*
X0033555Y0210168D01*
X0033592Y0210316D01*
X0033633Y0210464D01*
X0033678Y0210610D01*
X0033727Y0210756D01*
X0033780Y0210900D01*
X0033836Y0211042D01*
X0033896Y0211183D01*
X0033960Y0211323D01*
X0034027Y0211461D01*
X0034098Y0211597D01*
X0034173Y0211731D01*
X0034250Y0211863D01*
X0034332Y0211993D01*
X0034416Y0212121D01*
X0034504Y0212247D01*
X0034595Y0212370D01*
X0034689Y0212491D01*
X0034787Y0212609D01*
X0034887Y0212725D01*
X0034991Y0212838D01*
X0035097Y0212949D01*
X0035206Y0213057D01*
X0035318Y0213162D01*
X0035432Y0213263D01*
X0035550Y0213362D01*
X0035669Y0213458D01*
X0035791Y0213551D01*
X0035916Y0213640D01*
X0036043Y0213727D01*
X0036172Y0213809D01*
X0036303Y0213889D01*
X0036436Y0213965D01*
X0036571Y0214038D01*
X0036708Y0214107D01*
X0036847Y0214172D01*
X0036987Y0214234D01*
X0037129Y0214292D01*
X0037272Y0214347D01*
X0037417Y0214398D01*
X0037563Y0214445D01*
X0037710Y0214488D01*
X0037858Y0214527D01*
X0038007Y0214563D01*
X0038157Y0214594D01*
X0038308Y0214622D01*
X0038459Y0214646D01*
X0038612Y0214666D01*
X0038764Y0214682D01*
X0038917Y0214694D01*
X0039070Y0214702D01*
X0039223Y0214706D01*
X0039377Y0214706D01*
X0039530Y0214702D01*
X0039683Y0214694D01*
X0039836Y0214682D01*
X0039988Y0214666D01*
X0040141Y0214646D01*
X0040292Y0214622D01*
X0040443Y0214594D01*
X0040593Y0214563D01*
X0040742Y0214527D01*
X0040890Y0214488D01*
X0041037Y0214445D01*
X0041183Y0214398D01*
X0041328Y0214347D01*
X0041471Y0214292D01*
X0041613Y0214234D01*
X0041753Y0214172D01*
X0041892Y0214107D01*
X0042029Y0214038D01*
X0042164Y0213965D01*
X0042297Y0213889D01*
X0042428Y0213809D01*
X0042557Y0213727D01*
X0042684Y0213640D01*
X0042809Y0213551D01*
X0042931Y0213458D01*
X0043050Y0213362D01*
X0043168Y0213263D01*
X0043282Y0213162D01*
X0043394Y0213057D01*
X0043503Y0212949D01*
X0043609Y0212838D01*
X0043713Y0212725D01*
X0043813Y0212609D01*
X0043911Y0212491D01*
X0044005Y0212370D01*
X0044096Y0212247D01*
X0044184Y0212121D01*
X0044268Y0211993D01*
X0044350Y0211863D01*
X0044427Y0211731D01*
X0044502Y0211597D01*
X0044573Y0211461D01*
X0044640Y0211323D01*
X0044704Y0211183D01*
X0044764Y0211042D01*
X0044820Y0210900D01*
X0044873Y0210756D01*
X0044922Y0210610D01*
X0044967Y0210464D01*
X0045008Y0210316D01*
X0045045Y0210168D01*
X0045079Y0210018D01*
X0045109Y0209867D01*
X0045134Y0209716D01*
X0045156Y0209565D01*
X0045174Y0209412D01*
X0045188Y0209260D01*
X0045198Y0209107D01*
X0045204Y0208953D01*
X0045206Y0208800D01*
X0045204Y0208647D01*
X0045198Y0208493D01*
X0045188Y0208340D01*
X0045174Y0208188D01*
X0045156Y0208035D01*
X0045134Y0207884D01*
X0045109Y0207733D01*
X0045079Y0207582D01*
X0045045Y0207432D01*
X0045008Y0207284D01*
X0044967Y0207136D01*
X0044922Y0206990D01*
X0044873Y0206844D01*
X0044820Y0206700D01*
X0044764Y0206558D01*
X0044704Y0206417D01*
X0044640Y0206277D01*
X0044573Y0206139D01*
X0044502Y0206003D01*
X0044427Y0205869D01*
X0044350Y0205737D01*
X0044268Y0205607D01*
X0044184Y0205479D01*
X0044096Y0205353D01*
X0044005Y0205230D01*
X0043911Y0205109D01*
X0043813Y0204991D01*
X0043713Y0204875D01*
X0043609Y0204762D01*
X0043503Y0204651D01*
X0043394Y0204543D01*
X0043282Y0204438D01*
X0043168Y0204337D01*
X0043050Y0204238D01*
X0042931Y0204142D01*
X0042809Y0204049D01*
X0042684Y0203960D01*
X0042557Y0203873D01*
X0042428Y0203791D01*
X0042297Y0203711D01*
X0042164Y0203635D01*
X0042029Y0203562D01*
X0041892Y0203493D01*
X0041753Y0203428D01*
X0041613Y0203366D01*
X0041471Y0203308D01*
X0041328Y0203253D01*
X0041183Y0203202D01*
X0041037Y0203155D01*
X0040890Y0203112D01*
X0040742Y0203073D01*
X0040593Y0203037D01*
X0040443Y0203006D01*
X0040292Y0202978D01*
X0040141Y0202954D01*
X0039988Y0202934D01*
X0039836Y0202918D01*
X0039683Y0202906D01*
X0039530Y0202898D01*
X0039377Y0202894D01*
X0039223Y0202894D01*
X0039070Y0202898D01*
X0038917Y0202906D01*
X0038764Y0202918D01*
X0038612Y0202934D01*
X0038459Y0202954D01*
X0038308Y0202978D01*
X0038157Y0203006D01*
X0038007Y0203037D01*
X0037858Y0203073D01*
X0037710Y0203112D01*
X0037563Y0203155D01*
X0037417Y0203202D01*
X0037272Y0203253D01*
X0037129Y0203308D01*
X0036987Y0203366D01*
X0036847Y0203428D01*
X0036708Y0203493D01*
X0036571Y0203562D01*
X0036436Y0203635D01*
X0036303Y0203711D01*
X0036172Y0203791D01*
X0036043Y0203873D01*
X0035916Y0203960D01*
X0035791Y0204049D01*
X0035669Y0204142D01*
X0035550Y0204238D01*
X0035432Y0204337D01*
X0035318Y0204438D01*
X0035206Y0204543D01*
X0035097Y0204651D01*
X0034991Y0204762D01*
X0034887Y0204875D01*
X0034787Y0204991D01*
X0034689Y0205109D01*
X0034595Y0205230D01*
X0034504Y0205353D01*
X0034416Y0205479D01*
X0034332Y0205607D01*
X0034250Y0205737D01*
X0034173Y0205869D01*
X0034098Y0206003D01*
X0034027Y0206139D01*
X0033960Y0206277D01*
X0033896Y0206417D01*
X0033836Y0206558D01*
X0033780Y0206700D01*
X0033727Y0206844D01*
X0033678Y0206990D01*
X0033633Y0207136D01*
X0033592Y0207284D01*
X0033555Y0207432D01*
X0033521Y0207582D01*
X0033491Y0207733D01*
X0033466Y0207884D01*
X0033444Y0208035D01*
X0033426Y0208188D01*
X0033412Y0208340D01*
X0033402Y0208493D01*
X0033396Y0208647D01*
X0033394Y0208800D01*
D12*
X0039300Y0208800D03*
X0039300Y0041800D03*
X0291800Y0041800D03*
X0291800Y0208800D03*
D13*
X0052800Y0184800D03*
X0042800Y0184800D03*
X0042800Y0174800D03*
X0052800Y0174800D03*
X0052800Y0164800D03*
X0042800Y0164800D03*
X0042800Y0154800D03*
X0052800Y0154800D03*
X0052800Y0144800D03*
X0042800Y0144800D03*
D14*
X0164363Y0117800D03*
X0172237Y0117800D03*
X0184363Y0117800D03*
X0192237Y0117800D03*
X0196363Y0147300D03*
X0204237Y0147300D03*
X0184237Y0147300D03*
X0176363Y0147300D03*
X0257363Y0132300D03*
X0265237Y0132300D03*
X0278863Y0132300D03*
X0286737Y0132300D03*
X0286737Y0117800D03*
X0278863Y0117800D03*
X0265237Y0117800D03*
X0257363Y0117800D03*
D15*
X0275181Y0103540D03*
X0275181Y0099800D03*
X0275181Y0096060D03*
X0285419Y0096060D03*
X0285419Y0099800D03*
X0285419Y0103540D03*
X0285419Y0146060D03*
X0285419Y0149800D03*
X0285419Y0153540D03*
X0275181Y0153540D03*
X0275181Y0149800D03*
X0275181Y0146060D03*
X0212919Y0133540D03*
X0212919Y0129800D03*
X0212919Y0126060D03*
X0202681Y0126060D03*
X0202681Y0129800D03*
X0202681Y0133540D03*
X0187919Y0103540D03*
X0187919Y0099800D03*
X0187919Y0096060D03*
X0177681Y0096060D03*
X0177681Y0099800D03*
X0177681Y0103540D03*
D16*
X0137800Y0089200D03*
X0137800Y0075394D03*
X0240300Y0075394D03*
X0240300Y0089200D03*
D17*
X0240300Y0082300D03*
X0137800Y0082300D03*
X0137800Y0169800D03*
X0240300Y0169800D03*
D18*
X0247200Y0169800D03*
X0233394Y0169800D03*
X0144700Y0169800D03*
X0130894Y0169800D03*
D19*
X0174060Y0189800D03*
X0181540Y0189800D03*
X0196560Y0189800D03*
X0204040Y0189800D03*
X0204040Y0062300D03*
X0196560Y0062300D03*
X0181540Y0062300D03*
X0174060Y0062300D03*
D20*
X0197800Y0097300D03*
X0197800Y0107300D03*
X0178300Y0109925D03*
X0194060Y0132300D03*
X0180300Y0137800D03*
X0167800Y0149800D03*
X0207800Y0179800D03*
X0192800Y0182300D03*
X0207800Y0202300D03*
X0285300Y0179800D03*
X0240300Y0127300D03*
X0225300Y0117300D03*
X0277800Y0109800D03*
X0292800Y0109800D03*
X0292800Y0123800D03*
X0087800Y0167300D03*
X0076800Y0184800D03*
X0067175Y0130425D03*
M02*
